<svg width="48" height="48" viewBox="0 0 48 48" fill="none" xmlns="http://www.w3.org/2000/svg">
<path d="M0.554739 10.0885C0.247287 7.90087 1.77148 5.8782 3.95912 5.57075L37.6282 0.838863C39.8159 0.53141 41.8385 2.0556 42.146 4.24324L46.8779 37.9124C47.1853 40.1 45.6611 42.1227 43.4735 42.4301L9.80439 47.162C7.61675 47.4695 5.59408 45.9453 5.28662 43.7576L0.554739 10.0885Z" fill="#FFF7EB"/>
<path d="M26.4802 34.5549C26.1926 34.6056 25.917 34.5308 25.7143 34.3487C25.5138 34.1794 25.3391 33.8585 25.4364 33.4424C25.4608 33.3279 25.5098 33.2037 25.5917 33.0581C25.7167 32.8444 25.8903 32.5934 26.1133 32.31C26.2476 32.1341 26.3667 31.9162 26.4738 31.6454L26.661 30.9956C26.8357 30.1853 26.8342 29.2985 26.8039 28.6949C26.7733 28.0599 26.6986 27.4432 26.6162 26.946C26.4409 27.0084 26.2603 27.056 26.0745 27.0887C25.993 27.1031 25.9137 27.1144 25.8283 27.1216C25.155 27.1879 24.4952 27.0627 23.9186 26.755C23.8138 26.7262 23.7211 26.7216 23.6422 26.7355C23.5761 26.7471 23.4688 26.7792 23.3308 26.919C23.226 27.0241 23.149 27.1531 23.1018 27.2428L23.0414 27.3768C23.0286 27.408 23.0101 27.4375 22.9943 27.4665C22.679 28.0155 22.2903 28.4305 21.8348 28.705C21.5609 28.8635 21.2822 28.9652 20.9997 29.015C20.7961 29.0509 20.5905 29.0609 20.3902 29.0411C19.9308 28.9961 19.5029 28.817 19.145 28.5284C18.7857 28.2322 18.5207 27.8459 18.3725 27.4075C18.1934 26.8826 18.1951 26.3417 18.3737 25.8063C18.4026 25.7172 18.4366 25.6272 18.4777 25.5334C18.2993 25.1764 18.2115 24.7824 18.2204 24.3714C18.2423 23.6773 18.5335 23.0512 19.063 22.5563C19.0992 22.5236 19.135 22.4885 19.1738 22.4554C18.7543 22.4427 18.3446 22.3969 17.9742 22.3205C17.4761 22.2193 17.0612 22.0694 16.7386 21.8769C16.1424 21.5175 15.9504 21.0685 15.8952 20.7554C15.84 20.4423 15.8673 19.9572 16.3046 19.4155C16.5466 19.1209 16.8851 18.8381 17.314 18.5762C18.0745 18.1114 19.0942 17.7321 20.0386 17.5656C20.7411 17.4417 21.3648 17.4367 21.9052 17.554C21.8515 16.9074 22.0196 16.1638 22.4087 15.3341C22.8212 14.4583 23.4409 13.5669 24.0665 12.9474C24.6189 12.4038 25.151 12.0869 25.6473 11.9994C25.9655 11.9433 26.2633 11.98 26.5382 12.11C26.8237 12.2408 27.2102 12.5427 27.4087 13.2216C27.5155 13.6043 27.5536 14.0437 27.5281 14.539C27.4793 15.4531 27.208 16.5193 26.8002 17.3917C26.3732 18.3042 25.8298 18.9433 25.188 19.2927C25.1829 19.2936 25.1787 19.2995 25.1711 19.3009C25.4874 19.5916 25.8016 19.9298 26.1082 20.3141C26.8121 21.1952 27.4932 22.3191 28.1325 23.6525C28.1593 23.7003 28.1814 23.7515 28.2036 23.8027L28.2287 23.856C29.3829 26.3085 30.1957 28.9682 30.542 30.5002L30.6701 31.1522C30.6871 31.2489 30.698 31.3257 30.7072 31.3923C30.7341 31.6343 30.7831 32.1059 30.4062 32.4244C30.2894 32.5211 30.149 32.5878 30.0013 32.6139C29.8461 32.6412 29.6857 32.6249 29.5364 32.5672C29.4882 32.5469 29.3696 32.4995 29.3348 32.4952C29.3348 32.4952 29.1949 32.5356 28.8173 32.9092C28.5865 33.1337 28.1178 33.5417 27.6596 33.8902C27.4103 34.0838 27.1903 34.2354 27.0073 34.3438C26.8809 34.416 26.7671 34.4702 26.6536 34.5112C26.5842 34.5339 26.5316 34.5484 26.4807 34.5574L26.4802 34.5549ZM24.0732 23.9404C23.6736 24.0109 23.2569 24.1185 22.8388 24.2631C20.9179 24.9194 19.6825 26.04 19.9631 26.8724C20.0588 27.1469 20.2875 27.3427 20.5496 27.37C20.6002 27.3742 20.6575 27.372 20.711 27.3626C20.991 27.3132 21.2743 27.0743 21.5077 26.6867C21.5701 26.534 21.7583 26.1281 22.1156 25.758C22.4043 25.4604 22.7305 25.2559 23.0889 25.1455C23.1711 25.1205 23.2614 25.0967 23.3505 25.081C23.7247 25.015 24.1138 25.0487 24.5068 25.1789L24.529 25.1855L24.5516 25.1946C24.5742 25.2038 24.6164 25.2199 24.6694 25.2526C25.0009 25.4356 25.3979 25.4994 25.7823 25.4317C26.0547 25.3836 26.3031 25.2742 26.484 25.1242C26.7893 24.8762 26.741 24.6616 26.7125 24.5748C26.7107 24.5646 26.7038 24.5553 26.702 24.5451L26.6865 24.5164L26.6824 24.4934L26.6517 24.4385C26.4503 24.0698 25.9662 23.9295 25.5948 23.8769C25.1642 23.8163 24.6379 23.8383 24.0728 23.9379L24.0732 23.9404ZM23.1869 21.2806C23.3076 21.2803 23.4287 21.2826 23.5529 21.2869C23.7692 21.2934 23.9737 21.3072 24.1639 21.3288C23.9943 21.0962 23.8133 20.8736 23.623 20.6578C23.5155 20.8815 23.3687 21.0911 23.1865 21.278L23.1869 21.2806ZM17.6342 20.4514C17.7948 20.5438 18.0314 20.6202 18.3064 20.6767C18.9923 20.8156 19.843 20.8178 20.5888 20.6863C21.2201 20.575 21.7069 20.3736 21.9667 20.1205C22.1591 19.9317 22.1611 19.7791 22.1395 19.657C22.118 19.5348 22.0614 19.3925 21.8186 19.2805C21.4904 19.131 20.9616 19.1088 20.3303 19.2201C19.5845 19.3516 18.7837 19.6477 18.1888 20.0098C17.869 20.2053 17.7081 20.3649 17.6316 20.4518L17.6342 20.4514ZM25.8014 13.7071C25.6885 13.7663 25.5057 13.8904 25.251 14.1427C24.7567 14.6288 24.2628 15.3405 23.9307 16.0473C23.565 16.8309 23.5603 17.2806 23.5877 17.4804C23.62 17.6637 23.6971 17.7735 23.8541 17.8455C23.9655 17.8967 24.0681 17.9128 24.1775 17.8935C24.2437 17.8818 24.3153 17.8561 24.3846 17.8176C24.6962 17.6498 25.0132 17.2448 25.2833 16.6776C25.602 15.9993 25.8147 15.1666 25.8518 14.4541C25.8688 14.0889 25.8372 13.8504 25.7998 13.7126L25.8014 13.7071Z" fill="#333333"/>
</svg>
