<svg width="73" height="74" viewBox="0 0 73 74" fill="none" xmlns="http://www.w3.org/2000/svg">
<path d="M3.02061 18.2459C2.40571 13.8706 5.45409 9.82525 9.82937 9.21035L55.9264 2.73183C60.3017 2.11692 64.347 5.16531 64.9619 9.54059L71.5288 56.2666C72.1437 60.6418 69.0954 64.6872 64.7201 65.3021L18.623 71.7806C14.2478 72.3955 10.2024 69.3471 9.58752 64.9718L3.02061 18.2459Z" fill="#FFF7EB"/>
<path d="M36.7062 40.6358C39.2653 40.1846 40.9741 37.7442 40.5228 35.1851C40.0716 32.626 37.6312 30.9173 35.0721 31.3685C32.513 31.8197 30.8043 34.2601 31.2555 36.8192C31.7068 39.3783 34.1471 41.0871 36.7062 40.6358Z" fill="#333333"/>
<path d="M57.1796 55.075L41.3732 57.8621L39.9486 49.7829C39.8889 49.444 39.5679 49.2193 39.2291 49.2791L37.2973 49.6197C36.9585 49.6794 36.7337 50.0004 36.7935 50.3392L38.2181 58.4184L22.4073 61.2063C21.294 61.4026 20.1279 61.1454 19.2058 60.4958C18.2844 59.8507 17.6439 58.8429 17.4476 57.7296L13.8714 37.448C13.4609 35.1201 15.0202 32.8987 17.3437 32.489L24.2876 31.2646L30.4917 24.4038L29.497 18.7624C29.1812 16.9715 30.3845 15.2529 32.1755 14.9371L35.643 14.3257C36.9691 14.1009 38.2829 14.6815 38.9979 15.8031C39.7176 16.9512 39.6812 18.3914 38.9068 19.4808L36.8445 22.4261L36.9911 23.2578L45.1676 27.5829L52.1115 26.3585C53.2204 26.163 54.3909 26.4194 55.3123 27.0646C56.2345 27.7141 56.8794 28.7211 57.0749 29.83L60.6511 50.1116C60.8466 51.2206 60.5902 52.391 59.9406 53.3132C59.2955 54.2346 58.2885 54.8795 57.1752 55.0758L57.1796 55.075ZM45.1354 52.489L56.0177 50.5702L52.5665 30.997L44.408 32.4356L34.3149 27.0963L26.6567 35.5656L18.5071 37.0026L21.9583 56.5758L32.8406 54.6569L32.2214 51.1454C31.7179 48.2895 33.6308 45.552 36.4911 45.0476L38.4229 44.707C41.2788 44.2034 44.0163 46.1164 44.5207 48.9767L45.1398 52.4882L45.1354 52.489ZM35.111 16.8152C35.111 16.8152 35.1074 16.8204 35.1038 16.8255L35.111 16.8152Z" fill="#333333"/>
</svg>
