<svg width="11" height="12" viewBox="0 0 11 12" fill="none" xmlns="http://www.w3.org/2000/svg">
<g id="Group">
<path id="Vector" d="M10.7764 6V10.2927C10.7764 10.5536 10.6728 10.8038 10.4883 10.9883C10.3038 11.1728 10.0536 11.2764 9.79268 11.2764H1.20732C0.946413 11.2764 0.696195 11.1728 0.511708 10.9883C0.327221 10.8038 0.223577 10.5536 0.223577 10.2927V1.70732C0.223577 1.44641 0.327221 1.1962 0.511708 1.01171C0.696195 0.827221 0.946413 0.723577 1.20732 0.723577H5.5C5.54744 0.723577 5.59293 0.742422 5.62647 0.775964C5.66002 0.809507 5.67886 0.855001 5.67886 0.902439C5.67886 0.949877 5.66002 0.995371 5.62647 1.02891C5.59293 1.06246 5.54744 1.0813 5.5 1.0813H1.20732C1.04129 1.0813 0.882058 1.14726 0.764657 1.26466C0.647256 1.38206 0.581301 1.54129 0.581301 1.70732V10.2927C0.581301 10.4587 0.647256 10.6179 0.764657 10.7353C0.882057 10.8527 1.04129 10.9187 1.20732 10.9187H9.79268C9.95871 10.9187 10.1179 10.8527 10.2353 10.7353C10.3527 10.6179 10.4187 10.4587 10.4187 10.2927V6C10.4187 5.95256 10.4375 5.90707 10.4711 5.87353C10.5046 5.83998 10.5501 5.82114 10.5976 5.82114C10.645 5.82114 10.6905 5.83998 10.724 5.87353C10.7576 5.90707 10.7764 5.95256 10.7764 6Z" fill="#333333" stroke="#333333" stroke-width="0.447154"/>
<path id="Vector_2" d="M10.743 0.529512L10.6583 0.736427C10.6803 0.74542 10.7002 0.758698 10.717 0.775485C10.7338 0.792273 10.7471 0.812234 10.7561 0.834205L10.756 0.834251L10.759 0.841025C10.7682 0.86153 10.7734 0.883597 10.7743 0.906035V3.51293C10.7743 3.56036 10.7554 3.60586 10.7219 3.6394C10.6884 3.67294 10.6429 3.69179 10.5954 3.69179C10.548 3.69179 10.5025 3.67294 10.469 3.6394L10.3109 3.79749L10.469 3.6394C10.4354 3.60586 10.4166 3.56036 10.4166 3.51293V1.87366V1.3339L10.0349 1.71557L5.62751 6.12295C5.5939 6.15319 5.55004 6.16959 5.50475 6.1688C5.45842 6.16798 5.4142 6.14921 5.38143 6.11644C5.34866 6.08367 5.32989 6.03945 5.32907 5.99312C5.32827 5.94783 5.34468 5.90398 5.37492 5.87036L9.7823 1.46297L10.164 1.0813H9.62421H7.98494C7.93751 1.0813 7.89201 1.06246 7.85847 1.02891C7.82493 0.995371 7.80608 0.949877 7.80608 0.902439C7.80608 0.855002 7.82493 0.809507 7.85847 0.775965C7.89201 0.742422 7.93751 0.723577 7.98494 0.723577H10.5943C10.6164 0.723845 10.6382 0.728253 10.6587 0.736577L10.743 0.529512ZM10.743 0.529512C10.6961 0.510422 10.646 0.500407 10.5954 0.5L10.9979 0.902439C10.9965 0.84966 10.9846 0.797684 10.963 0.749512C10.9428 0.700076 10.9129 0.655163 10.8751 0.617392C10.8373 0.579621 10.7924 0.549747 10.743 0.529512ZM9.40063 1.52846L5.21348 5.71561L9.40063 1.52846ZM9.40063 1.52846H9.62421V1.30488M9.40063 1.52846L9.62421 1.30488M9.62421 1.30488L9.46612 1.14679L9.30803 1.30488H9.62421Z" fill="#333333" stroke="#333333" stroke-width="0.447154"/>
</g>
</svg>
