<svg width="32" height="32" viewBox="0 0 32 32" fill="none" xmlns="http://www.w3.org/2000/svg">
<path d="M0.5 4C0.5 2.067 2.067 0.5 4 0.5H28C29.933 0.5 31.5 2.067 31.5 4V28C31.5 29.933 29.933 31.5 28 31.5H4C2.067 31.5 0.5 29.933 0.5 28V4Z" stroke="#FFAF85"/>
<g clip-path="url(#clip0_35087_16121)">
<path d="M16.0234 18.7443C17.5389 18.7443 18.7675 17.5157 18.7675 16.0002C18.7675 14.4847 17.5389 13.2561 16.0234 13.2561C14.5079 13.2561 13.2793 14.4847 13.2793 16.0002C13.2793 17.5157 14.5079 18.7443 16.0234 18.7443Z" fill="#FFAF85"/>
<path d="M19.0036 8.66675H12.995C10.6058 8.66675 8.66602 10.6065 8.66602 12.9958V18.9571C8.66602 21.3936 10.6058 23.3334 12.995 23.3334H18.9563C21.3929 23.3334 23.3327 21.3936 23.3327 19.0044V12.9958C23.3327 10.6065 21.3929 8.66675 19.0036 8.66675ZM16.023 19.5958C14.0123 19.5958 12.4273 17.9635 12.4273 16.0001C12.4273 14.0366 14.0359 12.4044 16.023 12.4044C17.9864 12.4044 19.595 14.0366 19.595 16.0001C19.595 17.9635 18.0101 19.5958 16.023 19.5958ZM20.9907 12.7356C20.7542 12.9958 20.3993 13.1377 19.9972 13.1377C19.6424 13.1377 19.2875 12.9958 19.0036 12.7356C18.7434 12.4754 18.6015 12.1442 18.6015 11.742C18.6015 11.3399 18.7434 11.0323 19.0036 10.7485C19.2639 10.4646 19.595 10.3227 19.9972 10.3227C20.352 10.3227 20.7305 10.4646 20.9907 10.7248C21.2273 11.0323 21.3929 11.3872 21.3929 11.7657C21.3692 12.1442 21.2273 12.4754 20.9907 12.7356Z" fill="#FFAF85"/>
<path d="M20.0209 11.1741C19.7133 11.1741 19.4531 11.4343 19.4531 11.7418C19.4531 12.0493 19.7133 12.3096 20.0209 12.3096C20.3284 12.3096 20.5886 12.0493 20.5886 11.7418C20.5886 11.4343 20.352 11.1741 20.0209 11.1741Z" fill="#FFAF85"/>
</g>
<defs>
<clipPath id="clip0_35087_16121">
<rect width="16" height="16" fill="white" transform="translate(8 8)"/>
</clipPath>
</defs>
</svg>
