<svg width="49" height="48" viewBox="0 0 49 48" fill="none" xmlns="http://www.w3.org/2000/svg">
<path d="M1.89512 13.7674C1.28022 9.39208 4.3286 5.34674 8.70388 4.73183L34.4509 1.11333C38.8261 0.498424 42.8715 3.54681 43.4864 7.92209L47.1049 33.6691C47.7198 38.0443 44.6714 42.0897 40.2961 42.7046L14.5492 46.3231C10.1739 46.938 6.12853 43.8896 5.51362 39.5143L1.89512 13.7674Z" fill="#F79764"/>
<g clip-path="url(#clip0_36287_41311)">
<path d="M24.1411 30.3779C17.6971 30.3779 12.4811 25.3024 12.4811 19.0979C12.4811 12.8934 17.6971 7.81787 24.1411 7.81787C30.5851 7.81787 35.8011 12.8934 35.8011 19.0979C35.8011 25.3024 30.5851 30.3779 24.1411 30.3779ZM24.1411 8.05787C17.8808 8.05787 12.7611 12.9951 12.7611 19.0979C12.7611 25.2006 17.8808 30.1379 24.1411 30.1379C30.4014 30.1379 35.5211 25.2006 35.5211 19.0979C35.5211 12.9951 30.4014 8.05787 24.1411 8.05787Z" fill="#333333" stroke="#333333"/>
<path d="M24.141 27.2778C19.4615 27.2778 15.681 23.593 15.681 19.0978C15.681 14.6027 19.4615 10.9178 24.141 10.9178C28.8205 10.9178 32.601 14.6027 32.601 19.0978C32.601 23.593 28.8205 27.2778 24.141 27.2778ZM24.141 11.1578C19.6452 11.1578 15.961 14.7044 15.961 19.0978C15.961 23.4913 19.6452 27.0378 24.141 27.0378C28.6368 27.0378 32.321 23.4912 32.321 19.0978C32.321 14.7044 28.6368 11.1578 24.141 11.1578Z" fill="#333333" stroke="#333333"/>
<path d="M20.7676 37.7471L20.7676 37.7472C20.7879 37.7852 20.8346 37.8179 20.8949 37.8179L20.9009 37.8178C20.9637 37.8155 21.009 37.7788 21.0263 37.7393L24.2724 30.2993C24.2724 30.2993 24.2724 30.2993 24.2724 30.2993C24.2935 30.2509 24.2768 30.1807 24.201 30.1496L20.7676 37.7471ZM20.7676 37.7471L18.7167 33.8966L18.5338 33.5531L18.1559 33.6461L13.8625 34.7027M20.7676 37.7471L13.8625 34.7027M13.8625 34.7027C13.803 34.7174 13.7447 34.6961 13.7122 34.6588L13.8625 34.7027ZM18.5726 33.294L15.0624 34.1579L14.0579 34.4051L14.4882 33.4644L17.0594 27.8435C17.0594 27.8435 17.0594 27.8435 17.0594 27.8434C17.0815 27.795 17.0658 27.7249 16.991 27.6929L16.9909 27.6928C16.9085 27.6574 16.8248 27.6996 16.7985 27.757L13.6939 34.5441C13.6939 34.5441 13.6939 34.5441 13.6939 34.5441C13.6772 34.5807 13.6819 34.624 13.7122 34.6588L18.5726 33.294ZM18.5726 33.294C18.5726 33.294 18.5726 33.294 18.5726 33.294C18.6469 33.2758 18.713 33.3125 18.7383 33.3601L18.7383 33.3601M18.5726 33.294L18.7383 33.3601M18.7383 33.3601L20.3961 36.4725L20.8822 37.3852M18.7383 33.3601L20.8822 37.3852M20.8822 37.3852L21.2957 36.4374M20.8822 37.3852L21.2957 36.4374M21.2957 36.4374L24.0099 30.2165M21.2957 36.4374L24.0099 30.2165M24.0099 30.2165C24.0348 30.1594 24.1173 30.1154 24.2008 30.1495L24.0099 30.2165Z" fill="#333333" stroke="#333333"/>
<path d="M29.5438 33.3602L27.8861 36.4726L27.4 37.3852L26.9865 36.4374L24.2723 30.2165C24.2723 30.2165 24.2723 30.2165 24.2723 30.2164C24.2473 30.1593 24.165 30.1153 24.0814 30.1495L29.5438 33.3602ZM29.5438 33.3602C29.5691 33.3127 29.6354 33.2759 29.7093 33.2939L29.5438 33.3602ZM34.5873 34.5422L31.3649 27.8456C31.3649 27.8456 31.3649 27.8456 31.3649 27.8456C31.3373 27.7882 31.2524 27.7477 31.1706 27.7846C31.0973 27.8178 31.0827 27.8877 31.1059 27.9359L31.1059 27.9359L33.7582 33.4478L34.2181 34.4036L33.1882 34.1501L29.7096 33.294L34.5873 34.5422ZM34.5873 34.5422C34.605 34.5789 34.6008 34.6227 34.5707 34.6579L34.5873 34.5422ZM29.7484 33.5531L30.1263 33.6461L34.4195 34.7027C34.4196 34.7027 34.4197 34.7028 34.4198 34.7028C34.4799 34.7175 34.5386 34.6954 34.5707 34.6579L29.7484 33.5531ZM29.7484 33.5531L29.5655 33.8966M29.7484 33.5531L29.5655 33.8966M29.5655 33.8966L27.5145 37.7471L27.5145 37.7472M29.5655 33.8966L27.5145 37.7472M27.5145 37.7472C27.4942 37.7852 27.4475 37.8179 27.3872 37.8179L27.3812 37.8178M27.5145 37.7472L27.3812 37.8178M27.3812 37.8178C27.3812 37.8178 27.3812 37.8178 27.3812 37.8178C27.3184 37.8155 27.2731 37.7788 27.2559 37.7393C27.2559 37.7393 27.2559 37.7393 27.2558 37.7393L24.0098 30.2993L27.3812 37.8178ZM24.0098 30.2993C23.9887 30.2509 24.0053 30.1807 24.0813 30.1496L24.0098 30.2993Z" fill="#333333" stroke="#333333"/>
<path d="M27.0285 23.242L27.0285 23.242L24.3505 21.8648L24.124 21.7484L23.8966 21.8631L21.2072 23.2195L21.2072 23.2195C21.1559 23.2454 21.0927 23.2401 21.0478 23.2083L20.7587 23.6161L21.048 23.2084C21.0056 23.1783 20.9919 23.1346 20.9985 23.098L20.9985 23.0979L21.523 20.2049L21.5711 19.9395L21.3757 19.7536L19.213 17.695C19.213 17.695 19.213 17.6949 19.213 17.6949C19.1779 17.6615 19.1699 17.6183 19.1823 17.582L19.1823 17.5818C19.1954 17.5434 19.2347 17.5046 19.295 17.4964L19.2951 17.4964L22.2973 17.0856L22.5551 17.0503L22.6741 16.8189L24.0268 14.1903C24.0268 14.1903 24.0268 14.1902 24.0268 14.1902C24.0467 14.1517 24.0936 14.118 24.155 14.118L24.1563 14.118C24.2177 14.1185 24.2642 14.1525 24.2837 14.191L25.6146 16.8301L25.7318 17.0626L25.9894 17.0998L28.9882 17.5338C28.9882 17.5338 28.9882 17.5338 28.9882 17.5338C29.0484 17.5425 29.0873 17.5815 29.0999 17.6199L29.1 17.62C29.112 17.6564 29.1037 17.6997 29.0683 17.7329C29.0683 17.733 29.0683 17.733 29.0682 17.733L26.8886 19.7748L26.6919 19.9591L26.7378 20.2248L27.2384 23.1217L27.2384 23.1218C27.2447 23.1584 27.2306 23.2022 27.1879 23.232L27.1877 23.2321C27.1632 23.2492 27.1325 23.259 27.0999 23.259C27.0746 23.259 27.0501 23.2531 27.0285 23.242ZM24.196 21.506L24.1961 21.506L26.0259 22.447L26.9181 22.9059L26.7473 21.9172L26.4052 19.9378L26.4052 19.9378C26.3997 19.9056 26.4097 19.8689 26.4407 19.8398L26.4407 19.8398L27.9299 18.4446L28.6887 17.7338L27.6597 17.5849L25.6108 17.2884C25.6108 17.2884 25.6108 17.2884 25.6108 17.2884C25.5591 17.2809 25.522 17.2505 25.5051 17.217C25.5051 17.217 25.5051 17.217 25.5051 17.217L24.5957 15.4138L24.1538 14.5375L23.7047 15.4102L22.7805 17.2063C22.7805 17.2063 22.7805 17.2063 22.7804 17.2063C22.7633 17.2396 22.7258 17.2699 22.674 17.277C22.6739 17.277 22.6739 17.277 22.6738 17.277L20.6226 17.5577L19.5928 17.6985L20.3457 18.4152L21.8234 19.8218L21.8234 19.8218C21.854 19.851 21.8638 19.8877 21.858 19.9199L21.8579 19.92L21.4996 21.8967L21.3205 22.8843L22.2167 22.4323L24.0541 21.5056C24.0755 21.4948 24.0998 21.489 24.1247 21.489C24.1502 21.489 24.1746 21.495 24.196 21.506Z" fill="#333333" stroke="#333333"/>
</g>
<defs>
<clipPath id="clip0_36287_41311">
<rect width="32" height="31" fill="white" transform="translate(8.14111 7.31787)"/>
</clipPath>
</defs>
</svg>
