<svg width="65" height="75" viewBox="0 0 65 75" fill="none" xmlns="http://www.w3.org/2000/svg">
<path id="Vector" d="M7.52281 74.7504C6.27567 74.7481 5.05058 74.4211 3.96806 73.8018C1.53048 72.4205 0.0150043 69.7393 0.0148264 66.8285L0.0112263 7.92223C0.011048 5.00333 1.5262 2.3302 3.96361 0.948952C5.07183 0.312026 6.33081 -0.0155148 7.60895 0.000564763C8.88709 0.0166443 10.1375 0.375754 11.2294 1.04036L61.5758 31.176C62.625 31.8339 63.49 32.7475 64.0897 33.8311C64.6893 34.9147 65.0039 36.1329 65.004 37.3713C65.004 38.6097 64.6896 39.8279 64.0901 40.9115C63.4906 41.9951 62.6257 42.9087 61.5765 43.5666L11.2257 73.7104C10.1084 74.3859 8.82853 74.7454 7.52281 74.7504Z" fill="white"/>
</svg>
