<svg width="54" height="55" viewBox="0 0 54 55" fill="none" xmlns="http://www.w3.org/2000/svg">
<circle cx="27.0017" cy="27.3467" r="27" fill="#FFF7EB"/>
<mask id="path-2-inside-1_36288_13836" fill="white">
<path d="M42.209 41.106C41.3457 40.4802 40.5755 39.7353 39.9212 38.8934C40.9899 37.732 41.7804 36.3427 42.2329 34.8307C42.6855 33.3186 42.7881 31.7235 42.5332 30.1659C42.2783 28.6083 41.6724 27.1292 40.7614 25.8403C39.8505 24.5514 38.6583 23.4866 37.2751 22.7265C36.9623 20.7027 36.1776 18.7809 34.9844 17.1165C33.7911 15.4522 32.2229 14.0921 30.4066 13.1462C28.5903 12.2003 26.5768 11.6952 24.529 11.6718C22.4813 11.6483 20.4568 12.1071 18.6193 13.0112C16.7817 13.9152 15.1828 15.239 13.9517 16.8756C12.7207 18.5121 11.8921 20.4155 11.5331 22.4316C11.174 24.4478 11.2945 26.5201 11.8849 28.4811C12.4752 30.442 13.5188 32.2365 14.9312 33.7193C14.0474 34.8994 12.9909 35.9397 11.7973 36.8052C11.6114 36.9296 11.4703 37.1105 11.3949 37.3212C11.3195 37.5318 11.3137 37.7611 11.3784 37.9753C11.4431 38.1895 11.5748 38.3773 11.7542 38.511C11.9336 38.6446 12.1512 38.7172 12.375 38.7179C15.1187 38.7966 17.8451 38.2583 20.3529 37.1426C21.4164 37.4899 22.5204 37.6985 23.6373 37.7631C24.8958 39.6104 26.7175 41.0016 28.831 41.7291C30.9445 42.4567 33.2366 42.4818 35.3655 41.8007C37.3377 42.6598 39.4746 43.0749 41.625 43.0166C41.8487 43.0166 42.0665 42.9447 42.2463 42.8116C42.4261 42.6785 42.5584 42.4912 42.6238 42.2773C42.6891 42.0634 42.6841 41.8341 42.6095 41.6233C42.5348 41.4124 42.3944 41.2311 42.209 41.106ZM19.792 35.0878C18.4087 35.79 16.9138 36.246 15.3742 36.4354C16.0427 35.7341 16.6439 34.9717 17.1699 34.1581C17.3026 33.9508 17.3579 33.7033 17.326 33.4592C17.2941 33.2152 17.177 32.9902 16.9954 32.824C14.9711 30.9762 13.7071 28.441 13.4497 25.7122C13.1922 22.9834 13.9597 20.2565 15.6027 18.0627C17.2457 15.8688 19.6465 14.365 22.3374 13.8443C25.0284 13.3236 27.8168 13.8232 30.1596 15.2458C32.5024 16.6685 34.2317 18.9122 35.0108 21.54C35.7899 24.1679 35.5629 26.9916 34.374 29.4612C33.1851 31.9309 31.1195 33.8695 28.5796 34.8996C26.0396 35.9297 23.2072 35.9774 20.6339 35.0335C20.4974 34.9843 20.3521 34.9637 20.2073 34.9731C20.0625 34.9824 19.9211 35.0215 19.792 35.0878ZM35.9338 39.7479C35.8043 39.68 35.6622 39.6398 35.5163 39.6297C35.3705 39.6196 35.2241 39.64 35.0866 39.6894C33.5717 40.25 31.926 40.3556 30.3519 39.9931C28.7779 39.6306 27.3441 38.8159 26.227 37.6493C29.2359 37.2186 32.0004 35.7518 34.0438 33.5016C36.0873 31.2514 37.2818 28.3589 37.4214 25.3225C38.3694 26.0712 39.143 27.0175 39.6884 28.0954C40.2338 29.1733 40.538 30.3571 40.5797 31.5644C40.6215 32.7718 40.3998 33.9737 39.9302 35.0867C39.4605 36.1998 38.7541 37.1972 37.8601 38.0097C37.6788 38.1758 37.5619 38.4005 37.53 38.6443C37.4981 38.8882 37.5532 39.1354 37.6856 39.3426C37.9859 39.8091 38.3182 40.2541 38.6801 40.6745C37.7222 40.5045 36.7952 40.1922 35.9296 39.7479H35.9338Z"/>
</mask>
<path d="M42.209 41.106C41.3457 40.4802 40.5755 39.7353 39.9212 38.8934C40.9899 37.732 41.7804 36.3427 42.2329 34.8307C42.6855 33.3186 42.7881 31.7235 42.5332 30.1659C42.2783 28.6083 41.6724 27.1292 40.7614 25.8403C39.8505 24.5514 38.6583 23.4866 37.2751 22.7265C36.9623 20.7027 36.1776 18.7809 34.9844 17.1165C33.7911 15.4522 32.2229 14.0921 30.4066 13.1462C28.5903 12.2003 26.5768 11.6952 24.529 11.6718C22.4813 11.6483 20.4568 12.1071 18.6193 13.0112C16.7817 13.9152 15.1828 15.239 13.9517 16.8756C12.7207 18.5121 11.8921 20.4155 11.5331 22.4316C11.174 24.4478 11.2945 26.5201 11.8849 28.4811C12.4752 30.442 13.5188 32.2365 14.9312 33.7193C14.0474 34.8994 12.9909 35.9397 11.7973 36.8052C11.6114 36.9296 11.4703 37.1105 11.3949 37.3212C11.3195 37.5318 11.3137 37.7611 11.3784 37.9753C11.4431 38.1895 11.5748 38.3773 11.7542 38.511C11.9336 38.6446 12.1512 38.7172 12.375 38.7179C15.1187 38.7966 17.8451 38.2583 20.3529 37.1426C21.4164 37.4899 22.5204 37.6985 23.6373 37.7631C24.8958 39.6104 26.7175 41.0016 28.831 41.7291C30.9445 42.4567 33.2366 42.4818 35.3655 41.8007C37.3377 42.6598 39.4746 43.0749 41.625 43.0166C41.8487 43.0166 42.0665 42.9447 42.2463 42.8116C42.4261 42.6785 42.5584 42.4912 42.6238 42.2773C42.6891 42.0634 42.6841 41.8341 42.6095 41.6233C42.5348 41.4124 42.3944 41.2311 42.209 41.106ZM19.792 35.0878C18.4087 35.79 16.9138 36.246 15.3742 36.4354C16.0427 35.7341 16.6439 34.9717 17.1699 34.1581C17.3026 33.9508 17.3579 33.7033 17.326 33.4592C17.2941 33.2152 17.177 32.9902 16.9954 32.824C14.9711 30.9762 13.7071 28.441 13.4497 25.7122C13.1922 22.9834 13.9597 20.2565 15.6027 18.0627C17.2457 15.8688 19.6465 14.365 22.3374 13.8443C25.0284 13.3236 27.8168 13.8232 30.1596 15.2458C32.5024 16.6685 34.2317 18.9122 35.0108 21.54C35.7899 24.1679 35.5629 26.9916 34.374 29.4612C33.1851 31.9309 31.1195 33.8695 28.5796 34.8996C26.0396 35.9297 23.2072 35.9774 20.6339 35.0335C20.4974 34.9843 20.3521 34.9637 20.2073 34.9731C20.0625 34.9824 19.9211 35.0215 19.792 35.0878ZM35.9338 39.7479C35.8043 39.68 35.6622 39.6398 35.5163 39.6297C35.3705 39.6196 35.2241 39.64 35.0866 39.6894C33.5717 40.25 31.926 40.3556 30.3519 39.9931C28.7779 39.6306 27.3441 38.8159 26.227 37.6493C29.2359 37.2186 32.0004 35.7518 34.0438 33.5016C36.0873 31.2514 37.2818 28.3589 37.4214 25.3225C38.3694 26.0712 39.143 27.0175 39.6884 28.0954C40.2338 29.1733 40.538 30.3571 40.5797 31.5644C40.6215 32.7718 40.3998 33.9737 39.9302 35.0867C39.4605 36.1998 38.7541 37.1972 37.8601 38.0097C37.6788 38.1758 37.5619 38.4005 37.53 38.6443C37.4981 38.8882 37.5532 39.1354 37.6856 39.3426C37.9859 39.8091 38.3182 40.2541 38.6801 40.6745C37.7222 40.5045 36.7952 40.1922 35.9296 39.7479H35.9338Z" fill="#333333"/>
<path d="M42.209 41.106L32.8178 54.06L33.0368 54.2187L33.261 54.37L42.209 41.106ZM39.9212 38.8934L28.1472 28.0595L18.9798 38.0225L27.2883 48.7122L39.9212 38.8934ZM37.2751 22.7265L21.4628 25.1703L22.666 32.955L29.5694 36.7487L37.2751 22.7265ZM14.9312 33.7193L27.7374 43.311L35.8488 32.4813L26.5166 22.6839L14.9312 33.7193ZM11.7973 36.8052L20.6975 50.1013L20.947 49.9343L21.19 49.758L11.7973 36.8052ZM12.375 38.7179L12.8337 22.7245L12.6305 22.7187L12.4272 22.718L12.375 38.7179ZM20.3529 37.1426L25.3202 21.9332L19.4713 20.023L13.8495 22.5239L20.3529 37.1426ZM23.6373 37.7631L36.8604 28.7549L32.4255 22.2448L24.5614 21.7898L23.6373 37.7631ZM35.3655 41.8007L41.7553 27.132L36.2299 24.7251L30.4897 26.5617L35.3655 41.8007ZM41.625 43.0166L41.621 27.0166L41.4063 27.0167L41.1917 27.0225L41.625 43.0166ZM19.792 35.0878L27.0347 49.3546L27.0684 49.3375L27.1019 49.3203L19.792 35.0878ZM15.3742 36.4354L3.79381 25.3948L-27.0798 57.7776L17.3274 52.3157L15.3742 36.4354ZM17.1699 34.1581L30.6068 42.8443L30.6253 42.8156L30.6438 42.7867L17.1699 34.1581ZM16.9954 32.824L27.7974 21.0207L27.7899 21.0139L27.7824 21.007L16.9954 32.824ZM20.6339 35.0335L26.1441 20.0122L26.0993 19.9958L26.0545 19.9796L20.6339 35.0335ZM35.9338 39.7479V55.7479L43.3665 25.5792L35.9338 39.7479ZM35.0866 39.6894L29.6718 24.6335L29.6026 24.6584L29.5336 24.684L35.0866 39.6894ZM26.227 37.6493L23.9603 21.8106L-6.86638 26.2222L14.6704 48.7147L26.227 37.6493ZM37.4214 25.3225L47.3385 12.7666L22.8699 -6.55963L21.4382 24.5878L37.4214 25.3225ZM37.8601 38.0097L27.0993 26.1688L27.0755 26.1905L27.0517 26.2122L37.8601 38.0097ZM37.6856 39.3426L24.2053 47.9612L24.2184 47.9817L24.2315 48.0021L37.6856 39.3426ZM38.6801 40.6745L35.8832 56.4282L80.1196 64.282L50.8051 30.235L38.6801 40.6745ZM35.9296 39.7479V23.7479L28.6241 53.9827L35.9296 39.7479ZM51.6001 28.152C51.9601 28.4129 52.2813 28.7236 52.5541 29.0746L27.2883 48.7122C28.8697 50.7469 30.7314 52.5474 32.8178 54.06L51.6001 28.152ZM51.6952 49.7273C54.407 46.7802 56.4129 43.2549 57.5612 39.4182L26.9047 30.2431C27.1479 29.4305 27.5728 28.6838 28.1472 28.0595L51.6952 49.7273ZM57.5612 39.4182C58.7094 35.5815 58.97 31.5338 58.3231 27.5815L26.7433 32.7503C26.6063 31.9131 26.6615 31.0558 26.9047 30.2431L57.5612 39.4182ZM58.3231 27.5815C57.6762 23.6293 56.1389 19.8759 53.8273 16.6054L27.6956 35.0752C27.206 34.3824 26.8803 33.5874 26.7433 32.7503L58.3231 27.5815ZM53.8273 16.6054C51.5158 13.335 48.4907 10.6331 44.9808 8.70435L29.5694 36.7487C28.8259 36.3402 28.1852 35.7679 27.6956 35.0752L53.8273 16.6054ZM53.0874 20.2827C52.3911 15.7773 50.6441 11.499 47.9877 7.79389L21.981 26.4392C21.7111 26.0628 21.5336 25.6281 21.4628 25.1703L53.0874 20.2827ZM47.9877 7.79389C45.3314 4.08879 41.8403 1.06092 37.7968 -1.0448L23.0164 27.3372C22.6055 27.1233 22.2508 26.8156 21.981 26.4392L47.9877 7.79389ZM37.7968 -1.0448C33.7533 -3.15052 29.271 -4.27497 24.7123 -4.3272L24.3458 27.6707C23.8826 27.6654 23.4272 27.5512 23.0164 27.3372L37.7968 -1.0448ZM24.7123 -4.3272C20.1537 -4.37942 15.6468 -3.35795 11.5561 -1.34541L25.6824 27.3678C25.2668 27.5722 24.8089 27.676 24.3458 27.6707L24.7123 -4.3272ZM11.5561 -1.34541C7.46542 0.667122 3.90586 3.61422 1.16534 7.25749L26.7382 26.4937C26.4597 26.8639 26.0981 27.1633 25.6824 27.3678L11.5561 -1.34541ZM1.16534 7.25749C-1.57518 10.9008 -3.41971 15.1379 -4.21906 19.6262L27.2852 25.237C27.204 25.693 27.0166 26.1235 26.7382 26.4937L1.16534 7.25749ZM-4.21906 19.6262C-5.01841 24.1145 -4.75013 28.728 -3.43592 33.0934L27.2056 23.8687C27.3392 24.3123 27.3664 24.781 27.2852 25.237L-4.21906 19.6262ZM-3.43592 33.0934C-2.12172 37.4588 0.201517 41.4536 3.34586 44.7547L26.5166 22.6839C26.8361 23.0193 27.0721 23.4252 27.2056 23.8687L-3.43592 33.0934ZM2.12505 24.1276C2.20388 24.0223 2.29811 23.9295 2.40457 23.8523L21.19 49.758C23.6837 47.9498 25.8909 45.7764 27.7374 43.311L2.12505 24.1276ZM2.89707 23.5091C-0.136672 25.5398 -2.43825 28.491 -3.66879 31.9281L26.4586 42.7143C25.3789 45.73 23.3594 48.3194 20.6975 50.1013L2.89707 23.5091ZM-3.66879 31.9281C-4.89932 35.3651 -4.9938 39.1065 -3.9383 42.6013L26.6951 33.3494C27.6212 36.4158 27.5383 39.6985 26.4586 42.7143L-3.66879 31.9281ZM-3.9383 42.6013C-2.8828 46.0961 -0.733093 49.1596 2.19429 51.3409L21.3142 25.681C23.8827 27.5949 25.7689 30.2829 26.6951 33.3494L-3.9383 42.6013ZM2.19429 51.3409C5.12165 53.5222 8.67205 54.7059 12.3228 54.7178L12.4272 22.718C15.6304 22.7285 18.7456 23.7671 21.3142 25.681L2.19429 51.3409ZM11.9163 54.7113C17.0543 54.8587 22.1599 53.8506 26.8563 51.7613L13.8495 22.5239C13.5302 22.666 13.1831 22.7345 12.8337 22.7245L11.9163 54.7113ZM15.3857 52.352C17.7584 53.1269 20.2213 53.5922 22.7131 53.7364L24.5614 21.7898C24.8195 21.8048 25.0745 21.8529 25.3202 21.9332L15.3857 52.352ZM10.4141 46.7714C13.6147 51.4694 18.2478 55.0073 23.6229 56.8578L34.0392 26.6005C35.1872 26.9958 36.1768 27.7514 36.8604 28.7549L10.4141 46.7714ZM23.6229 56.8578C28.9979 58.7082 34.827 58.772 40.2413 57.0396L30.4897 26.5617C31.6461 26.1917 32.8912 26.2053 34.0392 26.6005L23.6229 56.8578ZM28.9757 56.4693C33.0976 58.2649 37.5639 59.1325 42.0583 59.0108L41.1917 27.0225C41.3853 27.0172 41.5777 27.0546 41.7553 27.132L28.9757 56.4693ZM41.629 59.0166C45.2788 59.0157 48.832 57.8433 51.7656 55.6717L32.7269 29.9515C35.301 28.0462 38.4186 27.0174 41.621 27.0166L41.629 59.0166ZM51.7656 55.6717C54.6992 53.5002 56.8583 50.4443 57.9251 46.9539L27.3225 37.6008C28.2585 34.5381 30.1529 31.8569 32.7269 29.9515L51.7656 55.6717ZM57.9251 46.9539C58.9919 43.4634 58.91 39.7226 57.6917 36.2822L27.5273 46.9643C26.4582 43.9456 26.3864 40.6634 27.3225 37.6008L57.9251 46.9539ZM57.6917 36.2822C56.4733 32.8417 54.1827 29.8832 51.1569 27.842L33.261 54.37C30.6061 52.579 28.5963 49.9831 27.5273 46.9643L57.6917 36.2822ZM12.5492 20.821C12.8221 20.6824 13.1171 20.5924 13.4209 20.555L17.3274 52.3157C20.7105 51.8996 23.9953 50.8976 27.0347 49.3546L12.5492 20.821ZM26.9545 47.476C28.3142 46.0498 29.537 44.4991 30.6068 42.8443L3.73305 25.4718C3.75085 25.4443 3.77119 25.4185 3.79381 25.3948L26.9545 47.476ZM30.6438 42.7867C32.8096 39.4047 33.7117 35.3666 33.1909 31.3845L1.4611 35.534C1.00417 32.04 1.79567 28.4968 3.696 25.5294L30.6438 42.7867ZM33.1909 31.3845C32.6702 27.4024 30.76 23.732 27.7974 21.0207L6.19354 44.6274C3.59404 42.2484 1.91803 39.028 1.4611 35.534L33.1909 31.3845ZM27.7824 21.007C28.6939 21.8391 29.263 22.9806 29.3789 24.2092L-2.47958 27.2151C-1.84873 33.9013 1.24839 40.1133 6.2085 44.6411L27.7824 21.007ZM29.3789 24.2092C29.4949 25.4379 29.1493 26.6657 28.4095 27.6536L2.79589 8.47174C-1.22983 13.8473 -3.11043 20.5289 -2.47958 27.2151L29.3789 24.2092ZM28.4095 27.6536C27.6697 28.6414 26.5887 29.3185 25.3771 29.5529L19.2978 -1.86429C12.7042 -0.58841 6.82161 3.09617 2.79589 8.47174L28.4095 27.6536ZM25.3771 29.5529C24.1655 29.7874 22.9099 29.5624 21.855 28.9219L38.4642 1.56979C32.7238 -1.916 25.8913 -3.14017 19.2978 -1.86429L25.3771 29.5529ZM21.855 28.9219C20.8002 28.2813 20.0215 27.271 19.6707 26.0878L50.3509 16.9922C48.442 10.5534 44.2046 5.05558 38.4642 1.56979L21.855 28.9219ZM19.6707 26.0878C19.32 24.9046 19.4222 23.6332 19.9575 22.5212L48.7905 36.4013C51.7035 30.3501 52.2598 23.4311 50.3509 16.9922L19.6707 26.0878ZM19.9575 22.5212C20.4928 21.4092 21.4228 20.5363 22.5665 20.0725L34.5926 49.7267C40.8162 47.2027 45.8775 42.4525 48.7905 36.4013L19.9575 22.5212ZM22.5665 20.0725C23.7101 19.6087 24.9855 19.5872 26.1441 20.0122L15.1238 50.0547C21.4288 52.3676 28.3691 52.2506 34.5926 49.7267L22.5665 20.0725ZM26.0545 19.9796C23.853 19.1869 21.5121 18.8556 19.1772 19.0063L21.2374 50.9399C19.1922 51.0718 17.1417 50.7816 15.2134 50.0873L26.0545 19.9796ZM19.1772 19.0063C16.8423 19.1569 14.5633 19.7863 12.482 20.8553L27.1019 49.3203C25.2788 50.2567 23.2826 50.8079 21.2374 50.9399L19.1772 19.0063ZM43.3665 25.5792C41.274 24.4814 38.976 23.8305 36.6185 23.6677L34.4141 55.5917C32.3483 55.449 30.3347 54.8786 28.501 53.9167L43.3665 25.5792ZM36.6185 23.6677C34.261 23.5049 31.8954 23.8338 29.6718 24.6335L40.5013 54.7453C38.5529 55.4461 36.48 55.7343 34.4141 55.5917L36.6185 23.6677ZM29.5336 24.684C30.9442 24.1619 32.4767 24.0636 33.9424 24.4012L26.7614 55.585C31.3753 56.6475 36.1992 56.3381 40.6396 54.6949L29.5336 24.684ZM33.9424 24.4012C35.4082 24.7387 36.7433 25.4973 37.7835 26.5838L14.6704 48.7147C17.9448 52.1345 22.1475 54.5226 26.7614 55.585L33.9424 24.4012ZM28.4936 53.4879C35.1894 52.5297 41.3412 49.2656 45.8885 44.2582L22.1992 22.7451C22.6596 22.2381 23.2824 21.9076 23.9603 21.8106L28.4936 53.4879ZM45.8885 44.2582C50.4359 39.2509 53.0939 32.814 53.4045 26.0571L21.4382 24.5878C21.4697 23.9037 21.7388 23.252 22.1992 22.7451L45.8885 44.2582ZM27.5042 37.8784C26.6293 37.1873 25.9153 36.314 25.4119 35.3191L53.9649 20.8717C52.3706 17.721 50.1095 14.9552 47.3385 12.7666L27.5042 37.8784ZM25.4119 35.3191C24.9085 34.3243 24.6278 33.2317 24.5893 32.1174L56.5701 31.0114C56.4481 27.4825 55.5591 24.0224 53.9649 20.8717L25.4119 35.3191ZM24.5893 32.1174C24.5507 31.0031 24.7553 29.8938 25.1888 28.8665L54.6716 41.307C56.0443 38.0536 56.6922 34.5404 56.5701 31.0114L24.5893 32.1174ZM25.1888 28.8665C25.6222 27.8392 26.2742 26.9187 27.0993 26.1688L48.6209 49.8505C51.2341 47.4757 53.2988 44.5603 54.6716 41.307L25.1888 28.8665ZM27.0517 26.2122C24.0934 28.9226 22.1859 32.5897 21.6653 36.568L53.3947 40.7207C52.9378 44.2114 51.2642 47.429 48.6685 49.8071L27.0517 26.2122ZM21.6653 36.568C21.1446 40.5463 22.044 44.5808 24.2053 47.9612L51.166 30.724C53.0623 33.6901 53.8515 37.23 53.3947 40.7207L21.6653 36.568ZM24.2315 48.0021C24.933 49.092 25.7095 50.1319 26.5552 51.1141L50.8051 30.235C50.9269 30.3764 51.0387 30.5262 51.1398 30.6831L24.2315 48.0021ZM41.4771 24.9209C42.0893 25.0296 42.6819 25.2292 43.2351 25.5131L28.6241 53.9827C30.9084 55.1551 33.3552 55.9793 35.8832 56.4282L41.4771 24.9209ZM35.9296 55.7479H35.9338V23.7479H35.9296V55.7479Z" fill="#333333" mask="url(#path-2-inside-1_36288_13836)"/>
<mask id="path-4-inside-2_36288_13836" fill="white">
<path d="M25.0152 19.0621C25.4795 19.1732 25.904 19.4107 26.2417 19.7484C26.5793 20.086 26.8168 20.5105 26.9279 20.9748C27.053 21.4815 27.0235 22.014 26.843 22.5037C26.6626 22.9934 26.3396 23.4178 25.9157 23.7222C25.1315 24.2577 24.4883 24.9746 24.0405 25.8119C23.5927 26.6493 23.3537 27.5823 23.3438 28.5318C23.3445 28.667 23.3724 28.8007 23.4256 28.925C23.4788 29.0493 23.5564 29.1617 23.6538 29.2555C23.7511 29.3494 23.8663 29.4228 23.9924 29.4714C24.1186 29.5201 24.2532 29.543 24.3884 29.5388C24.6693 29.5298 24.9356 29.4116 25.1307 29.2093C25.3258 29.007 25.4343 28.7366 25.433 28.4555C25.4545 27.8492 25.6205 27.2569 25.9172 26.7277C26.214 26.1986 26.6328 25.748 27.1389 25.4135C27.893 24.8659 28.4686 24.1079 28.7935 23.2344C29.1183 22.3609 29.178 21.4109 28.965 20.5037C28.7681 19.6556 28.3375 18.8797 27.7218 18.264C27.1062 17.6484 26.3302 17.2177 25.4821 17.0209C24.7875 16.8591 24.0652 16.8563 23.3694 17.0128C22.6735 17.1693 22.022 17.4809 21.4634 17.9245C20.9088 18.3634 20.4609 18.9223 20.1533 19.5592C19.8458 20.1961 19.6865 20.8944 19.6875 21.6016C19.6875 21.8787 19.7976 22.1444 19.9935 22.3403C20.1894 22.5362 20.4551 22.6463 20.7321 22.6463C21.0092 22.6463 21.2749 22.5362 21.4708 22.3403C21.6667 22.1444 21.7768 21.8787 21.7768 21.6016C21.7774 21.2053 21.8679 20.8144 22.0415 20.4582C22.2152 20.102 22.4674 19.7899 22.7792 19.5454C23.091 19.3008 23.4543 19.1303 23.8416 19.0466C24.2289 18.9629 24.6302 18.9682 25.0152 19.0621Z"/>
</mask>
<path d="M25.0152 19.0621C25.4795 19.1732 25.904 19.4107 26.2417 19.7484C26.5793 20.086 26.8168 20.5105 26.9279 20.9748C27.053 21.4815 27.0235 22.014 26.843 22.5037C26.6626 22.9934 26.3396 23.4178 25.9157 23.7222C25.1315 24.2577 24.4883 24.9746 24.0405 25.8119C23.5927 26.6493 23.3537 27.5823 23.3438 28.5318C23.3445 28.667 23.3724 28.8007 23.4256 28.925C23.4788 29.0493 23.5564 29.1617 23.6538 29.2555C23.7511 29.3494 23.8663 29.4228 23.9924 29.4714C24.1186 29.5201 24.2532 29.543 24.3884 29.5388C24.6693 29.5298 24.9356 29.4116 25.1307 29.2093C25.3258 29.007 25.4343 28.7366 25.433 28.4555C25.4545 27.8492 25.6205 27.2569 25.9172 26.7277C26.214 26.1986 26.6328 25.748 27.1389 25.4135C27.893 24.8659 28.4686 24.1079 28.7935 23.2344C29.1183 22.3609 29.178 21.4109 28.965 20.5037C28.7681 19.6556 28.3375 18.8797 27.7218 18.264C27.1062 17.6484 26.3302 17.2177 25.4821 17.0209C24.7875 16.8591 24.0652 16.8563 23.3694 17.0128C22.6735 17.1693 22.022 17.4809 21.4634 17.9245C20.9088 18.3634 20.4609 18.9223 20.1533 19.5592C19.8458 20.1961 19.6865 20.8944 19.6875 21.6016C19.6875 21.8787 19.7976 22.1444 19.9935 22.3403C20.1894 22.5362 20.4551 22.6463 20.7321 22.6463C21.0092 22.6463 21.2749 22.5362 21.4708 22.3403C21.6667 22.1444 21.7768 21.8787 21.7768 21.6016C21.7774 21.2053 21.8679 20.8144 22.0415 20.4582C22.2152 20.102 22.4674 19.7899 22.7792 19.5454C23.091 19.3008 23.4543 19.1303 23.8416 19.0466C24.2289 18.9629 24.6302 18.9682 25.0152 19.0621Z" fill="#333333"/>
<path d="M25.0152 19.0621L21.2227 34.6061L21.257 34.6145L21.2913 34.6227L25.0152 19.0621ZM26.9279 20.9748L11.3673 24.6987L11.3806 24.7544L11.3944 24.8101L26.9279 20.9748ZM25.9157 23.7222L34.939 36.9351L35.0946 36.8288L35.2476 36.719L25.9157 23.7222ZM23.3438 28.5318L7.34464 28.3638L7.34328 28.4934L7.34402 28.6231L23.3438 28.5318ZM24.3884 29.5388L24.8835 45.5311L24.8914 45.5309L24.8994 45.5306L24.3884 29.5388ZM25.433 28.4555L9.44305 27.8897L9.4318 28.2076L9.43319 28.5256L25.433 28.4555ZM27.1389 25.4135L35.9608 38.7618L36.2548 38.5674L36.54 38.3603L27.1389 25.4135ZM28.965 20.5037L13.3792 24.1209L13.3839 24.1409L13.3886 24.161L28.965 20.5037ZM25.4821 17.0209L21.8534 32.6039L21.865 32.6066L25.4821 17.0209ZM21.4634 17.9245L31.3933 30.4703L31.4033 30.4623L31.4133 30.4544L21.4634 17.9245ZM19.6875 21.6016H35.6875V21.5902L35.6875 21.5788L19.6875 21.6016ZM21.7768 21.6016L5.77681 21.5787L5.77679 21.5902V21.6016H21.7768ZM21.2913 34.6227C18.8821 34.0461 16.6796 32.8137 14.9279 31.0621L37.5554 8.43465C35.1285 6.00776 32.0769 4.30027 28.739 3.50146L21.2913 34.6227ZM14.9279 31.0621C13.1763 29.3104 11.9439 27.1079 11.3673 24.6987L42.4885 17.251C41.6897 13.9131 39.9823 10.8615 37.5554 8.43465L14.9279 31.0621ZM11.3944 24.8101C10.7531 22.2127 10.9047 19.4826 11.8296 16.9722L41.8564 28.0353C43.1422 24.5454 43.353 20.7503 42.4615 17.1396L11.3944 24.8101ZM11.8296 16.9722C12.7546 14.4617 14.4105 12.2859 16.5837 10.7255L35.2476 36.719C38.2687 34.5498 40.5706 31.5252 41.8564 28.0353L11.8296 16.9722ZM16.8923 10.5094C13.9814 12.4973 11.5934 15.1585 9.93118 18.2669L38.1498 33.3569C37.3831 34.7907 36.2817 36.0181 34.939 36.9351L16.8923 10.5094ZM9.93118 18.2669C8.26897 21.3753 7.38165 24.839 7.34464 28.3638L39.3429 28.6998C39.3258 30.3256 38.9165 31.9232 38.1498 33.3569L9.93118 18.2669ZM7.34402 28.6231C7.35697 30.8934 7.82419 33.1382 8.71817 35.2251L38.133 22.6249C38.9205 24.4632 39.3321 26.4406 39.3435 28.4405L7.34402 28.6231ZM8.71817 35.2251C9.61216 37.3121 10.9148 39.199 12.5493 40.7747L34.7582 17.7364C36.198 19.1243 37.3455 20.7865 38.133 22.6249L8.71817 35.2251ZM12.5493 40.7747C14.1838 42.3504 16.1172 43.583 18.2355 44.3999L29.7494 14.543C31.6153 15.2626 33.3184 16.3484 34.7582 17.7364L12.5493 40.7747ZM18.2355 44.3999C20.3539 45.2168 22.6143 45.6014 24.8835 45.5311L23.8933 13.5465C25.8922 13.4846 27.8833 13.8234 29.7494 14.543L18.2355 44.3999ZM24.8994 45.5306C29.3453 45.3886 33.5604 43.5176 36.648 40.3157L13.6134 18.1029C16.3109 15.3056 19.9933 13.6711 23.8774 13.547L24.8994 45.5306ZM36.648 40.3157C39.7357 37.1138 41.4524 32.8336 41.4329 28.3854L9.43319 28.5256C9.41616 24.6396 10.9159 20.9002 13.6134 18.1029L36.648 40.3157ZM41.423 29.0213C41.3543 30.9626 40.8228 32.8594 39.8727 34.5537L11.9618 18.9017C10.4182 21.6543 9.55465 24.7359 9.44305 27.8897L41.423 29.0213ZM39.8727 34.5537C38.9225 36.248 37.5813 37.6907 35.9608 38.7618L18.3171 12.0653C15.6843 13.8053 13.5054 16.1492 11.9618 18.9017L39.8727 34.5537ZM36.54 38.3603C39.8443 35.961 42.3664 32.6392 43.7899 28.8118L13.7971 17.657C14.5708 15.5765 15.9417 13.7709 17.7379 12.4667L36.54 38.3603ZM43.7899 28.8118C45.2134 24.9844 45.4748 20.8218 44.5414 16.8464L13.3886 24.161C12.8812 22.0001 13.0233 19.7374 13.7971 17.657L43.7899 28.8118ZM44.5507 16.8865C43.6775 13.1239 41.7668 9.68157 39.0355 6.95031L16.4081 29.5777C14.9081 28.0777 13.8588 26.1872 13.3792 24.1209L44.5507 16.8865ZM39.0355 6.95031C36.3043 4.21905 32.8619 2.30832 29.0993 1.43509L21.865 32.6066C19.7986 32.127 17.9081 31.0777 16.4081 29.5777L39.0355 6.95031ZM29.1109 1.43777C26.069 0.729446 22.9065 0.717409 19.8594 1.40255L26.8793 32.6231C25.224 32.9953 23.5059 32.9887 21.8534 32.6039L29.1109 1.43777ZM19.8594 1.40255C16.8123 2.0877 13.9593 3.45233 11.5135 5.39455L31.4133 30.4544C30.0846 31.5095 28.5347 32.2509 26.8793 32.6231L19.8594 1.40255ZM11.5335 5.37868C9.08336 7.31793 7.10453 9.78717 5.74562 12.6009L34.5611 26.5175C33.8173 28.0574 32.7343 29.4089 31.3933 30.4703L11.5335 5.37868ZM5.74562 12.6009C4.38672 15.4146 3.68306 18.4997 3.68752 21.6244L35.6875 21.5788C35.6899 23.289 35.3048 24.9775 34.5611 26.5175L5.74562 12.6009ZM3.6875 21.6016C3.6875 26.1221 5.48328 30.4575 8.67976 33.654L31.3072 11.0266C34.1118 13.8312 35.6875 17.6352 35.6875 21.6016H3.6875ZM8.67976 33.654C11.8762 36.8505 16.2116 38.6463 20.7321 38.6463V6.64625C24.6986 6.64625 28.5025 8.22191 31.3072 11.0266L8.67976 33.654ZM20.7321 38.6463C25.2527 38.6463 29.588 36.8505 32.7845 33.654L10.1571 11.0266C12.9618 8.22191 16.7657 6.64625 20.7321 6.64625V38.6463ZM32.7845 33.654C35.981 30.4575 37.7768 26.1221 37.7768 21.6016H5.77679C5.77679 17.6352 7.35245 13.8312 10.1571 11.0266L32.7845 33.654ZM37.7768 21.6245C37.7739 23.6501 37.3112 25.6487 36.4235 27.4694L7.6595 13.4469C6.42457 15.9801 5.78084 18.7606 5.77681 21.5787L37.7768 21.6245ZM36.4235 27.4694C35.5359 29.2902 34.2465 30.8858 32.6525 32.1357L12.9059 6.95496C10.6883 8.69399 8.89443 10.9138 7.6595 13.4469L36.4235 27.4694ZM32.6525 32.1357C31.0585 33.3857 29.2016 34.2575 27.2217 34.6855L20.4615 3.40767C17.707 4.00302 15.1235 5.21592 12.9059 6.95496L32.6525 32.1357ZM27.2217 34.6855C25.2418 35.1134 23.1906 35.0863 21.2227 34.6061L28.8077 3.51806C26.0699 2.85006 23.2161 2.81232 20.4615 3.40767L27.2217 34.6855Z" fill="#333333" mask="url(#path-4-inside-2_36288_13836)"/>
<path d="M24.3884 32.5698C24.9653 32.5698 25.433 32.1021 25.433 31.5251C25.433 30.9482 24.9653 30.4805 24.3884 30.4805C23.8115 30.4805 23.3438 30.9482 23.3438 31.5251C23.3438 32.1021 23.8115 32.5698 24.3884 32.5698Z" fill="#333333" stroke="#333333" stroke-width="16"/>
</svg>
