<svg width="74" height="74" viewBox="0 0 74 74" fill="none" xmlns="http://www.w3.org/2000/svg">
<path d="M1.97126 17.641C1.35636 13.2657 4.40474 9.22039 8.78002 8.60549L56.3129 1.92518C60.6882 1.31027 64.7335 4.35866 65.3484 8.73394L72.0287 56.2668C72.6436 60.6421 69.5952 64.6874 65.22 65.3023L17.6871 71.9826C13.3118 72.5975 9.26648 69.5492 8.65157 65.1739L1.97126 17.641Z" fill="#FFF7EB"/>
<path d="M42.864 27.7068C41.3913 27.203 39.8328 26.9065 38.2303 26.8387C38.7426 25.0923 39.0795 23.3328 39.1803 21.7025L39.1803 21.702C39.2884 19.927 39.1194 18.2569 38.5467 16.9079C40.1215 17.1906 41.4303 17.7334 42.3625 18.5826C43.4562 19.579 44.0928 21.0535 43.9634 23.2192L43.9633 23.2203C43.8828 24.6185 43.4903 26.1471 42.864 27.7068ZM31.2845 28.0635C29.8053 28.6746 28.4425 29.4863 27.231 30.4634C26.1076 29.2114 25.2128 27.9108 24.665 26.6297L24.6641 26.6277C23.8012 24.6341 23.8952 23.0308 24.5821 21.7204C25.1675 20.6039 26.2114 19.6464 27.594 18.8406C27.5164 20.3036 27.926 21.9312 28.6398 23.5661C29.287 25.061 30.2095 26.5982 31.2845 28.0635ZM45.7466 23.3259L45.7467 23.3241C45.8559 21.4284 45.4756 19.8809 44.7183 18.6511C43.9617 17.4227 42.8515 16.5481 41.5608 15.9589C38.9961 14.7882 35.6737 14.7215 32.7445 15.2462L32.7441 15.2463C29.7994 15.7766 26.6124 16.9324 24.5293 18.886C23.4803 19.8698 22.7 21.0671 22.3897 22.4944C22.0792 23.9231 22.2497 25.5357 23.0233 27.3309L23.0235 27.3314C23.6661 28.8181 24.6823 30.2821 25.9118 31.6525C22.1382 35.4392 20.422 40.8156 21.3582 46.1249C22.9344 55.064 31.4616 61.0346 40.4057 59.4575C49.3501 57.8803 55.3154 49.3541 53.7392 40.4152C52.8031 35.1059 49.3516 30.6408 44.5104 28.373C45.1966 26.6651 45.6471 24.9472 45.7466 23.3259ZM43.9973 41.7816L44.6969 40.7903L44.3283 40.8552C44.3503 40.537 44.283 40.2232 44.1356 39.9459C43.8422 39.3937 43.2512 39.0239 42.5278 39.0384L42.5274 39.0384L39.7801 39.0955L39.0067 38.0629L38.0795 36.8248L38.0795 36.8248L38.0749 36.8189C37.1555 35.629 35.2711 36.0003 34.8363 37.3927L34.8363 37.3927L34.835 37.3969L34.0136 40.1123L31.4124 40.9982L31.412 40.9984C30.7274 41.2321 30.2982 41.7818 30.2121 42.4016C30.1262 43.0208 30.3889 43.6662 30.9799 44.0769L33.3023 45.6946L33.345 48.4443C33.345 48.4446 33.345 48.4448 33.345 48.4451C33.3656 49.9276 34.9611 50.6931 36.1415 49.8053L36.1426 49.8045L38.4021 48.0958L41.1041 48.9292C41.7941 49.1428 42.4646 48.9527 42.8992 48.5026C43.3335 48.0529 43.5001 47.3768 43.2637 46.6964C43.2637 46.6964 43.2637 46.6963 43.2637 46.6963C43.2636 46.6962 43.2635 46.696 43.2635 46.6958L42.3631 44.0973L43.9973 41.7816ZM33.0514 27.4559C32.0962 26.2087 31.2646 24.9089 30.6331 23.6416C32.8137 22.9477 35.0675 22.4922 37.3334 22.4287C37.1783 23.8441 36.8414 25.363 36.362 26.8721C35.244 26.9536 34.1333 27.1495 33.0514 27.4559ZM39.3851 53.7001C33.6244 54.7159 28.1322 50.8703 27.1164 45.1095C26.1006 39.3485 29.9457 33.8513 35.7061 32.8356C41.467 31.8198 46.9643 35.6647 47.981 41.4306C48.9976 47.1962 45.1514 52.6834 39.3851 53.7001Z" fill="#333333" stroke="#333333"/>
</svg>
