<svg width="73" height="74" viewBox="0 0 73 74" fill="none" xmlns="http://www.w3.org/2000/svg">
<path d="M3.02049 18.2459C2.40558 13.8706 5.45397 9.82525 9.82925 9.21035L55.9263 2.73183C60.3016 2.11692 64.3469 5.16531 64.9618 9.54059L71.5287 56.2666C72.1436 60.6418 69.0952 64.6872 64.72 65.3021L18.6229 71.7806C14.2476 72.3955 10.2023 69.3471 9.58739 64.9718L3.02049 18.2459Z" fill="#FFF7EB"/>
<mask id="path-2-inside-1_36056_8620" fill="white">
<path d="M54.0095 26.5087C52.6639 24.2332 51.0294 22.1444 49.1477 20.2957L49.1475 20.2942C49.0297 20.1809 48.8725 20.1205 48.7106 20.1255C44.5341 20.2844 40.3334 20.6236 36.2214 21.1353L36.1402 21.1466C35.8377 20.9451 35.5324 20.7456 35.2209 20.5469C34.5 20.0873 33.5596 20.2126 32.989 20.846C32.7355 21.1276 32.4893 21.4065 32.2494 21.6846L32.1574 21.6973C28.0218 22.3292 24.0183 23.1167 19.9173 24.1072C19.7601 24.1448 19.6247 24.2472 19.5435 24.3896C18.3008 26.5838 17.3477 28.9653 16.6263 31.6658C16.5809 31.8395 16.5773 32.0217 16.6181 32.1978C16.6515 32.7904 17.1473 33.2495 17.7343 33.2331C18.1157 33.2215 18.5019 33.1997 18.8937 33.1739C19.5473 39.8709 20.512 46.601 21.765 53.2042C21.9398 54.1296 22.7772 54.78 23.7051 54.7086C28.7893 54.3373 33.7877 53.8136 38.7609 53.1258C43.7342 52.4381 48.6859 51.589 53.6816 50.5695C54.5948 50.3848 55.217 49.534 55.1249 48.5972C54.4731 41.9125 53.5049 35.1797 52.2537 28.567C52.6329 28.4861 53.0117 28.4021 53.386 28.3077C53.712 28.2263 53.9821 27.9946 54.1125 27.6827C54.2442 27.369 54.2209 27.0104 54.0519 26.7146C54.0621 26.6437 54.0483 26.5697 54.0099 26.5087L54.0095 26.5087ZM19.2158 31.4972C19.2285 31.6297 19.2413 31.7623 19.2542 31.8963L19.0318 32.1989C18.928 32.2053 18.824 32.2102 18.7217 32.2165L18.9442 31.9582C19.0049 31.8803 18.9946 31.7648 18.9196 31.6993C18.8443 31.6323 18.7295 31.6387 18.662 31.7128L18.2117 32.2364L18.1964 32.2385L18.1979 32.2383C18.086 32.2427 17.9773 32.2041 17.8919 32.1321L18.3213 31.8121C18.4 31.7506 18.4149 31.6364 18.3548 31.5546C18.2946 31.4729 18.1808 31.4539 18.0999 31.5109L17.723 31.7937C17.7205 31.7435 17.7259 31.6937 17.7378 31.6463C17.7661 31.5381 17.7959 31.4297 17.8252 31.3182L18.445 30.9955L18.4466 30.9953C18.5317 30.9456 18.5645 30.8368 18.519 30.7483C18.4733 30.6582 18.3663 30.6209 18.2768 30.6617L17.9667 30.8215L18.0237 30.6193L18.6686 30.2868C18.7573 30.2397 18.7932 30.1305 18.7488 30.0387C18.7015 29.9488 18.593 29.9117 18.5024 29.9558L18.182 30.1202C18.2092 30.0375 18.236 29.9516 18.2643 29.8655L18.8803 29.5054C18.9685 29.4553 18.9974 29.3407 18.947 29.2513C18.8952 29.1621 18.7829 29.1318 18.6934 29.1837L18.4422 29.329C18.4688 29.2526 18.4958 29.1794 18.5224 29.103L19.0499 28.7694L19.0515 28.7692C19.0948 28.7442 19.1263 28.702 19.138 28.6529C19.1513 28.6037 19.1422 28.5513 19.1156 28.5075C19.0877 28.4656 19.0458 28.435 18.9958 28.4246C18.9458 28.4141 18.8957 28.4242 18.8543 28.452L18.734 28.5287L18.7338 28.5271C19.2276 27.217 19.8193 25.9455 20.5061 24.7271C24.2083 23.8328 27.8253 23.1083 31.5403 22.5219C29.253 25.2808 27.5389 27.9588 26.3248 30.6688L26.3263 30.6685C26.2227 30.9056 26.0178 31.0793 25.7686 31.1407C24.9985 31.3309 24.2407 31.4973 23.4948 31.6384L23.5943 31.4382L23.5958 31.438C23.6451 31.3458 23.6114 31.2304 23.5195 31.1783C23.4278 31.1278 23.3122 31.1612 23.2629 31.2533L23.0342 31.7084L22.7202 31.7645L22.8679 31.4533L22.8661 31.452C22.9091 31.3591 22.8695 31.2461 22.7771 31.202C22.6848 31.1579 22.5732 31.197 22.5302 31.2899L22.2726 31.8374C22.156 31.8535 22.0398 31.8712 21.9237 31.8904L22.0044 31.7118C22.0366 31.6204 21.9942 31.5204 21.9069 31.4788C21.8199 31.4387 21.7165 31.4703 21.6691 31.5543L21.4916 31.9517L21.1083 32.0047L21.3028 31.616C21.3292 31.5713 21.3341 31.5185 21.3194 31.47C21.3046 31.4214 21.2705 31.3803 21.2265 31.3564C21.1809 31.3327 21.1287 31.3288 21.0812 31.3465C21.0319 31.3628 20.9932 31.3981 20.9734 31.4451L20.6655 32.0565L20.3759 32.087L20.5151 31.8798L20.5168 31.8811C20.5734 31.7959 20.5502 31.6774 20.4653 31.6196C20.3804 31.5619 20.2632 31.5844 20.2067 31.6696L19.8917 32.1335L19.8702 32.1364C19.8575 32.0039 19.8447 31.8714 19.832 31.7388L19.8322 31.7404C19.884 31.6653 19.8739 31.5624 19.8101 31.4986L19.8032 31.4505C19.7875 31.2868 19.6433 31.1645 19.4813 31.1791C19.3174 31.1922 19.199 31.3366 19.2131 31.5005L19.2158 31.4972ZM43.1985 50.8217C40.1061 51.3236 36.9665 51.7577 33.856 52.1136L33.8575 52.1134C33.3141 49.7949 32.8903 47.449 32.5908 45.087C32.2482 42.3916 34.1418 39.8955 36.8123 39.5262C39.4829 39.1569 42.0077 41.0418 42.4329 43.726C42.8075 46.0773 43.0626 48.4452 43.1985 50.8217ZM53.2699 42.0724L52.9826 41.9005C52.8953 41.8478 52.7805 41.8763 52.729 41.964C52.6777 42.0532 52.7069 42.1693 52.7941 42.222L53.3258 42.5387C53.3458 42.7003 53.366 42.8633 53.3848 43.0267L52.7178 42.6275C52.6766 42.6017 52.6255 42.5945 52.5787 42.6057C52.5305 42.6187 52.4896 42.6496 52.4643 42.6911C52.413 42.7803 52.4419 42.8948 52.5294 42.9491L53.4391 43.4931C53.4582 43.6264 53.4712 43.7605 53.4872 43.8941L52.9817 43.509C52.9001 43.4523 52.7902 43.4707 52.7312 43.55C52.6722 43.6292 52.6867 43.741 52.7615 43.8049L53.5443 44.4013C53.5647 44.5438 53.576 44.6876 53.5933 44.8306L53.2072 44.5364L53.207 44.5348C53.1247 44.4735 53.0082 44.4896 52.9464 44.5709C52.8863 44.6534 52.9031 44.7712 52.9839 44.8327L53.6489 45.338L53.6977 45.7878L53.0694 45.3091L53.0679 45.3093C52.9871 45.2478 52.8706 45.2639 52.8103 45.3449C52.7487 45.4277 52.7656 45.5455 52.8478 45.6068L53.7535 46.2968C53.7678 46.4401 53.7819 46.582 53.7977 46.7251L53.1395 46.2237C53.0573 46.1624 52.9423 46.1783 52.8804 46.2595C52.8188 46.3423 52.8357 46.46 52.918 46.5213L53.8464 47.2287C53.861 47.3737 53.8755 47.5186 53.89 47.6635L53.139 47.0927C53.0574 47.036 52.9475 47.0544 52.8885 47.1337C52.8295 47.2129 52.8424 47.3249 52.9172 47.3888L53.8825 48.1243C53.86 48.2396 53.821 48.3492 53.7655 48.4533L52.5685 47.5413C52.4871 47.4862 52.3772 47.5045 52.3182 47.5838C52.2592 47.663 52.2737 47.7748 52.3485 47.8387L53.542 48.748L53.5422 48.7496C53.4678 48.8199 53.383 48.8822 53.2932 48.9325L52.4403 48.2826L52.4387 48.2828C52.3563 48.22 52.2413 48.2359 52.1797 48.3187C52.1178 48.3999 52.1347 48.5176 52.217 48.5789L52.8661 49.0722L52.4102 49.1637L51.559 48.5151L51.5575 48.5153C51.4767 48.4538 51.3602 48.4699 51.2984 48.5511C51.2383 48.6337 51.2552 48.7514 51.3361 48.8145L51.9256 49.2623L51.5275 49.3426L50.5137 48.5412L50.5135 48.5396C50.4338 48.4748 50.3171 48.4894 50.2535 48.5692C50.1916 48.6505 50.207 48.7684 50.2866 48.8333L51.0488 49.4388L50.638 49.5178L50.0272 49.0303L50.027 49.0287C49.9458 48.9641 49.8304 48.9769 49.767 49.0584C49.7036 49.1398 49.7172 49.2564 49.7984 49.321L50.1587 49.6093L49.7509 49.6878L49.0063 49.0198C48.9723 48.9787 48.9221 48.9556 48.8688 48.9551C48.8154 48.953 48.7655 48.9757 48.7305 49.0153C48.694 49.0551 48.6781 49.1078 48.6843 49.1623C48.6919 49.2149 48.7207 49.2631 48.7641 49.2934L49.2956 49.7729C49.1432 49.8003 48.9846 49.8286 48.8296 49.8595L47.9471 49.1015L47.9468 49.0999C47.8685 49.0334 47.7511 49.0433 47.6857 49.1218C47.6189 49.2006 47.6294 49.3176 47.7079 49.3858L48.3605 49.9465L47.8989 50.0309L47.3451 49.5924L47.3449 49.5908C47.2648 49.534 47.1529 49.5494 47.0924 49.6289C47.0317 49.7068 47.043 49.819 47.1181 49.8845L47.4127 50.1186C46.2024 50.335 44.9938 50.5416 43.7851 50.7372C43.6475 48.3594 43.3923 45.9901 43.0178 43.6389L43.0193 43.6387C42.5332 40.6076 39.7325 38.5095 36.7263 38.9252C33.7201 39.341 31.6181 42.1169 32.003 45.1621L32.0045 45.1619C32.3057 47.5249 32.7283 49.873 33.2703 52.1929C32.0627 52.3299 30.8524 52.4593 29.6375 52.5784L29.8096 52.3397L29.8081 52.3399C29.8682 52.2573 29.8498 52.1398 29.7675 52.0785C29.6837 52.0174 29.5676 52.0366 29.5075 52.1192L29.1442 52.6276L28.672 52.6708L29.1008 52.019L29.1023 52.0188C29.151 51.9331 29.1258 51.8228 29.0444 51.7677C28.9613 51.7112 28.8516 51.7312 28.7928 51.812L28.2 52.7155C28.0456 52.729 27.8838 52.745 27.7248 52.7591L28.0633 52.2193L28.062 52.2211C28.1166 52.133 28.0907 52.018 28.0045 51.962C27.9168 51.9062 27.8031 51.9314 27.7485 52.0195L27.2598 52.7981L26.852 52.8324L27.073 52.5206L27.0733 52.5221C27.1316 52.4382 27.1132 52.3207 27.0296 52.2611C26.9458 52.2001 26.831 52.2175 26.7712 52.3016L26.3655 52.8744L25.9484 52.9099L26.4699 52.1853L26.4684 52.1855C26.5283 52.1014 26.5083 51.984 26.4245 51.9229C26.3407 51.8619 26.2246 51.8811 26.165 51.9667L25.4615 52.9488L25.0594 52.9791L25.4527 52.4507C25.4848 52.4131 25.5009 52.3619 25.4951 52.3106C25.4893 52.2592 25.4623 52.2124 25.4219 52.1817C25.3816 52.1509 25.3296 52.1376 25.2792 52.1461C25.2289 52.1546 25.1845 52.1829 25.1578 52.2261L24.5679 53.0186L24.104 53.0544L24.5418 52.4661L24.5403 52.4663C24.5943 52.3846 24.5767 52.2733 24.4978 52.2131C24.4188 52.1529 24.3079 52.1651 24.2437 52.2403L23.6446 53.0452L23.6461 53.045C23.5429 53.0229 23.4425 52.9879 23.3482 52.9409L24.201 51.7896C24.2628 51.7084 24.2459 51.5907 24.1637 51.5294C24.0812 51.4665 23.9662 51.4824 23.9046 51.5652L23.0404 52.7243C22.957 52.6442 22.8874 52.5511 22.8307 52.4499L23.5281 51.513C23.5818 51.4297 23.5643 51.3184 23.4853 51.2582C23.4064 51.198 23.2955 51.2102 23.2313 51.2854L22.6859 52.0181C22.6591 51.8749 22.6324 51.7316 22.6056 51.5884L23.2835 50.6794C23.3375 50.5977 23.32 50.4864 23.241 50.4262C23.162 50.366 23.0512 50.3782 22.9869 50.4534L22.5124 51.091C22.4858 50.9493 22.4594 50.8092 22.4344 50.6673L23.0938 49.7814L23.0954 49.7812C23.1491 49.6979 23.13 49.5868 23.051 49.5266C22.9721 49.4665 22.8615 49.4802 22.7987 49.5552L22.3451 50.1646L22.2656 49.719L22.7454 49.0744C22.8071 48.9916 22.7904 48.8754 22.7079 48.8126C22.6254 48.7497 22.5104 48.7656 22.4488 48.8484L22.1744 49.2134C22.1494 49.0715 22.1243 48.9296 22.1011 48.7891L22.67 48.0247L22.6702 48.0262C22.7021 47.9871 22.7167 47.9361 22.7109 47.8847C22.7051 47.8334 22.6781 47.7866 22.6377 47.7558C22.5973 47.7251 22.5454 47.7117 22.495 47.7202C22.4447 47.7288 22.4005 47.7586 22.3736 47.8002L22.0144 48.2828C21.9955 48.1511 21.9705 48.0203 21.9486 47.889L22.6523 47.1376C22.7214 47.0633 22.7167 46.9438 22.6426 46.8735C22.5666 46.8019 22.4499 46.8054 22.381 46.8812L21.8697 47.426L21.7892 46.941L22.1965 46.5102L22.1967 46.5117C22.2671 46.4356 22.2627 46.3178 22.1868 46.2461C22.1124 46.1742 21.9956 46.1777 21.925 46.2523L21.7134 46.4775C20.974 41.919 20.3751 37.3156 19.9258 32.7308C21.9441 32.5449 23.9447 32.2035 25.9096 31.7106C26.3327 31.6078 26.6845 31.3143 26.8632 30.9136C28.1409 28.0588 29.9933 25.2319 32.5032 22.3019L32.5113 22.2928C32.8086 21.9452 33.1153 21.5979 33.4311 21.2493L33.4281 21.2497C33.8056 20.8294 34.43 20.7462 34.9068 21.0515C35.2939 21.2982 35.6734 21.5459 36.0456 21.7978L36.0665 21.8123C39.1813 23.9095 41.7669 26.1337 43.9489 28.5811L43.9502 28.5793C44.2351 28.8986 44.6449 29.0742 45.0662 29.057C46.5233 29.0135 47.9757 28.8932 49.4187 28.6968C50.0028 28.6161 50.5727 28.523 51.128 28.4162C51.9848 32.9317 52.7022 37.5012 53.2699 42.0724ZM52.3518 27.0731L52.9141 27.2876C52.8507 27.3801 52.7569 27.4452 52.6496 27.4711L52.6159 27.4758L51.9943 27.0656C51.9085 27.0127 51.7966 27.0392 51.7429 27.1225C51.6894 27.2073 51.7117 27.3195 51.792 27.378L52.1199 27.5933C52.017 27.617 51.9156 27.6405 51.8125 27.6627L51.5437 27.4565C51.5174 27.3164 51.4911 27.1763 51.4632 27.0363L51.463 27.0348C51.4329 26.8794 51.2865 26.7748 51.1317 26.7962C50.9753 26.8178 50.8656 26.9578 50.8789 27.1156C50.8662 27.1252 50.8555 27.1378 50.8448 27.1503C50.8159 27.1891 50.8029 27.2398 50.81 27.2894C50.8169 27.3374 50.8437 27.3827 50.8823 27.4121L50.9455 27.4603C50.9694 27.5834 50.9928 27.7034 51.0167 27.8264L50.9707 27.8328L50.5021 27.4426L50.4988 27.4415C50.461 27.4072 50.4117 27.3903 50.3609 27.3958C50.3114 27.3994 50.2648 27.4233 50.2344 27.4622C50.2025 27.5014 50.1877 27.5508 50.1935 27.6022C50.1991 27.652 50.2244 27.6974 50.2647 27.7282L50.4936 27.9178L50.2003 27.9662L49.7027 27.4394C49.6318 27.3702 49.5205 27.3682 49.4473 27.4352C49.3758 27.5035 49.3701 27.6165 49.4342 27.6929L49.7595 28.0429L49.3732 28.0964L49.0614 27.7319L49.0601 27.7336C49.0296 27.6952 48.984 27.6715 48.9349 27.6672C48.8858 27.6629 48.8365 27.6792 48.8005 27.7111C48.7628 27.7431 48.7399 27.7905 48.7376 27.8398C48.7338 27.8893 48.7501 27.9376 48.7819 27.9743L48.9358 28.1537L48.5856 28.1974L48.1564 27.7116L48.1582 27.713C48.089 27.6341 47.9722 27.6265 47.8961 27.6955C47.8198 27.7629 47.8119 27.8825 47.8809 27.9599L48.1347 28.2471L47.8171 28.2784L47.4434 27.875L47.4421 27.8768C47.4099 27.837 47.3625 27.8119 47.3121 27.8094C47.2615 27.8054 47.2109 27.8234 47.1737 27.8586C47.1366 27.8937 47.1154 27.9425 47.1166 27.9945C47.1161 28.0451 47.1372 28.0943 47.1736 28.1304L47.351 28.3207C46.605 28.3844 45.8359 28.4291 45.0395 28.4571C44.7924 28.4676 44.5525 28.3648 44.3866 28.1777C42.3257 25.8636 39.9086 23.7475 37.0381 21.7524C40.7552 21.3111 44.5453 21.0176 48.3079 20.8718C49.3151 21.8558 50.2455 22.9153 51.0918 24.0417L50.8941 23.9822L50.8943 23.9837C50.7985 23.959 50.7003 24.0153 50.6735 24.1122C50.6465 24.2076 50.7002 24.3092 50.794 24.342L51.4583 24.5377L51.5954 24.7305L51.2528 24.642C51.2055 24.628 51.1534 24.6352 51.11 24.6601C51.0683 24.6849 51.0368 24.7271 51.0251 24.7762C51.0133 24.8252 51.0207 24.8763 51.0472 24.92C51.0736 24.9622 51.117 24.9925 51.1655 25.0032L51.9216 25.1957C51.971 25.2678 52.0205 25.34 52.0684 25.4124L51.6529 25.3276L51.6531 25.3292C51.6042 25.3154 51.5508 25.3244 51.5079 25.3524C51.4648 25.3789 51.4351 25.4225 51.4266 25.4727C51.4169 25.5246 51.4275 25.5768 51.4585 25.6184C51.4879 25.6601 51.5326 25.6887 51.5835 25.6943L52.3562 25.8497L52.4751 26.0355L52.0727 25.9553L52.0712 25.9555C52.0225 25.9433 51.9706 25.952 51.9293 25.9799C51.8862 26.0064 51.8565 26.05 51.8465 26.1003C51.8381 26.1505 51.8487 26.2027 51.8781 26.2445C51.9075 26.2862 51.9523 26.3148 52.0018 26.3222L52.7456 26.4721C52.8067 26.5711 52.8682 26.6732 52.9293 26.7722L52.928 26.7739C52.9529 26.8163 52.9705 26.8628 52.982 26.9102L52.476 26.7179L52.4758 26.7164C52.4295 26.6991 52.378 26.6999 52.3323 26.7188C52.2868 26.7394 52.2516 26.7774 52.2348 26.824C52.2167 26.8723 52.2194 26.924 52.2414 26.9684C52.2621 27.0145 52.3001 27.0503 52.3476 27.0659L52.3518 27.0731Z"/>
</mask>
<path d="M54.0095 26.5087C52.6639 24.2332 51.0294 22.1444 49.1477 20.2957L49.1475 20.2942C49.0297 20.1809 48.8725 20.1205 48.7106 20.1255C44.5341 20.2844 40.3334 20.6236 36.2214 21.1353L36.1402 21.1466C35.8377 20.9451 35.5324 20.7456 35.2209 20.5469C34.5 20.0873 33.5596 20.2126 32.989 20.846C32.7355 21.1276 32.4893 21.4065 32.2494 21.6846L32.1574 21.6973C28.0218 22.3292 24.0183 23.1167 19.9173 24.1072C19.7601 24.1448 19.6247 24.2472 19.5435 24.3896C18.3008 26.5838 17.3477 28.9653 16.6263 31.6658C16.5809 31.8395 16.5773 32.0217 16.6181 32.1978C16.6515 32.7904 17.1473 33.2495 17.7343 33.2331C18.1157 33.2215 18.5019 33.1997 18.8937 33.1739C19.5473 39.8709 20.512 46.601 21.765 53.2042C21.9398 54.1296 22.7772 54.78 23.7051 54.7086C28.7893 54.3373 33.7877 53.8136 38.7609 53.1258C43.7342 52.4381 48.6859 51.589 53.6816 50.5695C54.5948 50.3848 55.217 49.534 55.1249 48.5972C54.4731 41.9125 53.5049 35.1797 52.2537 28.567C52.6329 28.4861 53.0117 28.4021 53.386 28.3077C53.712 28.2263 53.9821 27.9946 54.1125 27.6827C54.2442 27.369 54.2209 27.0104 54.0519 26.7146C54.0621 26.6437 54.0483 26.5697 54.0099 26.5087L54.0095 26.5087ZM19.2158 31.4972C19.2285 31.6297 19.2413 31.7623 19.2542 31.8963L19.0318 32.1989C18.928 32.2053 18.824 32.2102 18.7217 32.2165L18.9442 31.9582C19.0049 31.8803 18.9946 31.7648 18.9196 31.6993C18.8443 31.6323 18.7295 31.6387 18.662 31.7128L18.2117 32.2364L18.1964 32.2385L18.1979 32.2383C18.086 32.2427 17.9773 32.2041 17.8919 32.1321L18.3213 31.8121C18.4 31.7506 18.4149 31.6364 18.3548 31.5546C18.2946 31.4729 18.1808 31.4539 18.0999 31.5109L17.723 31.7937C17.7205 31.7435 17.7259 31.6937 17.7378 31.6463C17.7661 31.5381 17.7959 31.4297 17.8252 31.3182L18.445 30.9955L18.4466 30.9953C18.5317 30.9456 18.5645 30.8368 18.519 30.7483C18.4733 30.6582 18.3663 30.6209 18.2768 30.6617L17.9667 30.8215L18.0237 30.6193L18.6686 30.2868C18.7573 30.2397 18.7932 30.1305 18.7488 30.0387C18.7015 29.9488 18.593 29.9117 18.5024 29.9558L18.182 30.1202C18.2092 30.0375 18.236 29.9516 18.2643 29.8655L18.8803 29.5054C18.9685 29.4553 18.9974 29.3407 18.947 29.2513C18.8952 29.1621 18.7829 29.1318 18.6934 29.1837L18.4422 29.329C18.4688 29.2526 18.4958 29.1794 18.5224 29.103L19.0499 28.7694L19.0515 28.7692C19.0948 28.7442 19.1263 28.702 19.138 28.6529C19.1513 28.6037 19.1422 28.5513 19.1156 28.5075C19.0877 28.4656 19.0458 28.435 18.9958 28.4246C18.9458 28.4141 18.8957 28.4242 18.8543 28.452L18.734 28.5287L18.7338 28.5271C19.2276 27.217 19.8193 25.9455 20.5061 24.7271C24.2083 23.8328 27.8253 23.1083 31.5403 22.5219C29.253 25.2808 27.5389 27.9588 26.3248 30.6688L26.3263 30.6685C26.2227 30.9056 26.0178 31.0793 25.7686 31.1407C24.9985 31.3309 24.2407 31.4973 23.4948 31.6384L23.5943 31.4382L23.5958 31.438C23.6451 31.3458 23.6114 31.2304 23.5195 31.1783C23.4278 31.1278 23.3122 31.1612 23.2629 31.2533L23.0342 31.7084L22.7202 31.7645L22.8679 31.4533L22.8661 31.452C22.9091 31.3591 22.8695 31.2461 22.7771 31.202C22.6848 31.1579 22.5732 31.197 22.5302 31.2899L22.2726 31.8374C22.156 31.8535 22.0398 31.8712 21.9237 31.8904L22.0044 31.7118C22.0366 31.6204 21.9942 31.5204 21.9069 31.4788C21.8199 31.4387 21.7165 31.4703 21.6691 31.5543L21.4916 31.9517L21.1083 32.0047L21.3028 31.616C21.3292 31.5713 21.3341 31.5185 21.3194 31.47C21.3046 31.4214 21.2705 31.3803 21.2265 31.3564C21.1809 31.3327 21.1287 31.3288 21.0812 31.3465C21.0319 31.3628 20.9932 31.3981 20.9734 31.4451L20.6655 32.0565L20.3759 32.087L20.5151 31.8798L20.5168 31.8811C20.5734 31.7959 20.5502 31.6774 20.4653 31.6196C20.3804 31.5619 20.2632 31.5844 20.2067 31.6696L19.8917 32.1335L19.8702 32.1364C19.8575 32.0039 19.8447 31.8714 19.832 31.7388L19.8322 31.7404C19.884 31.6653 19.8739 31.5624 19.8101 31.4986L19.8032 31.4505C19.7875 31.2868 19.6433 31.1645 19.4813 31.1791C19.3174 31.1922 19.199 31.3366 19.2131 31.5005L19.2158 31.4972ZM43.1985 50.8217C40.1061 51.3236 36.9665 51.7577 33.856 52.1136L33.8575 52.1134C33.3141 49.7949 32.8903 47.449 32.5908 45.087C32.2482 42.3916 34.1418 39.8955 36.8123 39.5262C39.4829 39.1569 42.0077 41.0418 42.4329 43.726C42.8075 46.0773 43.0626 48.4452 43.1985 50.8217ZM53.2699 42.0724L52.9826 41.9005C52.8953 41.8478 52.7805 41.8763 52.729 41.964C52.6777 42.0532 52.7069 42.1693 52.7941 42.222L53.3258 42.5387C53.3458 42.7003 53.366 42.8633 53.3848 43.0267L52.7178 42.6275C52.6766 42.6017 52.6255 42.5945 52.5787 42.6057C52.5305 42.6187 52.4896 42.6496 52.4643 42.6911C52.413 42.7803 52.4419 42.8948 52.5294 42.9491L53.4391 43.4931C53.4582 43.6264 53.4712 43.7605 53.4872 43.8941L52.9817 43.509C52.9001 43.4523 52.7902 43.4707 52.7312 43.55C52.6722 43.6292 52.6867 43.741 52.7615 43.8049L53.5443 44.4013C53.5647 44.5438 53.576 44.6876 53.5933 44.8306L53.2072 44.5364L53.207 44.5348C53.1247 44.4735 53.0082 44.4896 52.9464 44.5709C52.8863 44.6534 52.9031 44.7712 52.9839 44.8327L53.6489 45.338L53.6977 45.7878L53.0694 45.3091L53.0679 45.3093C52.9871 45.2478 52.8706 45.2639 52.8103 45.3449C52.7487 45.4277 52.7656 45.5455 52.8478 45.6068L53.7535 46.2968C53.7678 46.4401 53.7819 46.582 53.7977 46.7251L53.1395 46.2237C53.0573 46.1624 52.9423 46.1783 52.8804 46.2595C52.8188 46.3423 52.8357 46.46 52.918 46.5213L53.8464 47.2287C53.861 47.3737 53.8755 47.5186 53.89 47.6635L53.139 47.0927C53.0574 47.036 52.9475 47.0544 52.8885 47.1337C52.8295 47.2129 52.8424 47.3249 52.9172 47.3888L53.8825 48.1243C53.86 48.2396 53.821 48.3492 53.7655 48.4533L52.5685 47.5413C52.4871 47.4862 52.3772 47.5045 52.3182 47.5838C52.2592 47.663 52.2737 47.7748 52.3485 47.8387L53.542 48.748L53.5422 48.7496C53.4678 48.8199 53.383 48.8822 53.2932 48.9325L52.4403 48.2826L52.4387 48.2828C52.3563 48.22 52.2413 48.2359 52.1797 48.3187C52.1178 48.3999 52.1347 48.5176 52.217 48.5789L52.8661 49.0722L52.4102 49.1637L51.559 48.5151L51.5575 48.5153C51.4767 48.4538 51.3602 48.4699 51.2984 48.5511C51.2383 48.6337 51.2552 48.7514 51.3361 48.8145L51.9256 49.2623L51.5275 49.3426L50.5137 48.5412L50.5135 48.5396C50.4338 48.4748 50.3171 48.4894 50.2535 48.5692C50.1916 48.6505 50.207 48.7684 50.2866 48.8333L51.0488 49.4388L50.638 49.5178L50.0272 49.0303L50.027 49.0287C49.9458 48.9641 49.8304 48.9769 49.767 49.0584C49.7036 49.1398 49.7172 49.2564 49.7984 49.321L50.1587 49.6093L49.7509 49.6878L49.0063 49.0198C48.9723 48.9787 48.9221 48.9556 48.8688 48.9551C48.8154 48.953 48.7655 48.9757 48.7305 49.0153C48.694 49.0551 48.6781 49.1078 48.6843 49.1623C48.6919 49.2149 48.7207 49.2631 48.7641 49.2934L49.2956 49.7729C49.1432 49.8003 48.9846 49.8286 48.8296 49.8595L47.9471 49.1015L47.9468 49.0999C47.8685 49.0334 47.7511 49.0433 47.6857 49.1218C47.6189 49.2006 47.6294 49.3176 47.7079 49.3858L48.3605 49.9465L47.8989 50.0309L47.3451 49.5924L47.3449 49.5908C47.2648 49.534 47.1529 49.5494 47.0924 49.6289C47.0317 49.7068 47.043 49.819 47.1181 49.8845L47.4127 50.1186C46.2024 50.335 44.9938 50.5416 43.7851 50.7372C43.6475 48.3594 43.3923 45.9901 43.0178 43.6389L43.0193 43.6387C42.5332 40.6076 39.7325 38.5095 36.7263 38.9252C33.7201 39.341 31.6181 42.1169 32.003 45.1621L32.0045 45.1619C32.3057 47.5249 32.7283 49.873 33.2703 52.1929C32.0627 52.3299 30.8524 52.4593 29.6375 52.5784L29.8096 52.3397L29.8081 52.3399C29.8682 52.2573 29.8498 52.1398 29.7675 52.0785C29.6837 52.0174 29.5676 52.0366 29.5075 52.1192L29.1442 52.6276L28.672 52.6708L29.1008 52.019L29.1023 52.0188C29.151 51.9331 29.1258 51.8228 29.0444 51.7677C28.9613 51.7112 28.8516 51.7312 28.7928 51.812L28.2 52.7155C28.0456 52.729 27.8838 52.745 27.7248 52.7591L28.0633 52.2193L28.062 52.2211C28.1166 52.133 28.0907 52.018 28.0045 51.962C27.9168 51.9062 27.8031 51.9314 27.7485 52.0195L27.2598 52.7981L26.852 52.8324L27.073 52.5206L27.0733 52.5221C27.1316 52.4382 27.1132 52.3207 27.0296 52.2611C26.9458 52.2001 26.831 52.2175 26.7712 52.3016L26.3655 52.8744L25.9484 52.9099L26.4699 52.1853L26.4684 52.1855C26.5283 52.1014 26.5083 51.984 26.4245 51.9229C26.3407 51.8619 26.2246 51.8811 26.165 51.9667L25.4615 52.9488L25.0594 52.9791L25.4527 52.4507C25.4848 52.4131 25.5009 52.3619 25.4951 52.3106C25.4893 52.2592 25.4623 52.2124 25.4219 52.1817C25.3816 52.1509 25.3296 52.1376 25.2792 52.1461C25.2289 52.1546 25.1845 52.1829 25.1578 52.2261L24.5679 53.0186L24.104 53.0544L24.5418 52.4661L24.5403 52.4663C24.5943 52.3846 24.5767 52.2733 24.4978 52.2131C24.4188 52.1529 24.3079 52.1651 24.2437 52.2403L23.6446 53.0452L23.6461 53.045C23.5429 53.0229 23.4425 52.9879 23.3482 52.9409L24.201 51.7896C24.2628 51.7084 24.2459 51.5907 24.1637 51.5294C24.0812 51.4665 23.9662 51.4824 23.9046 51.5652L23.0404 52.7243C22.957 52.6442 22.8874 52.5511 22.8307 52.4499L23.5281 51.513C23.5818 51.4297 23.5643 51.3184 23.4853 51.2582C23.4064 51.198 23.2955 51.2102 23.2313 51.2854L22.6859 52.0181C22.6591 51.8749 22.6324 51.7316 22.6056 51.5884L23.2835 50.6794C23.3375 50.5977 23.32 50.4864 23.241 50.4262C23.162 50.366 23.0512 50.3782 22.9869 50.4534L22.5124 51.091C22.4858 50.9493 22.4594 50.8092 22.4344 50.6673L23.0938 49.7814L23.0954 49.7812C23.1491 49.6979 23.13 49.5868 23.051 49.5266C22.9721 49.4665 22.8615 49.4802 22.7987 49.5552L22.3451 50.1646L22.2656 49.719L22.7454 49.0744C22.8071 48.9916 22.7904 48.8754 22.7079 48.8126C22.6254 48.7497 22.5104 48.7656 22.4488 48.8484L22.1744 49.2134C22.1494 49.0715 22.1243 48.9296 22.1011 48.7891L22.67 48.0247L22.6702 48.0262C22.7021 47.9871 22.7167 47.9361 22.7109 47.8847C22.7051 47.8334 22.6781 47.7866 22.6377 47.7558C22.5973 47.7251 22.5454 47.7117 22.495 47.7202C22.4447 47.7288 22.4005 47.7586 22.3736 47.8002L22.0144 48.2828C21.9955 48.1511 21.9705 48.0203 21.9486 47.889L22.6523 47.1376C22.7214 47.0633 22.7167 46.9438 22.6426 46.8735C22.5666 46.8019 22.4499 46.8054 22.381 46.8812L21.8697 47.426L21.7892 46.941L22.1965 46.5102L22.1967 46.5117C22.2671 46.4356 22.2627 46.3178 22.1868 46.2461C22.1124 46.1742 21.9956 46.1777 21.925 46.2523L21.7134 46.4775C20.974 41.919 20.3751 37.3156 19.9258 32.7308C21.9441 32.5449 23.9447 32.2035 25.9096 31.7106C26.3327 31.6078 26.6845 31.3143 26.8632 30.9136C28.1409 28.0588 29.9933 25.2319 32.5032 22.3019L32.5113 22.2928C32.8086 21.9452 33.1153 21.5979 33.4311 21.2493L33.4281 21.2497C33.8056 20.8294 34.43 20.7462 34.9068 21.0515C35.2939 21.2982 35.6734 21.5459 36.0456 21.7978L36.0665 21.8123C39.1813 23.9095 41.7669 26.1337 43.9489 28.5811L43.9502 28.5793C44.2351 28.8986 44.6449 29.0742 45.0662 29.057C46.5233 29.0135 47.9757 28.8932 49.4187 28.6968C50.0028 28.6161 50.5727 28.523 51.128 28.4162C51.9848 32.9317 52.7022 37.5012 53.2699 42.0724ZM52.3518 27.0731L52.9141 27.2876C52.8507 27.3801 52.7569 27.4452 52.6496 27.4711L52.6159 27.4758L51.9943 27.0656C51.9085 27.0127 51.7966 27.0392 51.7429 27.1225C51.6894 27.2073 51.7117 27.3195 51.792 27.378L52.1199 27.5933C52.017 27.617 51.9156 27.6405 51.8125 27.6627L51.5437 27.4565C51.5174 27.3164 51.4911 27.1763 51.4632 27.0363L51.463 27.0348C51.4329 26.8794 51.2865 26.7748 51.1317 26.7962C50.9753 26.8178 50.8656 26.9578 50.8789 27.1156C50.8662 27.1252 50.8555 27.1378 50.8448 27.1503C50.8159 27.1891 50.8029 27.2398 50.81 27.2894C50.8169 27.3374 50.8437 27.3827 50.8823 27.4121L50.9455 27.4603C50.9694 27.5834 50.9928 27.7034 51.0167 27.8264L50.9707 27.8328L50.5021 27.4426L50.4988 27.4415C50.461 27.4072 50.4117 27.3903 50.3609 27.3958C50.3114 27.3994 50.2648 27.4233 50.2344 27.4622C50.2025 27.5014 50.1877 27.5508 50.1935 27.6022C50.1991 27.652 50.2244 27.6974 50.2647 27.7282L50.4936 27.9178L50.2003 27.9662L49.7027 27.4394C49.6318 27.3702 49.5205 27.3682 49.4473 27.4352C49.3758 27.5035 49.3701 27.6165 49.4342 27.6929L49.7595 28.0429L49.3732 28.0964L49.0614 27.7319L49.0601 27.7336C49.0296 27.6952 48.984 27.6715 48.9349 27.6672C48.8858 27.6629 48.8365 27.6792 48.8005 27.7111C48.7628 27.7431 48.7399 27.7905 48.7376 27.8398C48.7338 27.8893 48.7501 27.9376 48.7819 27.9743L48.9358 28.1537L48.5856 28.1974L48.1564 27.7116L48.1582 27.713C48.089 27.6341 47.9722 27.6265 47.8961 27.6955C47.8198 27.7629 47.8119 27.8825 47.8809 27.9599L48.1347 28.2471L47.8171 28.2784L47.4434 27.875L47.4421 27.8768C47.4099 27.837 47.3625 27.8119 47.3121 27.8094C47.2615 27.8054 47.2109 27.8234 47.1737 27.8586C47.1366 27.8937 47.1154 27.9425 47.1166 27.9945C47.1161 28.0451 47.1372 28.0943 47.1736 28.1304L47.351 28.3207C46.605 28.3844 45.8359 28.4291 45.0395 28.4571C44.7924 28.4676 44.5525 28.3648 44.3866 28.1777C42.3257 25.8636 39.9086 23.7475 37.0381 21.7524C40.7552 21.3111 44.5453 21.0176 48.3079 20.8718C49.3151 21.8558 50.2455 22.9153 51.0918 24.0417L50.8941 23.9822L50.8943 23.9837C50.7985 23.959 50.7003 24.0153 50.6735 24.1122C50.6465 24.2076 50.7002 24.3092 50.794 24.342L51.4583 24.5377L51.5954 24.7305L51.2528 24.642C51.2055 24.628 51.1534 24.6352 51.11 24.6601C51.0683 24.6849 51.0368 24.7271 51.0251 24.7762C51.0133 24.8252 51.0207 24.8763 51.0472 24.92C51.0736 24.9622 51.117 24.9925 51.1655 25.0032L51.9216 25.1957C51.971 25.2678 52.0205 25.34 52.0684 25.4124L51.6529 25.3276L51.6531 25.3292C51.6042 25.3154 51.5508 25.3244 51.5079 25.3524C51.4648 25.3789 51.4351 25.4225 51.4266 25.4727C51.4169 25.5246 51.4275 25.5768 51.4585 25.6184C51.4879 25.6601 51.5326 25.6887 51.5835 25.6943L52.3562 25.8497L52.4751 26.0355L52.0727 25.9553L52.0712 25.9555C52.0225 25.9433 51.9706 25.952 51.9293 25.9799C51.8862 26.0064 51.8565 26.05 51.8465 26.1003C51.8381 26.1505 51.8487 26.2027 51.8781 26.2445C51.9075 26.2862 51.9523 26.3148 52.0018 26.3222L52.7456 26.4721C52.8067 26.5711 52.8682 26.6732 52.9293 26.7722L52.928 26.7739C52.9529 26.8163 52.9705 26.8628 52.982 26.9102L52.476 26.7179L52.4758 26.7164C52.4295 26.6991 52.378 26.6999 52.3323 26.7188C52.2868 26.7394 52.2516 26.7774 52.2348 26.824C52.2167 26.8723 52.2194 26.924 52.2414 26.9684C52.2621 27.0145 52.3001 27.0503 52.3476 27.0659L52.3518 27.0731Z" fill="#333333" stroke="#333333" stroke-width="0.822378" mask="url(#path-2-inside-1_36056_8620)"/>
<path d="M29.1238 42.6503C27.4052 42.5033 25.6766 42.7434 24.0665 43.3525C23.9598 43.3926 23.8864 43.4913 23.8764 43.6065C23.7456 45.2288 23.9914 46.949 24.6119 48.72C24.6532 48.8328 24.7567 48.9116 24.8752 48.9205C26.5938 49.0454 28.3179 48.806 29.9325 48.2183L29.9341 48.2181C30.0454 48.1773 30.1227 48.0734 30.1305 47.9537C30.238 46.0818 29.9888 44.3605 29.395 42.8403C29.3492 42.7281 29.243 42.6528 29.1238 42.6503ZM28.7729 45.4917L29.4986 45.9836C29.5063 46.0805 29.5137 46.1759 29.5214 46.2728L29.2355 46.0675L29.234 46.0677C29.152 46.008 29.0359 46.0273 28.9759 46.1099C28.9177 46.1938 28.9377 46.3112 29.0212 46.3707L29.5438 46.7438C29.5456 46.8431 29.5474 46.9425 29.5494 47.0433L28.9356 46.6228L28.9341 46.623C28.8939 46.5938 28.8422 46.582 28.7934 46.5904C28.7446 46.5988 28.7017 46.6268 28.6734 46.6687C28.6465 46.7104 28.6353 46.7625 28.6455 46.8117C28.6557 46.8608 28.6853 46.9041 28.7268 46.9315L29.542 47.4916C29.5409 47.5708 29.5389 47.6438 29.5342 47.7203L29.4537 47.7473L28.8674 47.3008L28.8672 47.2993C28.7858 47.2442 28.6757 47.2611 28.6168 47.3404C28.5578 47.4197 28.5708 47.5316 28.6457 47.5955L29.0213 47.8816C28.9193 47.9116 28.8158 47.9417 28.7119 47.9688L28.0782 47.4862L28.0797 47.486C27.9989 47.4245 27.8825 47.4407 27.8207 47.522C27.7607 47.6046 27.7776 47.7224 27.8586 47.7854L28.2483 48.0822C28.1393 48.1068 28.0283 48.1285 27.9188 48.15L27.2627 47.6089L27.2642 47.6087C27.1846 47.5439 27.0674 47.5555 27.0039 47.6354C26.9401 47.7138 26.9525 47.8322 27.0306 47.8972L27.4348 48.2299L27.0624 48.2816L26.7008 48.0062L26.7011 48.0078C26.6201 47.9447 26.5052 47.9607 26.4436 48.0435C26.3821 48.1263 26.3988 48.2425 26.4813 48.3054L26.5164 48.3321L26.5162 48.3305C26.0454 48.3611 25.5737 48.3634 25.1025 48.3372C24.582 46.7832 24.3656 45.2786 24.4509 43.8509L24.4527 43.8522C25.8734 43.3405 27.3875 43.1303 28.8968 43.2352L28.8966 43.2336C29.0613 43.6833 29.193 44.1424 29.2914 44.6091L29.1527 44.5035C29.0702 44.4407 28.9553 44.4567 28.8937 44.5395C28.8322 44.6223 28.8489 44.7385 28.9314 44.8014L29.3931 45.1529L29.443 45.5L28.9753 45.1825C28.8904 45.1247 28.7763 45.1469 28.7198 45.2322C28.6633 45.3175 28.6864 45.4344 28.7713 45.4921L28.7729 45.4917Z" fill="#333333"/>
<path d="M30.1493 41.2014C30.0192 41.1009 29.8337 41.1267 29.7355 41.2589C29.6386 41.3893 29.6641 41.577 29.7957 41.6772L30.3381 42.0903C30.4697 42.1905 30.6549 42.1632 30.7519 42.0328C30.8501 41.9006 30.8231 41.7132 30.6915 41.6129L30.1493 41.2014Z" fill="#333333"/>
<path d="M50.0342 39.6389C48.3156 39.4919 46.587 39.7319 44.9769 40.3411C44.8702 40.3812 44.7968 40.4799 44.7884 40.5948C44.656 42.2173 44.9034 43.9373 45.5239 45.7083C45.5636 45.8213 45.6672 45.9002 45.7872 45.9088C47.5043 46.0339 49.2252 45.7949 50.8398 45.2073C50.9512 45.1665 51.0269 45.0627 51.0316 44.9436C51.1406 43.0714 50.8914 41.3501 50.2961 39.8301C50.2535 39.719 50.1508 39.6448 50.0342 39.6389ZM49.6833 42.4802L50.4075 42.9723C50.4149 43.0677 50.4226 43.1646 50.4301 43.26L50.1444 43.0562C50.0615 43.0014 49.9521 43.0229 49.8949 43.1035C49.8379 43.1857 49.8542 43.2988 49.9319 43.3607L50.4545 43.7339C50.4565 43.8348 50.4581 43.9325 50.4601 44.0334L49.846 43.6113L49.8458 43.6098C49.7605 43.56 49.6515 43.5846 49.5976 43.6664C49.5435 43.7466 49.5611 43.8579 49.6403 43.9196L50.4555 44.4797C50.4544 44.5589 50.4508 44.6321 50.4477 44.7084L50.3657 44.7356L49.7794 44.2891L49.7789 44.286C49.6976 44.2309 49.5877 44.2494 49.5287 44.3287C49.4698 44.408 49.4828 44.52 49.5594 44.5852L49.935 44.8712C49.833 44.9012 49.7295 44.9314 49.6256 44.9585L48.9937 44.4773L48.9932 44.4742C48.9109 44.4129 48.7945 44.4291 48.7342 44.5101C48.6727 44.593 48.6896 44.7107 48.7721 44.7735L49.1618 45.0703C49.0528 45.0949 48.9434 45.1164 48.8324 45.1382L48.1762 44.5971C48.0963 44.5307 47.9792 44.5423 47.9157 44.6222C47.8521 44.7021 47.8643 44.819 47.9442 44.8853L48.3484 45.218L47.9775 45.2695L47.6159 44.9941L47.6144 44.9944C47.5319 44.9315 47.4154 44.9477 47.3554 45.0303C47.2936 45.1116 47.3106 45.2293 47.3928 45.2906L47.428 45.3174C46.9541 45.3484 46.4791 45.3495 46.0062 45.322C45.4857 43.768 45.2693 42.2634 45.3562 40.8355C46.7769 40.3237 48.2909 40.1135 49.8 40.2169L49.8003 40.2184C49.9648 40.6665 50.0982 41.1269 50.1968 41.5952L50.0582 41.4896L50.0597 41.4894C49.9768 41.4346 49.8669 41.453 49.8079 41.5323C49.749 41.6116 49.7635 41.7234 49.8384 41.7872L50.3 42.1388L50.3499 42.4859L49.8822 42.1683C49.8419 42.1376 49.7899 42.1243 49.7396 42.1328C49.6892 42.1414 49.6466 42.171 49.6182 42.2129C49.5901 42.2563 49.5804 42.3082 49.5923 42.3587C49.6025 42.4079 49.6337 42.451 49.6782 42.478L49.6833 42.4802Z" fill="#333333"/>
<path d="M27.9465 34.2182C26.2263 34.0714 24.4977 34.3114 22.8864 34.9207C22.7796 34.9608 22.7063 35.0595 22.6978 35.1745C22.567 36.7968 22.8126 38.5154 23.4334 40.288C23.4718 40.4027 23.5769 40.4814 23.6967 40.4885C25.414 40.6151 27.138 40.3757 28.754 39.7863C28.8656 39.7471 28.9428 39.6431 28.9504 39.5219C29.0579 37.65 28.8087 35.9287 28.2149 34.4085C28.1708 34.2976 28.0662 34.2221 27.9483 34.2179L27.9465 34.2182ZM27.5955 37.0595L28.3199 37.5532C28.3289 37.6484 28.3351 37.7455 28.3425 37.8409L28.0569 37.6371L28.0584 37.6369C27.974 37.5823 27.8645 37.6038 27.8073 37.6844C27.7502 37.7651 27.7664 37.8782 27.8456 37.9399L28.3682 38.313C28.3703 38.4139 28.3718 38.5117 28.3738 38.6125L27.76 38.192L27.7582 38.1907C27.7166 38.1617 27.6664 38.1497 27.6176 38.158C27.5688 38.1664 27.5244 38.1947 27.4975 38.2363C27.4692 38.2782 27.4594 38.3301 27.4696 38.3793C27.4798 38.4285 27.5095 38.4717 27.551 38.4992L28.3662 39.0593C28.3651 39.1385 28.3631 39.2114 28.3584 39.2879L28.2779 39.3149L27.6916 38.8685L27.6914 38.8669C27.6089 38.8041 27.4939 38.82 27.4324 38.9029C27.3708 38.9857 27.3876 39.1019 27.4701 39.1647L27.8457 39.4508C27.7437 39.4807 27.6402 39.5109 27.5363 39.538L26.9028 39.057L26.9041 39.0553C26.8227 39.0002 26.7126 39.0171 26.6537 39.0964C26.5947 39.1757 26.6077 39.2876 26.6826 39.3515L27.0722 39.6483C26.9632 39.6729 26.8523 39.6946 26.7428 39.7162L26.0867 39.1751L26.0869 39.1766C26.0077 39.1149 25.8956 39.1289 25.8331 39.2055C25.7694 39.2839 25.7795 39.3979 25.8548 39.4649L26.259 39.7975L25.8866 39.8493L25.525 39.5739C25.4437 39.5188 25.3338 39.5372 25.2748 39.6165C25.2159 39.6958 25.2289 39.8078 25.3037 39.8717L25.3388 39.8984C24.8696 39.9288 24.3979 39.9311 23.9267 39.9049C23.4065 38.3524 23.1883 36.8465 23.2752 35.4186C24.6974 34.9066 26.21 34.6966 27.7191 34.8L27.7193 34.8015C27.8853 35.2495 28.0188 35.7098 28.1174 36.1781L27.9787 36.0725C27.8973 36.0175 27.7872 36.0343 27.7283 36.1136C27.6694 36.1929 27.6823 36.3049 27.7574 36.3704L28.2193 36.7235L28.2692 37.0705L27.8015 36.753L27.8028 36.7513C27.7188 36.6997 27.6098 36.7243 27.5544 36.8063C27.5005 36.8881 27.5198 37.0007 27.597 37.0596L27.5955 37.0595Z" fill="#333333"/>
<path d="M31.3105 40.4725C31.2519 40.3165 31.0814 40.2378 30.9293 40.2956C30.7769 40.3519 30.6992 40.524 30.7576 40.6785L31.0402 41.4397C31.0986 41.5942 31.2693 41.6744 31.4214 41.6166C31.5735 41.5588 31.6515 41.3882 31.5929 41.2322L31.3105 40.4725Z" fill="#333333"/>
<path d="M48.8564 31.2077C47.1362 31.061 45.4091 31.3008 43.7991 31.9099C43.6923 31.9501 43.619 32.0487 43.6087 32.1624C43.4764 33.7849 43.7238 35.5048 44.3443 37.2758L44.3445 37.2774C44.3842 37.3904 44.4878 37.4693 44.6078 37.4779C46.3249 37.603 48.0458 37.364 49.6604 36.7763C49.7718 36.7356 49.8475 36.6318 49.8538 36.5124C49.9614 34.6421 49.7136 32.919 49.1182 31.399C49.0757 31.2879 48.9729 31.2137 48.8564 31.2077ZM48.5054 34.0491L49.2296 34.5412C49.2373 34.6381 49.2447 34.7335 49.2522 34.8288L48.9666 34.6251C48.9273 34.5911 48.8751 34.5762 48.8245 34.5832C48.774 34.5902 48.7278 34.6172 48.6979 34.6593C48.668 34.7013 48.657 34.755 48.6674 34.8057C48.6794 34.8562 48.7093 34.9011 48.7538 34.9281L49.2764 35.3012C49.2782 35.4005 49.28 35.4999 49.282 35.6007L48.6631 35.1778C48.6228 35.147 48.5708 35.1337 48.5202 35.1407C48.4699 35.1493 48.4255 35.1776 48.3974 35.221C48.369 35.2628 48.3595 35.3163 48.3712 35.3653C48.3816 35.416 48.4129 35.459 48.4574 35.4861L49.2726 36.0461C49.2715 36.1253 49.2695 36.1983 49.2648 36.2748L49.1828 36.302L48.5965 35.8555L48.5963 35.854C48.5153 35.791 48.4004 35.8069 48.3388 35.8897C48.2773 35.9726 48.294 36.0888 48.3762 36.1501L48.7519 36.4361C48.6499 36.4661 48.5462 36.4947 48.4424 36.5233L47.8103 36.0405L47.8105 36.0421C47.728 35.9793 47.6131 35.9952 47.5515 36.0781C47.4898 36.1593 47.5067 36.2771 47.589 36.3384L47.9787 36.6351C47.8697 36.6597 47.7602 36.6813 47.6493 36.703L46.9931 36.1619C46.9556 36.1292 46.9062 36.1123 46.8552 36.1163C46.8057 36.12 46.7594 36.1454 46.7275 36.1846C46.6956 36.2238 46.6811 36.2748 46.6882 36.3244C46.694 36.3757 46.7209 36.421 46.7612 36.4517L47.1655 36.7844L46.7946 36.8359L46.433 36.5605L46.4315 36.5607C46.349 36.4979 46.2327 36.5156 46.1712 36.5984C46.1096 36.6813 46.1281 36.7988 46.2106 36.8616L46.2457 36.8884C45.7749 36.919 45.3032 36.9213 44.8321 36.895C44.3115 35.341 44.0951 33.8365 44.182 32.4085L44.1835 32.4083C45.6042 31.8965 47.1168 31.6865 48.6277 31.7912C48.7924 32.2409 48.9243 32.7015 49.0242 33.1681L48.8855 33.0625C48.8033 33.0012 48.6883 33.0172 48.6266 33.0984C48.565 33.1813 48.5819 33.299 48.6642 33.3603L49.1274 33.7116L49.1773 34.0587L48.7096 33.7412C48.6243 33.6914 48.5153 33.716 48.4614 33.7978C48.406 33.8798 48.4253 33.9924 48.5056 34.0508L48.5054 34.0491Z" fill="#333333"/>
<path d="M35.0343 27.2009C32.6712 27.529 31.2047 29.5028 31.5483 31.8919C31.713 33.037 32.231 34.0192 33.0072 34.6558C33.8512 35.351 34.9629 35.6249 36.2226 35.45C38.6623 35.1112 40.0633 33.2256 39.7085 30.759C39.3522 28.2924 37.4753 26.862 35.0343 27.2009ZM36.1358 34.8586C34.0133 35.1533 32.4421 33.9554 32.1336 31.811C31.839 29.7625 33.0951 28.0741 35.1194 27.793C37.2435 27.4981 38.8129 28.6947 39.1216 30.8407C39.4303 32.9867 38.2582 34.5639 36.1358 34.8586Z" fill="#333333"/>
<path d="M42.1331 35.8879L41.7284 36.4324L41.7269 36.4326C41.6302 36.5646 41.6572 36.7521 41.7886 36.8508C41.9187 36.9513 42.1042 36.9255 42.2024 36.7933L42.6055 36.249L42.607 36.2488C42.6976 36.1177 42.6698 35.9351 42.5416 35.8375C42.4135 35.7399 42.2322 35.7619 42.1331 35.8879Z" fill="#333333"/>
<path d="M41.1241 35.2415C40.9633 35.2294 40.8225 35.3536 40.8104 35.5165L40.757 36.3251C40.7515 36.4049 40.777 36.4834 40.8295 36.544C40.8802 36.6032 40.9527 36.6404 41.0315 36.6466C41.0521 36.6485 41.0737 36.647 41.0935 36.6442C41.231 36.6248 41.3361 36.512 41.3452 36.3716L41.3986 35.563L41.4001 35.5628C41.4043 35.4848 41.3788 35.4062 41.3279 35.3455C41.2754 35.2849 41.203 35.2478 41.1256 35.2413L41.1241 35.2415Z" fill="#333333"/>
<path d="M37.9212 32.1937C37.2397 32.0392 36.575 31.8175 35.9355 31.5323C35.7905 31.0055 35.7166 30.4625 35.7173 29.9171C35.7227 29.8357 35.694 29.7559 35.6384 29.6957C35.5831 29.637 35.5062 29.602 35.4263 29.6005C35.3464 29.599 35.2682 29.6305 35.2124 29.6873C35.1552 29.7459 35.1244 29.8245 35.1282 29.9046C35.1272 30.556 35.2207 31.2022 35.4063 31.826L35.4065 31.8276C35.4293 31.9097 35.4878 31.979 35.5667 32.017C36.2799 32.3473 37.0259 32.6019 37.79 32.7764C37.8254 32.7841 37.8602 32.7872 37.8968 32.7805C38.0378 32.7623 38.144 32.6432 38.1481 32.4987C38.1537 32.3541 38.0572 32.2269 37.9181 32.1941L37.9212 32.1937Z" fill="#333333"/>
<path d="M22.7898 26.9101C22.9214 27.0104 23.1066 26.9831 23.2036 26.8527C23.3018 26.7205 23.2748 26.533 23.1434 26.4343L22.5995 26.0215C22.4687 25.9274 22.2883 25.9556 22.1927 26.0843C22.0971 26.2129 22.1203 26.3962 22.2459 26.4973L22.7898 26.9101Z" fill="#333333"/>
<path d="M23.4939 26.2609C23.5523 26.4154 23.7214 26.4958 23.8751 26.4378C24.0272 26.38 24.1036 26.2096 24.0468 26.0549L23.7642 25.2937L23.7626 25.2939C23.704 25.1378 23.535 25.059 23.3829 25.1168C23.2291 25.1733 23.1528 25.3452 23.2113 25.4997L23.4939 26.2609Z" fill="#333333"/>
<path d="M48.5097 24.982L48.1063 25.5247L48.1048 25.525C48.0066 25.6571 48.0335 25.8446 48.1652 25.9449C48.2951 26.0438 48.4807 26.0196 48.579 25.8874L48.9836 25.3429C49.0818 25.2107 49.0533 25.0234 48.9234 24.9245C48.7918 24.8243 48.6063 24.85 48.5081 24.9822L48.5097 24.982Z" fill="#333333"/>
<path d="M47.4989 24.3337C47.3366 24.3219 47.1955 24.4445 47.1837 24.6089L47.1302 25.4176L47.1304 25.4191C47.1201 25.5833 47.2422 25.7257 47.4047 25.7391C47.4253 25.7409 47.4469 25.7394 47.4685 25.738C47.6057 25.717 47.7093 25.6044 47.7202 25.4654L47.7795 24.6544C47.785 24.5746 47.758 24.4962 47.7055 24.4357C47.6515 24.3754 47.5775 24.3384 47.4989 24.3337Z" fill="#333333"/>
</svg>
