<svg width="49" height="48" viewBox="0 0 49 48" fill="none" xmlns="http://www.w3.org/2000/svg">
<path d="M2.91173 14.1651C2.29682 9.7898 5.3452 5.74444 9.72048 5.12954L34.5252 1.64346C38.9005 1.02856 42.9458 4.07694 43.5607 8.45222L47.1048 33.6696C47.7197 38.0449 44.6713 42.0903 40.296 42.7052L15.4913 46.1913C11.1161 46.8062 7.07071 43.7578 6.4558 39.3825L2.91173 14.1651Z" fill="#F79764"/>
<path d="M26.0229 33.2474L26.0446 33.3705L26.1677 33.3488L33.4187 32.0703C33.9625 31.9744 34.4521 31.661 34.7669 31.2115C35.0816 30.762 35.2086 30.1947 35.1127 29.651L33.4762 20.3697C33.3803 19.826 33.0669 19.3363 32.6174 19.0216C32.1679 18.7068 31.6006 18.5798 31.0569 18.6757L27.9225 19.2284L24.2687 17.2958L24.2213 17.0272L25.1358 15.7211C25.5179 15.1755 25.5303 14.464 25.1767 13.8964L25.1761 13.8954C24.8239 13.3407 24.1706 13.0472 23.5127 13.1632L21.9244 13.4433C21.0347 13.6002 20.4375 14.453 20.5944 15.3427L21.0392 17.8652L18.2667 20.9309L15.1323 21.4836C13.9937 21.6844 13.2388 22.7718 13.4383 23.9029L15.0748 33.1842C15.1707 33.7279 15.4841 34.2176 15.9336 34.5323C16.3831 34.8471 16.9504 34.9741 17.4942 34.8782L24.7175 33.6046L24.8406 33.5828L24.8189 33.4597L24.1663 29.7583C24.1506 29.6694 24.2122 29.5852 24.2981 29.57L25.182 29.4142C25.2709 29.3985 25.3551 29.4601 25.3703 29.546L26.0229 33.2474ZM27.4804 21.6908L27.5183 21.711L27.5606 21.7035L31.1735 21.0664L32.7106 29.7838L27.9778 30.6183L27.7158 29.1324C27.4724 27.7521 26.1495 26.8323 24.7765 27.0743L23.8926 27.2302C22.5123 27.4736 21.5925 28.7965 21.8345 30.1694L22.0965 31.6554L17.3638 32.4899L15.8266 23.7725L19.4395 23.1355L19.4818 23.128L19.5106 23.0961L22.9482 19.2896L27.4804 21.6908ZM24.0358 25.4579C25.2747 25.2395 26.1019 24.0581 25.8834 22.8192C25.665 21.5804 24.4836 20.7532 23.2448 20.9716C22.0059 21.1901 21.1787 22.3714 21.3971 23.6103C21.6156 24.8491 22.797 25.6764 24.0358 25.4579Z" fill="#333333" stroke="#333333" stroke-width="0.25"/>
</svg>
