<svg width="58" height="41" viewBox="0 0 58 41" fill="none" xmlns="http://www.w3.org/2000/svg">
<g id="Vector">
<path d="M45.1008 41.0029C51.8945 41.0029 57.4008 35.4966 57.4008 28.7029C57.4008 21.9092 51.8945 16.4029 45.1008 16.4029C44.4407 16.4029 43.8093 16.4972 43.1779 16.5956C45.9946 11.6141 51.2795 8.20293 57.4008 8.20293V0.00292969C43.8339 0.00292969 32.8008 11.036 32.8008 24.6029V28.7029C32.8008 35.4966 38.3071 41.0029 45.1008 41.0029Z" fill="#333333"/>
<path d="M12.3 41.0029C19.0937 41.0029 24.6 35.4966 24.6 28.7029C24.6 21.9092 19.0937 16.4029 12.3 16.4029C11.6399 16.4029 11.0085 16.4972 10.3771 16.5956C13.1938 11.6141 18.4787 8.20293 24.6 8.20293V0.00292969C11.0331 0.00292969 0 11.036 0 24.6029V28.7029C0 35.4966 5.5063 41.0029 12.3 41.0029Z" fill="#333333"/>
</g>
</svg>
