<svg width="49" height="48" viewBox="0 0 49 48" fill="none" xmlns="http://www.w3.org/2000/svg">
<path d="M2.91173 14.1651C2.29682 9.7898 5.3452 5.74444 9.72048 5.12954L34.5252 1.64346C38.9005 1.02856 42.9458 4.07694 43.5607 8.45222L47.1048 33.6696C47.7197 38.0449 44.6713 42.0903 40.296 42.7052L15.4913 46.1913C11.1161 46.8062 7.07071 43.7578 6.4558 39.3825L2.91173 14.1651Z" fill="#F79764"/>
<path d="M29.8191 25.636C29.4811 23.231 27.2491 21.5492 24.8442 21.8871C22.4393 22.2251 20.7573 24.4572 21.0953 26.8621C21.4333 29.2669 23.6654 30.9489 26.0702 30.6109C28.4751 30.2729 30.1571 28.0409 29.8191 25.636ZM26.4014 29.5731L26.3087 28.9134C26.2723 28.6549 26.0335 28.4749 25.775 28.5113C25.5165 28.5476 25.3365 28.7864 25.3729 29.0449L25.4656 29.7047C23.9215 29.7093 22.5538 28.6777 22.1329 27.1933L22.7914 27.1007C23.0499 27.0644 23.2299 26.8256 23.1936 26.5671C23.1572 26.3086 22.9184 26.1286 22.6599 26.1649L22.0014 26.2575C21.9967 24.7134 23.0283 23.3457 24.5127 22.9248L24.6053 23.5833C24.6416 23.8419 24.8804 24.0218 25.1389 23.9855C25.3975 23.9492 25.5774 23.7103 25.5411 23.4518L25.4485 22.7933C26.9926 22.7886 28.3603 23.8202 28.7812 25.3046L28.1227 25.3972C27.8642 25.4335 27.6842 25.6723 27.7205 25.9308C27.7569 26.1894 27.9957 26.3693 28.2542 26.333L28.9128 26.2404C28.9174 27.7845 27.8858 29.1522 26.4014 29.5731ZM25.7165 24.7001L25.9248 26.1822C25.9419 26.3038 25.9105 26.4287 25.8375 26.5284L24.879 27.831C24.8009 27.9374 24.6858 28.0012 24.5641 28.0183C24.446 28.0349 24.3216 28.0071 24.2179 27.931C24.0077 27.7769 23.9625 27.4802 24.1178 27.2699L24.9622 26.123L24.7807 24.8316C24.7444 24.5731 24.9243 24.3343 25.1828 24.298C25.4414 24.2616 25.6802 24.4416 25.7165 24.7001ZM38.5466 24.3236C38.4145 23.3831 37.5419 22.7256 36.6014 22.8578L31.8721 23.5224L31.7679 22.7808C31.8272 22.7784 31.8868 22.7784 31.9453 22.7702C32.0178 22.76 32.0897 22.7451 32.1609 22.7256C32.6138 22.6035 32.9858 22.3138 33.2095 21.9114C33.4331 21.5078 33.4807 21.0395 33.3448 20.591C33.211 20.1481 32.9112 19.7799 32.5049 19.5543L24.3653 15.0419L24.2441 14.1965L28.0316 13.6642C28.2902 13.6279 28.4701 13.389 28.4338 13.1305L28.0116 10.1349C27.9753 9.87641 27.7364 9.69645 27.4779 9.73278L23.2143 10.332C23.0903 10.3494 22.9779 10.4153 22.9026 10.5166C22.8272 10.6166 22.7949 10.7428 22.8123 10.8668L23.4298 15.1841L16.8608 21.7543C16.5313 22.0833 16.3457 22.5197 16.3392 22.9823C16.3323 23.4508 16.507 23.8879 16.8332 24.2142C17.1594 24.5406 17.5967 24.7153 18.0645 24.708C18.2001 24.7056 18.3308 24.6849 18.4587 24.6526L18.5627 25.3931L13.8322 26.0579C12.8917 26.1901 12.2342 27.0626 12.3664 28.0031C12.4798 28.8102 13.1409 29.4056 13.92 29.475L15.2099 38.6528C15.2462 38.9113 15.485 39.0913 15.7435 39.0549L38.3232 35.8816C38.5817 35.8452 38.7617 35.6064 38.7253 35.3479L37.4365 26.177C38.1791 25.9021 38.66 25.1391 38.5454 24.3237L38.5466 24.3236ZM28.7835 36.2692L25.0217 36.7979L24.725 34.6865C24.5734 33.608 25.2945 32.6108 26.3309 32.4651C27.3684 32.3193 28.3351 33.0781 28.4869 34.1578L28.7835 36.2692ZM26.1993 31.5293C24.6458 31.7477 23.5648 33.2225 23.7891 34.818L24.0858 36.9294L21.1953 37.3357L19.3405 24.1374L24.4537 19.0229L30.7783 22.5287L32.6332 35.7269L29.7194 36.1365L29.4226 34.025C29.1984 32.4295 27.7527 31.3098 26.1993 31.5281L26.1993 31.5293ZM27.1415 10.7342L27.4311 12.7953L24.109 13.2622L23.8146 11.2018L27.1415 10.7342ZM18.0485 23.7629C17.8378 23.7662 17.6432 23.6886 17.5002 23.5453C17.356 23.4021 17.2798 23.2077 17.2824 22.9974C17.2854 22.781 17.3724 22.5768 17.5285 22.4224L24.019 15.9311L32.0472 20.3807C32.2387 20.4874 32.3786 20.6598 32.4422 20.8656C32.5027 21.067 32.483 21.275 32.384 21.4535C32.2861 21.6307 32.119 21.7579 31.9168 21.8126C31.7099 21.8679 31.4879 21.8419 31.2964 21.7352L24.6017 18.024C24.5098 17.9725 24.4061 17.9561 24.3066 17.9701C24.2072 17.984 24.1122 18.0296 24.0379 18.1033L18.6255 23.5159C18.4708 23.6713 18.2681 23.757 18.0504 23.7614L18.0485 23.7629ZM13.3032 27.8713C13.2436 27.4467 13.5401 27.0531 13.9648 26.9935L18.6941 26.3288L18.9104 27.8682L14.1799 28.533C13.7553 28.5927 13.3617 28.2961 13.302 27.8715L13.3032 27.8713ZM14.8624 29.3914L19.0407 28.8042L20.2583 37.4674L16.0799 38.0547L14.8624 29.3914ZM33.5688 35.5968L32.3513 26.9335L36.5075 26.3494L37.725 35.0127L33.5688 35.5968ZM36.9491 25.333L32.2198 25.9977L32.0034 24.4583L36.7327 23.7936C37.1574 23.7339 37.5509 24.0305 37.6106 24.4551C37.6703 24.8798 37.3737 25.2733 36.9491 25.333Z" fill="#333333"/>
</svg>
