<svg width="48" height="48" viewBox="0 0 48 48" fill="none" xmlns="http://www.w3.org/2000/svg">
<g id="Illustration Icon">
<path id="Rectangle 4590" d="M2.12999 14.4473C1.51508 10.072 4.56347 6.02667 8.93875 5.41176L33.7435 1.92569C38.1187 1.31078 42.1641 4.35917 42.779 8.73445L46.3231 33.9519C46.938 38.3272 43.8896 42.3725 39.5143 42.9874L14.7096 46.4735C10.3343 47.0884 6.28897 44.04 5.67407 39.6647L2.12999 14.4473Z" fill="#FFF7EB"/>
<path id="Vector" d="M29.0374 25.9184C28.6994 23.5134 26.4673 21.8315 24.0625 22.1695C21.6576 22.5075 19.9756 24.7395 20.3136 27.1444C20.6516 29.5493 22.8836 31.2313 25.2885 30.8933C27.6934 30.5553 29.3754 28.3232 29.0374 25.9184ZM25.6196 29.8555L25.5269 29.1958C25.4906 28.9372 25.2518 28.7573 24.9933 28.7936C24.7347 28.8299 24.5548 29.0688 24.5911 29.3273L24.6838 29.987C23.1397 29.9917 21.7721 28.96 21.3511 27.4756L22.0097 27.3831C22.2682 27.3467 22.4482 27.1079 22.4118 26.8494C22.3755 26.5909 22.1367 26.4109 21.8782 26.4473L21.2196 26.5398C21.2149 24.9957 22.2466 23.6281 23.731 23.2071L23.8235 23.8657C23.8599 24.1242 24.0987 24.3042 24.3572 24.2678C24.6157 24.2315 24.7957 23.9927 24.7593 23.7342L24.6668 23.0756C26.2109 23.0709 27.5786 24.1026 27.9995 25.587L27.3409 25.6795C27.0824 25.7159 26.9025 25.9547 26.9388 26.2132C26.9751 26.4717 27.2139 26.6517 27.4725 26.6153L28.131 26.5228C28.1357 28.0669 27.104 29.4345 25.6196 29.8555ZM24.9348 24.9824L25.1431 26.4645C25.1602 26.5862 25.1288 26.711 25.0558 26.8108L24.0972 28.1133C24.0191 28.2197 23.9041 28.2836 23.7824 28.3007C23.6643 28.3173 23.5399 28.2894 23.4361 28.2134C23.226 28.0592 23.1807 27.7626 23.3361 27.5523L24.1805 26.4054L23.999 25.114C23.9626 24.8554 24.1426 24.6166 24.4011 24.5803C24.6596 24.544 24.8984 24.7239 24.9348 24.9824ZM37.7649 24.6059C37.6327 23.6655 36.7602 23.008 35.8197 23.1401L31.0904 23.8048L30.9861 23.0632C31.0455 23.0608 31.1051 23.0608 31.1636 23.0525C31.2361 23.0423 31.308 23.0275 31.3792 23.0079C31.832 22.8858 32.204 22.5962 32.4278 22.1937C32.6514 21.7901 32.6989 21.3218 32.5631 20.8733C32.4293 20.4305 32.1294 20.0623 31.7232 19.8367L23.5836 15.3242L23.4624 14.4788L27.2499 13.9465C27.5084 13.9102 27.6884 13.6714 27.6521 13.4129L27.2299 10.4173C27.1935 10.1588 26.9547 9.9788 26.6962 10.0151L22.4325 10.6143C22.3085 10.6318 22.1961 10.6977 22.1209 10.7989C22.0455 10.899 22.0131 11.0252 22.0305 11.1492L22.648 15.4665L16.0791 22.0366C15.7496 22.3656 15.564 22.8021 15.5575 23.2646C15.5505 23.7332 15.7253 24.1703 16.0515 24.4966C16.3777 24.8229 16.8149 24.9976 17.2827 24.9903C17.4184 24.988 17.5491 24.9672 17.6769 24.9349L17.781 25.6754L13.0505 26.3402C12.11 26.4724 11.4525 27.345 11.5847 28.2854C11.6981 29.0926 12.3591 29.6879 13.1383 29.7574L14.4281 38.9351C14.4645 39.1937 14.7033 39.3736 14.9618 39.3373L37.5415 36.1639C37.8 36.1276 37.9799 35.8888 37.9436 35.6303L36.6547 26.4594C37.3974 26.1844 37.8783 25.4214 37.7637 24.6061L37.7649 24.6059ZM28.0018 36.5516L24.24 37.0802L23.9432 34.9688C23.7917 33.8903 24.5128 32.8931 25.5492 32.7475C26.5867 32.6016 27.5534 33.3604 27.7051 34.4401L28.0018 36.5516ZM25.4175 31.8117C23.8641 32.03 22.7831 33.5048 23.0073 35.1004L23.3041 37.2118L20.4136 37.618L18.5587 24.4197L23.6719 19.3053L29.9966 22.811L31.8515 36.0093L28.9376 36.4188L28.6409 34.3074C28.4167 32.7119 26.971 31.5921 25.4176 31.8105L25.4175 31.8117ZM26.3597 11.0166L26.6494 13.0777L23.3272 13.5446L23.0329 11.4841L26.3597 11.0166ZM17.2667 24.0452C17.0561 24.0486 16.8614 23.971 16.7185 23.8276C16.5743 23.6845 16.498 23.49 16.5007 23.2797C16.5037 23.0634 16.5907 22.8591 16.7467 22.7048L23.2373 16.2135L31.2654 20.6631C31.457 20.7698 31.5969 20.9422 31.6604 21.1479C31.7209 21.3494 31.7013 21.5573 31.6023 21.7358C31.5043 21.913 31.3373 22.0403 31.1351 22.0949C30.9281 22.1503 30.7061 22.1242 30.5146 22.0175L23.82 18.3064C23.728 18.2549 23.6243 18.2384 23.5249 18.2524C23.4255 18.2664 23.3305 18.3119 23.2561 18.3856L17.8437 23.7983C17.689 23.9536 17.4864 24.0394 17.2687 24.0437L17.2667 24.0452ZM12.5215 28.1537C12.4618 27.729 12.7584 27.3355 13.183 27.2758L17.9123 26.6111L18.1287 28.1505L13.3982 28.8154C12.9735 28.875 12.58 28.5785 12.5203 28.1538L12.5215 28.1537ZM14.0807 29.6737L18.259 29.0865L19.4765 37.7498L15.2982 38.337L14.0807 29.6737ZM32.7871 35.8791L31.5696 27.2158L35.7257 26.6317L36.9433 35.295L32.7871 35.8791ZM36.1674 25.6154L31.438 26.28L31.2217 24.7406L35.951 24.076C36.3756 24.0163 36.7692 24.3129 36.8289 24.7375C36.8886 25.1621 36.592 25.5557 36.1674 25.6154Z" fill="#333333"/>
</g>
</svg>
