<svg width="48" height="48" viewBox="0 0 48 48" fill="none" xmlns="http://www.w3.org/2000/svg">
<path d="M0.554739 9.80629C0.247287 7.61865 1.77148 5.59598 3.95912 5.28852L37.6282 0.556637C39.8159 0.249184 41.8385 1.77338 42.146 3.96102L46.8779 37.6301C47.1853 39.8178 45.6611 41.8404 43.4735 42.1479L9.80439 46.8798C7.61675 47.1872 5.59408 45.663 5.28662 43.4754L0.554739 9.80629Z" fill="#BFC897"/>
<path d="M16.7011 23.7209C16.165 22.9138 15.0735 22.6962 14.269 23.2341C13.4619 23.7702 13.2439 24.8594 13.78 25.6666C14.0394 26.0542 14.441 26.3235 14.8975 26.4154C15.1122 26.4568 15.3318 26.46 15.5464 26.4222C16.5019 26.2514 17.1376 25.3378 16.9668 24.3824C16.9254 24.1474 16.8342 23.9211 16.7011 23.7209ZM16.256 24.8968C16.1455 25.4591 15.5993 25.8234 15.0392 25.7125C14.4787 25.5993 14.1126 25.0557 14.2254 24.493C14.3363 23.9329 14.8825 23.5686 15.4426 23.6796C15.7132 23.7344 15.9509 23.8928 16.1031 24.1223C16.2573 24.349 16.3112 24.6284 16.256 24.8968ZM17.5035 18.5073C16.9656 17.7028 15.879 17.4867 15.0746 18.0246C14.2701 18.5625 14.0521 19.6518 14.59 20.4562C14.849 20.8416 15.248 21.1091 15.7045 21.201C16.1607 21.2906 16.6336 21.1979 17.0212 20.9385C17.8257 20.4006 18.0419 19.314 17.5035 18.5073ZM16.2144 20.4983C16.0901 20.5203 15.9641 20.5192 15.8409 20.4943C15.2822 20.3785 14.9229 19.8337 15.0342 19.2759C15.1194 18.8601 15.4472 18.5391 15.8648 18.4631C16.4256 18.3665 16.9603 18.7429 17.0572 19.3059C17.156 19.8663 16.7774 20.4014 16.2144 20.4983ZM24.2251 26.1966C23.5133 26.3221 22.9526 26.8683 22.8095 27.5762L22.8103 27.5807C22.6234 28.5293 23.2382 29.4531 24.1854 29.6448C24.4004 29.6885 24.62 29.6917 24.8324 29.6542C25.7882 29.4857 26.4244 28.5744 26.2562 27.6208C26.0881 26.6673 25.1786 26.0285 24.2251 26.1966ZM25.5484 28.1254C25.4356 28.6882 24.8894 29.0524 24.3289 28.9392L24.3266 28.9396C23.7684 28.826 23.4046 28.2821 23.5155 27.722C23.6287 27.1615 24.1726 26.7977 24.735 26.9082C25.2955 27.0214 25.6593 27.5653 25.5484 28.1254ZM19.3974 26.7636C18.448 26.5722 17.5239 27.1848 17.3325 28.1342C17.2405 28.5908 17.3337 29.066 17.5935 29.4559C17.9814 30.0305 18.6695 30.3262 19.355 30.21C20.0668 30.0845 20.6294 29.5356 20.7698 28.8259C20.8145 28.6036 20.8155 28.3845 20.7788 28.1766C20.6569 27.4851 20.1241 26.9081 19.3974 26.7636ZM20.0669 28.6842C19.9608 29.2458 19.42 29.6137 18.8611 29.5096C18.5814 29.4564 18.3381 29.2919 18.1846 29.0557C18.0304 28.829 17.9765 28.5496 18.0313 28.2789C18.1142 27.8636 18.4438 27.5399 18.8615 27.4639C19.4249 27.3692 19.9608 27.7523 20.0555 28.3158C20.0751 28.4405 20.074 28.5665 20.051 28.687L20.0669 28.6842ZM20.7989 14.5619C19.8522 14.3724 18.933 14.9864 18.7457 15.9328C18.558 16.8768 19.1721 17.796 20.1162 17.9837C20.3263 18.0259 20.5436 18.0295 20.7538 17.9924C20.9929 17.948 21.221 17.8541 21.4208 17.7187C21.807 17.4643 22.0771 17.0671 22.1694 16.6128C22.3571 15.6688 21.743 14.7496 20.7989 14.5619ZM21.4589 16.4679C21.3716 16.898 21.0309 17.212 20.6242 17.2837C20.4999 17.3056 20.3716 17.305 20.2412 17.279L20.2465 17.2827C19.6846 17.1745 19.3185 16.6309 19.429 16.0686C19.4812 15.7961 19.6437 15.5554 19.8754 15.4027C20.3523 15.081 20.9962 15.2051 21.3179 15.6819C21.3183 15.6842 21.321 15.686 21.3214 15.6883C21.4714 15.9181 21.5212 16.2006 21.4589 16.4679ZM24.2251 26.1966C23.5133 26.3221 22.9526 26.8683 22.8095 27.5762L22.8103 27.5807C22.6234 28.5293 23.2382 29.4531 24.1854 29.6448C24.4004 29.6885 24.62 29.6917 24.8324 29.6542C25.7882 29.4857 26.4244 28.5744 26.2562 27.6208C26.0881 26.6673 25.1786 26.0285 24.2251 26.1966ZM25.5484 28.1254C25.4356 28.6882 24.8894 29.0524 24.3289 28.9392L24.3266 28.9396C23.7684 28.826 23.4046 28.2821 23.5155 27.722C23.6287 27.1615 24.1726 26.7977 24.735 26.9082C25.2955 27.0214 25.6593 27.5653 25.5484 28.1254ZM22.1694 16.6128C22.3571 15.6688 21.743 14.7496 20.7989 14.5619C19.8522 14.3724 18.933 14.9864 18.7457 15.9328C18.558 16.8768 19.1721 17.796 20.1162 17.9837C20.3263 18.0259 20.5436 18.0295 20.7538 17.9924C20.9929 17.948 21.221 17.8541 21.4208 17.7187C21.807 17.4643 22.0771 17.0671 22.1694 16.6128ZM20.6242 17.2837C20.4999 17.3056 20.3716 17.305 20.2412 17.279L20.2465 17.2827C19.6846 17.1745 19.3185 16.6309 19.429 16.0686C19.4812 15.7961 19.6437 15.5554 19.8754 15.4027C20.3523 15.081 20.9962 15.2051 21.3179 15.6819C21.3183 15.6842 21.321 15.686 21.3214 15.6883C21.4714 15.9181 21.5212 16.2006 21.4589 16.4679C21.3716 16.898 21.0309 17.212 20.6242 17.2837ZM19.3974 26.7636C18.448 26.5722 17.5239 27.1848 17.3325 28.1342C17.2405 28.5908 17.3337 29.066 17.5935 29.4559C17.9814 30.0305 18.6695 30.3262 19.355 30.21C20.0668 30.0845 20.6294 29.5356 20.7698 28.8259C20.8145 28.6036 20.8155 28.3845 20.7788 28.1766C20.6569 27.4851 20.1241 26.9081 19.3974 26.7636ZM20.0669 28.6842C19.9608 29.2458 19.42 29.6137 18.8611 29.5096C18.5814 29.4564 18.3381 29.2919 18.1846 29.0557C18.0304 28.829 17.9765 28.5496 18.0313 28.2789C18.1142 27.8636 18.4438 27.5399 18.8615 27.4639C19.4249 27.3692 19.9608 27.7523 20.0555 28.3158C20.0751 28.4405 20.074 28.5665 20.051 28.687L20.0669 28.6842ZM15.7045 21.201C16.1607 21.2906 16.6336 21.1979 17.0212 20.9385C17.8257 20.4006 18.0419 19.314 17.5035 18.5073C16.9656 17.7028 15.879 17.4867 15.0746 18.0246C14.2701 18.5625 14.0521 19.6518 14.59 20.4562C14.849 20.8416 15.248 21.1091 15.7045 21.201ZM15.0342 19.2759C15.1194 18.8601 15.4472 18.5391 15.8648 18.4631C16.4256 18.3665 16.9603 18.7429 17.0572 19.3059C17.156 19.8663 16.7774 20.4014 16.2144 20.4983C16.0901 20.5203 15.9641 20.5192 15.8409 20.4943C15.2822 20.3785 14.9229 19.8337 15.0342 19.2759ZM16.7011 23.7209C16.165 22.9138 15.0735 22.6962 14.269 23.2341C13.4619 23.7702 13.2439 24.8594 13.78 25.6666C14.0394 26.0542 14.441 26.3235 14.8975 26.4154C15.1122 26.4568 15.3318 26.46 15.5464 26.4222C16.5019 26.2514 17.1376 25.3378 16.9668 24.3824C16.9254 24.1474 16.8342 23.9211 16.7011 23.7209ZM16.256 24.8968C16.1455 25.4591 15.5993 25.8234 15.0392 25.7125C14.4787 25.5993 14.1126 25.0557 14.2254 24.493C14.3363 23.9329 14.8825 23.5686 15.4426 23.6796C15.7132 23.7344 15.9509 23.8928 16.1031 24.1223C16.2573 24.349 16.3112 24.6284 16.256 24.8968ZM32.7008 15.1217C32.2885 13.2722 31.4164 12.1981 29.5102 11.1387C29.3373 11.0433 29.1183 11.1099 29.023 11.2828C28.9704 11.3806 28.9658 11.5003 29.0117 11.6017C29.4132 12.5048 29.2127 13.2041 28.3853 13.7181C26.6897 14.765 27.7001 17.2709 27.9547 17.8294L27.7443 19.134L27.2724 23.355L26.8148 23.1911C25.8316 22.8472 24.8157 22.4905 24.2527 21.7813C23.1805 20.1274 24.0273 19.3141 25.0072 18.3701C25.6685 17.7339 26.3519 17.0776 26.2686 16.1557C26.1781 15.1138 24.1437 13.9092 22.8036 13.6027C17.7396 12.5921 12.816 15.8786 11.8054 20.9426C10.797 26.0061 14.0809 30.9279 19.1449 31.9385C21.719 32.4516 24.3895 31.8595 26.5063 30.3074L26.1641 33.4012C26.144 33.5911 26.2746 33.7638 26.462 33.796L27.8762 34.0336C27.917 34.0404 27.9567 34.0404 27.9947 34.0313C28.1397 34.0081 28.2552 33.8969 28.2837 33.7544L31.2822 19.7217L31.4912 18.436C32.1852 17.8267 33.1213 17.0046 32.7008 15.1217ZM14.4455 28.4103C11.3304 24.8031 11.7301 19.3529 15.3373 16.2379C16.5142 15.2219 17.9458 14.5408 19.4804 14.2725C20.5312 14.0872 21.6053 14.1005 22.6514 14.3121C24.345 14.6938 25.523 15.891 25.5528 16.219C25.6039 16.7994 25.0958 17.2874 24.5101 17.8636C23.5672 18.7661 22.2489 20.0237 23.659 22.1935L23.6773 22.2182C24.3688 23.1005 25.5409 23.5112 26.5768 23.8761C26.7853 23.9488 26.9916 24.022 27.1915 24.0986L26.6157 29.3025C23.0084 32.4176 17.5583 32.0179 14.4455 28.4103ZM27.6558 33.2593L26.9162 33.1474L28.415 19.6075L30.4962 19.9418L27.6558 33.2593ZM30.6235 19.2367L28.9809 18.9719L28.5121 18.9031L28.6299 18.1973L30.273 18.4644L30.7414 18.5309L30.6235 19.2367ZM31.0491 17.8709L28.7539 17.4998L28.579 17.4724C28.3336 16.8866 27.6435 15.0209 28.7611 14.3299C29.6125 13.807 30.0014 13.079 29.9214 12.2288C31.1331 13.0356 31.6872 13.8792 31.9998 15.2686C32.3204 16.7171 31.712 17.2834 31.0491 17.8709ZM24.2251 26.1966C23.5133 26.3221 22.9526 26.8683 22.8095 27.5762L22.8103 27.5807C22.6234 28.5293 23.2382 29.4531 24.1854 29.6448C24.4004 29.6885 24.62 29.6917 24.8324 29.6542C25.7882 29.4857 26.4244 28.5744 26.2562 27.6208C26.0881 26.6673 25.1786 26.0285 24.2251 26.1966ZM25.5484 28.1254C25.4356 28.6882 24.8894 29.0524 24.3289 28.9392L24.3266 28.9396C23.7684 28.826 23.4046 28.2821 23.5155 27.722C23.6287 27.1615 24.1726 26.7977 24.735 26.9082C25.2955 27.0214 25.6593 27.5653 25.5484 28.1254ZM22.1694 16.6128C22.3571 15.6688 21.743 14.7496 20.7989 14.5619C19.8522 14.3724 18.933 14.9864 18.7457 15.9328C18.558 16.8768 19.1721 17.796 20.1162 17.9837C20.3263 18.0259 20.5436 18.0295 20.7538 17.9924C20.9929 17.948 21.221 17.8541 21.4208 17.7187C21.807 17.4643 22.0771 17.0671 22.1694 16.6128ZM20.6242 17.2837C20.4999 17.3056 20.3716 17.305 20.2412 17.279L20.2465 17.2827C19.6846 17.1745 19.3185 16.6309 19.429 16.0686C19.4812 15.7961 19.6437 15.5554 19.8754 15.4027C20.3523 15.081 20.9962 15.2051 21.3179 15.6819C21.3183 15.6842 21.321 15.686 21.3214 15.6883C21.4714 15.9181 21.5212 16.2006 21.4589 16.4679C21.3716 16.898 21.0309 17.212 20.6242 17.2837ZM19.3974 26.7636C18.448 26.5722 17.5239 27.1848 17.3325 28.1342C17.2405 28.5908 17.3337 29.066 17.5935 29.4559C17.9814 30.0305 18.6695 30.3262 19.355 30.21C20.0668 30.0845 20.6294 29.5356 20.7698 28.8259C20.8145 28.6036 20.8155 28.3845 20.7788 28.1766C20.6569 27.4851 20.1241 26.9081 19.3974 26.7636ZM20.0669 28.6842C19.9608 29.2458 19.42 29.6137 18.8611 29.5096C18.5814 29.4564 18.3381 29.2919 18.1846 29.0557C18.0304 28.829 17.9765 28.5496 18.0313 28.2789C18.1142 27.8636 18.4438 27.5399 18.8615 27.4639C19.4249 27.3692 19.9608 27.7523 20.0555 28.3158C20.0751 28.4405 20.074 28.5665 20.051 28.687L20.0669 28.6842ZM15.7045 21.201C16.1607 21.2906 16.6336 21.1979 17.0212 20.9385C17.8257 20.4006 18.0419 19.314 17.5035 18.5073C16.9656 17.7028 15.879 17.4867 15.0746 18.0246C14.2701 18.5625 14.0521 19.6518 14.59 20.4562C14.849 20.8416 15.248 21.1091 15.7045 21.201ZM15.0342 19.2759C15.1194 18.8601 15.4472 18.5391 15.8648 18.4631C16.4256 18.3665 16.9603 18.7429 17.0572 19.3059C17.156 19.8663 16.7774 20.4014 16.2144 20.4983C16.0901 20.5203 15.9641 20.5192 15.8409 20.4943C15.2822 20.3785 14.9229 19.8337 15.0342 19.2759ZM16.7011 23.7209C16.165 22.9138 15.0735 22.6962 14.269 23.2341C13.4619 23.7702 13.2439 24.8594 13.78 25.6666C14.0394 26.0542 14.441 26.3235 14.8975 26.4154C15.1122 26.4568 15.3318 26.46 15.5464 26.4222C16.5019 26.2514 17.1376 25.3378 16.9668 24.3824C16.9254 24.1474 16.8342 23.9211 16.7011 23.7209ZM16.256 24.8968C16.1455 25.4591 15.5993 25.8234 15.0392 25.7125C14.4787 25.5993 14.1126 25.0557 14.2254 24.493C14.3363 23.9329 14.8825 23.5686 15.4426 23.6796C15.7132 23.7344 15.9509 23.8928 16.1031 24.1223C16.2573 24.349 16.3112 24.6284 16.256 24.8968Z" fill="#333333"/>
<path d="M26.5768 23.8761C25.5409 23.5112 24.3688 23.1005 23.6773 22.2182L23.659 22.1935C22.2489 20.0237 23.5672 18.7661 24.5101 17.8636C25.0958 17.2874 25.6039 16.7994 25.5528 16.219C25.523 15.891 24.345 14.6938 22.6514 14.3121C21.6053 14.1005 20.5312 14.0872 19.4804 14.2725C17.9458 14.5408 16.5142 15.2219 15.3373 16.2379C11.7301 19.3529 11.3304 24.8031 14.4455 28.4103C17.5583 32.0179 23.0084 32.4176 26.6157 29.3025L27.1915 24.0986C26.9916 24.022 26.7853 23.9488 26.5768 23.8761ZM15.0746 18.0246C15.879 17.4867 16.9656 17.7028 17.5035 18.5073C18.0419 19.314 17.8257 20.4006 17.0212 20.9385C16.6336 21.1979 16.1607 21.2906 15.7045 21.201C15.248 21.1091 14.849 20.8416 14.59 20.4562C14.0521 19.6518 14.2701 18.5625 15.0746 18.0246ZM15.5464 26.4222C15.3318 26.46 15.1122 26.4568 14.8975 26.4154C14.441 26.3235 14.0394 26.0542 13.78 25.6666C13.2439 24.8594 13.4619 23.7702 14.269 23.2341C15.0735 22.6962 16.165 22.9138 16.7011 23.7209C16.8342 23.9211 16.9254 24.1474 16.9668 24.3824C17.1376 25.3378 16.5019 26.2514 15.5464 26.4222ZM20.7698 28.8259C20.6294 29.5356 20.0668 30.0845 19.355 30.21C18.6695 30.3262 17.9814 30.0305 17.5935 29.4559C17.3337 29.066 17.2405 28.5908 17.3325 28.1342C17.5239 27.1848 18.448 26.5722 19.3974 26.7636C20.1241 26.9081 20.6569 27.4851 20.7788 28.1766C20.8155 28.3845 20.8145 28.6036 20.7698 28.8259ZM20.1162 17.9837C19.1721 17.796 18.558 16.8768 18.7457 15.9328C18.933 14.9864 19.8522 14.3724 20.7989 14.5619C21.743 14.7496 22.3571 15.6688 22.1694 16.6128C22.0771 17.0671 21.807 17.4643 21.4208 17.7187C21.221 17.8541 20.9929 17.948 20.7538 17.9924C20.5436 18.0295 20.3263 18.0259 20.1162 17.9837ZM24.8324 29.6542C24.62 29.6917 24.4004 29.6885 24.1854 29.6448C23.2382 29.4531 22.6234 28.5293 22.8103 27.5807L22.8095 27.5762C22.9526 26.8683 23.5133 26.3221 24.2251 26.1966C25.1786 26.0285 26.0881 26.6673 26.2562 27.6208C26.4244 28.5744 25.7882 29.4857 24.8324 29.6542Z" fill="#333333"/>
<path d="M30.7367 19.7064L28.2588 19.3507L28.0025 21.1358L30.4804 21.4916L30.7367 19.7064Z" fill="#333333"/>
</svg>
