<svg width="16" height="14" viewBox="0 0 16 14" fill="none" xmlns="http://www.w3.org/2000/svg">
<g id="Group">
<path id="Vector" d="M12.15 1.74597V2.24597H12.65H14C14.5843 2.24597 15.075 2.73242 15.075 3.29597V11.996C15.075 12.5897 14.579 13.071 14 13.071H1.99999C1.40627 13.071 0.924988 12.575 0.924988 11.996V3.29597C0.924988 2.70225 1.42096 2.22097 1.99999 2.22097H3.32499H3.82499V1.72097V1.19597C3.82499 1.16498 3.83559 1.14873 3.84417 1.14015C3.85275 1.13157 3.86899 1.12097 3.89999 1.12097C3.91669 1.12097 3.93396 1.12709 3.95057 1.14421C3.96924 1.16344 3.97499 1.1845 3.97499 1.19597V1.72097V2.22097H4.47499H11.5H12V1.72097V1.19597C12 1.16498 12.0106 1.14873 12.0192 1.14015C12.0277 1.13157 12.044 1.12097 12.075 1.12097C12.0917 1.12097 12.109 1.12709 12.1256 1.14421C12.1442 1.16344 12.15 1.1845 12.15 1.19597V1.74597ZM3.84999 2.87097V2.37097H3.34999H1.99999C1.7545 2.37097 1.51265 2.45949 1.33304 2.64658C1.15466 2.83239 1.07499 3.07612 1.07499 3.32097V4.97097V5.47097H1.57499H14.45H14.95V4.97097V3.32097C14.95 2.79483 14.5261 2.37097 14 2.37097H12.725H12.225V2.87097V3.37097C12.225 3.40196 12.2144 3.41821 12.2058 3.42679C12.1972 3.43537 12.181 3.44597 12.15 3.44597C12.1333 3.44597 12.116 3.43985 12.0994 3.42273C12.0807 3.4035 12.075 3.38244 12.075 3.37097V2.87097V2.37097H11.575H4.49999H3.99999V2.87097V3.37097C3.99999 3.40197 3.98939 3.41821 3.98081 3.42679C3.97223 3.43537 3.95598 3.44597 3.92499 3.44597C3.90829 3.44597 3.89102 3.43985 3.8744 3.42273C3.85574 3.4035 3.84999 3.38244 3.84999 3.37097V2.87097ZM1.54999 5.57097H1.04999V6.07097V11.971C1.04999 12.4971 1.47385 12.921 1.99999 12.921H14C14.4663 12.921 14.9675 12.5692 14.925 11.9751V6.07097V5.57097H14.425H1.54999Z" fill="#333333" stroke="#333333"/>
<path id="Vector_2" d="M7.19999 6.771H6.64999C6.49999 6.771 6.39999 6.871 6.39999 7.021V7.571C6.39999 7.721 6.49999 7.821 6.64999 7.821H7.19999C7.34999 7.821 7.44999 7.721 7.44999 7.571V7.021C7.44999 6.871 7.32499 6.771 7.19999 6.771Z" fill="#333333"/>
<path id="Vector_3" d="M9.47499 6.771H8.92499C8.77499 6.771 8.67499 6.871 8.67499 7.021V7.571C8.67499 7.721 8.77499 7.821 8.92499 7.821H9.47499C9.62499 7.821 9.72499 7.721 9.72499 7.571V7.021C9.72499 6.871 9.62499 6.771 9.47499 6.771Z" fill="#333333"/>
<path id="Vector_4" d="M11.75 6.771H11.2C11.05 6.771 10.95 6.871 10.95 7.021V7.571C10.95 7.721 11.05 7.821 11.2 7.821H11.75C11.9 7.821 12 7.721 12 7.571V7.021C12 6.871 11.9 6.771 11.75 6.771Z" fill="#333333"/>
<path id="Vector_5" d="M4.8 8.69592H4.25C4.1 8.69592 4 8.79592 4 8.94592V9.49592C4 9.64592 4.1 9.74592 4.25 9.74592H4.8C4.95 9.74592 5.05 9.64592 5.05 9.49592V8.94592C5.05 8.79592 4.925 8.69592 4.8 8.69592Z" fill="#333333"/>
<path id="Vector_6" d="M7.19999 8.69592H6.64999C6.49999 8.69592 6.39999 8.79592 6.39999 8.94592V9.49592C6.39999 9.64592 6.49999 9.74592 6.64999 9.74592H7.19999C7.34999 9.74592 7.44999 9.64592 7.44999 9.49592V8.94592C7.44999 8.79592 7.32499 8.69592 7.19999 8.69592Z" fill="#333333"/>
<path id="Vector_7" d="M9.47499 8.69592H8.92499C8.77499 8.69592 8.67499 8.79592 8.67499 8.94592V9.49592C8.67499 9.64592 8.77499 9.74592 8.92499 9.74592H9.47499C9.62499 9.74592 9.72499 9.64592 9.72499 9.49592V8.94592C9.72499 8.79592 9.62499 8.69592 9.47499 8.69592Z" fill="#333333"/>
<path id="Vector_8" d="M11.75 8.69592H11.2C11.05 8.69592 10.95 8.79592 10.95 8.94592V9.49592C10.95 9.64592 11.05 9.74592 11.2 9.74592H11.75C11.9 9.74592 12 9.64592 12 9.49592V8.94592C12 8.79592 11.9 8.69592 11.75 8.69592Z" fill="#333333"/>
<path id="Vector_9" d="M4.8 10.621H4.25C4.1 10.621 4 10.721 4 10.871V11.421C4 11.571 4.1 11.671 4.25 11.671H4.8C4.95 11.671 5.05 11.571 5.05 11.421V10.871C5.05 10.721 4.925 10.621 4.8 10.621Z" fill="#333333"/>
<path id="Vector_10" d="M7.19999 10.621H6.64999C6.49999 10.621 6.39999 10.721 6.39999 10.871V11.421C6.39999 11.571 6.49999 11.671 6.64999 11.671H7.19999C7.34999 11.671 7.44999 11.571 7.44999 11.421V10.871C7.44999 10.721 7.32499 10.621 7.19999 10.621Z" fill="#333333"/>
<path id="Vector_11" d="M9.47499 10.621H8.92499C8.77499 10.621 8.67499 10.721 8.67499 10.871V11.421C8.67499 11.571 8.77499 11.671 8.92499 11.671H9.47499C9.62499 11.671 9.72499 11.571 9.72499 11.421V10.871C9.72499 10.721 9.62499 10.621 9.47499 10.621Z" fill="#333333"/>
</g>
</svg>
