<svg width="24" height="24" viewBox="0 0 24 24" fill="none" xmlns="http://www.w3.org/2000/svg">
<g id="System Icons">
<path id="Vector" d="M13.2016 12L22.3516 3.54828C22.6891 3.23654 22.6891 2.75161 22.3516 2.43986C22.0141 2.12812 21.4891 2.12812 21.1516 2.43986L12.0016 10.8916L2.85156 2.43986C2.51406 2.12812 1.98906 2.12812 1.65156 2.43986C1.31406 2.75161 1.31406 3.23654 1.65156 3.54828L10.8016 12L1.65156 20.4517C1.31406 20.7634 1.31406 21.2484 1.65156 21.5601C1.80156 21.6987 2.02656 21.8026 2.25156 21.8026C2.47656 21.8026 2.70156 21.7333 2.85156 21.5601L12.0016 13.1084L21.1516 21.5601C21.3016 21.6987 21.5266 21.8026 21.7516 21.8026C21.9766 21.8026 22.2016 21.7333 22.3516 21.5601C22.6891 21.2484 22.6891 20.7634 22.3516 20.4517L13.2016 12Z" fill="#FFAF85"/>
</g>
</svg>
