<svg width="48" height="48" viewBox="0 0 48 48" fill="none" xmlns="http://www.w3.org/2000/svg">
<g id="Illustration Icon">
<path id="Rectangle 4589" d="M0.554739 10.0885C0.247287 7.90087 1.77148 5.8782 3.95912 5.57075L37.6282 0.838863C39.8159 0.53141 41.8385 2.0556 42.146 4.24324L46.8779 37.9124C47.1853 40.1 45.6611 42.1227 43.4735 42.4301L9.80439 47.162C7.61675 47.4695 5.59408 45.9453 5.28662 43.7576L0.554739 10.0885Z" fill="#FFF7EB"/>
<path id="Vector" d="M37.4654 23.7083C36.5841 23.2004 35.4639 23.419 34.8392 24.2221L30.9328 29.2245C30.8875 29.1794 30.8385 29.1375 30.786 29.1004C30.4175 28.8251 29.9545 28.7093 29.501 28.78C28.8241 28.8751 27.7064 29.0322 26.2216 29.2117C24.8081 29.3728 23.9322 29.0032 22.913 28.5633C21.6822 27.9751 20.3373 27.6645 18.9735 27.6543C17.2847 27.5994 15.6741 28.3685 14.6539 29.7157C14.5465 29.1992 14.0569 28.8547 13.534 28.9268L10.8196 29.3083C10.271 29.3854 9.88862 29.8928 9.96573 30.4414L10.7651 36.1294C10.8422 36.6781 11.3496 37.0605 11.8983 36.9833L14.6127 36.6019C15.1613 36.5248 15.5437 36.0173 15.4666 35.4687L15.4298 35.2067C17.1268 35.5875 21.9373 36.6232 24.8208 36.8302C25.519 36.8866 26.2206 36.8687 26.9133 36.7769C27.7998 36.6579 28.6589 36.3841 29.4494 35.9682C31.4625 34.9045 33.2024 33.3908 34.5319 31.5423L38.1021 26.7137C38.4532 26.2413 38.5848 25.6425 38.4622 25.0668C38.3409 24.491 37.9777 23.9968 37.4654 23.7083ZM14.6153 35.5884C14.6221 35.6264 14.6122 35.6654 14.5888 35.6965C14.5665 35.7261 14.5317 35.7463 14.4933 35.7503L11.7789 36.1317C11.6998 36.1429 11.6282 36.0889 11.6171 36.0098L10.8173 30.3189C10.8077 30.241 10.8617 30.1694 10.9392 30.1571L13.6537 29.7756C13.6919 29.7702 13.7295 29.7802 13.7604 29.8023C13.7902 29.826 13.8102 29.8593 13.8155 29.8976L14.6153 35.5884ZM37.4183 26.2045L33.842 31.0379C32.5827 32.7722 30.941 34.1914 29.0435 35.1859C27.7675 35.8607 26.3169 36.1341 24.8829 35.9711C21.8845 35.7579 16.5877 34.5874 15.3023 34.2934L14.8502 31.0768C15.5898 29.4768 17.2212 28.4793 18.982 28.5506C20.232 28.5628 21.4637 28.8503 22.5896 29.3949C23.671 29.8511 24.6915 30.2796 26.328 30.09C27.8224 29.9203 28.9497 29.7619 29.6365 29.6584C29.8633 29.6279 30.0925 29.6848 30.2782 29.8173C30.5515 30.0294 30.671 30.3842 30.5844 30.7192C30.4977 31.0529 30.22 31.3048 29.8796 31.3582L23.9103 32.1972L24.0306 33.0528L29.9997 32.2126C30.9425 32.0787 31.5978 31.2058 31.4652 30.2628C31.4594 30.1815 31.4482 30.1024 31.4315 30.0226L35.516 24.7544C35.9202 24.2537 36.6509 24.1649 37.1621 24.5551C37.6748 24.9451 37.7852 25.6713 37.4106 26.1943L37.4183 26.2045ZM25.9744 27.2423C28.3108 26.9139 30.4226 25.6722 31.8432 23.7872C33.2625 21.9038 33.8769 19.5322 33.547 17.1948C33.2186 14.8584 31.9743 12.748 30.0896 11.3292C28.2048 9.91014 25.8336 9.29847 23.4976 9.62817C21.16 9.95808 19.0512 11.2036 17.6325 13.0896C16.2148 14.9742 15.6047 17.3463 15.9358 19.6825C16.2678 22.0156 17.5114 24.1203 19.393 25.5371C21.2746 26.9539 23.6417 27.5673 25.9744 27.2423ZM23.6191 10.4835C25.7288 10.1856 27.8702 10.7378 29.5727 12.0196C31.2737 13.3002 32.3975 15.2063 32.6952 17.3145C32.9931 19.4242 32.441 21.5656 31.1605 23.2679C29.8787 24.9705 27.974 26.0941 25.8644 26.392C23.7563 26.691 21.6149 26.1389 19.911 24.8573C18.2086 23.5768 17.085 21.6722 16.7871 19.5626C16.4892 17.4529 17.0414 15.3115 18.3232 13.609C19.605 11.9064 21.5095 10.7814 23.6191 10.4835ZM25.6725 25.0941C27.4398 24.8457 29.0362 23.906 30.1091 22.4805C31.1821 21.0549 31.6453 19.2613 31.3958 17.4957C31.1474 15.7284 30.2052 14.1338 28.7797 13.0609C27.3541 11.988 25.5607 11.526 23.7937 11.7757C22.0268 12.0268 20.4322 12.969 19.3603 14.3945C18.2889 15.8212 17.8272 17.6159 18.0781 19.3814C18.3315 21.1453 19.2718 22.736 20.6956 23.8064C22.1195 24.8769 23.9091 25.3405 25.6725 25.0941ZM23.9204 12.6272L23.9202 12.6259C25.4657 12.4031 27.036 12.8031 28.2849 13.7395C29.5352 14.6744 30.3604 16.0697 30.5816 17.6139C30.803 19.1596 30.4001 20.7289 29.4621 21.977C28.5242 23.225 27.1302 24.0499 25.5842 24.2685C24.0381 24.4872 22.4697 24.0814 21.2229 23.1419C19.9762 22.2024 19.1538 20.8066 18.9378 19.2601C18.7215 17.7208 19.1238 16.157 20.058 14.9123C20.9909 13.6679 22.381 12.8449 23.9196 12.6231L23.9204 12.6272ZM22.9199 22.0849C23.362 22.418 23.9911 22.3296 24.3242 21.8876L26.2561 19.3449L26.4476 19.4891C26.5892 19.5959 26.7684 19.643 26.9447 19.6197C27.0213 19.6103 27.0972 19.5857 27.1643 19.5484C27.3969 19.4309 27.5395 19.1881 27.5269 18.9297L27.4206 15.7674C27.4119 15.5668 27.3133 15.3803 27.1528 15.2581C26.9925 15.1373 26.786 15.0939 26.5896 15.1424L23.5178 15.9123L23.5176 15.9109C23.2649 15.9743 23.0721 16.1767 23.02 16.4304C22.9682 16.6854 23.0692 16.9481 23.2773 17.1026L23.4688 17.2468L21.5393 19.8073L21.538 19.8075C21.2066 20.2521 21.295 20.8812 21.7359 21.2159L22.9199 22.0849ZM26.5677 16.0056L26.6535 18.5473L26.4294 18.3784L24.3256 16.7967L24.1014 16.6278L26.5677 16.0056ZM22.2201 20.3018L24.1495 17.7414L25.5548 18.8089L23.6219 21.374C23.5738 21.4379 23.4851 21.4503 23.4213 21.4022L22.2483 20.5024C22.2173 20.4804 22.1971 20.4456 22.192 20.4088C22.1866 20.3706 22.1964 20.3316 22.2201 20.3018Z" fill="#333333"/>
</g>
</svg>
