<svg width="74" height="74" viewBox="0 0 74 74" fill="none" xmlns="http://www.w3.org/2000/svg">
<path d="M1.97129 17.641C1.35639 13.2657 4.40478 9.22039 8.78005 8.60549L56.3129 1.92518C60.6882 1.31027 64.7335 4.35866 65.3485 8.73394L72.0288 56.2668C72.6437 60.6421 69.5953 64.6874 65.22 65.3023L17.6871 71.9826C13.3119 72.5975 9.26651 69.5492 8.6516 65.1739L1.97129 17.641Z" fill="#FFF7EB"/>
<mask id="path-2-inside-1_36056_8651" fill="white">
<path d="M37.1852 53.0588C42.6334 52.9556 48.3289 52.2523 53.3854 50.1398C56.8394 48.7022 59.7541 46.744 59.3849 43.0089C59.3973 42.8959 59.4118 42.781 59.414 42.6658C59.4182 42.4478 59.3895 42.0214 59.3307 41.8763C59.1823 41.1678 58.8123 40.4694 58.2285 39.7978C58.1342 39.689 57.9683 39.6775 57.8578 39.7721C57.7493 39.8688 57.738 40.0332 57.8322 40.144C62.4727 45.4835 51.4914 50.5312 36.9889 50.2528C25.0015 50.0226 15.3175 46.2404 15.4023 41.8226C15.4042 41.728 15.412 41.6397 15.4282 41.5454L15.4283 41.5372C15.4922 41.4129 15.3687 39.4066 19.3345 37.3781C19.6452 37.2195 19.404 36.7499 19.0954 36.9085C16.9686 37.9972 14.6973 39.7764 14.8954 42.169C14.4649 43.3376 14.6189 43.7499 14.7399 45.355C15.0452 49.85 25.0126 53.2859 37.1852 53.0588Z"/>
<path d="M30.855 48.0491C32.8008 48.5926 34.988 48.8465 37.0133 48.8854C40.3914 48.9502 43.5365 48.4345 45.6469 47.4711C45.9593 47.3269 45.7491 46.8497 45.4285 46.9916C43.3888 47.9236 40.3238 48.4243 37.0236 48.3609C35.0456 48.3229 32.8931 48.0759 30.9962 47.5436C30.8594 47.5081 30.7123 47.5876 30.6727 47.7267C30.6332 47.8638 30.7163 48.0094 30.855 48.0491Z"/>
<path d="M56.7203 38.5466C57.0598 38.0593 57.4085 37.5229 57.7208 36.9569C58.5395 35.6498 59.2709 34.0837 59.1463 32.5589C58.9836 30.4634 58.193 28.2777 56.9228 26.404C56.9208 26.4019 56.9188 26.3998 56.9168 26.3977C54.521 20.5624 42.6933 21.9441 36.4159 29.5551C36.1954 29.8245 36.5991 30.1594 36.8216 29.89C38.1316 28.3022 39.8633 26.8603 41.827 25.7254C47.6932 22.3405 54.1308 22.4887 56.1788 26.0606C58.2264 29.6324 55.1198 35.292 49.254 38.6771C48.3355 39.2068 47.3079 39.6437 46.2678 40.097C43.8338 41.1633 39.9973 41.9044 37.1824 40.4904C36.8737 40.3363 36.6351 40.8049 36.9478 40.9611C39.7485 42.3686 43.649 41.8201 46.4781 40.5804C47.5224 40.1252 48.5664 39.6823 49.5161 39.1348C54.5134 36.2496 57.5572 31.7265 57.3075 28.0838C58.0466 29.53 58.5067 31.0901 58.6233 32.6003C58.7627 34.3127 57.6754 36.1558 56.6971 37.5545C52.8275 43.1132 44.264 45.9056 39.4021 44.0963C38.3068 43.6823 37.189 42.737 36.2564 41.4333C36.1725 41.3165 35.9949 41.276 35.8654 41.4011C35.849 41.3987 35.8348 41.3902 35.8184 41.392C35.7196 41.4127 35.6926 41.5356 35.6907 41.6343C35.6818 42.525 36.4774 43.2768 37.0776 43.8397C37.6717 44.4045 38.3492 44.8928 39.1169 45.175C44.6181 47.2351 53.134 43.6995 56.7212 38.5465L56.7203 38.5466Z"/>
<path d="M51.8904 25.363C46.288 26.0332 44.1751 26.795 42.9437 27.0923C42.7089 27.1454 42.6066 27.3492 42.5095 27.4934C42.1432 27.7723 41.8788 28.3021 41.5743 28.7798C40.4303 30.5848 39.4465 32.4834 38.5523 34.4147C38.4645 34.6044 38.6059 34.8231 38.8193 34.819L41.4821 34.7549C41.7793 34.7606 41.7456 35.0233 42.655 36.5735C42.6986 36.6505 42.7592 36.699 42.843 36.715C47.394 37.7384 47.2939 37.8291 47.7448 37.5169C47.9637 37.5478 48.1502 37.4465 48.266 37.2862L51.2722 32.9041C51.3963 32.7398 51.4109 32.5138 51.3079 32.3287L49.9874 29.8674L52.4159 26.2046C52.6674 25.8103 52.3346 25.2975 51.8904 25.363ZM49.5237 29.6546C49.4343 29.7187 49.6331 29.5126 47.7241 31.8543C47.5056 32.1258 47.9114 32.4566 48.1319 32.1872L49.6336 30.3356L50.8492 32.5974L47.816 36.9995L43.5652 36.0394L42.7487 34.561L46.0611 34.2049C46.6857 34.1387 46.9144 33.6575 47.0334 33.5425C47.2519 33.271 46.8441 32.9402 46.6256 33.2096C46.4897 33.3449 46.3733 33.6409 46.0055 33.6791C41.7602 34.1429 42.3298 34.0591 42.2306 34.0984C42.202 34.0937 42.1797 34.0768 42.149 34.0762C42.0793 34.0749 39.4005 34.114 39.4701 34.1174C40.6535 31.5437 41.8284 29.4143 43.0936 27.597C43.2667 27.5551 46.286 26.5473 51.9759 25.916C50.7276 27.8115 49.6159 29.4444 49.5237 29.6546Z"/>
<path d="M21.2858 42.0039C21.6649 42.1284 22.1035 42.034 22.497 42.0436C23.6937 42.083 24.914 42.0735 26.0935 41.839C26.2741 41.8342 26.4385 41.9197 26.5445 42.0616C27.1539 43.4291 28.1155 44.7129 29.3306 45.9336C29.6803 46.4115 30.1123 46.0206 30.3084 45.6355C30.4798 45.357 30.6186 45.0716 30.743 44.7839C30.8393 44.6808 30.9235 44.5693 30.981 44.4593C31.7387 43.2271 32.0008 41.8598 32.1308 40.4325C32.5041 40.3203 33.9739 40.2354 35.3545 39.7784C35.8126 39.6267 36.9505 39.1034 37.2773 38.7455C37.4094 38.5937 37.6619 38.471 37.7656 38.3023C37.8947 38.0908 37.7405 37.7957 37.6381 37.5756C37.6667 37.3663 37.6173 37.1596 37.5012 37.0154C37.4475 36.9301 37.3811 36.8629 37.3364 36.8415C36.0731 35.6713 34.7313 34.7485 33.3921 34.12C33.2081 33.9848 33.2997 33.8055 33.2929 33.7334C33.4671 32.134 33.902 28.2807 32.4802 28.3213C31.6673 28.3675 29.7385 30.0339 29.1396 30.5779C28.015 31.5829 27.7126 31.4228 26.976 31.1227C25.7125 30.6067 22.625 29.2884 22.3101 30.525C22.0558 30.8492 22.0782 31.1768 22.154 31.6082C22.2525 32.2438 22.2988 32.8228 22.5251 33.4279C22.7554 34.0351 23.0042 34.6386 23.2448 35.244C23.3465 35.5011 23.4881 35.8165 23.5885 36.1414C23.5486 36.1859 23.5047 36.2324 23.4732 36.2709C23.1925 36.5782 22.9424 36.8985 22.7342 37.1681C22.305 37.7318 21.887 38.3575 21.4167 39.1406C21.3512 39.2463 21.0337 39.7607 20.9902 39.8895C20.8685 40.0332 20.7652 40.1814 20.7148 40.3471C20.6641 40.5334 20.6726 40.7331 20.6935 40.9248C20.7486 41.3641 20.8255 41.8449 21.2858 42.0039ZM23.1544 37.493C23.3542 37.2314 23.5959 36.9233 23.8745 36.618C23.9333 36.5451 24.0004 36.4702 24.0632 36.4035C24.7119 35.7206 24.2886 34.7023 24.0083 34.0283L23.932 33.8396C23.842 33.6095 23.748 33.3793 23.656 33.1512C22.6187 30.5761 22.7471 30.6156 22.9449 30.5679C23.8377 30.3114 26.8303 31.6568 27.2134 31.7855C28.7985 32.318 29.4392 30.5589 32.0254 29.0408C32.1726 28.9552 32.3488 28.8598 32.5048 28.8505C32.5397 28.847 32.5785 28.8539 32.6308 28.9105C33.2877 29.6185 32.7506 33.7785 32.7483 33.8977C32.7536 34.155 32.8761 34.3981 33.1229 34.5736C35.535 35.7144 36.9998 37.2794 37.0707 37.3219C37.1749 37.4514 37.1193 37.6767 36.9315 37.7389C36.3928 37.924 35.4344 38.4961 33.2768 38.7324C31.5055 38.9247 31.6928 39.527 31.5939 40.5167C31.4596 41.8494 31.219 43.0607 30.5225 44.2015C30.4012 44.4296 30.2303 44.5744 30.1338 44.5808C30.0825 44.5819 30.034 44.546 29.9519 44.4395C28.5379 43.0092 27.7469 41.8028 27.1919 40.5948C27.032 40.3798 26.7963 40.2642 26.4845 40.2726C25.3524 40.4957 23.8546 40.5389 21.747 40.4161C21.6199 40.4137 21.5491 40.363 21.4996 40.2694C21.4759 40.2258 21.433 40.1077 21.5425 39.9596C21.6465 39.7785 21.7586 39.5955 21.8645 39.4206C22.3304 38.6518 22.7379 38.0384 23.1544 37.493Z"/>
<path d="M28.346 39.0162C29.8555 38.465 31.0905 37.2604 31.7055 35.7745C31.9708 35.8393 32.237 35.8608 32.1674 35.8513C32.5016 35.8577 32.5297 35.3542 32.196 35.3251C32.0282 35.3096 31.8628 35.2714 31.6997 35.221C31.6572 35.1934 31.6432 35.1767 31.5611 35.1772C31.3372 35.0926 31.124 34.9795 30.9361 34.836C30.6572 34.6249 30.3436 35.0447 30.6184 35.2557C30.8003 35.395 31.0012 35.5059 31.2126 35.5984C30.6497 36.9372 29.5338 38.0227 28.1709 38.5211C27.8385 38.6403 28.0238 39.1376 28.346 39.0162Z"/>
<path d="M26.1478 37.4165C26.158 37.4167 26.1662 37.4169 26.1765 37.415C26.8544 37.354 27.4633 36.8266 27.6278 36.1632C27.6612 36.0219 27.5758 35.8804 27.435 35.8447C27.2901 35.809 27.151 35.8969 27.1176 36.0361C27.0063 36.4887 26.5914 36.8469 26.1292 36.8895C25.9854 36.9032 25.8784 37.0307 25.892 37.175C25.9037 37.3131 26.0145 37.414 26.1478 37.4165Z"/>
<path d="M28.5346 34.8495C28.5449 34.8497 28.5531 34.8498 28.5634 34.848C29.2413 34.7869 29.8501 34.2596 30.0146 33.5962C30.097 33.2583 29.5889 33.1292 29.5044 33.4691C29.3932 33.9216 28.9783 34.2799 28.5161 34.3224C28.3723 34.3361 28.2652 34.4637 28.2789 34.6079C28.2906 34.744 28.4014 34.8469 28.5346 34.8495Z"/>
<path d="M34.6913 25.629L36.6292 24.0224C36.898 23.7992 36.5592 23.3935 36.2945 23.6168L34.3567 25.2235C34.0879 25.4446 34.4287 25.8482 34.6913 25.629Z"/>
<path d="M34.2577 21.3087C33.756 22.3422 33.3171 23.4159 32.9517 24.5014C32.8408 24.8305 33.3379 25.0005 33.4488 24.6693C33.8076 23.6064 34.238 22.551 34.729 21.5379C34.8806 21.226 34.4093 20.9948 34.2577 21.3087Z"/>
<path d="M30.9343 21.2839C30.936 21.2983 31.3826 24.0967 31.421 24.3443C31.4759 24.6889 31.9942 24.6063 31.9393 24.2637C31.879 23.8799 31.4655 21.2756 31.4526 21.2033C31.3997 20.8587 30.8814 20.9393 30.9343 21.2839Z"/>
</mask>
<path d="M37.1852 53.0588C42.6334 52.9556 48.3289 52.2523 53.3854 50.1398C56.8394 48.7022 59.7541 46.744 59.3849 43.0089C59.3973 42.8959 59.4118 42.781 59.414 42.6658C59.4182 42.4478 59.3895 42.0214 59.3307 41.8763C59.1823 41.1678 58.8123 40.4694 58.2285 39.7978C58.1342 39.689 57.9683 39.6775 57.8578 39.7721C57.7493 39.8688 57.738 40.0332 57.8322 40.144C62.4727 45.4835 51.4914 50.5312 36.9889 50.2528C25.0015 50.0226 15.3175 46.2404 15.4023 41.8226C15.4042 41.728 15.412 41.6397 15.4282 41.5454L15.4283 41.5372C15.4922 41.4129 15.3687 39.4066 19.3345 37.3781C19.6452 37.2195 19.404 36.7499 19.0954 36.9085C16.9686 37.9972 14.6973 39.7764 14.8954 42.169C14.4649 43.3376 14.6189 43.7499 14.7399 45.355C15.0452 49.85 25.0126 53.2859 37.1852 53.0588Z" fill="#333333"/>
<path d="M30.855 48.0491C32.8008 48.5926 34.988 48.8465 37.0133 48.8854C40.3914 48.9502 43.5365 48.4345 45.6469 47.4711C45.9593 47.3269 45.7491 46.8497 45.4285 46.9916C43.3888 47.9236 40.3238 48.4243 37.0236 48.3609C35.0456 48.3229 32.8931 48.0759 30.9962 47.5436C30.8594 47.5081 30.7123 47.5876 30.6727 47.7267C30.6332 47.8638 30.7163 48.0094 30.855 48.0491Z" fill="#333333"/>
<path d="M56.7203 38.5466C57.0598 38.0593 57.4085 37.5229 57.7208 36.9569C58.5395 35.6498 59.2709 34.0837 59.1463 32.5589C58.9836 30.4634 58.193 28.2777 56.9228 26.404C56.9208 26.4019 56.9188 26.3998 56.9168 26.3977C54.521 20.5624 42.6933 21.9441 36.4159 29.5551C36.1954 29.8245 36.5991 30.1594 36.8216 29.89C38.1316 28.3022 39.8633 26.8603 41.827 25.7254C47.6932 22.3405 54.1308 22.4887 56.1788 26.0606C58.2264 29.6324 55.1198 35.292 49.254 38.6771C48.3355 39.2068 47.3079 39.6437 46.2678 40.097C43.8338 41.1633 39.9973 41.9044 37.1824 40.4904C36.8737 40.3363 36.6351 40.8049 36.9478 40.9611C39.7485 42.3686 43.649 41.8201 46.4781 40.5804C47.5224 40.1252 48.5664 39.6823 49.5161 39.1348C54.5134 36.2496 57.5572 31.7265 57.3075 28.0838C58.0466 29.53 58.5067 31.0901 58.6233 32.6003C58.7627 34.3127 57.6754 36.1558 56.6971 37.5545C52.8275 43.1132 44.264 45.9056 39.4021 44.0963C38.3068 43.6823 37.189 42.737 36.2564 41.4333C36.1725 41.3165 35.9949 41.276 35.8654 41.4011C35.849 41.3987 35.8348 41.3902 35.8184 41.392C35.7196 41.4127 35.6926 41.5356 35.6907 41.6343C35.6818 42.525 36.4774 43.2768 37.0776 43.8397C37.6717 44.4045 38.3492 44.8928 39.1169 45.175C44.6181 47.2351 53.134 43.6995 56.7212 38.5465L56.7203 38.5466Z" fill="#333333"/>
<path d="M51.8904 25.363C46.288 26.0332 44.1751 26.795 42.9437 27.0923C42.7089 27.1454 42.6066 27.3492 42.5095 27.4934C42.1432 27.7723 41.8788 28.3021 41.5743 28.7798C40.4303 30.5848 39.4465 32.4834 38.5523 34.4147C38.4645 34.6044 38.6059 34.8231 38.8193 34.819L41.4821 34.7549C41.7793 34.7606 41.7456 35.0233 42.655 36.5735C42.6986 36.6505 42.7592 36.699 42.843 36.715C47.394 37.7384 47.2939 37.8291 47.7448 37.5169C47.9637 37.5478 48.1502 37.4465 48.266 37.2862L51.2722 32.9041C51.3963 32.7398 51.4109 32.5138 51.3079 32.3287L49.9874 29.8674L52.4159 26.2046C52.6674 25.8103 52.3346 25.2975 51.8904 25.363ZM49.5237 29.6546C49.4343 29.7187 49.6331 29.5126 47.7241 31.8543C47.5056 32.1258 47.9114 32.4566 48.1319 32.1872L49.6336 30.3356L50.8492 32.5974L47.816 36.9995L43.5652 36.0394L42.7487 34.561L46.0611 34.2049C46.6857 34.1387 46.9144 33.6575 47.0334 33.5425C47.2519 33.271 46.8441 32.9402 46.6256 33.2096C46.4897 33.3449 46.3733 33.6409 46.0055 33.6791C41.7602 34.1429 42.3298 34.0591 42.2306 34.0984C42.202 34.0937 42.1797 34.0768 42.149 34.0762C42.0793 34.0749 39.4005 34.114 39.4701 34.1174C40.6535 31.5437 41.8284 29.4143 43.0936 27.597C43.2667 27.5551 46.286 26.5473 51.9759 25.916C50.7276 27.8115 49.6159 29.4444 49.5237 29.6546Z" fill="#333333"/>
<path d="M21.2858 42.0039C21.6649 42.1284 22.1035 42.034 22.497 42.0436C23.6937 42.083 24.914 42.0735 26.0935 41.839C26.2741 41.8342 26.4385 41.9197 26.5445 42.0616C27.1539 43.4291 28.1155 44.7129 29.3306 45.9336C29.6803 46.4115 30.1123 46.0206 30.3084 45.6355C30.4798 45.357 30.6186 45.0716 30.743 44.7839C30.8393 44.6808 30.9235 44.5693 30.981 44.4593C31.7387 43.2271 32.0008 41.8598 32.1308 40.4325C32.5041 40.3203 33.9739 40.2354 35.3545 39.7784C35.8126 39.6267 36.9505 39.1034 37.2773 38.7455C37.4094 38.5937 37.6619 38.471 37.7656 38.3023C37.8947 38.0908 37.7405 37.7957 37.6381 37.5756C37.6667 37.3663 37.6173 37.1596 37.5012 37.0154C37.4475 36.9301 37.3811 36.8629 37.3364 36.8415C36.0731 35.6713 34.7313 34.7485 33.3921 34.12C33.2081 33.9848 33.2997 33.8055 33.2929 33.7334C33.4671 32.134 33.902 28.2807 32.4802 28.3213C31.6673 28.3675 29.7385 30.0339 29.1396 30.5779C28.015 31.5829 27.7126 31.4228 26.976 31.1227C25.7125 30.6067 22.625 29.2884 22.3101 30.525C22.0558 30.8492 22.0782 31.1768 22.154 31.6082C22.2525 32.2438 22.2988 32.8228 22.5251 33.4279C22.7554 34.0351 23.0042 34.6386 23.2448 35.244C23.3465 35.5011 23.4881 35.8165 23.5885 36.1414C23.5486 36.1859 23.5047 36.2324 23.4732 36.2709C23.1925 36.5782 22.9424 36.8985 22.7342 37.1681C22.305 37.7318 21.887 38.3575 21.4167 39.1406C21.3512 39.2463 21.0337 39.7607 20.9902 39.8895C20.8685 40.0332 20.7652 40.1814 20.7148 40.3471C20.6641 40.5334 20.6726 40.7331 20.6935 40.9248C20.7486 41.3641 20.8255 41.8449 21.2858 42.0039ZM23.1544 37.493C23.3542 37.2314 23.5959 36.9233 23.8745 36.618C23.9333 36.5451 24.0004 36.4702 24.0632 36.4035C24.7119 35.7206 24.2886 34.7023 24.0083 34.0283L23.932 33.8396C23.842 33.6095 23.748 33.3793 23.656 33.1512C22.6187 30.5761 22.7471 30.6156 22.9449 30.5679C23.8377 30.3114 26.8303 31.6568 27.2134 31.7855C28.7985 32.318 29.4392 30.5589 32.0254 29.0408C32.1726 28.9552 32.3488 28.8598 32.5048 28.8505C32.5397 28.847 32.5785 28.8539 32.6308 28.9105C33.2877 29.6185 32.7506 33.7785 32.7483 33.8977C32.7536 34.155 32.8761 34.3981 33.1229 34.5736C35.535 35.7144 36.9998 37.2794 37.0707 37.3219C37.1749 37.4514 37.1193 37.6767 36.9315 37.7389C36.3928 37.924 35.4344 38.4961 33.2768 38.7324C31.5055 38.9247 31.6928 39.527 31.5939 40.5167C31.4596 41.8494 31.219 43.0607 30.5225 44.2015C30.4012 44.4296 30.2303 44.5744 30.1338 44.5808C30.0825 44.5819 30.034 44.546 29.9519 44.4395C28.5379 43.0092 27.7469 41.8028 27.1919 40.5948C27.032 40.3798 26.7963 40.2642 26.4845 40.2726C25.3524 40.4957 23.8546 40.5389 21.747 40.4161C21.6199 40.4137 21.5491 40.363 21.4996 40.2694C21.4759 40.2258 21.433 40.1077 21.5425 39.9596C21.6465 39.7785 21.7586 39.5955 21.8645 39.4206C22.3304 38.6518 22.7379 38.0384 23.1544 37.493Z" fill="#333333"/>
<path d="M28.346 39.0162C29.8555 38.465 31.0905 37.2604 31.7055 35.7745C31.9708 35.8393 32.237 35.8608 32.1674 35.8513C32.5016 35.8577 32.5297 35.3542 32.196 35.3251C32.0282 35.3096 31.8628 35.2714 31.6997 35.221C31.6572 35.1934 31.6432 35.1767 31.5611 35.1772C31.3372 35.0926 31.124 34.9795 30.9361 34.836C30.6572 34.6249 30.3436 35.0447 30.6184 35.2557C30.8003 35.395 31.0012 35.5059 31.2126 35.5984C30.6497 36.9372 29.5338 38.0227 28.1709 38.5211C27.8385 38.6403 28.0238 39.1376 28.346 39.0162Z" fill="#333333"/>
<path d="M26.1478 37.4165C26.158 37.4167 26.1662 37.4169 26.1765 37.415C26.8544 37.354 27.4633 36.8266 27.6278 36.1632C27.6612 36.0219 27.5758 35.8804 27.435 35.8447C27.2901 35.809 27.151 35.8969 27.1176 36.0361C27.0063 36.4887 26.5914 36.8469 26.1292 36.8895C25.9854 36.9032 25.8784 37.0307 25.892 37.175C25.9037 37.3131 26.0145 37.414 26.1478 37.4165Z" fill="#333333"/>
<path d="M28.5346 34.8495C28.5449 34.8497 28.5531 34.8498 28.5634 34.848C29.2413 34.7869 29.8501 34.2596 30.0146 33.5962C30.097 33.2583 29.5889 33.1292 29.5044 33.4691C29.3932 33.9216 28.9783 34.2799 28.5161 34.3224C28.3723 34.3361 28.2652 34.4637 28.2789 34.6079C28.2906 34.744 28.4014 34.8469 28.5346 34.8495Z" fill="#333333"/>
<path d="M34.6913 25.629L36.6292 24.0224C36.898 23.7992 36.5592 23.3935 36.2945 23.6168L34.3567 25.2235C34.0879 25.4446 34.4287 25.8482 34.6913 25.629Z" fill="#333333"/>
<path d="M34.2577 21.3087C33.756 22.3422 33.3171 23.4159 32.9517 24.5014C32.8408 24.8305 33.3379 25.0005 33.4488 24.6693C33.8076 23.6064 34.238 22.551 34.729 21.5379C34.8806 21.226 34.4093 20.9948 34.2577 21.3087Z" fill="#333333"/>
<path d="M30.9343 21.2839C30.936 21.2983 31.3826 24.0967 31.421 24.3443C31.4759 24.6889 31.9942 24.6063 31.9393 24.2637C31.879 23.8799 31.4655 21.2756 31.4526 21.2033C31.3997 20.8587 30.8814 20.9393 30.9343 21.2839Z" fill="#333333"/>
<path d="M37.1852 53.0588C42.6334 52.9556 48.3289 52.2523 53.3854 50.1398C56.8394 48.7022 59.7541 46.744 59.3849 43.0089C59.3973 42.8959 59.4118 42.781 59.414 42.6658C59.4182 42.4478 59.3895 42.0214 59.3307 41.8763C59.1823 41.1678 58.8123 40.4694 58.2285 39.7978C58.1342 39.689 57.9683 39.6775 57.8578 39.7721C57.7493 39.8688 57.738 40.0332 57.8322 40.144C62.4727 45.4835 51.4914 50.5312 36.9889 50.2528C25.0015 50.0226 15.3175 46.2404 15.4023 41.8226C15.4042 41.728 15.412 41.6397 15.4282 41.5454L15.4283 41.5372C15.4922 41.4129 15.3687 39.4066 19.3345 37.3781C19.6452 37.2195 19.404 36.7499 19.0954 36.9085C16.9686 37.9972 14.6973 39.7764 14.8954 42.169C14.4649 43.3376 14.6189 43.7499 14.7399 45.355C15.0452 49.85 25.0126 53.2859 37.1852 53.0588Z" stroke="#333333" stroke-width="2" mask="url(#path-2-inside-1_36056_8651)"/>
<path d="M30.855 48.0491C32.8008 48.5926 34.988 48.8465 37.0133 48.8854C40.3914 48.9502 43.5365 48.4345 45.6469 47.4711C45.9593 47.3269 45.7491 46.8497 45.4285 46.9916C43.3888 47.9236 40.3238 48.4243 37.0236 48.3609C35.0456 48.3229 32.8931 48.0759 30.9962 47.5436C30.8594 47.5081 30.7123 47.5876 30.6727 47.7267C30.6332 47.8638 30.7163 48.0094 30.855 48.0491Z" stroke="#333333" stroke-width="2" mask="url(#path-2-inside-1_36056_8651)"/>
<path d="M56.7203 38.5466C57.0598 38.0593 57.4085 37.5229 57.7208 36.9569C58.5395 35.6498 59.2709 34.0837 59.1463 32.5589C58.9836 30.4634 58.193 28.2777 56.9228 26.404C56.9208 26.4019 56.9188 26.3998 56.9168 26.3977C54.521 20.5624 42.6933 21.9441 36.4159 29.5551C36.1954 29.8245 36.5991 30.1594 36.8216 29.89C38.1316 28.3022 39.8633 26.8603 41.827 25.7254C47.6932 22.3405 54.1308 22.4887 56.1788 26.0606C58.2264 29.6324 55.1198 35.292 49.254 38.6771C48.3355 39.2068 47.3079 39.6437 46.2678 40.097C43.8338 41.1633 39.9973 41.9044 37.1824 40.4904C36.8737 40.3363 36.6351 40.8049 36.9478 40.9611C39.7485 42.3686 43.649 41.8201 46.4781 40.5804C47.5224 40.1252 48.5664 39.6823 49.5161 39.1348C54.5134 36.2496 57.5572 31.7265 57.3075 28.0838C58.0466 29.53 58.5067 31.0901 58.6233 32.6003C58.7627 34.3127 57.6754 36.1558 56.6971 37.5545C52.8275 43.1132 44.264 45.9056 39.4021 44.0963C38.3068 43.6823 37.189 42.737 36.2564 41.4333C36.1725 41.3165 35.9949 41.276 35.8654 41.4011C35.849 41.3987 35.8348 41.3902 35.8184 41.392C35.7196 41.4127 35.6926 41.5356 35.6907 41.6343C35.6818 42.525 36.4774 43.2768 37.0776 43.8397C37.6717 44.4045 38.3492 44.8928 39.1169 45.175C44.6181 47.2351 53.134 43.6995 56.7212 38.5465L56.7203 38.5466Z" stroke="#333333" stroke-width="2" mask="url(#path-2-inside-1_36056_8651)"/>
<path d="M51.8904 25.363C46.288 26.0332 44.1751 26.795 42.9437 27.0923C42.7089 27.1454 42.6066 27.3492 42.5095 27.4934C42.1432 27.7723 41.8788 28.3021 41.5743 28.7798C40.4303 30.5848 39.4465 32.4834 38.5523 34.4147C38.4645 34.6044 38.6059 34.8231 38.8193 34.819L41.4821 34.7549C41.7793 34.7606 41.7456 35.0233 42.655 36.5735C42.6986 36.6505 42.7592 36.699 42.843 36.715C47.394 37.7384 47.2939 37.8291 47.7448 37.5169C47.9637 37.5478 48.1502 37.4465 48.266 37.2862L51.2722 32.9041C51.3963 32.7398 51.4109 32.5138 51.3079 32.3287L49.9874 29.8674L52.4159 26.2046C52.6674 25.8103 52.3346 25.2975 51.8904 25.363ZM49.5237 29.6546C49.4343 29.7187 49.6331 29.5126 47.7241 31.8543C47.5056 32.1258 47.9114 32.4566 48.1319 32.1872L49.6336 30.3356L50.8492 32.5974L47.816 36.9995L43.5652 36.0394L42.7487 34.561L46.0611 34.2049C46.6857 34.1387 46.9144 33.6575 47.0334 33.5425C47.2519 33.271 46.8441 32.9402 46.6256 33.2096C46.4897 33.3449 46.3733 33.6409 46.0055 33.6791C41.7602 34.1429 42.3298 34.0591 42.2306 34.0984C42.202 34.0937 42.1797 34.0768 42.149 34.0762C42.0793 34.0749 39.4005 34.114 39.4701 34.1174C40.6535 31.5437 41.8284 29.4143 43.0936 27.597C43.2667 27.5551 46.286 26.5473 51.9759 25.916C50.7276 27.8115 49.6159 29.4444 49.5237 29.6546Z" stroke="#333333" stroke-width="2" mask="url(#path-2-inside-1_36056_8651)"/>
<path d="M21.2858 42.0039C21.6649 42.1284 22.1035 42.034 22.497 42.0436C23.6937 42.083 24.914 42.0735 26.0935 41.839C26.2741 41.8342 26.4385 41.9197 26.5445 42.0616C27.1539 43.4291 28.1155 44.7129 29.3306 45.9336C29.6803 46.4115 30.1123 46.0206 30.3084 45.6355C30.4798 45.357 30.6186 45.0716 30.743 44.7839C30.8393 44.6808 30.9235 44.5693 30.981 44.4593C31.7387 43.2271 32.0008 41.8598 32.1308 40.4325C32.5041 40.3203 33.9739 40.2354 35.3545 39.7784C35.8126 39.6267 36.9505 39.1034 37.2773 38.7455C37.4094 38.5937 37.6619 38.471 37.7656 38.3023C37.8947 38.0908 37.7405 37.7957 37.6381 37.5756C37.6667 37.3663 37.6173 37.1596 37.5012 37.0154C37.4475 36.9301 37.3811 36.8629 37.3364 36.8415C36.0731 35.6713 34.7313 34.7485 33.3921 34.12C33.2081 33.9848 33.2997 33.8055 33.2929 33.7334C33.4671 32.134 33.902 28.2807 32.4802 28.3213C31.6673 28.3675 29.7385 30.0339 29.1396 30.5779C28.015 31.5829 27.7126 31.4228 26.976 31.1227C25.7125 30.6067 22.625 29.2884 22.3101 30.525C22.0558 30.8492 22.0782 31.1768 22.154 31.6082C22.2525 32.2438 22.2988 32.8228 22.5251 33.4279C22.7554 34.0351 23.0042 34.6386 23.2448 35.244C23.3465 35.5011 23.4881 35.8165 23.5885 36.1414C23.5486 36.1859 23.5047 36.2324 23.4732 36.2709C23.1925 36.5782 22.9424 36.8985 22.7342 37.1681C22.305 37.7318 21.887 38.3575 21.4167 39.1406C21.3512 39.2463 21.0337 39.7607 20.9902 39.8895C20.8685 40.0332 20.7652 40.1814 20.7148 40.3471C20.6641 40.5334 20.6726 40.7331 20.6935 40.9248C20.7486 41.3641 20.8255 41.8449 21.2858 42.0039ZM23.1544 37.493C23.3542 37.2314 23.5959 36.9233 23.8745 36.618C23.9333 36.5451 24.0004 36.4702 24.0632 36.4035C24.7119 35.7206 24.2886 34.7023 24.0083 34.0283L23.932 33.8396C23.842 33.6095 23.748 33.3793 23.656 33.1512C22.6187 30.5761 22.7471 30.6156 22.9449 30.5679C23.8377 30.3114 26.8303 31.6568 27.2134 31.7855C28.7985 32.318 29.4392 30.5589 32.0254 29.0408C32.1726 28.9552 32.3488 28.8598 32.5048 28.8505C32.5397 28.847 32.5785 28.8539 32.6308 28.9105C33.2877 29.6185 32.7506 33.7785 32.7483 33.8977C32.7536 34.155 32.8761 34.3981 33.1229 34.5736C35.535 35.7144 36.9998 37.2794 37.0707 37.3219C37.1749 37.4514 37.1193 37.6767 36.9315 37.7389C36.3928 37.924 35.4344 38.4961 33.2768 38.7324C31.5055 38.9247 31.6928 39.527 31.5939 40.5167C31.4596 41.8494 31.219 43.0607 30.5225 44.2015C30.4012 44.4296 30.2303 44.5744 30.1338 44.5808C30.0825 44.5819 30.034 44.546 29.9519 44.4395C28.5379 43.0092 27.7469 41.8028 27.1919 40.5948C27.032 40.3798 26.7963 40.2642 26.4845 40.2726C25.3524 40.4957 23.8546 40.5389 21.747 40.4161C21.6199 40.4137 21.5491 40.363 21.4996 40.2694C21.4759 40.2258 21.433 40.1077 21.5425 39.9596C21.6465 39.7785 21.7586 39.5955 21.8645 39.4206C22.3304 38.6518 22.7379 38.0384 23.1544 37.493Z" stroke="#333333" stroke-width="2" mask="url(#path-2-inside-1_36056_8651)"/>
<path d="M28.346 39.0162C29.8555 38.465 31.0905 37.2604 31.7055 35.7745C31.9708 35.8393 32.237 35.8608 32.1674 35.8513C32.5016 35.8577 32.5297 35.3542 32.196 35.3251C32.0282 35.3096 31.8628 35.2714 31.6997 35.221C31.6572 35.1934 31.6432 35.1767 31.5611 35.1772C31.3372 35.0926 31.124 34.9795 30.9361 34.836C30.6572 34.6249 30.3436 35.0447 30.6184 35.2557C30.8003 35.395 31.0012 35.5059 31.2126 35.5984C30.6497 36.9372 29.5338 38.0227 28.1709 38.5211C27.8385 38.6403 28.0238 39.1376 28.346 39.0162Z" stroke="#333333" stroke-width="2" mask="url(#path-2-inside-1_36056_8651)"/>
<path d="M26.1478 37.4165C26.158 37.4167 26.1662 37.4169 26.1765 37.415C26.8544 37.354 27.4633 36.8266 27.6278 36.1632C27.6612 36.0219 27.5758 35.8804 27.435 35.8447C27.2901 35.809 27.151 35.8969 27.1176 36.0361C27.0063 36.4887 26.5914 36.8469 26.1292 36.8895C25.9854 36.9032 25.8784 37.0307 25.892 37.175C25.9037 37.3131 26.0145 37.414 26.1478 37.4165Z" stroke="#333333" stroke-width="2" mask="url(#path-2-inside-1_36056_8651)"/>
<path d="M28.5346 34.8495C28.5449 34.8497 28.5531 34.8498 28.5634 34.848C29.2413 34.7869 29.8501 34.2596 30.0146 33.5962C30.097 33.2583 29.5889 33.1292 29.5044 33.4691C29.3932 33.9216 28.9783 34.2799 28.5161 34.3224C28.3723 34.3361 28.2652 34.4637 28.2789 34.6079C28.2906 34.744 28.4014 34.8469 28.5346 34.8495Z" stroke="#333333" stroke-width="2" mask="url(#path-2-inside-1_36056_8651)"/>
<path d="M34.6913 25.629L36.6292 24.0224C36.898 23.7992 36.5592 23.3935 36.2945 23.6168L34.3567 25.2235C34.0879 25.4446 34.4287 25.8482 34.6913 25.629Z" stroke="#333333" stroke-width="2" mask="url(#path-2-inside-1_36056_8651)"/>
<path d="M34.2577 21.3087C33.756 22.3422 33.3171 23.4159 32.9517 24.5014C32.8408 24.8305 33.3379 25.0005 33.4488 24.6693C33.8076 23.6064 34.238 22.551 34.729 21.5379C34.8806 21.226 34.4093 20.9948 34.2577 21.3087Z" stroke="#333333" stroke-width="2" mask="url(#path-2-inside-1_36056_8651)"/>
<path d="M30.9343 21.2839C30.936 21.2983 31.3826 24.0967 31.421 24.3443C31.4759 24.6889 31.9942 24.6063 31.9393 24.2637C31.879 23.8799 31.4655 21.2756 31.4526 21.2033C31.3997 20.8587 30.8814 20.9393 30.9343 21.2839Z" stroke="#333333" stroke-width="2" mask="url(#path-2-inside-1_36056_8651)"/>
</svg>
