<svg width="74" height="74" viewBox="0 0 74 74" fill="none" xmlns="http://www.w3.org/2000/svg">
<path d="M1.97126 17.641C1.35636 13.2657 4.40474 9.22039 8.78002 8.60549L56.3129 1.92518C60.6882 1.31027 64.7335 4.35866 65.3484 8.73394L72.0287 56.2668C72.6436 60.6421 69.5952 64.6874 65.22 65.3023L17.6871 71.9826C13.3118 72.5975 9.26648 69.5492 8.65157 65.1739L1.97126 17.641Z" fill="#FFF7EB"/>
<g clip-path="url(#clip0_7_497)">
<path d="M36.8579 48.029C28.0822 48.029 20.9419 40.8887 20.9419 32.113C20.9419 23.3374 28.0822 16.197 36.8579 16.197C45.6336 16.197 52.7739 23.3374 52.7739 32.113C52.7739 40.8887 45.6336 48.029 36.8579 48.029ZM36.8579 16.925C28.4828 16.925 21.6699 23.7379 21.6699 32.113C21.6699 40.4882 28.4828 47.301 36.8579 47.301C45.233 47.301 52.0459 40.4881 52.0459 32.113C52.0459 23.7379 45.233 16.925 36.8579 16.925Z" fill="#333333" stroke="#333333"/>
<path d="M36.8579 43.709C30.4643 43.709 25.2619 38.5066 25.2619 32.113C25.2619 25.7194 30.4643 20.517 36.8579 20.517C43.2515 20.517 48.4539 25.7194 48.4539 32.113C48.4539 38.5066 43.2515 43.709 36.8579 43.709ZM36.8579 21.245C30.8647 21.245 25.9899 26.1199 25.9899 32.113C25.9899 38.1062 30.8647 42.981 36.8579 42.981C42.8509 42.981 47.7259 38.1061 47.7259 32.113C47.7259 26.12 42.8509 21.245 36.8579 21.245Z" fill="#333333" stroke="#333333"/>
<path d="M32.1522 58.1999L32.1522 58.2C32.2148 58.3213 32.3398 58.397 32.4755 58.397L32.4896 58.3968C32.6306 58.3914 32.7559 58.3049 32.811 58.1748L32.1522 58.1999ZM32.1522 58.1999L29.3835 52.834L29.2013 52.4808L28.8161 52.5786L23.02 54.0511C22.8849 54.0854 22.7421 54.0396 22.6521 53.9331L32.1522 58.1999ZM27.4543 44.3877C27.5358 44.2038 27.4527 43.9888 27.269 43.9074L27.2689 43.9073C27.0852 43.8259 26.8702 43.9088 26.7887 44.0927L22.5975 53.5508C22.5975 53.5508 22.5975 53.5508 22.5975 53.5508C22.541 53.6783 22.5623 53.8267 22.6521 53.9331L27.4543 44.3877ZM27.4543 44.3877L23.9832 52.2207L23.5664 53.1612L24.5634 52.9079L29.3023 51.704L27.4543 44.3877ZM36.5227 47.5233C36.6009 47.3383 36.8144 47.2515 36.9997 47.3297L29.3025 51.7039C29.4671 51.6623 29.638 51.7395 29.7156 51.8898L29.7156 51.8899L31.9536 56.2272L32.4429 57.1756L32.8585 56.1926L36.5227 47.5233ZM37.1932 47.8068L32.811 58.1747L36.9998 47.3298C37.1849 47.4081 37.2715 47.6216 37.1932 47.8068C37.1932 47.8068 37.1932 47.8068 37.1932 47.8068Z" fill="#333333" stroke="#333333"/>
<path d="M44.0002 51.8899L41.7623 56.2272L41.2729 57.1756L40.8574 56.1926L37.1933 47.5233C37.1933 47.5233 37.1932 47.5233 37.1932 47.5233C37.1149 47.3382 36.9016 47.2515 36.7162 47.3298L44.0002 51.8899ZM44.0002 51.8899C44.0002 51.8899 44.0002 51.8899 44.0002 51.8899C44.0778 51.7396 44.2494 51.6624 44.4136 51.704M44.0002 51.8899L44.4136 51.704M44.4136 51.704L49.1097 52.8971L50.1314 53.1566L49.686 52.2012L46.1054 44.5201L46.1054 44.5201C46.0204 44.3379 46.0993 44.1214 46.2813 44.0365L44.4136 51.704ZM44.5145 52.4808L44.8998 52.5787L50.6957 54.0511L44.5145 52.4808ZM44.5145 52.4808L44.3323 52.834M44.5145 52.4808L44.3323 52.834M44.3323 52.834L41.5635 58.1999L41.5635 58.2M44.3323 52.834L41.5635 58.2M41.5635 58.2C41.501 58.3212 41.3759 58.397 41.2402 58.397L41.2262 58.3968M41.5635 58.2L41.2262 58.3968M41.2262 58.3968C41.2262 58.3968 41.2262 58.3968 41.2262 58.3968M41.2262 58.3968L41.2262 58.3968M41.2262 58.3968C41.0851 58.3914 40.9598 58.3048 40.9048 58.1748C40.9048 58.1748 40.9048 58.1747 40.9048 58.1747L36.5226 47.8068C36.4443 47.6216 36.5309 47.4081 36.7162 47.3298L41.2262 58.3968ZM46.2814 44.0364C46.464 43.9515 46.6803 44.0305 46.7652 44.2125L51.1155 53.5445C51.1155 53.5445 51.1155 53.5445 51.1155 53.5445C51.1749 53.672 51.1556 53.8222 51.0659 53.9305C50.9765 54.0385 50.8323 54.0856 50.696 54.0512L46.2814 44.0364Z" fill="#333333" stroke="#333333"/>
<path d="M36.8342 36.0236L37.0663 36.1469L40.6817 38.0661L40.4473 38.5077L40.6817 38.0661C40.7353 38.0945 40.7938 38.1085 40.8523 38.1085C40.9274 38.1085 41.0019 38.0854 41.065 38.0399L41.0652 38.0397C41.1775 37.9588 41.2342 37.821 41.2113 37.6844L41.2113 37.6843L40.5355 33.6473L40.4921 33.3881L40.6811 33.2053L43.6235 30.36C43.6235 30.36 43.6235 30.36 43.6236 30.3599C43.7232 30.2636 43.7594 30.1191 43.7172 29.9872L43.7171 29.9871C43.6749 29.8552 43.5614 29.7587 43.4243 29.7383L39.376 29.1335L39.116 29.0947L39.0006 28.8585L37.2039 25.1808C37.1432 25.0566 37.0173 24.9774 36.879 24.9766L36.8768 24.9766C36.7388 24.9766 36.6126 25.0546 36.551 25.1782C36.551 25.1782 36.551 25.1782 36.551 25.1782L34.7248 28.8414L34.6076 29.0767L34.3473 29.1134L30.2943 29.6859L30.2942 29.6859C30.157 29.7053 30.0428 29.8009 29.9994 29.9325L29.9994 29.9326C29.9561 30.064 29.9911 30.2088 30.09 30.306C30.09 30.306 30.09 30.306 30.0901 30.306L33.0097 33.1748L33.1972 33.359L33.1518 33.6179L32.4438 37.6494L32.4438 37.6495C32.4198 37.7859 32.4753 37.9241 32.587 38.006L36.8342 36.0236ZM36.8342 36.0236L36.601 36.145M36.8342 36.0236L36.601 36.145M36.601 36.145L32.9703 38.0353L32.9703 38.0353M36.601 36.145L32.9703 38.0353M32.9703 38.0353C32.8477 38.0991 32.6992 38.088 32.5871 38.0061L32.9703 38.0353ZM37.0064 35.2908L37.0064 35.2908L39.4768 36.6022L40.3716 37.0772L40.2043 36.078L39.7426 33.3196L39.7425 33.3195C39.7228 33.2015 39.7623 33.0812 39.8485 32.9978L39.8485 32.9978L41.859 31.0536L42.5873 30.3493L41.5853 30.1996L38.8192 29.7865C38.8192 29.7865 38.8192 29.7865 38.8192 29.7865C38.7008 29.7688 38.5986 29.6939 38.5459 29.5862C38.5459 29.5862 38.5459 29.5862 38.5459 29.5862L37.3183 27.0733L36.8735 26.163L36.4215 27.0698L35.1738 29.5727C35.1204 29.6799 35.0175 29.754 34.8988 29.7708L32.1296 30.1619L31.1265 30.3035L31.8491 31.0136L33.8441 32.9738L33.8441 32.9738C33.9295 33.0578 33.9682 33.1784 33.9474 33.2963L33.9474 33.2964L33.4636 36.051L33.2883 37.0489L34.187 36.581L36.6675 35.2896C36.6676 35.2895 36.6676 35.2895 36.6677 35.2895C36.7204 35.2621 36.7781 35.2484 36.8358 35.2484C36.8947 35.2484 36.9531 35.2625 37.0064 35.2908Z" fill="#333333" stroke="#333333"/>
</g>
<defs>
<clipPath id="clip0_7_497">
<rect width="43.2" height="43.2" fill="white" transform="translate(15.2579 15.697)"/>
</clipPath>
</defs>
</svg>
