<svg width="75" height="76" viewBox="0 0 75 76" fill="none" xmlns="http://www.w3.org/2000/svg">
<path d="M10.1565 8.57679C10.9578 4.23179 15.1297 1.35909 19.4747 2.16043L66.6787 10.8662C71.0237 11.6675 73.8964 15.8394 73.095 20.1844L64.3893 67.3884C63.588 71.7334 59.416 74.6061 55.071 73.8047L7.8671 65.099C3.5221 64.2977 0.649397 60.1257 1.45074 55.7807L10.1565 8.57679Z" fill="#F0F9EE"/>
<path d="M41.7165 54.7863L49.2862 55.9108C51.3291 56.2142 53.185 54.7257 53.3459 52.6616L54.9822 30.8597L41.7165 54.7863Z" fill="#333333" stroke="#333333" stroke-width="3" stroke-miterlimit="10" stroke-linecap="round" stroke-linejoin="round"/>
<path d="M53.9006 31.929L45.3809 52.5627C44.7632 54.1057 43.1733 55.0025 41.5263 54.7578L20.7175 51.6667C18.3262 51.3115 16.9641 48.7135 18.0178 46.5231L27.8654 26.1031C28.5458 24.6827 30.0765 23.8578 31.6285 24.0884L51.107 26.9819C52.6115 27.2054 53.7261 28.3098 54.0605 29.6543C54.2602 30.38 54.2083 31.1654 53.9006 31.929Z" fill="#F0F9EE" stroke="#333333" stroke-width="4" stroke-miterlimit="10"/>
<path d="M34.5902 28.4457L37.2534 21.8492" stroke="#333333" stroke-width="4" stroke-miterlimit="10" stroke-linecap="round" stroke-linejoin="round"/>
<path d="M45.1978 30.0374L47.7074 23.3857" stroke="#333333" stroke-width="4" stroke-miterlimit="10" stroke-linecap="round" stroke-linejoin="round"/>
<path d="M29.8125 36.832L42.4815 38.714" stroke="#333333" stroke-width="4" stroke-miterlimit="10" stroke-linecap="round" stroke-linejoin="round"/>
<path d="M27.2881 42.9316L39.9571 44.8136" stroke="#333333" stroke-width="4" stroke-miterlimit="10" stroke-linecap="round" stroke-linejoin="round"/>
</svg>
