<svg width="74" height="74" viewBox="0 0 74 74" fill="none" xmlns="http://www.w3.org/2000/svg">
<path d="M1.97126 17.641C1.35636 13.2657 4.40474 9.22039 8.78002 8.60549L56.3129 1.92518C60.6882 1.31027 64.7335 4.35866 65.3484 8.73394L72.0287 56.2668C72.6436 60.6421 69.5952 64.6874 65.22 65.3023L17.6871 71.9826C13.3118 72.5975 9.26648 69.5492 8.65157 65.1739L1.97126 17.641Z" fill="#FFF7EB"/>
<path d="M12.6771 36.5839L17.1371 39.2443C17.173 39.2665 17.1936 39.3056 17.197 39.3551L17.4106 45.2501C17.4209 45.6007 17.7805 46.4544 18.994 45.5449C20.2769 44.583 21.5515 43.6124 22.8325 42.6419C23.5931 42.0741 24.4811 41.5452 25.171 40.8772C25.7021 40.363 25.8167 39.7311 25.9796 39.0379C26.4206 37.2045 26.5939 35.9635 26.6891 34.2331C26.9587 34.0964 26.9177 34.1171 27.1481 34.0205C28.9728 40.5528 28.7502 39.2416 30.2728 45.8217L30.2707 45.8216C30.0843 45.8481 29.9465 46.0174 29.9002 46.2035C29.7876 46.6205 29.9429 46.8727 30.9959 51.1011C31.3336 52.4229 32.7182 53.1759 33.9975 52.7363C34.0814 52.7078 34.1507 52.6597 34.2282 52.6246C35.9264 52.3993 36.8974 50.6621 36.3204 49.1208C34.5334 44.2959 34.6318 44.5106 34.4722 44.3657C34.1553 44.0737 33.8861 44.2985 33.7841 44.3825C33.6563 44.4768 33.7099 44.4649 33.2752 44.7446C32.3046 45.3514 31.1347 45.6513 31.3559 45.5889C31.2571 45.6193 31.1499 45.6408 31.0447 45.6668L28.4831 36.6896C28.0977 35.0681 28.0681 34.9429 27.779 33.7574C28.511 33.4555 29.249 33.1774 29.9971 32.9231L32.9333 43.1944C32.9674 43.3133 33.0748 43.3906 33.1901 43.3928C33.3737 43.3963 33.5095 43.2205 33.4575 43.0411L30.5131 32.7499C33.9502 31.6166 37.7517 30.8643 42.1328 30.6303L40.6638 40.8369L39.0041 50.2959C38.9221 50.3394 38.8394 50.4195 38.7932 50.4896C38.7867 50.498 38.7865 50.5088 38.782 50.5173C38.6637 50.4484 38.5791 50.4059 38.4588 50.5541C38.3624 50.679 38.4653 50.3285 37.469 55.605C37.2379 56.8514 38.0073 58.0504 39.2099 58.3787C40.9457 59.4157 43.0632 58.2635 43.2437 56.3177C43.2515 56.2426 43.6389 51.9753 43.6489 51.9002C43.657 51.808 43.7225 51.6223 43.698 51.4542C43.6131 50.9819 43.0966 51.0729 42.9682 51.0834C42.9511 51.083 42.9362 51.0806 42.9212 51.0825L45.0912 35.9613C45.1133 35.8113 45.0092 35.6717 44.8601 35.6495C44.7089 35.6273 44.5723 35.7321 44.5502 35.8821L42.3706 51.0631C42.3236 51.06 42.2723 51.0612 42.2275 51.0582C42.1552 51.0461 41.942 51.0248 42.0464 51.0375C41.0807 50.9416 40.3819 50.7348 39.8292 50.4877C40.6796 44.5768 41.3869 39.6661 42.691 30.5915C43.6102 30.5533 44.5311 30.5409 45.4513 30.5564C46.074 32.8357 47.0915 35.0195 47.4409 35.5098C47.4592 35.5596 47.4882 35.6031 47.5325 35.6362C47.6618 35.7956 47.8084 35.9467 48.0004 36.0729C48.8 36.589 49.7757 36.9451 50.6284 37.3656C52.0651 38.0745 53.4997 38.7812 54.9363 39.49C55.275 39.6534 55.7155 39.9606 56.0919 39.7142C56.1849 39.6515 56.2423 39.5559 56.2785 39.4492C56.4051 39.3055 56.4666 39.1068 56.4364 38.902C55.5426 32.8349 55.5025 33.0294 55.5808 32.9583C55.6547 32.8931 59.7421 29.2642 59.4834 29.4957C59.8203 29.1948 59.7501 28.6196 59.3507 28.397L53.8182 25.2927C53.9657 24.3971 54.5998 21.8518 54.5994 18.3141C54.6033 17.2202 53.7987 16.3 52.7267 16.1762C50.101 15.8765 48.1299 15.742 46.2498 15.6693C45.8804 15.6601 45.8721 16.2058 46.2285 16.2191C48.1131 16.2918 50.0479 16.4235 52.6628 16.7231C53.4578 16.8157 54.0534 17.4998 54.0506 18.3144C54.0514 20.498 53.7986 22.7627 53.2994 25.0635L52.5245 29.8242C52.4615 30.2141 52.1628 30.5308 51.781 30.6137C51.7082 30.6252 51.6268 30.6365 51.6997 30.625C51.4832 30.6638 51.3584 30.5969 51.3006 30.6087C49.568 30.2918 47.7373 30.0782 45.8237 29.9598C45.7438 29.8938 45.6288 29.8787 45.5275 29.9262C45.521 29.9282 45.5188 29.9346 45.5123 29.9366C44.7305 29.941 40.438 29.5706 34.6723 30.6054C29.4192 31.5426 25.6207 33.1396 20.9579 35.7129C20.5176 35.9516 19.963 35.8034 19.6936 35.3727C18.4625 33.1913 16.5281 31.1489 14.5187 24.6711C14.2854 23.9165 14.6128 23.1082 15.3011 22.7475C15.7479 22.5047 16.0927 22.3458 16.0193 22.3852C23.6879 18.4662 32.3335 16.3778 41.7183 16.1751C41.87 16.1716 41.9899 16.047 41.9864 15.8944C41.9829 15.7417 41.8465 15.6166 41.7075 15.6247C32.2456 15.8299 23.5247 17.9362 15.785 21.8839C15.4638 22.0389 14.9876 22.2554 14.6925 22.4926C14.6386 22.5195 14.5807 22.5335 14.5288 22.5647C13.913 22.9333 13.5426 23.6462 13.4541 24.3623C13.3212 25.5031 13.8578 26.5902 14.2544 27.6229C15.1168 29.8725 15.7961 31.2073 16.3992 32.2784L12.5912 35.485C12.2394 35.7877 12.2924 36.3604 12.6769 36.5827L12.6771 36.5839ZM39.2683 50.774C39.2661 50.7761 39.2639 50.7782 39.2618 50.7804C39.2639 50.7782 39.264 50.7761 39.2662 50.7718L39.2683 50.774ZM43.1458 51.62C43.0818 51.9498 43.1491 51.4503 42.702 56.2688C42.5914 57.4702 41.5053 58.4144 40.1769 58.1825C39.0428 57.9566 38.2966 56.8848 38.4701 55.7448C39.3279 50.3388 39.2033 50.9361 39.2396 50.825C39.481 50.9306 39.7872 51.117 40.5861 51.3344C41.3152 51.5182 42.4057 51.6789 43.1458 51.62ZM34.1288 44.806C34.1741 44.8907 35.7802 49.2372 35.8087 49.3108C36.2191 50.4062 35.6218 51.5918 34.6364 51.9619C33.528 52.4005 32.2687 51.8004 31.9192 50.6438L30.6722 46.5084C30.6479 46.4392 30.6114 46.3375 30.6459 46.3188C30.7123 46.3093 30.8216 46.2899 30.884 46.2675L30.8861 46.2675C30.8925 46.2676 30.899 46.2656 30.9054 46.2636L30.9118 46.2637C32.22 45.9879 33.4494 45.369 34.1288 44.806ZM53.0632 29.9127L53.724 25.8698C59.3636 29.0622 59.1349 28.8407 59.1491 28.985C59.1656 29.1272 59.2812 28.8887 55.2169 32.5438C55.0561 32.6869 54.9769 32.9153 55.0088 33.1481L55.8921 38.9828C55.9016 39.041 55.8795 39.0793 55.7916 39.0969L48.0961 35.3041C49.2242 33.6193 50.3424 32.448 51.8646 31.1512C52.5402 31.0051 52.9667 30.4932 53.0632 29.9127ZM12.9445 35.9059L16.6765 32.7623C17.6239 34.3666 17.8362 34.5448 19.4206 36.9071C19.7819 37.4449 20.5071 37.6093 21.0646 37.2761C21.1013 37.2531 21.1488 37.2261 21.1877 37.2032C22.4988 38.0021 23.697 38.8934 24.9352 40.1487C17.703 45.6042 18.0853 45.3687 18.0117 45.3329C17.8953 45.2769 17.9988 45.3348 17.7446 39.3273C17.7361 39.1036 17.6183 38.8994 17.4242 38.7753C17.3524 38.7331 12.6538 35.9284 12.9536 36.1083C12.8903 36.0726 12.8858 35.9563 12.9445 35.9059Z" fill="#333333"/>
<path d="M51.1817 55.1593C51.4956 55.1653 51.5683 54.7175 51.2711 54.6216C50.1778 54.2696 48.8958 53.8474 47.6667 53.452C47.5203 53.404 47.3692 53.4849 47.3237 53.6302C47.2782 53.7755 47.3564 53.9296 47.5008 53.9753C49.4197 54.5946 51.1113 55.1579 51.1817 55.1593Z" fill="#333333"/>
<path d="M51.8514 50.7446C51.8072 50.5997 51.655 50.5173 51.5089 50.5639C50.1896 50.9727 48.8333 51.3013 47.4789 51.5375C47.3289 51.5626 47.2301 51.7047 47.2549 51.8556C47.2819 52.0108 47.4274 52.1061 47.571 52.0809C48.949 51.8408 50.3288 51.5084 51.6696 51.0914C51.8137 51.0426 51.8956 50.8894 51.8514 50.7446Z" fill="#333333"/>
<path d="M46.9401 50.2398L49.2459 48.1801C49.3589 48.0791 49.3686 47.9052 49.2683 47.7915C49.168 47.6778 48.9973 47.6681 48.8821 47.769L46.5764 49.8288C46.4634 49.9298 46.4536 50.1037 46.554 50.2174C46.6544 50.3289 46.8271 50.3408 46.9401 50.2398Z" fill="#333333"/>
<path d="M25.9464 26.618L24.4656 26.9829C24.2749 27.0136 24.036 26.8887 23.886 26.7998C22.7982 25.8355 22.8386 25.8427 22.7517 25.8088C22.177 25.5914 21.933 26.1735 21.9272 26.255L21.8034 28.0279L20.2978 28.9059C19.745 29.2177 20.0826 29.6562 20.3538 29.771L20.905 29.9836C21.7901 30.3896 21.9234 30.3449 21.9625 30.5283L22.3625 32.3886C22.3999 32.5591 23.0286 32.7431 23.2459 32.4357L24.3889 31.0907L24.4005 31.0393L26.2468 31.2188C26.6411 31.2608 26.9144 30.8233 26.7051 30.4861L25.743 28.9782L26.4975 27.2798C26.6583 26.9154 26.3348 26.5223 25.9464 26.618ZM25.2389 28.758C25.1785 28.9008 25.1881 29.0665 25.2688 29.2013L26.1657 30.6606L24.458 30.4924C24.3067 30.4766 24.1497 30.5338 24.0383 30.6585L22.9214 31.9867L22.5607 30.3012C22.5274 30.1437 22.4188 30.0148 22.2726 29.9561L20.6894 29.3132L22.1799 28.4435C22.3159 28.3644 22.4018 28.2285 22.42 28.0612C22.5049 26.9796 22.5391 26.5289 22.5555 26.3423L23.5636 27.2386C24.2432 27.6621 24.5174 27.5083 24.5898 27.5183L25.9419 27.1854L25.2389 28.758Z" fill="#333333"/>
<path d="M43.8439 25.3802L44.3242 25.7268C45.0603 26.3277 45.2181 26.3371 45.2103 26.524L45.1289 28.4266C45.1219 28.5683 45.6806 28.9466 45.9716 28.6985L47.4157 27.6882L47.438 27.6392L49.1792 28.283C49.5546 28.4235 49.9224 28.0673 49.8057 27.6911L49.2532 25.987L50.411 24.5348C50.6583 24.2236 50.4472 23.7618 50.0479 23.7542C50.0244 23.7537 48.5042 23.7288 48.4784 23.7326C48.3265 23.7469 48.1049 23.6072 48.0063 23.4055C47.236 22.2538 47.2325 22.2129 47.1587 22.1577C46.6216 21.767 46.2737 22.3062 46.2489 22.3788L45.6826 24.0636L44.0033 24.53C43.8766 24.5641 43.2903 24.9569 43.8439 25.3802ZM47.5354 23.6779C47.6936 24.0055 48.1062 24.3186 48.5213 24.2814L49.8964 24.3035L48.824 25.6456C48.7276 25.7705 48.6967 25.9333 48.7409 26.0824L49.2412 27.7232L47.6294 27.1249C47.4873 27.0685 47.3225 27.0868 47.1819 27.1787L45.7679 28.181L45.8437 26.4588C45.8511 26.2977 45.7792 26.1438 45.6508 26.0489L44.2799 25.0253L45.9398 24.565C46.0901 24.5228 46.2097 24.4133 46.2682 24.2576L46.8314 22.6285L47.5354 23.6779Z" fill="#333333"/>
<path d="M37.9638 19.4887L36.7085 19.5656C36.5588 19.5756 36.4431 19.7045 36.4509 19.8573C36.4607 20.01 36.5889 20.12 36.7406 20.1164L37.998 20.0417L36.5893 22.1059C36.4902 22.2565 36.4674 22.4452 36.5304 22.6141L37.4235 24.9309L35.0338 24.2467C34.8639 24.1961 34.6795 24.2313 34.5256 24.3465L32.6178 25.9261C32.6071 25.928 32.5964 25.93 32.5857 25.9319L32.5073 23.4481C32.5024 23.2632 32.4074 23.0937 32.2533 22.9962L30.158 21.6578L32.511 20.8089C32.6809 20.7477 32.8074 20.6104 32.8601 20.4266L33.4889 18.0445C33.5059 18.0512 33.5292 18.0624 33.5567 18.078L34.6885 19.5354C34.7823 19.6554 34.9528 19.6759 35.0721 19.5815C35.1913 19.487 35.2117 19.3155 35.1179 19.1955C33.9025 17.642 33.9594 17.6817 33.8813 17.6329C33.3114 17.2781 32.774 17.7943 32.7327 17.9418L32.1137 20.365L29.9715 21.1384C29.8984 21.165 29.1377 21.7371 29.5237 21.9874L31.6267 23.371C31.7069 23.422 31.7522 23.5067 31.7547 23.5991L31.836 26.1539C31.8467 26.483 32.6861 26.5979 32.9342 26.3577C33.0101 26.2968 34.9999 24.6737 34.8784 24.7724L37.2767 25.4589C37.7142 25.5877 38.1114 25.1504 37.9422 24.7259L37.0405 22.4111L38.447 20.3491C38.7085 19.9694 38.4129 19.4587 37.9638 19.4887Z" fill="#333333"/>
</svg>
