<svg width="43" height="43" viewBox="0 0 43 43" fill="none" xmlns="http://www.w3.org/2000/svg">
<circle cx="21.0662" cy="21.0636" r="21" transform="rotate(10.479 21.0662 21.0636)" fill="#F79764"/>
<path d="M21.7714 24.5391L21.7698 24.541C21.5864 24.7587 21.3487 24.9239 21.0807 25.0199C20.8127 25.1159 20.5241 25.1392 20.2442 25.0874C19.9642 25.0356 19.703 24.9106 19.4871 24.7252C19.2712 24.5397 19.1082 24.3003 19.0149 24.0314L19.0141 24.0291C18.9394 23.8207 18.8244 23.6291 18.6756 23.4653C18.5267 23.3015 18.347 23.1686 18.1468 23.0744C17.9465 22.9801 17.7296 22.9263 17.5085 22.9161C17.2877 22.9058 17.067 22.9392 16.8591 23.0143C16.4408 23.1626 16.0981 23.4703 15.9056 23.8702C15.713 24.2704 15.6865 24.7305 15.8319 25.1502L15.8323 25.1514C16.1239 25.9792 16.6286 26.7155 17.2956 27.286C17.9626 27.8565 18.7683 28.2409 19.6314 28.4005C20.4944 28.5602 21.3843 28.4893 22.2112 28.1952C23.0381 27.901 23.7728 27.394 24.3412 26.7252L24.342 26.7242C24.6279 26.3843 24.7678 25.9452 24.731 25.5026C24.6944 25.0602 24.4843 24.6502 24.1466 24.3621C23.9794 24.2177 23.7853 24.1076 23.5755 24.0382C23.3654 23.9687 23.1436 23.9414 22.9228 23.9577C22.7021 23.9741 22.4867 24.0339 22.2892 24.1337C22.0916 24.2334 21.9156 24.3712 21.7714 24.5391ZM18.9621 32.0192L18.961 32.019C16.3933 31.5555 14.0678 30.2106 12.3856 28.2161C10.7033 26.2216 9.76981 23.7026 9.74597 21.0936C9.72213 18.4845 10.6095 15.9489 12.255 13.924C13.8199 11.9983 15.9772 10.6494 18.3856 10.0829C18.3721 10.1633 18.3607 10.2442 18.3515 10.3253C18.1351 11.5081 18.3962 12.7286 19.0777 13.7195C19.761 14.7129 20.8109 15.3942 21.9965 15.6134C22.4351 15.6946 22.888 15.5981 23.2556 15.3453C23.6231 15.0925 23.8752 14.7041 23.9563 14.2654C24.0375 13.8268 23.941 13.3738 23.6882 13.0063C23.4354 12.6387 23.0469 12.3867 22.6083 12.3055C22.3 12.2485 22.0271 12.0714 21.8494 11.8131C21.6717 11.5548 21.604 11.2365 21.661 10.9283C21.718 10.62 21.8951 10.347 22.1534 10.1694C22.4117 9.99173 22.73 9.92396 23.0382 9.98097C25.9607 10.5215 28.5487 12.2008 30.233 14.6495C31.9172 17.0982 32.5598 20.1157 32.0192 23.0382C31.4787 25.9606 29.7994 28.5486 27.3507 30.2329C24.902 31.9172 21.8845 32.5597 18.9621 32.0192ZM18.9506 17.7084C19.0111 17.3813 18.9733 17.0436 18.8419 16.738C18.7104 16.4324 18.4913 16.1726 18.2123 15.9915C17.9332 15.8104 17.6067 15.7162 17.2741 15.7207C16.9414 15.7251 16.6176 15.8281 16.3435 16.0167C16.0694 16.2052 15.8574 16.4708 15.7342 16.7798C15.611 17.0888 15.5823 17.4274 15.6516 17.7528C15.7209 18.0782 15.8851 18.3757 16.1234 18.6078C16.3618 18.8398 16.6637 18.9959 16.9908 19.0564C17.4294 19.1376 17.8823 19.0411 18.2499 18.7883C18.6174 18.5355 18.8695 18.1471 18.9506 17.7084ZM26.0513 17.3112C25.7242 17.2507 25.3865 17.2886 25.0809 17.42C24.7753 17.5514 24.5155 17.7705 24.3344 18.0496C24.1533 18.3287 24.0591 18.6552 24.0635 18.9878C24.068 19.3204 24.171 19.6443 24.3596 19.9184C24.5481 20.1925 24.8137 20.4045 25.1227 20.5277C25.4317 20.6508 25.7703 20.6796 26.0957 20.6103C26.4211 20.541 26.7186 20.3768 26.9506 20.1384C27.1827 19.9 27.3388 19.5982 27.3993 19.2711C27.4805 18.8324 27.384 18.3795 27.1312 18.012C26.8784 17.6444 26.49 17.3924 26.0513 17.3112ZM23.6501 6.67308C20.8165 6.14898 17.8911 6.4769 15.2438 7.61539C12.5966 8.75389 10.3464 10.6518 8.77782 13.0692C7.20923 15.4865 6.3927 18.3147 6.43147 21.1961C6.47024 24.0775 7.36259 26.8827 8.99565 29.257C10.6287 31.6313 12.9292 33.468 15.6061 34.5348C18.283 35.6016 21.2162 35.8507 24.0346 35.2506C26.8531 34.6504 29.4303 33.2279 31.4404 31.1631C33.4504 29.0982 34.803 26.4836 35.3271 23.65C35.6751 21.7686 35.6491 19.837 35.2506 17.9656C34.8521 16.0942 34.089 14.3196 33.0046 12.7431C31.9203 11.1667 30.5361 9.81924 28.9311 8.77774C27.326 7.73624 25.5315 7.02108 23.6501 6.67308Z" fill="#333333" stroke="#333333" stroke-width="0.5"/>
</svg>
