<svg width="48" height="48" viewBox="0 0 48 48" fill="none" xmlns="http://www.w3.org/2000/svg">
<path d="M1.05474 9.80629C0.747287 7.61865 2.27148 5.59598 4.45912 5.28852L38.1282 0.556637C40.3159 0.249184 42.3385 1.77338 42.646 3.96102L47.3779 37.6301C47.6853 39.8178 46.1611 41.8404 43.9735 42.1479L10.3044 46.8798C8.11675 47.1872 6.09408 45.663 5.78662 43.4754L1.05474 9.80629Z" fill="#BFC897"/>
<mask id="path-2-inside-1_36107_5629" fill="white">
<path d="M21.9844 38.9636C22.4847 38.9437 22.955 38.6395 23.2118 38.1696C23.8648 36.9796 23.9103 36.9706 23.7994 36.8463C23.7665 36.4945 23.4975 36.0496 22.9994 35.5161C24.2016 33.0836 24.6344 30.3106 23.2378 27.9699C22.4515 26.661 21.7321 26.4421 22.0772 26.1677C22.2123 26.0636 22.4191 26.1364 22.6553 26.1522C24.4089 26.2701 26.2666 25.9827 27.7741 25.0494C27.9776 24.924 27.7866 24.6183 27.5817 24.7436C26.1543 25.6279 24.3775 25.9071 22.6774 25.793C22.4525 25.7802 22.1304 25.6687 21.8501 25.8867C21.7092 25.9991 21.6344 26.1312 21.6259 26.2813C21.5991 26.7908 22.1939 26.937 22.9253 28.1536C23.5783 29.2478 23.8655 30.5176 23.7017 31.9669C22.464 31.2337 21.3315 32.3934 20.4644 32.8642C19.7403 33.2549 18.9258 33.4205 18.1093 33.4624C17.8017 33.479 16.6275 33.2752 16.2091 33.5313C14.9408 32.8396 12.7758 31.5057 11.9601 30.3212C11.7754 30.0564 11.7846 29.725 11.9382 29.4695C13.0544 27.6801 14.3287 26.4361 15.7264 25.7704L15.6488 25.6088L15.7836 25.7406C15.968 25.6543 15.8184 25.3297 15.5698 25.4457C15.4412 25.5065 15.3152 25.5785 15.1892 25.6491C14.62 25.8672 13.8215 26.522 13.63 26.6897C12.7473 27.451 12.0228 28.3811 11.4078 29.3667C11.4063 29.3681 11.4063 29.3695 11.4048 29.3723C11.0036 29.3238 10.486 29.2858 10.127 29.4728C10.0536 29.4615 9.97654 29.4937 9.9398 29.5633C9.35954 30.6521 9.2866 30.69 9.19679 31.0156C9.17547 31.0939 8.64417 31.8451 9.12331 32.5567C11.052 35.43 18.9537 39.1148 21.9839 38.9637L21.9844 38.9636ZM11.2837 29.721C11.2451 29.9605 11.2914 30.2072 11.4346 30.4179C12.06 31.3276 13.5218 32.4135 15.2263 33.3902C17.0017 34.4386 19.8367 35.7672 21.766 36.1076C22.1441 36.1823 22.5201 36.0645 22.7799 35.8082C23.2876 36.363 23.5239 36.8143 23.4163 37.0342L23.4134 37.0383C23.4119 37.0411 23.4104 37.0453 23.4089 37.0481C22.8332 38.0485 16.9303 35.7956 12.8808 32.9012C12.7984 32.8434 12.6861 32.8623 12.6279 32.9427C12.5698 33.023 12.5874 33.1357 12.6684 33.1935C14.8546 34.7555 20.7396 38.0139 23.1239 37.5735C22.9976 37.7382 22.7593 38.5695 21.9671 38.6021C18.6565 38.7436 11.3279 34.7058 9.63795 31.9481C9.24009 31.2816 9.81097 30.6071 9.86933 30.4438C10.0142 30.7908 10.3235 31.1999 10.8071 31.677C10.9781 31.8446 11.2323 31.5882 11.0627 31.422C10.3566 30.7299 10.0206 30.163 10.1643 29.9058C10.2713 29.7154 10.6776 29.649 11.2837 29.721Z"/>
<path d="M20.2628 27.959C20.3123 28.1117 20.4506 28.7971 20.5682 28.871C20.8886 29.0724 20.8445 28.4155 20.8357 28.2861C20.7854 27.5884 20.6239 26.9995 20.8963 26.3121C21.1463 25.6806 21.8342 25.3285 22.4826 25.112C24.1116 24.5673 24.9568 25.3154 26.7944 22.7659C26.9676 22.5248 27.136 22.2316 27.0494 21.9475C26.9562 21.6423 26.5784 21.4075 26.0189 21.5597C25.31 21.7526 24.9271 21.564 24.2332 21.34C23.12 20.9815 20.3277 19.9375 20.5247 22.0779C20.5974 22.8688 20.9565 23.6329 20.8929 24.4367C20.8424 25.0763 20.4863 25.6257 20.2851 26.2231C20.0989 26.7773 20.0796 27.3978 20.2628 27.959Z"/>
<path d="M38.7435 30.0419C38.0691 29.394 37.2407 28.7291 36.6917 27.9712C36.6779 27.9526 36.6612 27.9369 36.6416 27.9253C36.7893 26.9475 35.83 26.3152 34.9165 26.7641C35.2289 24.6531 38.35 24.0598 38.4908 21.7404C38.5212 21.2647 38.3765 20.7633 38.0962 20.3126C38.813 20.523 38.9893 20.6303 39.1859 20.5709L39.1859 20.5695C39.4179 20.5051 39.481 20.2422 39.2103 20.0375C37.4604 18.6202 34.3457 16.1511 32.6174 14.9351C30.0885 12.8636 30.1501 12.8957 30.0882 12.8749C22.1796 10.0708 16.5088 8.05008 16.0583 7.91197C15.8388 7.84032 15.664 7.87209 15.5796 7.99128C14.8799 8.07196 15.6381 8.70605 16.1645 9.1699C19.0814 11.8332 17.9819 10.7585 18.293 11.0791C18.2004 11.253 17.4938 12.3632 17.1864 13.3983C17.1124 13.6371 17.1679 13.9191 17.4067 14.1653C17.7631 14.5571 18.7341 15.538 18.9969 15.7931C18.8243 16.1522 18.3631 16.8696 18.0911 18.0543C17.5544 20.3394 18.2367 22.4176 19.5501 24.3014C19.6631 24.4637 20.0898 24.8792 20.0377 25.0117C19.7384 25.1844 19.457 24.794 17.9563 24.8523C17.7465 24.8638 17.5423 24.8809 17.3435 24.9094C17.1064 24.9428 17.1576 25.2978 17.3947 25.2658C17.9499 25.1866 18.4964 25.1914 19.0531 25.2569C19.2622 25.282 19.5473 25.4055 19.8374 25.411C20.0965 25.416 20.3719 25.3061 20.4121 25.0554C20.4684 24.7053 20.0029 24.3185 19.8471 24.0964C18.0377 21.4993 17.7025 18.8967 19.2681 16.0511C19.9107 16.6563 20.9377 17.5189 21.0682 17.5818C21.28 17.6898 21.4462 17.3685 21.2316 17.2591C20.1 16.3818 18.9971 15.3408 18.0195 14.2642L17.8952 14.3938L17.9793 14.217C17.8449 14.0627 17.7963 13.8665 17.8521 13.6906C18.0475 13.0229 18.4978 12.1395 18.8433 11.5519C21.0716 13.4996 21.6517 13.8914 23.5483 15.4971C23.7586 15.6823 24.0544 15.8383 24.3556 15.9326C24.5991 16.0118 35.0309 19.3462 35.0788 19.3611C34.9916 19.6235 34.8789 19.8883 34.7724 20.1279C34.4528 20.841 34.3017 21.4829 33.8419 22.1975C33.7689 22.3113 33.5674 22.337 33.3909 22.3111C33.2749 22.3004 32.5722 22.1746 32.5242 22.1666C29.4801 21.6291 26.7109 20.6404 24.2201 19.2425C24.0114 19.1261 23.8326 19.4388 24.0414 19.5552C25.9116 20.6053 27.9265 21.4209 30.089 21.9962C29.8 22.5189 29.4763 23.0072 29.1084 23.4342C28.9534 23.6152 29.2279 23.8481 29.3843 23.6684C29.7869 23.2 30.1442 22.6646 30.4555 22.0862C31.6547 22.3887 32.7767 22.5873 33.1157 22.6289C33.4892 22.7218 33.9411 22.7122 34.1469 22.3902C34.6301 21.6395 34.7976 20.953 35.1023 20.2733C35.2133 20.0254 35.3305 19.748 35.4237 19.4689C36.1232 19.6902 36.8227 19.913 37.5153 20.1286C37.8847 20.5065 38.1673 21.1259 38.1305 21.7152C37.9982 23.8831 34.5223 24.5974 34.5365 27.0294C34.0184 27.5365 33.9362 28.3525 34.4706 28.8361C34.4374 28.8678 34.414 28.9109 34.4117 28.9572C34.3739 29.8176 34.3657 30.687 34.3903 31.543C34.3919 31.6077 34.3886 31.706 34.3863 31.8239C34.364 32.6172 34.3728 33.4167 34.714 33.7127C35.0664 34.0186 35.509 33.683 35.8205 33.3139C35.9692 33.4586 36.19 33.5387 36.424 33.5207C36.9829 33.4724 37.3284 33.0324 37.5852 32.6341C37.7444 32.7524 37.9329 32.8136 38.123 32.7976C38.6618 32.7601 38.8097 32.4343 38.9154 32.0893C39.255 32.1745 39.7359 32.0573 39.8642 31.7212C40.1444 30.9919 39.1314 30.4118 38.7435 30.0419ZM29.9373 13.2022C31.8574 14.7563 31.9581 14.8973 32.8016 15.5091C33.2663 15.865 34.9596 17.0635 38.7705 20.1443C33.9849 18.6391 30.7389 17.6244 24.9537 15.6576C24.9495 15.6562 24.9466 15.6575 24.9424 15.656C24.5812 15.5128 24.0874 15.419 23.6905 15.0701C21.292 13.0615 18.7217 10.7785 16.1126 8.31063C18.134 9.01393 29.8837 13.1829 29.9373 13.2022ZM39.5249 31.5939C39.4623 31.7571 39.045 31.8081 38.9139 31.703C38.8665 31.6656 38.8045 31.6518 38.7461 31.6703C38.6877 31.6874 38.6429 31.7329 38.6262 31.7902L38.6005 31.8782C38.4823 32.2777 38.4259 32.4171 38.0969 32.4403C37.9508 32.4515 37.8021 32.377 37.6915 32.2386L37.6901 32.2386C37.5505 31.7625 37.3669 31.2982 37.1374 30.8583C37.0282 30.6469 36.705 30.8121 36.8156 31.0235C37.0341 31.4435 37.2097 31.8866 37.3426 32.3401C37.1059 32.7219 36.8305 33.124 36.3922 33.1619C36.239 33.1758 36.0508 33.0992 36.0097 32.9523C36.0057 32.9396 35.9959 32.9309 35.9891 32.9196C35.9966 32.6739 35.9758 32.429 35.9153 32.1891C35.8916 32.0931 35.7937 32.0336 35.6955 32.0584C35.5987 32.0819 35.5388 32.1805 35.5639 32.2765C35.6204 32.5023 35.64 32.7345 35.6285 32.9661C35.4934 33.1447 35.2698 33.4298 35.0482 33.4663C34.9999 33.4752 34.9747 33.4621 34.951 33.4419C34.7086 33.2322 34.7359 32.2521 34.7468 31.8337C34.7506 31.7074 34.7526 31.6035 34.7512 31.5332C34.7274 30.7053 34.735 29.8654 34.7708 29.0331C35.4029 29.3023 36.1864 28.983 36.5162 28.3276C36.9267 28.8539 37.4359 29.3259 37.9355 29.7822C38.6313 30.4151 38.4359 30.2666 38.7874 30.5473C39.1555 30.8437 39.6591 31.2467 39.5249 31.5939Z"/>
<path d="M16.7631 18.9148L15.1678 19.5501C14.9837 19.6238 15.0351 19.8931 15.2319 19.8969C15.3027 19.8983 15.2246 19.9094 16.8983 19.249C17.1195 19.1605 16.9899 18.8279 16.7631 18.9148Z"/>
<path d="M14.4479 17.5896C14.2115 17.585 14.1991 17.9374 14.4367 17.949C15.9917 18.0182 16.6014 18.1984 16.7571 18.2014C16.9793 18.2057 17.0096 17.8818 16.7908 17.8453C16.0231 17.7111 15.2359 17.6258 14.4522 17.5896L14.4479 17.5896Z"/>
<path d="M17.1988 16.8805L15.5255 15.6009C15.446 15.5403 15.3324 15.555 15.2714 15.6339C15.2104 15.7128 15.2252 15.8255 15.3048 15.886C17.037 17.1934 16.9718 17.2006 17.085 17.2028C17.2605 17.2062 17.337 16.9857 17.1988 16.8805Z"/>
</mask>
<path d="M21.9844 38.9636C22.4847 38.9437 22.955 38.6395 23.2118 38.1696C23.8648 36.9796 23.9103 36.9706 23.7994 36.8463C23.7665 36.4945 23.4975 36.0496 22.9994 35.5161C24.2016 33.0836 24.6344 30.3106 23.2378 27.9699C22.4515 26.661 21.7321 26.4421 22.0772 26.1677C22.2123 26.0636 22.4191 26.1364 22.6553 26.1522C24.4089 26.2701 26.2666 25.9827 27.7741 25.0494C27.9776 24.924 27.7866 24.6183 27.5817 24.7436C26.1543 25.6279 24.3775 25.9071 22.6774 25.793C22.4525 25.7802 22.1304 25.6687 21.8501 25.8867C21.7092 25.9991 21.6344 26.1312 21.6259 26.2813C21.5991 26.7908 22.1939 26.937 22.9253 28.1536C23.5783 29.2478 23.8655 30.5176 23.7017 31.9669C22.464 31.2337 21.3315 32.3934 20.4644 32.8642C19.7403 33.2549 18.9258 33.4205 18.1093 33.4624C17.8017 33.479 16.6275 33.2752 16.2091 33.5313C14.9408 32.8396 12.7758 31.5057 11.9601 30.3212C11.7754 30.0564 11.7846 29.725 11.9382 29.4695C13.0544 27.6801 14.3287 26.4361 15.7264 25.7704L15.6488 25.6088L15.7836 25.7406C15.968 25.6543 15.8184 25.3297 15.5698 25.4457C15.4412 25.5065 15.3152 25.5785 15.1892 25.6491C14.62 25.8672 13.8215 26.522 13.63 26.6897C12.7473 27.451 12.0228 28.3811 11.4078 29.3667C11.4063 29.3681 11.4063 29.3695 11.4048 29.3723C11.0036 29.3238 10.486 29.2858 10.127 29.4728C10.0536 29.4615 9.97654 29.4937 9.9398 29.5633C9.35954 30.6521 9.2866 30.69 9.19679 31.0156C9.17547 31.0939 8.64417 31.8451 9.12331 32.5567C11.052 35.43 18.9537 39.1148 21.9839 38.9637L21.9844 38.9636ZM11.2837 29.721C11.2451 29.9605 11.2914 30.2072 11.4346 30.4179C12.06 31.3276 13.5218 32.4135 15.2263 33.3902C17.0017 34.4386 19.8367 35.7672 21.766 36.1076C22.1441 36.1823 22.5201 36.0645 22.7799 35.8082C23.2876 36.363 23.5239 36.8143 23.4163 37.0342L23.4134 37.0383C23.4119 37.0411 23.4104 37.0453 23.4089 37.0481C22.8332 38.0485 16.9303 35.7956 12.8808 32.9012C12.7984 32.8434 12.6861 32.8623 12.6279 32.9427C12.5698 33.023 12.5874 33.1357 12.6684 33.1935C14.8546 34.7555 20.7396 38.0139 23.1239 37.5735C22.9976 37.7382 22.7593 38.5695 21.9671 38.6021C18.6565 38.7436 11.3279 34.7058 9.63795 31.9481C9.24009 31.2816 9.81097 30.6071 9.86933 30.4438C10.0142 30.7908 10.3235 31.1999 10.8071 31.677C10.9781 31.8446 11.2323 31.5882 11.0627 31.422C10.3566 30.7299 10.0206 30.163 10.1643 29.9058C10.2713 29.7154 10.6776 29.649 11.2837 29.721Z" fill="#333333"/>
<path d="M20.2628 27.959C20.3123 28.1117 20.4506 28.7971 20.5682 28.871C20.8886 29.0724 20.8445 28.4155 20.8357 28.2861C20.7854 27.5884 20.6239 26.9995 20.8963 26.3121C21.1463 25.6806 21.8342 25.3285 22.4826 25.112C24.1116 24.5673 24.9568 25.3154 26.7944 22.7659C26.9676 22.5248 27.136 22.2316 27.0494 21.9475C26.9562 21.6423 26.5784 21.4075 26.0189 21.5597C25.31 21.7526 24.9271 21.564 24.2332 21.34C23.12 20.9815 20.3277 19.9375 20.5247 22.0779C20.5974 22.8688 20.9565 23.6329 20.8929 24.4367C20.8424 25.0763 20.4863 25.6257 20.2851 26.2231C20.0989 26.7773 20.0796 27.3978 20.2628 27.959Z" fill="#333333"/>
<path d="M38.7435 30.0419C38.0691 29.394 37.2407 28.7291 36.6917 27.9712C36.6779 27.9526 36.6612 27.9369 36.6416 27.9253C36.7893 26.9475 35.83 26.3152 34.9165 26.7641C35.2289 24.6531 38.35 24.0598 38.4908 21.7404C38.5212 21.2647 38.3765 20.7633 38.0962 20.3126C38.813 20.523 38.9893 20.6303 39.1859 20.5709L39.1859 20.5695C39.4179 20.5051 39.481 20.2422 39.2103 20.0375C37.4604 18.6202 34.3457 16.1511 32.6174 14.9351C30.0885 12.8636 30.1501 12.8957 30.0882 12.8749C22.1796 10.0708 16.5088 8.05008 16.0583 7.91197C15.8388 7.84032 15.664 7.87209 15.5796 7.99128C14.8799 8.07196 15.6381 8.70605 16.1645 9.1699C19.0814 11.8332 17.9819 10.7585 18.293 11.0791C18.2004 11.253 17.4938 12.3632 17.1864 13.3983C17.1124 13.6371 17.1679 13.9191 17.4067 14.1653C17.7631 14.5571 18.7341 15.538 18.9969 15.7931C18.8243 16.1522 18.3631 16.8696 18.0911 18.0543C17.5544 20.3394 18.2367 22.4176 19.5501 24.3014C19.6631 24.4637 20.0898 24.8792 20.0377 25.0117C19.7384 25.1844 19.457 24.794 17.9563 24.8523C17.7465 24.8638 17.5423 24.8809 17.3435 24.9094C17.1064 24.9428 17.1576 25.2978 17.3947 25.2658C17.9499 25.1866 18.4964 25.1914 19.0531 25.2569C19.2622 25.282 19.5473 25.4055 19.8374 25.411C20.0965 25.416 20.3719 25.3061 20.4121 25.0554C20.4684 24.7053 20.0029 24.3185 19.8471 24.0964C18.0377 21.4993 17.7025 18.8967 19.2681 16.0511C19.9107 16.6563 20.9377 17.5189 21.0682 17.5818C21.28 17.6898 21.4462 17.3685 21.2316 17.2591C20.1 16.3818 18.9971 15.3408 18.0195 14.2642L17.8952 14.3938L17.9793 14.217C17.8449 14.0627 17.7963 13.8665 17.8521 13.6906C18.0475 13.0229 18.4978 12.1395 18.8433 11.5519C21.0716 13.4996 21.6517 13.8914 23.5483 15.4971C23.7586 15.6823 24.0544 15.8383 24.3556 15.9326C24.5991 16.0118 35.0309 19.3462 35.0788 19.3611C34.9916 19.6235 34.8789 19.8883 34.7724 20.1279C34.4528 20.841 34.3017 21.4829 33.8419 22.1975C33.7689 22.3113 33.5674 22.337 33.3909 22.3111C33.2749 22.3004 32.5722 22.1746 32.5242 22.1666C29.4801 21.6291 26.7109 20.6404 24.2201 19.2425C24.0114 19.1261 23.8326 19.4388 24.0414 19.5552C25.9116 20.6053 27.9265 21.4209 30.089 21.9962C29.8 22.5189 29.4763 23.0072 29.1084 23.4342C28.9534 23.6152 29.2279 23.8481 29.3843 23.6684C29.7869 23.2 30.1442 22.6646 30.4555 22.0862C31.6547 22.3887 32.7767 22.5873 33.1157 22.6289C33.4892 22.7218 33.9411 22.7122 34.1469 22.3902C34.6301 21.6395 34.7976 20.953 35.1023 20.2733C35.2133 20.0254 35.3305 19.748 35.4237 19.4689C36.1232 19.6902 36.8227 19.913 37.5153 20.1286C37.8847 20.5065 38.1673 21.1259 38.1305 21.7152C37.9982 23.8831 34.5223 24.5974 34.5365 27.0294C34.0184 27.5365 33.9362 28.3525 34.4706 28.8361C34.4374 28.8678 34.414 28.9109 34.4117 28.9572C34.3739 29.8176 34.3657 30.687 34.3903 31.543C34.3919 31.6077 34.3886 31.706 34.3863 31.8239C34.364 32.6172 34.3728 33.4167 34.714 33.7127C35.0664 34.0186 35.509 33.683 35.8205 33.3139C35.9692 33.4586 36.19 33.5387 36.424 33.5207C36.9829 33.4724 37.3284 33.0324 37.5852 32.6341C37.7444 32.7524 37.9329 32.8136 38.123 32.7976C38.6618 32.7601 38.8097 32.4343 38.9154 32.0893C39.255 32.1745 39.7359 32.0573 39.8642 31.7212C40.1444 30.9919 39.1314 30.4118 38.7435 30.0419ZM29.9373 13.2022C31.8574 14.7563 31.9581 14.8973 32.8016 15.5091C33.2663 15.865 34.9596 17.0635 38.7705 20.1443C33.9849 18.6391 30.7389 17.6244 24.9537 15.6576C24.9495 15.6562 24.9466 15.6575 24.9424 15.656C24.5812 15.5128 24.0874 15.419 23.6905 15.0701C21.292 13.0615 18.7217 10.7785 16.1126 8.31063C18.134 9.01393 29.8837 13.1829 29.9373 13.2022ZM39.5249 31.5939C39.4623 31.7571 39.045 31.8081 38.9139 31.703C38.8665 31.6656 38.8045 31.6518 38.7461 31.6703C38.6877 31.6874 38.6429 31.7329 38.6262 31.7902L38.6005 31.8782C38.4823 32.2777 38.4259 32.4171 38.0969 32.4403C37.9508 32.4515 37.8021 32.377 37.6915 32.2386L37.6901 32.2386C37.5505 31.7625 37.3669 31.2982 37.1374 30.8583C37.0282 30.6469 36.705 30.8121 36.8156 31.0235C37.0341 31.4435 37.2097 31.8866 37.3426 32.3401C37.1059 32.7219 36.8305 33.124 36.3922 33.1619C36.239 33.1758 36.0508 33.0992 36.0097 32.9523C36.0057 32.9396 35.9959 32.9309 35.9891 32.9196C35.9966 32.6739 35.9758 32.429 35.9153 32.1891C35.8916 32.0931 35.7937 32.0336 35.6955 32.0584C35.5987 32.0819 35.5388 32.1805 35.5639 32.2765C35.6204 32.5023 35.64 32.7345 35.6285 32.9661C35.4934 33.1447 35.2698 33.4298 35.0482 33.4663C34.9999 33.4752 34.9747 33.4621 34.951 33.4419C34.7086 33.2322 34.7359 32.2521 34.7468 31.8337C34.7506 31.7074 34.7526 31.6035 34.7512 31.5332C34.7274 30.7053 34.735 29.8654 34.7708 29.0331C35.4029 29.3023 36.1864 28.983 36.5162 28.3276C36.9267 28.8539 37.4359 29.3259 37.9355 29.7822C38.6313 30.4151 38.4359 30.2666 38.7874 30.5473C39.1555 30.8437 39.6591 31.2467 39.5249 31.5939Z" fill="#333333"/>
<path d="M16.7631 18.9148L15.1678 19.5501C14.9837 19.6238 15.0351 19.8931 15.2319 19.8969C15.3027 19.8983 15.2246 19.9094 16.8983 19.249C17.1195 19.1605 16.9899 18.8279 16.7631 18.9148Z" fill="#333333"/>
<path d="M14.4479 17.5896C14.2115 17.585 14.1991 17.9374 14.4367 17.949C15.9917 18.0182 16.6014 18.1984 16.7571 18.2014C16.9793 18.2057 17.0096 17.8818 16.7908 17.8453C16.0231 17.7111 15.2359 17.6258 14.4522 17.5896L14.4479 17.5896Z" fill="#333333"/>
<path d="M17.1988 16.8805L15.5255 15.6009C15.446 15.5403 15.3324 15.555 15.2714 15.6339C15.2104 15.7128 15.2252 15.8255 15.3048 15.886C17.037 17.1934 16.9718 17.2006 17.085 17.2028C17.2605 17.2062 17.337 16.9857 17.1988 16.8805Z" fill="#333333"/>
<path d="M21.9844 38.9636C22.4847 38.9437 22.955 38.6395 23.2118 38.1696C23.8648 36.9796 23.9103 36.9706 23.7994 36.8463C23.7665 36.4945 23.4975 36.0496 22.9994 35.5161C24.2016 33.0836 24.6344 30.3106 23.2378 27.9699C22.4515 26.661 21.7321 26.4421 22.0772 26.1677C22.2123 26.0636 22.4191 26.1364 22.6553 26.1522C24.4089 26.2701 26.2666 25.9827 27.7741 25.0494C27.9776 24.924 27.7866 24.6183 27.5817 24.7436C26.1543 25.6279 24.3775 25.9071 22.6774 25.793C22.4525 25.7802 22.1304 25.6687 21.8501 25.8867C21.7092 25.9991 21.6344 26.1312 21.6259 26.2813C21.5991 26.7908 22.1939 26.937 22.9253 28.1536C23.5783 29.2478 23.8655 30.5176 23.7017 31.9669C22.464 31.2337 21.3315 32.3934 20.4644 32.8642C19.7403 33.2549 18.9258 33.4205 18.1093 33.4624C17.8017 33.479 16.6275 33.2752 16.2091 33.5313C14.9408 32.8396 12.7758 31.5057 11.9601 30.3212C11.7754 30.0564 11.7846 29.725 11.9382 29.4695C13.0544 27.6801 14.3287 26.4361 15.7264 25.7704L15.6488 25.6088L15.7836 25.7406C15.968 25.6543 15.8184 25.3297 15.5698 25.4457C15.4412 25.5065 15.3152 25.5785 15.1892 25.6491C14.62 25.8672 13.8215 26.522 13.63 26.6897C12.7473 27.451 12.0228 28.3811 11.4078 29.3667C11.4063 29.3681 11.4063 29.3695 11.4048 29.3723C11.0036 29.3238 10.486 29.2858 10.127 29.4728C10.0536 29.4615 9.97654 29.4937 9.9398 29.5633C9.35954 30.6521 9.2866 30.69 9.19679 31.0156C9.17547 31.0939 8.64417 31.8451 9.12331 32.5567C11.052 35.43 18.9537 39.1148 21.9839 38.9637L21.9844 38.9636ZM11.2837 29.721C11.2451 29.9605 11.2914 30.2072 11.4346 30.4179C12.06 31.3276 13.5218 32.4135 15.2263 33.3902C17.0017 34.4386 19.8367 35.7672 21.766 36.1076C22.1441 36.1823 22.5201 36.0645 22.7799 35.8082C23.2876 36.363 23.5239 36.8143 23.4163 37.0342L23.4134 37.0383C23.4119 37.0411 23.4104 37.0453 23.4089 37.0481C22.8332 38.0485 16.9303 35.7956 12.8808 32.9012C12.7984 32.8434 12.6861 32.8623 12.6279 32.9427C12.5698 33.023 12.5874 33.1357 12.6684 33.1935C14.8546 34.7555 20.7396 38.0139 23.1239 37.5735C22.9976 37.7382 22.7593 38.5695 21.9671 38.6021C18.6565 38.7436 11.3279 34.7058 9.63795 31.9481C9.24009 31.2816 9.81097 30.6071 9.86933 30.4438C10.0142 30.7908 10.3235 31.1999 10.8071 31.677C10.9781 31.8446 11.2323 31.5882 11.0627 31.422C10.3566 30.7299 10.0206 30.163 10.1643 29.9058C10.2713 29.7154 10.6776 29.649 11.2837 29.721Z" stroke="#333333" stroke-width="1.05" mask="url(#path-2-inside-1_36107_5629)"/>
<path d="M20.2628 27.959C20.3123 28.1117 20.4506 28.7971 20.5682 28.871C20.8886 29.0724 20.8445 28.4155 20.8357 28.2861C20.7854 27.5884 20.6239 26.9995 20.8963 26.3121C21.1463 25.6806 21.8342 25.3285 22.4826 25.112C24.1116 24.5673 24.9568 25.3154 26.7944 22.7659C26.9676 22.5248 27.136 22.2316 27.0494 21.9475C26.9562 21.6423 26.5784 21.4075 26.0189 21.5597C25.31 21.7526 24.9271 21.564 24.2332 21.34C23.12 20.9815 20.3277 19.9375 20.5247 22.0779C20.5974 22.8688 20.9565 23.6329 20.8929 24.4367C20.8424 25.0763 20.4863 25.6257 20.2851 26.2231C20.0989 26.7773 20.0796 27.3978 20.2628 27.959Z" stroke="#333333" stroke-width="1.05" mask="url(#path-2-inside-1_36107_5629)"/>
<path d="M38.7435 30.0419C38.0691 29.394 37.2407 28.7291 36.6917 27.9712C36.6779 27.9526 36.6612 27.9369 36.6416 27.9253C36.7893 26.9475 35.83 26.3152 34.9165 26.7641C35.2289 24.6531 38.35 24.0598 38.4908 21.7404C38.5212 21.2647 38.3765 20.7633 38.0962 20.3126C38.813 20.523 38.9893 20.6303 39.1859 20.5709L39.1859 20.5695C39.4179 20.5051 39.481 20.2422 39.2103 20.0375C37.4604 18.6202 34.3457 16.1511 32.6174 14.9351C30.0885 12.8636 30.1501 12.8957 30.0882 12.8749C22.1796 10.0708 16.5088 8.05008 16.0583 7.91197C15.8388 7.84032 15.664 7.87209 15.5796 7.99128C14.8799 8.07196 15.6381 8.70605 16.1645 9.1699C19.0814 11.8332 17.9819 10.7585 18.293 11.0791C18.2004 11.253 17.4938 12.3632 17.1864 13.3983C17.1124 13.6371 17.1679 13.9191 17.4067 14.1653C17.7631 14.5571 18.7341 15.538 18.9969 15.7931C18.8243 16.1522 18.3631 16.8696 18.0911 18.0543C17.5544 20.3394 18.2367 22.4176 19.5501 24.3014C19.6631 24.4637 20.0898 24.8792 20.0377 25.0117C19.7384 25.1844 19.457 24.794 17.9563 24.8523C17.7465 24.8638 17.5423 24.8809 17.3435 24.9094C17.1064 24.9428 17.1576 25.2978 17.3947 25.2658C17.9499 25.1866 18.4964 25.1914 19.0531 25.2569C19.2622 25.282 19.5473 25.4055 19.8374 25.411C20.0965 25.416 20.3719 25.3061 20.4121 25.0554C20.4684 24.7053 20.0029 24.3185 19.8471 24.0964C18.0377 21.4993 17.7025 18.8967 19.2681 16.0511C19.9107 16.6563 20.9377 17.5189 21.0682 17.5818C21.28 17.6898 21.4462 17.3685 21.2316 17.2591C20.1 16.3818 18.9971 15.3408 18.0195 14.2642L17.8952 14.3938L17.9793 14.217C17.8449 14.0627 17.7963 13.8665 17.8521 13.6906C18.0475 13.0229 18.4978 12.1395 18.8433 11.5519C21.0716 13.4996 21.6517 13.8914 23.5483 15.4971C23.7586 15.6823 24.0544 15.8383 24.3556 15.9326C24.5991 16.0118 35.0309 19.3462 35.0788 19.3611C34.9916 19.6235 34.8789 19.8883 34.7724 20.1279C34.4528 20.841 34.3017 21.4829 33.8419 22.1975C33.7689 22.3113 33.5674 22.337 33.3909 22.3111C33.2749 22.3004 32.5722 22.1746 32.5242 22.1666C29.4801 21.6291 26.7109 20.6404 24.2201 19.2425C24.0114 19.1261 23.8326 19.4388 24.0414 19.5552C25.9116 20.6053 27.9265 21.4209 30.089 21.9962C29.8 22.5189 29.4763 23.0072 29.1084 23.4342C28.9534 23.6152 29.2279 23.8481 29.3843 23.6684C29.7869 23.2 30.1442 22.6646 30.4555 22.0862C31.6547 22.3887 32.7767 22.5873 33.1157 22.6289C33.4892 22.7218 33.9411 22.7122 34.1469 22.3902C34.6301 21.6395 34.7976 20.953 35.1023 20.2733C35.2133 20.0254 35.3305 19.748 35.4237 19.4689C36.1232 19.6902 36.8227 19.913 37.5153 20.1286C37.8847 20.5065 38.1673 21.1259 38.1305 21.7152C37.9982 23.8831 34.5223 24.5974 34.5365 27.0294C34.0184 27.5365 33.9362 28.3525 34.4706 28.8361C34.4374 28.8678 34.414 28.9109 34.4117 28.9572C34.3739 29.8176 34.3657 30.687 34.3903 31.543C34.3919 31.6077 34.3886 31.706 34.3863 31.8239C34.364 32.6172 34.3728 33.4167 34.714 33.7127C35.0664 34.0186 35.509 33.683 35.8205 33.3139C35.9692 33.4586 36.19 33.5387 36.424 33.5207C36.9829 33.4724 37.3284 33.0324 37.5852 32.6341C37.7444 32.7524 37.9329 32.8136 38.123 32.7976C38.6618 32.7601 38.8097 32.4343 38.9154 32.0893C39.255 32.1745 39.7359 32.0573 39.8642 31.7212C40.1444 30.9919 39.1314 30.4118 38.7435 30.0419ZM29.9373 13.2022C31.8574 14.7563 31.9581 14.8973 32.8016 15.5091C33.2663 15.865 34.9596 17.0635 38.7705 20.1443C33.9849 18.6391 30.7389 17.6244 24.9537 15.6576C24.9495 15.6562 24.9466 15.6575 24.9424 15.656C24.5812 15.5128 24.0874 15.419 23.6905 15.0701C21.292 13.0615 18.7217 10.7785 16.1126 8.31063C18.134 9.01393 29.8837 13.1829 29.9373 13.2022ZM39.5249 31.5939C39.4623 31.7571 39.045 31.8081 38.9139 31.703C38.8665 31.6656 38.8045 31.6518 38.7461 31.6703C38.6877 31.6874 38.6429 31.7329 38.6262 31.7902L38.6005 31.8782C38.4823 32.2777 38.4259 32.4171 38.0969 32.4403C37.9508 32.4515 37.8021 32.377 37.6915 32.2386L37.6901 32.2386C37.5505 31.7625 37.3669 31.2982 37.1374 30.8583C37.0282 30.6469 36.705 30.8121 36.8156 31.0235C37.0341 31.4435 37.2097 31.8866 37.3426 32.3401C37.1059 32.7219 36.8305 33.124 36.3922 33.1619C36.239 33.1758 36.0508 33.0992 36.0097 32.9523C36.0057 32.9396 35.9959 32.9309 35.9891 32.9196C35.9966 32.6739 35.9758 32.429 35.9153 32.1891C35.8916 32.0931 35.7937 32.0336 35.6955 32.0584C35.5987 32.0819 35.5388 32.1805 35.5639 32.2765C35.6204 32.5023 35.64 32.7345 35.6285 32.9661C35.4934 33.1447 35.2698 33.4298 35.0482 33.4663C34.9999 33.4752 34.9747 33.4621 34.951 33.4419C34.7086 33.2322 34.7359 32.2521 34.7468 31.8337C34.7506 31.7074 34.7526 31.6035 34.7512 31.5332C34.7274 30.7053 34.735 29.8654 34.7708 29.0331C35.4029 29.3023 36.1864 28.983 36.5162 28.3276C36.9267 28.8539 37.4359 29.3259 37.9355 29.7822C38.6313 30.4151 38.4359 30.2666 38.7874 30.5473C39.1555 30.8437 39.6591 31.2467 39.5249 31.5939Z" stroke="#333333" stroke-width="1.05" mask="url(#path-2-inside-1_36107_5629)"/>
<path d="M16.7631 18.9148L15.1678 19.5501C14.9837 19.6238 15.0351 19.8931 15.2319 19.8969C15.3027 19.8983 15.2246 19.9094 16.8983 19.249C17.1195 19.1605 16.9899 18.8279 16.7631 18.9148Z" stroke="#333333" stroke-width="1.05" mask="url(#path-2-inside-1_36107_5629)"/>
<path d="M14.4479 17.5896C14.2115 17.585 14.1991 17.9374 14.4367 17.949C15.9917 18.0182 16.6014 18.1984 16.7571 18.2014C16.9793 18.2057 17.0096 17.8818 16.7908 17.8453C16.0231 17.7111 15.2359 17.6258 14.4522 17.5896L14.4479 17.5896Z" stroke="#333333" stroke-width="1.05" mask="url(#path-2-inside-1_36107_5629)"/>
<path d="M17.1988 16.8805L15.5255 15.6009C15.446 15.5403 15.3324 15.555 15.2714 15.6339C15.2104 15.7128 15.2252 15.8255 15.3048 15.886C17.037 17.1934 16.9718 17.2006 17.085 17.2028C17.2605 17.2062 17.337 16.9857 17.1988 16.8805Z" stroke="#333333" stroke-width="1.05" mask="url(#path-2-inside-1_36107_5629)"/>
</svg>
