<svg width="49" height="48" viewBox="0 0 49 48" fill="none" xmlns="http://www.w3.org/2000/svg">
<path d="M1.89512 13.7674C1.28022 9.39208 4.3286 5.34674 8.70388 4.73183L34.4509 1.11333C38.8261 0.498424 42.8715 3.54681 43.4864 7.92209L47.1049 33.6691C47.7198 38.0443 44.6714 42.0897 40.2961 42.7046L14.5492 46.3231C10.1739 46.938 6.12853 43.8896 5.51362 39.5143L1.89512 13.7674Z" fill="#F79764"/>
<path d="M27.1695 21.846L25.946 14.907C25.915 14.7313 25.7485 14.6147 25.5728 14.6457L18.6338 15.8692C18.4608 15.8997 18.3416 16.0667 18.3726 16.2424L19.5961 23.1814C19.6271 23.357 19.7936 23.4736 19.9692 23.4426L26.9082 22.2191C27.0839 22.1881 27.2005 22.0216 27.1695 21.846ZM26.4792 21.6406L20.1746 22.7523L19.0629 16.4477L25.3675 15.336L26.4792 21.6406Z" fill="#333333"/>
<path d="M26.9545 22.4813L20.0154 23.7048C19.6956 23.7612 19.3903 23.5474 19.3339 23.2276L18.1104 16.2886C18.054 15.9688 18.2678 15.6635 18.5876 15.6071L25.5266 14.3835C25.8464 14.3272 26.1517 14.5409 26.2081 14.8607L27.4316 21.7998C27.488 22.1196 27.2743 22.4249 26.9545 22.4813ZM18.68 16.1314C18.6512 16.1365 18.6292 16.1647 18.6347 16.1961L19.8582 23.1352C19.8638 23.1666 19.8915 23.186 19.923 23.1805L26.862 21.957C26.8935 21.9514 26.9129 21.9237 26.9074 21.8922L25.6838 14.9532C25.6783 14.9217 25.6505 14.9023 25.6191 14.9078L18.68 16.1314ZM26.7875 21.8566L19.9586 23.0607L18.7545 16.2318L25.5834 15.0277L26.7875 21.8566ZM26.1708 21.4247L25.1516 15.6444L19.3686 16.6641L20.3879 22.4444L26.1708 21.4247Z" fill="#333333"/>
<path d="M24.2491 18.4362L23.637 19.2875C23.637 19.2875 23.6276 19.3107 23.6325 19.3234L23.9879 20.3122C24.0199 20.2633 24.0285 20.205 24.0079 20.1492L23.7094 19.3152L24.224 18.6001C24.2585 18.5508 24.2671 18.4925 24.2491 18.4362ZM23.1728 18.4179L24.2215 18.387C24.1887 18.3387 24.1329 18.3135 24.0733 18.3131L23.1918 18.3415L22.6656 17.6261C22.6301 17.5783 22.5769 17.5526 22.5205 17.5544L23.1429 18.4015C23.1429 18.4015 23.1619 18.4171 23.1728 18.4179ZM22.9276 20.0315L22.0803 20.6837C22.1347 20.7011 22.1924 20.6909 22.2397 20.6529L22.9414 20.1102L23.7864 20.3801C23.8408 20.3976 23.9037 20.3865 23.9489 20.3515L22.9468 20.0335C22.9468 20.0335 22.9354 20.0301 22.9276 20.0315ZM22.1703 18.573L22.4642 17.5724C22.4146 17.5974 22.3641 17.6333 22.351 17.6816L22.1013 18.5338L21.2631 18.8086C21.2047 18.8298 21.1635 18.8722 21.1465 18.9292L22.1478 18.5986C22.1478 18.5986 22.1669 18.5844 22.1703 18.573Z" fill="#333333"/>
<path d="M24.3995 18.3232C24.3344 18.1995 24.2055 18.1276 24.0681 18.1303L23.2806 18.1556L22.8143 17.5188C22.7322 17.4063 22.5956 17.352 22.4593 17.376C22.3372 17.4191 22.2132 17.4978 22.1746 17.6316L21.9542 18.3895L21.2055 18.635C21.0729 18.68 20.9789 18.7912 20.9575 18.9301C20.9382 19.066 20.9999 19.2011 21.1135 19.2783L21.7649 19.723L21.7693 20.5142C21.7693 20.652 21.8479 20.776 21.9723 20.8379C22.0968 20.8997 22.2428 20.8848 22.3544 20.7975L22.9775 20.3147L23.7307 20.5548C23.7882 20.5744 23.8456 20.5778 23.9033 20.5677C23.9767 20.5547 24.0459 20.5182 24.101 20.4625C24.1967 20.3619 24.2282 20.2185 24.181 20.0889L23.9145 19.3439L24.3724 18.7064C24.455 18.5918 24.4645 18.4469 24.3995 18.3232ZM22.6656 17.6261L23.1918 18.3415L24.0733 18.3131C24.1329 18.3135 24.1887 18.3387 24.2215 18.387L23.1728 18.4179C23.1728 18.4179 23.15 18.4111 23.1429 18.4015L22.5205 17.5544C22.5769 17.5526 22.6301 17.5783 22.6656 17.6261ZM21.2631 18.8086L22.1013 18.5338L22.351 17.6816C22.3641 17.6333 22.4146 17.5974 22.4642 17.5724L22.1703 18.573C22.1703 18.573 22.1578 18.5941 22.1478 18.5986L21.1465 18.9292C21.1635 18.8722 21.2047 18.8298 21.2631 18.8086ZM23.7864 20.3801L22.9414 20.1102L22.2397 20.6529C22.1924 20.6909 22.1347 20.7011 22.0803 20.6837L22.9276 20.0315C22.9276 20.0315 22.9411 20.0318 22.9468 20.0335L23.9489 20.3515C23.9037 20.3865 23.8408 20.3976 23.7864 20.3801ZM24.224 18.6001L23.7094 19.3152L24.0079 20.1492C24.0285 20.205 24.0199 20.2633 23.9879 20.3122L23.6325 19.3234C23.6276 19.3107 23.6279 19.2972 23.637 19.2875L24.2491 18.4362C24.2671 18.4925 24.2585 18.5508 24.224 18.6001Z" fill="#333333"/>
<path d="M24.5602 18.2381C24.4626 18.0526 24.2698 17.9406 24.0629 17.9474L23.3721 17.9692L22.9625 17.4089C22.8384 17.2416 22.6345 17.1586 22.4274 17.1951L22.3986 17.2002C22.1853 17.2783 22.046 17.4083 21.9978 17.579L21.8045 18.2456L21.1478 18.4614C20.9485 18.5263 20.8078 18.6943 20.7769 18.9025C20.7487 19.1102 20.8386 19.3133 21.0108 19.4316L21.582 19.8201L21.5855 20.5141C21.587 20.722 21.7039 20.9095 21.8929 21.0005C21.9997 21.0547 22.1159 21.0693 22.226 21.0499C22.3125 21.0347 22.3927 20.9989 22.4665 20.9426L23.0135 20.5191L23.675 20.7295C23.8699 20.7925 24.09 20.7375 24.2312 20.5882C24.3777 20.4381 24.4234 20.2219 24.3538 20.026L24.1196 19.3726L24.5235 18.8122C24.6449 18.6421 24.6599 18.4205 24.5602 18.2381ZM24.3724 18.7064L23.9145 19.3439L24.181 20.0889C24.2282 20.2185 24.1967 20.3619 24.101 20.4625C24.0459 20.5182 23.9767 20.5547 23.9033 20.5677C23.8456 20.5778 23.7882 20.5744 23.7307 20.5548L22.9775 20.3147L22.3544 20.7975C22.2428 20.8848 22.0968 20.8997 21.9723 20.8379C21.8479 20.776 21.7693 20.652 21.7693 20.5142L21.7649 19.723L21.1135 19.2783C20.9999 19.2011 20.9382 19.066 20.9575 18.9301C20.9789 18.7912 21.0729 18.68 21.2055 18.635L21.9542 18.3895L22.1746 17.6316C22.2132 17.4978 22.3372 17.4191 22.4593 17.376C22.5956 17.352 22.7322 17.4063 22.8143 17.5188L23.2806 18.1556L24.0681 18.1303C24.2055 18.1276 24.3344 18.1995 24.3995 18.3232C24.4645 18.4469 24.455 18.5918 24.3724 18.7064Z" fill="#333333"/>
<path d="M22.1958 25.999L15.2568 27.2225C15.0838 27.253 14.9646 27.42 14.9955 27.5956L16.2191 34.5347C16.25 34.7103 16.4166 34.8269 16.5922 34.7959L23.5312 33.5724C23.7042 33.5419 23.8234 33.3749 23.7925 33.1993L22.5689 26.2602C22.538 26.0846 22.3715 25.968 22.1958 25.999ZM23.1022 32.9939L16.7975 34.1056L15.6859 27.801L21.9905 26.6893L23.1022 32.9939Z" fill="#333333"/>
<path d="M23.577 33.8319L16.638 35.0554C16.3181 35.1118 16.0129 34.8981 15.9565 34.5783L14.7329 27.6392C14.6765 27.3194 14.8903 27.0141 15.2101 26.9577L22.1491 25.7342C22.4689 25.6778 22.7742 25.8916 22.8306 26.2114L24.0542 33.1504C24.1106 33.4702 23.8968 33.7755 23.577 33.8319ZM15.303 27.4847C15.2742 27.4897 15.2521 27.518 15.2577 27.5494L16.4812 34.4884C16.4868 34.5199 16.5145 34.5393 16.546 34.5338L23.485 33.3102C23.5138 33.3051 23.5359 33.2769 23.5303 33.2455L22.3068 26.3065C22.3012 26.275 22.2735 26.2556 22.242 26.2611L15.303 27.4847ZM23.4131 33.2094L16.5816 34.414L15.3775 27.585L22.2064 26.3809L23.4105 33.2098L23.4131 33.2094ZM17.0135 33.7972L22.7964 32.7775L21.7772 26.9972L15.9942 28.0169L17.0135 33.7972Z" fill="#333333"/>
<path d="M33.3748 22.2249L29.0913 22.9802C29.1181 22.8566 29.1222 22.7261 29.0991 22.595L27.503 13.5431C27.405 12.9874 26.8746 12.616 26.3188 12.714L17.2695 14.3096C16.7138 14.4076 16.3424 14.938 16.4404 15.4938L18.0365 24.5457C18.0596 24.6767 18.108 24.798 18.1755 24.905L13.892 25.6603C13.3363 25.7583 12.9649 26.2887 13.0629 26.8444L14.659 35.8963C14.757 36.4521 15.2874 36.8235 15.8431 36.7255L24.895 35.1294C25.1624 35.0822 25.3847 34.9322 25.5355 34.7299C25.7464 34.8684 26.0065 34.9334 26.2739 34.8862L35.3259 33.2901C35.8816 33.1921 36.253 32.6618 36.155 32.106L34.5594 23.0567C34.4614 22.501 33.931 22.1296 33.3752 22.2276L33.3748 22.2249ZM18.6682 24.4343L17.0721 15.3824C17.0356 15.1753 17.1743 14.9805 17.3788 14.9445L26.4307 13.3484C26.6378 13.3119 26.8325 13.4505 26.8686 13.655L28.4647 22.7069C28.5012 22.914 28.3625 23.1087 28.158 23.1448L19.1088 24.7404C18.9017 24.7769 18.7069 24.6383 18.6709 24.4338L18.6682 24.4343ZM24.7836 34.4976L15.7317 36.0937C15.5246 36.1302 15.3299 35.9916 15.2938 35.7871L13.6978 26.7352C13.6612 26.5281 13.7999 26.3333 14.0044 26.2973L23.0563 24.7012C23.2634 24.6647 23.4581 24.8033 23.4942 25.0078L25.0903 34.0597C25.1268 34.2668 24.9881 34.4615 24.7836 34.4976ZM35.5232 32.2174C35.5597 32.4245 35.4211 32.6192 35.2166 32.6553L26.1647 34.2514C25.9576 34.2879 25.7629 34.1492 25.7268 33.9448L24.1307 24.8929C24.0942 24.6858 24.2329 24.491 24.4373 24.455L33.4892 22.8589C33.6963 22.8224 33.8911 22.961 33.9271 23.1655L35.5232 32.2174Z" fill="#333333"/>
<path d="M35.3721 33.5523L26.3202 35.1484C26.0737 35.1918 25.8222 35.1605 25.5942 35.0629C25.4133 35.2326 25.1877 35.3481 24.9413 35.3915L15.8894 36.9876C15.1894 37.111 14.5203 36.6425 14.3968 35.9426L12.8007 26.8906C12.6773 26.1907 13.1459 25.5215 13.8458 25.3981L17.799 24.7011C17.7899 24.6648 17.7808 24.6286 17.7743 24.5919L16.1782 15.54C16.0548 14.8401 16.5234 14.1709 17.2233 14.0475L26.2752 12.4514C26.9751 12.328 27.6443 12.7965 27.7677 13.4964L29.3638 22.5484C29.3703 22.5851 29.3768 22.6218 29.378 22.6594L33.3312 21.9623C34.0311 21.8389 34.7003 22.3075 34.8237 23.0074L36.4193 32.0567C36.5427 32.7566 36.0742 33.4258 35.3742 33.5492L35.3721 33.5523ZM25.4722 34.3708L25.6831 34.5093C25.8482 34.618 26.0421 34.6595 26.2308 34.6263L35.2827 33.0302C35.6943 32.9576 35.9685 32.566 35.8959 32.1544L34.3003 23.1051C34.2277 22.6935 33.8361 22.4193 33.4245 22.4919L28.7531 23.3156L28.8339 22.931C28.8549 22.8354 28.8566 22.7378 28.8405 22.646L27.2434 13.5889C27.1709 13.1773 26.7792 12.9031 26.3677 12.9757L17.3157 14.5718C16.9042 14.6443 16.63 15.036 16.7025 15.4475L18.2986 24.4994C18.3148 24.5912 18.3498 24.6823 18.4022 24.765L18.6097 25.0987L13.9383 25.9224C13.5267 25.995 13.2525 26.3866 13.325 26.7982L14.9211 35.8501C14.9937 36.2617 15.3853 36.5359 15.7969 36.4633L24.8488 34.8672C25.0376 34.8339 25.2055 34.7287 25.3213 34.5731L25.4722 34.3708ZM35.2607 32.9205L26.2088 34.5166C25.8575 34.5785 25.524 34.3427 25.4625 33.9941L23.8664 24.9422C23.8045 24.5909 24.0403 24.2574 24.3889 24.1959L33.4409 22.5998C33.7921 22.5379 34.1256 22.7737 34.1871 23.1223L35.7832 32.1743C35.8452 32.5255 35.6093 32.859 35.2607 32.9205ZM24.4809 24.7176C24.4206 24.7282 24.3796 24.7868 24.3902 24.8471L25.9863 33.899C25.997 33.9593 26.0556 34.0003 26.1159 33.9897L35.1678 32.3936C35.2281 32.383 35.2691 32.3244 35.2585 32.2641L33.6624 23.2122C33.6517 23.1519 33.5931 23.1108 33.5328 23.1215L24.4809 24.7176ZM24.8299 34.7597L15.778 36.3558C15.4267 36.4178 15.0932 36.182 15.0317 35.8333L13.4356 26.7814C13.3737 26.4301 13.6095 26.0966 13.9581 26.0351L23.0101 24.439C23.3613 24.3771 23.6948 24.6129 23.7563 24.9616L25.3524 34.0135C25.4143 34.3648 25.1785 34.6983 24.8299 34.7597ZM14.0501 26.5568C13.9898 26.5674 13.9488 26.626 13.9594 26.6863L15.5555 35.7382C15.5662 35.7985 15.6248 35.8396 15.685 35.8289L24.737 34.2328C24.7973 34.2222 24.8383 34.1636 24.8277 34.1033L23.2316 25.0514C23.2209 24.9911 23.1623 24.9501 23.102 24.9607L14.0501 26.5568ZM28.2069 23.4065L19.155 25.0026C18.9965 25.0386 18.8157 24.9948 18.6739 24.8955C18.532 24.7962 18.4383 24.6478 18.4083 24.4774L16.8126 15.4281C16.7507 15.0768 16.9865 14.7433 17.3352 14.6819L26.3871 13.0858C26.7383 13.0238 27.0719 13.2596 27.1333 13.6083L28.7294 22.6602C28.7914 23.0115 28.5555 23.345 28.2069 23.4065ZM19.0599 24.4787L28.1118 22.8826C28.1721 22.872 28.2131 22.8134 28.2025 22.7531L26.6064 13.7012C26.5958 13.6409 26.5372 13.5999 26.4769 13.6105L17.4276 15.2062C17.3673 15.2168 17.3263 15.2754 17.3369 15.3357L18.933 24.3876C18.9399 24.4269 18.9655 24.4494 18.9783 24.4607C18.9938 24.4715 19.0141 24.4949 19.0599 24.4787Z" fill="#333333"/>
<path d="M32.6266 24.1597L25.6876 25.3833C25.5146 25.4138 25.3954 25.5808 25.4263 25.7564L26.6499 32.6954C26.6808 32.8711 26.8474 32.9877 27.023 32.9567L33.962 31.7331C34.135 31.7026 34.2543 31.5357 34.2233 31.36L32.9997 24.421C32.9688 24.2454 32.8023 24.1288 32.6266 24.1597ZM33.5356 31.1542L27.231 32.2659L26.1193 25.9613L32.4239 24.8496L33.5356 31.1542Z" fill="#333333"/>
<path d="M34.0078 31.9927L27.0688 33.2162C26.7489 33.2726 26.4437 33.0588 26.3873 32.739L25.1637 25.8C25.1073 25.4802 25.3211 25.1749 25.6409 25.1185L32.5799 23.895C32.8998 23.8386 33.205 24.0523 33.2614 24.3722L34.485 31.3112C34.5414 31.631 34.3276 31.9363 34.0078 31.9927ZM25.7338 25.6454C25.705 25.6505 25.6829 25.6787 25.6885 25.7102L26.912 32.6492C26.9176 32.6807 26.9453 32.7001 26.9768 32.6945L33.9158 31.471C33.9446 31.4659 33.9667 31.4377 33.9611 31.4062L32.7376 24.4672C32.7321 24.4358 32.7043 24.4163 32.6728 24.4219L25.7338 25.6454ZM33.844 31.3701L27.015 32.5743L25.8109 25.7454L32.6398 24.5412L33.844 31.3701ZM27.4443 31.958L33.2246 30.9388L32.2054 25.1584L26.425 26.1777L27.4443 31.958Z" fill="#333333"/>
<path d="M21.1851 30.2154C21.3566 31.188 20.7049 32.1219 19.7297 32.2938C18.7546 32.4658 17.8202 31.8115 17.6487 30.839C17.4772 29.8664 18.131 28.9294 19.1062 28.7575C20.0814 28.5855 21.0131 29.2402 21.1851 30.2154Z" fill="#333333"/>
<path d="M28.7523 29.765C28.7921 29.8066 28.847 29.8267 28.9073 29.816L31.2299 29.4065C31.2902 29.3959 31.3354 29.3609 31.3581 29.3055L28.7523 29.765ZM29.522 27.3696L28.7126 29.5855C28.6951 29.6399 28.7032 29.7007 28.7355 29.7463L29.6349 27.274C29.5886 27.2876 29.5399 27.3178 29.522 27.3696Z" fill="#333333"/>
<path d="M31.6141 28.8874L30.0983 27.0815C29.9814 26.9399 29.7887 26.8739 29.5947 26.9081L29.592 26.9085C29.3981 26.9428 29.2395 27.0707 29.1755 27.2442L28.3687 29.4596C28.3035 29.6414 28.3395 29.8459 28.463 29.9944C28.5891 30.1424 28.7797 30.2115 28.9711 30.1778L31.2937 29.7683C31.4851 29.7345 31.6405 29.6044 31.7084 29.4221C31.7737 29.2404 31.7376 29.0359 31.6141 28.8874ZM31.5349 29.3581C31.4914 29.4793 31.3903 29.5647 31.2618 29.5874L28.9392 29.9969C28.8107 30.0196 28.6865 29.9739 28.6041 29.8749C28.5223 29.7785 28.4982 29.6422 28.5422 29.5236L29.3485 27.3056C29.436 27.0658 29.7951 27.0025 29.9567 27.1983L31.473 29.0069C31.5549 29.1032 31.5789 29.2396 31.5349 29.3581Z" fill="#333333"/>
<path d="M31.473 29.0069L29.9567 27.1983C29.7951 27.0025 29.436 27.0658 29.3485 27.3056L28.5422 29.5236C28.4982 29.6422 28.5223 29.7785 28.6041 29.8749C28.6865 29.9739 28.8107 30.0196 28.9392 29.9969L31.2618 29.5874C31.3903 29.5647 31.4914 29.4793 31.5349 29.3581C31.5789 29.2396 31.5549 29.1032 31.473 29.0069ZM28.7126 29.5855L29.522 27.3696C29.5399 27.3178 29.5886 27.2876 29.6349 27.274L28.7355 29.7463C28.7032 29.7007 28.6951 29.6399 28.7126 29.5855ZM31.2299 29.4065L28.9073 29.816C28.847 29.8267 28.7921 29.8066 28.7523 29.765L31.3581 29.3055C31.3354 29.3609 31.2902 29.3959 31.2299 29.4065Z" fill="#333333"/>
</svg>
