<svg width="75" height="76" viewBox="0 0 75 76" fill="none" xmlns="http://www.w3.org/2000/svg">
<path d="M10.1565 8.57679C10.9578 4.23179 15.1297 1.35909 19.4747 2.16043L66.6787 10.8662C71.0237 11.6675 73.8964 15.8394 73.095 20.1844L64.3893 67.3884C63.588 71.7334 59.416 74.6061 55.071 73.8047L7.8671 65.099C3.5221 64.2977 0.649397 60.1257 1.45074 55.7807L10.1565 8.57679Z" fill="#F0F9EE"/>
<path d="M58.4323 34.3625C57.1628 30.7957 54.6977 27.8033 51.4714 25.8791C51.536 25.4713 51.4288 25.0263 51.1679 24.6095C50.8577 24.1264 50.3555 23.7171 49.756 23.4588C49.1572 23.1966 48.5121 23.1126 47.9536 23.2146C47.4105 23.319 46.9761 23.5931 46.7365 23.9867C43.0756 23.1594 39.2302 23.6276 35.8632 25.3283C32.331 27.1069 29.5857 30.1088 28.1145 33.7842L26.7292 37.2519L16.2437 39.1906C16.1836 39.1974 16.1289 39.2208 16.077 39.2525C14.0531 40.4992 14.3815 41.9457 14.6163 42.5121C15.2039 43.9105 17.154 45.0428 19.8274 45.4399C21.5687 45.6986 23.6239 45.6456 25.8039 45.1505C26.6949 46.1766 27.6497 47.4091 28.7423 48.9061C30.2176 50.9285 31.5566 52.411 33.3066 53.0608C33.6798 53.1989 34.067 53.2958 34.4792 53.357C35.9046 53.5687 37.5892 53.3071 39.8576 52.5614L48.601 49.6552L56.2657 49.8488C56.47 49.8516 56.6529 49.7331 56.7278 49.5474L58.213 45.8307C59.6766 42.1542 59.7527 38.0904 58.4234 34.369L58.4323 34.3625ZM29.0058 34.145C31.7831 27.1909 39.2696 23.283 46.5252 24.9317C46.5455 25.1395 46.6094 25.3458 46.7058 25.5452C41.3977 27.8553 37.6094 32.1 34.5291 39.1862C32.5656 37.9851 30.4506 37.1945 27.7948 37.1819L29.0053 34.1489L29.0058 34.145ZM39.5571 51.6426C36.861 52.5375 35.0899 52.6918 33.6389 52.1494C32.1196 51.5891 30.8985 50.2147 29.5238 48.3371C26.4169 44.0722 24.3045 41.7267 21.4135 40.435C20.8229 40.1701 20.9191 39.3103 21.5548 39.1921L27.1257 38.1613C31.8686 37.9327 34.8687 40.3982 38.3431 43.2491C40.7572 45.2338 43.4656 47.4631 47.1653 49.1151L39.5565 51.6465L39.5571 51.6426ZM48.2861 48.5414C44.3345 46.9149 41.4774 44.5731 38.9543 42.5013C37.7306 41.4887 36.5616 40.5316 35.349 39.7097C38.3811 32.6832 42.0923 28.5334 47.3133 26.3323C47.5801 26.5767 47.8968 26.7773 48.2523 26.9286C48.5364 27.0574 48.8317 27.1367 49.1206 27.1796C49.2323 27.1962 49.3408 27.2084 49.4581 27.214C52.3324 33.7595 51.9816 40.1764 48.2866 48.5375L48.2861 48.5414ZM57.3228 45.4622L55.9627 48.8667L49.27 48.7033C52.9466 40.2803 53.3041 33.7385 50.4486 27.0658C50.6656 26.9839 50.8557 26.8704 51.0112 26.7242C57.3901 30.5381 60.1028 38.5164 57.3234 45.4584L57.3228 45.4622Z" fill="#333333" stroke="#333333" stroke-width="3" stroke-miterlimit="10"/>
</svg>
