<svg width="16" height="14" viewBox="0 0 16 14" fill="none" xmlns="http://www.w3.org/2000/svg">
<path d="M12.1498 1.65283V2.15283H12.6498H13.9998C14.5841 2.15283 15.0748 2.63928 15.0748 3.20283V11.9028C15.0748 12.4966 14.5788 12.9778 13.9998 12.9778H1.9998C1.40609 12.9778 0.924805 12.4819 0.924805 11.9028V3.20283C0.924805 2.60911 1.42078 2.12783 1.9998 2.12783H3.3248H3.8248V1.62783V1.10283C3.8248 1.07184 3.8354 1.05559 3.84398 1.04701C3.85256 1.03843 3.86881 1.02783 3.8998 1.02783C3.9165 1.02783 3.93377 1.03395 3.95039 1.05107C3.96906 1.0703 3.9748 1.09136 3.9748 1.10283V1.62783V2.12783H4.4748H11.4998H11.9998V1.62783V1.10283C11.9998 1.07184 12.0104 1.05559 12.019 1.04701C12.0276 1.03843 12.0438 1.02783 12.0748 1.02783C12.0915 1.02783 12.1088 1.03395 12.1254 1.05107C12.1441 1.0703 12.1498 1.09136 12.1498 1.10283V1.65283ZM3.8498 2.77783V2.27783H3.3498H1.9998C1.75432 2.27783 1.51247 2.36635 1.33286 2.55344C1.15448 2.73925 1.0748 2.98298 1.0748 3.22783V4.87783V5.37783H1.5748H14.4498H14.9498V4.87783V3.22783C14.9498 2.70169 14.5259 2.27783 13.9998 2.27783H12.7248H12.2248V2.77783V3.27783C12.2248 3.30882 12.2142 3.32507 12.2056 3.33365C12.197 3.34223 12.1808 3.35283 12.1498 3.35283C12.1331 3.35283 12.1158 3.34671 12.0992 3.32959C12.0806 3.31036 12.0748 3.2893 12.0748 3.27783V2.77783V2.27783H11.5748H4.4998H3.9998V2.77783V3.27783C3.9998 3.30883 3.98921 3.32507 3.98063 3.33365C3.97205 3.34223 3.9558 3.35283 3.9248 3.35283C3.9081 3.35283 3.89083 3.34671 3.87422 3.32959C3.85555 3.31036 3.8498 3.2893 3.8498 3.27783V2.77783ZM1.5498 5.47783H1.0498V5.97783V11.8778C1.0498 12.404 1.47366 12.8278 1.9998 12.8278H13.9998C14.4662 12.8278 14.9673 12.476 14.9248 11.882V5.97783V5.47783H14.4248H1.5498Z" fill="#595959" stroke="#595959"/>
<path d="M9.4748 10.5278H8.9248C8.7748 10.5278 8.6748 10.6278 8.6748 10.7778V11.3278C8.6748 11.4778 8.7748 11.5778 8.9248 11.5778H9.4748C9.6248 11.5778 9.7248 11.4778 9.7248 11.3278V10.7778C9.7248 10.6278 9.6248 10.5278 9.4748 10.5278Z" fill="#595959"/>
<path d="M7.1999 10.5278H6.6499C6.4999 10.5278 6.3999 10.6278 6.3999 10.7778V11.3278C6.3999 11.4778 6.4999 11.5778 6.6499 11.5778H7.1999C7.3499 11.5778 7.4499 11.4778 7.4499 11.3278V10.7778C7.4499 10.6278 7.3249 10.5278 7.1999 10.5278Z" fill="#595959"/>
<path d="M4.8 10.5278H4.25C4.1 10.5278 4 10.6278 4 10.7778V11.3278C4 11.4778 4.1 11.5778 4.25 11.5778H4.8C4.95 11.5778 5.05 11.4778 5.05 11.3278V10.7778C5.05 10.6278 4.925 10.5278 4.8 10.5278Z" fill="#595959"/>
<path d="M11.7497 8.60303H11.1997C11.0497 8.60303 10.9497 8.70303 10.9497 8.85303V9.40303C10.9497 9.55303 11.0497 9.65303 11.1997 9.65303H11.7497C11.8997 9.65303 11.9997 9.55303 11.9997 9.40303V8.85303C11.9997 8.70303 11.8997 8.60303 11.7497 8.60303Z" fill="#595959"/>
<path d="M9.4748 8.60303H8.9248C8.7748 8.60303 8.6748 8.70303 8.6748 8.85303V9.40303C8.6748 9.55303 8.7748 9.65303 8.9248 9.65303H9.4748C9.6248 9.65303 9.7248 9.55303 9.7248 9.40303V8.85303C9.7248 8.70303 9.6248 8.60303 9.4748 8.60303Z" fill="#595959"/>
<path d="M7.1999 8.60303H6.6499C6.4999 8.60303 6.3999 8.70303 6.3999 8.85303V9.40303C6.3999 9.55303 6.4999 9.65303 6.6499 9.65303H7.1999C7.3499 9.65303 7.4499 9.55303 7.4499 9.40303V8.85303C7.4499 8.70303 7.3249 8.60303 7.1999 8.60303Z" fill="#595959"/>
<path d="M4.8 8.60303H4.25C4.1 8.60303 4 8.70303 4 8.85303V9.40303C4 9.55303 4.1 9.65303 4.25 9.65303H4.8C4.95 9.65303 5.05 9.55303 5.05 9.40303V8.85303C5.05 8.70303 4.925 8.60303 4.8 8.60303Z" fill="#595959"/>
<path d="M11.7497 6.67773H11.1997C11.0497 6.67773 10.9497 6.77773 10.9497 6.92773V7.47773C10.9497 7.62773 11.0497 7.72773 11.1997 7.72773H11.7497C11.8997 7.72773 11.9997 7.62773 11.9997 7.47773V6.92773C11.9997 6.77773 11.8997 6.67773 11.7497 6.67773Z" fill="#595959"/>
<path d="M9.4748 6.67773H8.9248C8.7748 6.67773 8.6748 6.77773 8.6748 6.92773V7.47773C8.6748 7.62773 8.7748 7.72773 8.9248 7.72773H9.4748C9.6248 7.72773 9.7248 7.62773 9.7248 7.47773V6.92773C9.7248 6.77773 9.6248 6.67773 9.4748 6.67773Z" fill="#595959"/>
<path d="M7.1999 6.67773H6.6499C6.4999 6.67773 6.3999 6.77773 6.3999 6.92773V7.47773C6.3999 7.62773 6.4999 7.72773 6.6499 7.72773H7.1999C7.3499 7.72773 7.4499 7.62773 7.4499 7.47773V6.92773C7.4499 6.77773 7.3249 6.67773 7.1999 6.67773Z" fill="#595959"/>
</svg>
