<svg width="24" height="24" viewBox="0 0 24 24" fill="none" xmlns="http://www.w3.org/2000/svg">
<g id="System Icons">
<path id="Vector" d="M16.3375 22.8625C14.2375 22.8625 12.475 21.3625 12.0625 19.375H1.8625C1.4125 19.375 1 19 1 18.5125C1 18.025 1.375 17.65 1.8625 17.65H12.0625C12.475 15.7 14.2375 14.2 16.3375 14.2C18.4375 14.2 20.2 15.7 20.6125 17.6875H22.8625C23.3125 17.6875 23.725 18.0625 23.725 18.55C23.725 19.0375 23.35 19.4125 22.8625 19.4125H20.6125C20.2 21.3625 18.4375 22.8625 16.3375 22.8625ZM16.3375 15.8875C14.875 15.8875 13.675 17.0875 13.675 18.5125C13.675 19.9375 14.875 21.1375 16.3375 21.1375C17.8 21.1375 19 19.9375 19 18.5125C19 17.0875 17.8 15.8875 16.3375 15.8875ZM9.7375 16.2625C7.6375 16.2625 5.875 14.7625 5.4625 12.775H1.8625C1.4125 12.775 1 12.4 1 11.9125C1 11.4625 1.375 11.05 1.8625 11.05H5.4625C5.875 9.0625 7.6375 7.5625 9.7375 7.5625C11.8375 7.5625 13.6 9.0625 14.0125 11.05H22.9C23.35 11.05 23.7625 11.425 23.7625 11.9125C23.7625 12.3625 23.3875 12.775 22.9 12.775H13.975C13.6 14.7625 11.8375 16.2625 9.7375 16.2625ZM9.7375 9.325C8.275 9.325 7.075 10.525 7.075 11.95C7.075 13.4125 8.275 14.575 9.7375 14.575C11.2 14.575 12.4 13.375 12.4 11.95C12.4 10.4875 11.2 9.325 9.7375 9.325ZM19.375 9.7C17.275 9.7 15.5125 8.2 15.1 6.2125H1.8625C1.4125 6.2125 1 5.8375 1 5.35C1 4.8625 1.375 4.4875 1.8625 4.4875H15.1C15.5125 2.5 17.275 1 19.375 1C21.775 1 23.725 2.95 23.725 5.3125C23.725 7.675 21.775 9.7 19.375 9.7ZM19.375 2.725C17.9125 2.725 16.7125 3.925 16.7125 5.35C16.7125 6.775 17.9125 7.975 19.375 7.975C20.8375 7.975 22.0375 6.775 22.0375 5.35C22.0375 3.925 20.8375 2.725 19.375 2.725Z" fill="#333333"/>
</g>
</svg>
