<svg width="98" height="98" viewBox="0 0 98 98" fill="none" xmlns="http://www.w3.org/2000/svg">
<path d="M2.07055 28.4432C0.927018 24.1755 3.45968 19.7888 7.72741 18.6453L69.5467 2.08085C73.8144 0.937316 78.2011 3.46997 79.3446 7.7377L95.909 69.557C97.0526 73.8247 94.5199 78.2114 90.2522 79.3549L28.4329 95.9193C24.1652 97.0629 19.7785 94.5302 18.635 90.2625L2.07055 28.4432Z" fill="#FFDECC"/>
<path fill-rule="evenodd" clip-rule="evenodd" d="M55.7895 67.8329L46.9508 34.8465C52.435 33.1744 55.0838 30.8185 57.5509 28.6295C58.3933 27.8825 59.2133 27.1542 60.1532 26.4718C60.8703 25.9504 61.6516 25.6292 62.4567 25.5148C63.2638 25.3998 64.1014 25.4856 64.9317 25.7803C65.7689 26.0772 66.4729 26.5386 67.0274 27.135C67.5749 27.7291 67.976 28.47 68.2061 29.3285L74.2931 52.0456C74.6334 53.3157 74.4848 54.5965 73.9474 55.686C73.4104 56.7774 72.4865 57.6771 71.2746 58.1792C68.0233 59.5294 66.1021 61.1881 64.1751 62.8504C62.0461 64.6872 59.9157 66.5268 55.7895 67.8329ZM54.8322 42.4516L64.9087 36.1618C65.4695 35.8131 65.6396 35.0774 65.2915 34.5185C64.9433 33.9597 64.2071 33.7876 63.6482 34.1358L53.5718 40.4256C53.011 40.7743 52.8409 41.51 53.189 42.0688C53.5377 42.6297 54.2733 42.7998 54.8322 42.4516ZM56.8387 49.9398L66.9151 43.6499C67.476 43.3013 67.6461 42.5656 67.2979 42.0067C66.9493 41.4459 66.2136 41.2758 65.6547 41.624L55.5782 47.9138C55.0174 48.2625 54.8473 48.9982 55.1955 49.557C55.5441 50.1178 56.2798 50.2879 56.8387 49.9398ZM64.0884 51.3423L57.5848 55.4022C57.024 55.7509 56.8539 56.4866 57.2021 57.0455C57.5507 57.6063 58.2864 57.7764 58.8453 57.4282L65.3489 53.3683C65.9097 53.0196 66.0798 52.284 65.7316 51.7251C65.383 51.1643 64.6473 50.9942 64.0884 51.3423ZM76.6044 51.4245L70.5173 28.7074C70.187 27.4747 69.5938 26.3949 68.7769 25.5121C67.965 24.6323 66.936 23.9582 65.7301 23.53C64.5199 23.1009 63.2938 22.9756 62.109 23.1454C60.9221 23.3157 59.7847 23.7809 58.749 24.5311C57.7714 25.2384 56.8818 26.0297 55.9649 26.8452C53.5444 28.9963 50.9276 31.3205 45.178 32.8611C39.4264 34.4022 35.9996 33.6954 32.8283 33.0446C31.6265 32.7968 30.461 32.5583 29.2602 32.4326C27.9881 32.3007 26.7685 32.4671 25.6575 32.9125C24.5465 33.358 23.5493 34.0789 22.7138 35.0562C21.8817 36.0305 21.3295 37.1281 21.0663 38.2961C20.8002 39.4691 20.8264 40.7009 21.1567 41.9335L27.2437 64.6507C27.737 66.4917 28.8661 68.0042 30.347 68.994C31.8258 69.9843 33.6553 70.448 35.55 70.202C38.6471 69.7964 40.9579 70.2366 43.2733 70.6778C46.5538 71.3035 49.8433 71.931 55.2562 70.4807C60.6691 69.0303 63.205 66.8439 65.7323 64.6599C67.5167 63.1202 69.2958 61.584 72.1829 60.3863C73.9473 59.6539 75.2993 58.3356 76.0849 56.7385C76.8724 55.1409 77.0941 53.2666 76.6007 51.4255L76.6044 51.4245ZM46.8579 59.815C46.8364 60.475 46.2843 60.9902 45.6262 60.9681L33.7548 60.5592C33.0948 60.5376 32.5802 59.9875 32.6017 59.3275C32.6233 58.6675 33.1753 58.1523 33.8334 58.1744L45.7048 58.5833C46.3648 58.6049 46.88 59.157 46.8579 59.815ZM40.0925 52.1621C40.071 52.8221 39.5189 53.3373 38.8609 53.3152L31.7504 53.0699C31.0904 53.0483 30.5753 52.4963 30.5973 51.8382C30.6189 51.1782 31.171 50.6631 31.829 50.6851L38.9415 50.9299C39.5995 50.952 40.1166 51.5035 40.0946 52.1616L40.0925 52.1621ZM42.8449 44.8381C42.8233 45.4981 42.2713 46.0133 41.6132 45.9912L29.7418 45.5823C29.0818 45.5608 28.5666 45.0087 28.5887 44.3506C28.6107 43.6925 29.1623 43.1755 29.8204 43.1975L41.6918 43.6065C42.3518 43.628 42.8669 44.1801 42.8449 44.8381Z" fill="#333333"/>
</svg>
