<svg width="48" height="48" viewBox="0 0 48 48" fill="none" xmlns="http://www.w3.org/2000/svg">
<g id="Illustration Icon">
<path id="Rectangle 4589" d="M1.39512 13.7674C0.780218 9.39208 3.8286 5.34674 8.20388 4.73183L33.9509 1.11333C38.3261 0.498424 42.3715 3.54681 42.9864 7.92209L46.6049 33.6691C47.2198 38.0443 44.1714 42.0897 39.7961 42.7046L14.0492 46.3231C9.67387 46.938 5.62853 43.8896 5.01362 39.5143L1.39512 13.7674Z" fill="#FFAF85"/>
<g id="Vector">
<mask id="path-2-inside-1_36064_5552" fill="white">
<path d="M7.38787 23.5928L10.427 25.3721C10.4514 25.3869 10.4655 25.4131 10.4678 25.4461L10.6148 29.3865C10.6219 29.6208 10.867 30.1915 11.6936 29.5839C12.5674 28.9413 13.4355 28.2929 14.3079 27.6445C14.826 27.2651 15.4308 26.9119 15.9006 26.4655C16.2623 26.1219 16.3402 25.6996 16.451 25.2363C16.751 24.011 16.8688 23.1815 16.9332 22.0249C17.1169 21.9336 17.089 21.9474 17.2459 21.8829C18.4906 26.2496 18.3387 25.3731 19.3776 29.7717L19.3761 29.7717C19.2492 29.7893 19.1553 29.9025 19.1238 30.0268C19.0472 30.3055 19.1531 30.4741 19.8715 33.3007C20.1019 34.1843 21.0454 34.6879 21.9168 34.3944C21.974 34.3754 22.0211 34.3432 22.074 34.3198C23.2308 34.1697 23.8919 33.0087 23.4984 31.9783C22.2798 28.7529 22.3469 28.8964 22.2382 28.7995C22.0222 28.6043 21.8389 28.7545 21.7694 28.8106C21.6823 28.8736 21.7189 28.8657 21.4228 29.0525C20.7616 29.4578 19.9647 29.658 20.1154 29.6164C20.0481 29.6366 19.975 29.651 19.9034 29.6683L18.156 23.6673C17.8931 22.5834 17.8729 22.4997 17.6756 21.7072C18.1743 21.5056 18.677 21.3199 19.1866 21.1501L21.1895 28.0163C21.2127 28.0957 21.2859 28.1474 21.3645 28.1489C21.4896 28.1513 21.582 28.0339 21.5465 27.9139L19.538 21.0345C21.8794 20.2778 24.469 19.7759 27.4537 19.6206L26.4554 26.4424L25.3271 32.7644C25.2712 32.7935 25.2149 32.8471 25.1834 32.8939C25.179 32.8995 25.1788 32.9067 25.1758 32.9124C25.0952 32.8663 25.0376 32.8379 24.9556 32.9369C24.89 33.0204 24.96 32.7861 24.2825 36.3127C24.1254 37.1458 24.6499 37.9474 25.4693 38.1671C26.6521 38.8607 28.0944 38.0911 28.2168 36.7905C28.2222 36.7403 28.485 33.8881 28.4918 33.838C28.4973 33.7763 28.5419 33.6522 28.5252 33.5398C28.4672 33.2241 28.1153 33.2848 28.0279 33.2918C28.0163 33.2916 28.0061 33.2899 27.9959 33.2912L29.4705 23.1846C29.4855 23.0843 29.4145 22.991 29.313 22.9762C29.2099 22.9612 29.1169 23.0313 29.1019 23.1316L27.6207 33.2781C27.5887 33.276 27.5538 33.2768 27.5233 33.2748C27.474 33.2667 27.3287 33.2524 27.3999 33.2609C26.7419 33.1966 26.2658 33.0581 25.8892 32.8929C26.4671 28.9422 26.9478 25.66 27.834 19.5948C28.4602 19.5695 29.0875 19.5614 29.7145 19.572C30.1393 21.0957 30.833 22.5556 31.0712 22.8834C31.0836 22.9167 31.1034 22.9458 31.1336 22.9679C31.2217 23.0745 31.3217 23.1755 31.4525 23.2599C31.9974 23.6051 32.6621 23.8434 33.2432 24.1246C34.2221 24.5988 35.1996 25.0715 36.1786 25.5457C36.4093 25.655 36.7095 25.8604 36.9658 25.6958C37.0292 25.6539 37.0683 25.59 37.0929 25.5187C37.1792 25.4227 37.221 25.2899 37.2004 25.153C36.5899 21.0975 36.5627 21.2275 36.616 21.18C36.6663 21.1364 39.4501 18.7118 39.2739 18.8665C39.5033 18.6655 39.4554 18.281 39.1832 18.1321L35.4133 16.0558C35.5136 15.4572 35.945 13.756 35.9438 11.3914C35.9462 10.6603 35.3978 10.045 34.6674 9.96201C32.8785 9.76103 31.5357 9.6706 30.2548 9.62159C30.0031 9.61532 29.9976 9.98009 30.2404 9.98906C31.5244 10.0381 32.8425 10.1267 34.6241 10.3275C35.1657 10.3896 35.5716 10.8471 35.5699 11.3915C35.571 12.851 35.3993 14.3647 35.0598 15.9025L34.5331 19.0843C34.4903 19.345 34.2868 19.5565 34.0268 19.6119C33.9771 19.6195 33.9217 19.6271 33.9713 19.6194C33.8239 19.6453 33.7389 19.6006 33.6994 19.6084C32.519 19.3962 31.2718 19.253 29.968 19.1734C29.9136 19.1292 29.8352 19.1191 29.7662 19.1508C29.7618 19.1522 29.7603 19.1564 29.7559 19.1578C29.2232 19.1605 26.2988 18.9118 22.3711 19.6021C18.7925 20.2272 16.2051 21.2938 13.0291 23.0126C12.7292 23.1721 12.3513 23.0729 12.1677 22.7849C11.3284 21.3265 10.0101 19.9609 8.63951 15.6306C8.4804 15.1262 8.70323 14.586 9.17205 14.3451C9.47638 14.1828 9.71125 14.0767 9.66127 14.1031C14.8847 11.4855 20.7742 10.0917 27.1677 9.95852C27.2711 9.9562 27.3527 9.87301 27.3503 9.77097C27.3479 9.66893 27.2549 9.58526 27.1602 9.59062C20.7142 9.72543 14.7734 11.1312 9.50154 13.7679C9.28274 13.8715 8.95838 14.0161 8.75741 14.1745C8.72069 14.1925 8.68122 14.2018 8.6459 14.2227C8.22644 14.4689 7.9743 14.9453 7.91419 15.4239C7.82388 16.1864 8.18972 16.9132 8.46021 17.6036C9.0483 19.1074 9.51139 19.9998 9.92253 20.7159L7.32904 22.8582C7.08942 23.0605 7.12572 23.4433 7.38771 23.592L7.38787 23.5928ZM25.5072 33.0841C25.5057 33.0855 25.5042 33.0869 25.5027 33.0883C25.5042 33.0869 25.5042 33.0855 25.5057 33.0826L25.5072 33.0841ZM28.149 33.6505C28.1055 33.8709 28.1512 33.5371 27.8478 36.7577C27.7727 37.5607 27.033 38.1915 26.128 38.0362C25.3553 37.8849 24.8467 37.1684 24.9646 36.4064C25.5477 32.7932 25.4629 33.1924 25.4876 33.1182C25.6521 33.1888 25.8607 33.3135 26.4051 33.459C26.9018 33.582 27.6448 33.6897 28.149 33.6505ZM22.0043 29.0938C22.0352 29.1504 23.1304 32.056 23.1499 32.1052C23.4298 32.8375 23.0231 33.6298 22.3519 33.8769C21.5969 34.1699 20.7388 33.7684 20.5004 32.9953L19.6498 30.2308C19.6333 30.1845 19.6084 30.1165 19.6319 30.1041C19.6771 30.0978 19.7516 30.0848 19.7941 30.0698L19.7955 30.0699C19.7999 30.0699 19.8043 30.0686 19.8087 30.0672L19.813 30.0673C20.7042 29.8833 21.5416 29.4699 22.0043 29.0938ZM34.9001 19.1436L35.3493 16.4415C39.1922 18.5767 39.0363 18.4286 39.046 18.5251C39.0573 18.6201 39.136 18.4607 36.368 20.9029C36.2585 20.9984 36.2046 21.1511 36.2263 21.3067L36.8296 25.2069C36.8361 25.2458 36.821 25.2714 36.7612 25.2831L31.5175 22.7461C32.2856 21.6202 33.0471 20.8376 34.0838 19.9711C34.5441 19.8737 34.8345 19.5317 34.9001 19.1436ZM7.56983 23.1396L10.1116 21.0394C10.7574 22.1119 10.9021 22.2311 11.9821 23.8104C12.2284 24.17 12.7225 24.28 13.1022 24.0575C13.1272 24.0422 13.1595 24.0241 13.186 24.0088C14.0794 24.5431 14.896 25.1392 15.7398 25.9785C10.8141 29.6232 11.0745 29.4659 11.0243 29.442C10.945 29.4045 11.0155 29.4432 10.8409 25.4277C10.835 25.2782 10.7547 25.1416 10.6224 25.0587C10.5735 25.0304 7.37179 23.1546 7.57612 23.2749C7.53292 23.2511 7.52989 23.1733 7.56983 23.1396Z"/>
<path d="M33.6245 36.0182C33.8384 36.0223 33.8878 35.723 33.6853 35.6588C32.9404 35.4233 32.0669 35.1407 31.2294 34.8761C31.1297 34.844 31.0268 34.8981 30.9958 34.9952C30.9648 35.0923 31.0181 35.1953 31.1165 35.2259C32.424 35.6403 33.5765 36.0173 33.6245 36.0182Z"/>
<path d="M34.0797 33.0675C34.0495 32.9707 33.9458 32.9156 33.8463 32.9467C32.9476 33.2196 32.0237 33.4389 31.101 33.5965C30.9988 33.6132 30.9315 33.7081 30.9485 33.809C30.9669 33.9128 31.0661 33.9765 31.1639 33.9597C32.1026 33.7996 33.0425 33.5777 33.9559 33.2993C34.054 33.2667 34.1098 33.1644 34.0797 33.0675Z"/>
<path d="M30.7336 32.729L32.304 31.3527C32.3809 31.2853 32.3875 31.169 32.3192 31.093C32.2508 31.017 32.1345 31.0105 32.0561 31.0779L30.4857 32.4541C30.4088 32.5216 30.4022 32.6378 30.4706 32.7138C30.539 32.7884 30.6567 32.7964 30.7336 32.729Z"/>
<path d="M16.4254 16.9348L15.4167 17.1783C15.2868 17.1988 15.1239 17.1152 15.0218 17.0558C14.2804 16.4109 14.3079 16.4158 14.2487 16.3931C13.8571 16.2476 13.691 16.6366 13.6871 16.6911L13.6032 17.8761L12.5777 18.4626C12.2012 18.6709 12.4313 18.964 12.6161 19.0408L12.9917 19.1831C13.5947 19.4547 13.6855 19.4248 13.7122 19.5474L13.9852 20.791C14.0107 20.905 14.439 21.0281 14.587 20.8226L15.3654 19.9239L15.3733 19.8896L16.6311 20.01C16.8998 20.0382 17.0858 19.7458 16.9432 19.5204L16.2874 18.5123L16.801 17.3772C16.9105 17.1337 16.69 16.8709 16.4254 16.9348ZM15.9439 18.3649C15.9028 18.4604 15.9094 18.5711 15.9644 18.6613L16.5757 19.6369L15.4123 19.5241C15.3092 19.5135 15.2023 19.5516 15.1265 19.6349L14.3658 20.5225L14.1197 19.3958C14.097 19.2905 14.023 19.2043 13.9233 19.1651L12.8446 18.7349L13.8598 18.154C13.9525 18.1012 14.011 18.0103 14.0233 17.8985C14.0808 17.1756 14.1041 16.8744 14.1152 16.7496L14.8022 17.3489C15.2653 17.6322 15.4521 17.5295 15.5014 17.5362L16.4224 17.314L15.9439 18.3649Z"/>
<path d="M28.6181 16.1118L28.9454 16.3436C29.447 16.7454 29.5546 16.7518 29.5493 16.8767L29.4943 18.1484C29.4896 18.2431 29.8703 18.4961 30.0685 18.3303L31.0521 17.6554L31.0672 17.6226L32.2536 18.0534C32.5094 18.1474 32.7599 17.9094 32.6803 17.6579L32.3035 16.5187L33.0919 15.5484C33.2603 15.3404 33.1164 15.0317 32.8444 15.0265C32.8284 15.0262 31.7926 15.0092 31.7751 15.0117C31.6716 15.0212 31.5206 14.9278 31.4533 14.7929C30.9283 14.0229 30.9259 13.9956 30.8756 13.9587C30.5096 13.6974 30.2727 14.0577 30.2558 14.1062L29.8704 15.2323L28.7265 15.5436C28.6402 15.5663 28.2408 15.8287 28.6181 16.1118ZM31.1326 14.9749C31.2405 15.1939 31.5217 15.4033 31.8044 15.3786L32.7413 15.3937L32.011 16.2904C31.9454 16.3739 31.9244 16.4827 31.9545 16.5824L32.2957 17.6793L31.1975 17.2789C31.1007 17.2412 30.9884 17.2534 30.8927 17.3147L29.9296 17.9844L29.9808 16.8332C29.9858 16.7256 29.9368 16.6227 29.8493 16.5592L28.9151 15.8747L30.0458 15.5675C30.1482 15.5393 30.2297 15.4661 30.2695 15.362L30.6527 14.2733L31.1326 14.9749Z"/>
<path d="M24.6107 12.1725L23.7555 12.2235C23.6536 12.2302 23.5748 12.3163 23.5801 12.4184C23.5869 12.5205 23.6742 12.594 23.7776 12.5917L24.6342 12.5421L23.6749 13.9214C23.6075 14.0221 23.592 14.1482 23.6349 14.2611L24.244 15.8099L22.6158 15.352C22.5 15.3181 22.3744 15.3416 22.2696 15.4186L20.9703 16.4739C20.963 16.4752 20.9557 16.4765 20.9484 16.4778L20.8944 14.8176C20.8909 14.694 20.8262 14.5807 20.7212 14.5155L19.2934 13.6204L20.8962 13.0535C21.012 13.0127 21.0981 12.9209 21.1339 12.7981L21.5618 11.206C21.5733 11.2105 21.5892 11.218 21.6079 11.2284L22.3794 12.2029C22.4433 12.2831 22.5594 12.2968 22.6407 12.2337C22.7219 12.1706 22.7358 12.056 22.6718 11.9758C21.8434 10.9371 21.8822 10.9637 21.829 10.931C21.4406 10.6937 21.0746 11.0386 21.0465 11.1372L20.6254 12.7567L19.1662 13.2732C19.1164 13.2909 18.5983 13.6731 18.8614 13.8405L20.2944 14.7658C20.349 14.7999 20.38 14.8565 20.3817 14.9183L20.4376 16.626C20.4451 16.8459 21.0169 16.923 21.1859 16.7625C21.2376 16.7218 22.5928 15.6374 22.51 15.7033L24.1441 16.1628C24.4422 16.249 24.7127 15.9568 24.5973 15.673L23.9824 14.1256L24.9402 12.7476C25.1182 12.4939 24.9167 12.1525 24.6107 12.1725Z"/>
</mask>
<path d="M7.38787 23.5928L10.427 25.3721C10.4514 25.3869 10.4655 25.4131 10.4678 25.4461L10.6148 29.3865C10.6219 29.6208 10.867 30.1915 11.6936 29.5839C12.5674 28.9413 13.4355 28.2929 14.3079 27.6445C14.826 27.2651 15.4308 26.9119 15.9006 26.4655C16.2623 26.1219 16.3402 25.6996 16.451 25.2363C16.751 24.011 16.8688 23.1815 16.9332 22.0249C17.1169 21.9336 17.089 21.9474 17.2459 21.8829C18.4906 26.2496 18.3387 25.3731 19.3776 29.7717L19.3761 29.7717C19.2492 29.7893 19.1553 29.9025 19.1238 30.0268C19.0472 30.3055 19.1531 30.4741 19.8715 33.3007C20.1019 34.1843 21.0454 34.6879 21.9168 34.3944C21.974 34.3754 22.0211 34.3432 22.074 34.3198C23.2308 34.1697 23.8919 33.0087 23.4984 31.9783C22.2798 28.7529 22.3469 28.8964 22.2382 28.7995C22.0222 28.6043 21.8389 28.7545 21.7694 28.8106C21.6823 28.8736 21.7189 28.8657 21.4228 29.0525C20.7616 29.4578 19.9647 29.658 20.1154 29.6164C20.0481 29.6366 19.975 29.651 19.9034 29.6683L18.156 23.6673C17.8931 22.5834 17.8729 22.4997 17.6756 21.7072C18.1743 21.5056 18.677 21.3199 19.1866 21.1501L21.1895 28.0163C21.2127 28.0957 21.2859 28.1474 21.3645 28.1489C21.4896 28.1513 21.582 28.0339 21.5465 27.9139L19.538 21.0345C21.8794 20.2778 24.469 19.7759 27.4537 19.6206L26.4554 26.4424L25.3271 32.7644C25.2712 32.7935 25.2149 32.8471 25.1834 32.8939C25.179 32.8995 25.1788 32.9067 25.1758 32.9124C25.0952 32.8663 25.0376 32.8379 24.9556 32.9369C24.89 33.0204 24.96 32.7861 24.2825 36.3127C24.1254 37.1458 24.6499 37.9474 25.4693 38.1671C26.6521 38.8607 28.0944 38.0911 28.2168 36.7905C28.2222 36.7403 28.485 33.8881 28.4918 33.838C28.4973 33.7763 28.5419 33.6522 28.5252 33.5398C28.4672 33.2241 28.1153 33.2848 28.0279 33.2918C28.0163 33.2916 28.0061 33.2899 27.9959 33.2912L29.4705 23.1846C29.4855 23.0843 29.4145 22.991 29.313 22.9762C29.2099 22.9612 29.1169 23.0313 29.1019 23.1316L27.6207 33.2781C27.5887 33.276 27.5538 33.2768 27.5233 33.2748C27.474 33.2667 27.3287 33.2524 27.3999 33.2609C26.7419 33.1966 26.2658 33.0581 25.8892 32.8929C26.4671 28.9422 26.9478 25.66 27.834 19.5948C28.4602 19.5695 29.0875 19.5614 29.7145 19.572C30.1393 21.0957 30.833 22.5556 31.0712 22.8834C31.0836 22.9167 31.1034 22.9458 31.1336 22.9679C31.2217 23.0745 31.3217 23.1755 31.4525 23.2599C31.9974 23.6051 32.6621 23.8434 33.2432 24.1246C34.2221 24.5988 35.1996 25.0715 36.1786 25.5457C36.4093 25.655 36.7095 25.8604 36.9658 25.6958C37.0292 25.6539 37.0683 25.59 37.0929 25.5187C37.1792 25.4227 37.221 25.2899 37.2004 25.153C36.5899 21.0975 36.5627 21.2275 36.616 21.18C36.6663 21.1364 39.4501 18.7118 39.2739 18.8665C39.5033 18.6655 39.4554 18.281 39.1832 18.1321L35.4133 16.0558C35.5136 15.4572 35.945 13.756 35.9438 11.3914C35.9462 10.6603 35.3978 10.045 34.6674 9.96201C32.8785 9.76103 31.5357 9.6706 30.2548 9.62159C30.0031 9.61532 29.9976 9.98009 30.2404 9.98906C31.5244 10.0381 32.8425 10.1267 34.6241 10.3275C35.1657 10.3896 35.5716 10.8471 35.5699 11.3915C35.571 12.851 35.3993 14.3647 35.0598 15.9025L34.5331 19.0843C34.4903 19.345 34.2868 19.5565 34.0268 19.6119C33.9771 19.6195 33.9217 19.6271 33.9713 19.6194C33.8239 19.6453 33.7389 19.6006 33.6994 19.6084C32.519 19.3962 31.2718 19.253 29.968 19.1734C29.9136 19.1292 29.8352 19.1191 29.7662 19.1508C29.7618 19.1522 29.7603 19.1564 29.7559 19.1578C29.2232 19.1605 26.2988 18.9118 22.3711 19.6021C18.7925 20.2272 16.2051 21.2938 13.0291 23.0126C12.7292 23.1721 12.3513 23.0729 12.1677 22.7849C11.3284 21.3265 10.0101 19.9609 8.63951 15.6306C8.4804 15.1262 8.70323 14.586 9.17205 14.3451C9.47638 14.1828 9.71125 14.0767 9.66127 14.1031C14.8847 11.4855 20.7742 10.0917 27.1677 9.95852C27.2711 9.9562 27.3527 9.87301 27.3503 9.77097C27.3479 9.66893 27.2549 9.58526 27.1602 9.59062C20.7142 9.72543 14.7734 11.1312 9.50154 13.7679C9.28274 13.8715 8.95838 14.0161 8.75741 14.1745C8.72069 14.1925 8.68122 14.2018 8.6459 14.2227C8.22644 14.4689 7.9743 14.9453 7.91419 15.4239C7.82388 16.1864 8.18972 16.9132 8.46021 17.6036C9.0483 19.1074 9.51139 19.9998 9.92253 20.7159L7.32904 22.8582C7.08942 23.0605 7.12572 23.4433 7.38771 23.592L7.38787 23.5928ZM25.5072 33.0841C25.5057 33.0855 25.5042 33.0869 25.5027 33.0883C25.5042 33.0869 25.5042 33.0855 25.5057 33.0826L25.5072 33.0841ZM28.149 33.6505C28.1055 33.8709 28.1512 33.5371 27.8478 36.7577C27.7727 37.5607 27.033 38.1915 26.128 38.0362C25.3553 37.8849 24.8467 37.1684 24.9646 36.4064C25.5477 32.7932 25.4629 33.1924 25.4876 33.1182C25.6521 33.1888 25.8607 33.3135 26.4051 33.459C26.9018 33.582 27.6448 33.6897 28.149 33.6505ZM22.0043 29.0938C22.0352 29.1504 23.1304 32.056 23.1499 32.1052C23.4298 32.8375 23.0231 33.6298 22.3519 33.8769C21.5969 34.1699 20.7388 33.7684 20.5004 32.9953L19.6498 30.2308C19.6333 30.1845 19.6084 30.1165 19.6319 30.1041C19.6771 30.0978 19.7516 30.0848 19.7941 30.0698L19.7955 30.0699C19.7999 30.0699 19.8043 30.0686 19.8087 30.0672L19.813 30.0673C20.7042 29.8833 21.5416 29.4699 22.0043 29.0938ZM34.9001 19.1436L35.3493 16.4415C39.1922 18.5767 39.0363 18.4286 39.046 18.5251C39.0573 18.6201 39.136 18.4607 36.368 20.9029C36.2585 20.9984 36.2046 21.1511 36.2263 21.3067L36.8296 25.2069C36.8361 25.2458 36.821 25.2714 36.7612 25.2831L31.5175 22.7461C32.2856 21.6202 33.0471 20.8376 34.0838 19.9711C34.5441 19.8737 34.8345 19.5317 34.9001 19.1436ZM7.56983 23.1396L10.1116 21.0394C10.7574 22.1119 10.9021 22.2311 11.9821 23.8104C12.2284 24.17 12.7225 24.28 13.1022 24.0575C13.1272 24.0422 13.1595 24.0241 13.186 24.0088C14.0794 24.5431 14.896 25.1392 15.7398 25.9785C10.8141 29.6232 11.0745 29.4659 11.0243 29.442C10.945 29.4045 11.0155 29.4432 10.8409 25.4277C10.835 25.2782 10.7547 25.1416 10.6224 25.0587C10.5735 25.0304 7.37179 23.1546 7.57612 23.2749C7.53292 23.2511 7.52989 23.1733 7.56983 23.1396Z" fill="#333333"/>
<path d="M33.6245 36.0182C33.8384 36.0223 33.8878 35.723 33.6853 35.6588C32.9404 35.4233 32.0669 35.1407 31.2294 34.8761C31.1297 34.844 31.0268 34.8981 30.9958 34.9952C30.9648 35.0923 31.0181 35.1953 31.1165 35.2259C32.424 35.6403 33.5765 36.0173 33.6245 36.0182Z" fill="#333333"/>
<path d="M34.0797 33.0675C34.0495 32.9707 33.9458 32.9156 33.8463 32.9467C32.9476 33.2196 32.0237 33.4389 31.101 33.5965C30.9988 33.6132 30.9315 33.7081 30.9485 33.809C30.9669 33.9128 31.0661 33.9765 31.1639 33.9597C32.1026 33.7996 33.0425 33.5777 33.9559 33.2993C34.054 33.2667 34.1098 33.1644 34.0797 33.0675Z" fill="#333333"/>
<path d="M30.7336 32.729L32.304 31.3527C32.3809 31.2853 32.3875 31.169 32.3192 31.093C32.2508 31.017 32.1345 31.0105 32.0561 31.0779L30.4857 32.4541C30.4088 32.5216 30.4022 32.6378 30.4706 32.7138C30.539 32.7884 30.6567 32.7964 30.7336 32.729Z" fill="#333333"/>
<path d="M16.4254 16.9348L15.4167 17.1783C15.2868 17.1988 15.1239 17.1152 15.0218 17.0558C14.2804 16.4109 14.3079 16.4158 14.2487 16.3931C13.8571 16.2476 13.691 16.6366 13.6871 16.6911L13.6032 17.8761L12.5777 18.4626C12.2012 18.6709 12.4313 18.964 12.6161 19.0408L12.9917 19.1831C13.5947 19.4547 13.6855 19.4248 13.7122 19.5474L13.9852 20.791C14.0107 20.905 14.439 21.0281 14.587 20.8226L15.3654 19.9239L15.3733 19.8896L16.6311 20.01C16.8998 20.0382 17.0858 19.7458 16.9432 19.5204L16.2874 18.5123L16.801 17.3772C16.9105 17.1337 16.69 16.8709 16.4254 16.9348ZM15.9439 18.3649C15.9028 18.4604 15.9094 18.5711 15.9644 18.6613L16.5757 19.6369L15.4123 19.5241C15.3092 19.5135 15.2023 19.5516 15.1265 19.6349L14.3658 20.5225L14.1197 19.3958C14.097 19.2905 14.023 19.2043 13.9233 19.1651L12.8446 18.7349L13.8598 18.154C13.9525 18.1012 14.011 18.0103 14.0233 17.8985C14.0808 17.1756 14.1041 16.8744 14.1152 16.7496L14.8022 17.3489C15.2653 17.6322 15.4521 17.5295 15.5014 17.5362L16.4224 17.314L15.9439 18.3649Z" fill="#333333"/>
<path d="M28.6181 16.1118L28.9454 16.3436C29.447 16.7454 29.5546 16.7518 29.5493 16.8767L29.4943 18.1484C29.4896 18.2431 29.8703 18.4961 30.0685 18.3303L31.0521 17.6554L31.0672 17.6226L32.2536 18.0534C32.5094 18.1474 32.7599 17.9094 32.6803 17.6579L32.3035 16.5187L33.0919 15.5484C33.2603 15.3404 33.1164 15.0317 32.8444 15.0265C32.8284 15.0262 31.7926 15.0092 31.7751 15.0117C31.6716 15.0212 31.5206 14.9278 31.4533 14.7929C30.9283 14.0229 30.9259 13.9956 30.8756 13.9587C30.5096 13.6974 30.2727 14.0577 30.2558 14.1062L29.8704 15.2323L28.7265 15.5436C28.6402 15.5663 28.2408 15.8287 28.6181 16.1118ZM31.1326 14.9749C31.2405 15.1939 31.5217 15.4033 31.8044 15.3786L32.7413 15.3937L32.011 16.2904C31.9454 16.3739 31.9244 16.4827 31.9545 16.5824L32.2957 17.6793L31.1975 17.2789C31.1007 17.2412 30.9884 17.2534 30.8927 17.3147L29.9296 17.9844L29.9808 16.8332C29.9858 16.7256 29.9368 16.6227 29.8493 16.5592L28.9151 15.8747L30.0458 15.5675C30.1482 15.5393 30.2297 15.4661 30.2695 15.362L30.6527 14.2733L31.1326 14.9749Z" fill="#333333"/>
<path d="M24.6107 12.1725L23.7555 12.2235C23.6536 12.2302 23.5748 12.3163 23.5801 12.4184C23.5869 12.5205 23.6742 12.594 23.7776 12.5917L24.6342 12.5421L23.6749 13.9214C23.6075 14.0221 23.592 14.1482 23.6349 14.2611L24.244 15.8099L22.6158 15.352C22.5 15.3181 22.3744 15.3416 22.2696 15.4186L20.9703 16.4739C20.963 16.4752 20.9557 16.4765 20.9484 16.4778L20.8944 14.8176C20.8909 14.694 20.8262 14.5807 20.7212 14.5155L19.2934 13.6204L20.8962 13.0535C21.012 13.0127 21.0981 12.9209 21.1339 12.7981L21.5618 11.206C21.5733 11.2105 21.5892 11.218 21.6079 11.2284L22.3794 12.2029C22.4433 12.2831 22.5594 12.2968 22.6407 12.2337C22.7219 12.1706 22.7358 12.056 22.6718 11.9758C21.8434 10.9371 21.8822 10.9637 21.829 10.931C21.4406 10.6937 21.0746 11.0386 21.0465 11.1372L20.6254 12.7567L19.1662 13.2732C19.1164 13.2909 18.5983 13.6731 18.8614 13.8405L20.2944 14.7658C20.349 14.7999 20.38 14.8565 20.3817 14.9183L20.4376 16.626C20.4451 16.8459 21.0169 16.923 21.1859 16.7625C21.2376 16.7218 22.5928 15.6374 22.51 15.7033L24.1441 16.1628C24.4422 16.249 24.7127 15.9568 24.5973 15.673L23.9824 14.1256L24.9402 12.7476C25.1182 12.4939 24.9167 12.1525 24.6107 12.1725Z" fill="#333333"/>
<path d="M7.38787 23.5928L10.427 25.3721C10.4514 25.3869 10.4655 25.4131 10.4678 25.4461L10.6148 29.3865C10.6219 29.6208 10.867 30.1915 11.6936 29.5839C12.5674 28.9413 13.4355 28.2929 14.3079 27.6445C14.826 27.2651 15.4308 26.9119 15.9006 26.4655C16.2623 26.1219 16.3402 25.6996 16.451 25.2363C16.751 24.011 16.8688 23.1815 16.9332 22.0249C17.1169 21.9336 17.089 21.9474 17.2459 21.8829C18.4906 26.2496 18.3387 25.3731 19.3776 29.7717L19.3761 29.7717C19.2492 29.7893 19.1553 29.9025 19.1238 30.0268C19.0472 30.3055 19.1531 30.4741 19.8715 33.3007C20.1019 34.1843 21.0454 34.6879 21.9168 34.3944C21.974 34.3754 22.0211 34.3432 22.074 34.3198C23.2308 34.1697 23.8919 33.0087 23.4984 31.9783C22.2798 28.7529 22.3469 28.8964 22.2382 28.7995C22.0222 28.6043 21.8389 28.7545 21.7694 28.8106C21.6823 28.8736 21.7189 28.8657 21.4228 29.0525C20.7616 29.4578 19.9647 29.658 20.1154 29.6164C20.0481 29.6366 19.975 29.651 19.9034 29.6683L18.156 23.6673C17.8931 22.5834 17.8729 22.4997 17.6756 21.7072C18.1743 21.5056 18.677 21.3199 19.1866 21.1501L21.1895 28.0163C21.2127 28.0957 21.2859 28.1474 21.3645 28.1489C21.4896 28.1513 21.582 28.0339 21.5465 27.9139L19.538 21.0345C21.8794 20.2778 24.469 19.7759 27.4537 19.6206L26.4554 26.4424L25.3271 32.7644C25.2712 32.7935 25.2149 32.8471 25.1834 32.8939C25.179 32.8995 25.1788 32.9067 25.1758 32.9124C25.0952 32.8663 25.0376 32.8379 24.9556 32.9369C24.89 33.0204 24.96 32.7861 24.2825 36.3127C24.1254 37.1458 24.6499 37.9474 25.4693 38.1671C26.6521 38.8607 28.0944 38.0911 28.2168 36.7905C28.2222 36.7403 28.485 33.8881 28.4918 33.838C28.4973 33.7763 28.5419 33.6522 28.5252 33.5398C28.4672 33.2241 28.1153 33.2848 28.0279 33.2918C28.0163 33.2916 28.0061 33.2899 27.9959 33.2912L29.4705 23.1846C29.4855 23.0843 29.4145 22.991 29.313 22.9762C29.2099 22.9612 29.1169 23.0313 29.1019 23.1316L27.6207 33.2781C27.5887 33.276 27.5538 33.2768 27.5233 33.2748C27.474 33.2667 27.3287 33.2524 27.3999 33.2609C26.7419 33.1966 26.2658 33.0581 25.8892 32.8929C26.4671 28.9422 26.9478 25.66 27.834 19.5948C28.4602 19.5695 29.0875 19.5614 29.7145 19.572C30.1393 21.0957 30.833 22.5556 31.0712 22.8834C31.0836 22.9167 31.1034 22.9458 31.1336 22.9679C31.2217 23.0745 31.3217 23.1755 31.4525 23.2599C31.9974 23.6051 32.6621 23.8434 33.2432 24.1246C34.2221 24.5988 35.1996 25.0715 36.1786 25.5457C36.4093 25.655 36.7095 25.8604 36.9658 25.6958C37.0292 25.6539 37.0683 25.59 37.0929 25.5187C37.1792 25.4227 37.221 25.2899 37.2004 25.153C36.5899 21.0975 36.5627 21.2275 36.616 21.18C36.6663 21.1364 39.4501 18.7118 39.2739 18.8665C39.5033 18.6655 39.4554 18.281 39.1832 18.1321L35.4133 16.0558C35.5136 15.4572 35.945 13.756 35.9438 11.3914C35.9462 10.6603 35.3978 10.045 34.6674 9.96201C32.8785 9.76103 31.5357 9.6706 30.2548 9.62159C30.0031 9.61532 29.9976 9.98009 30.2404 9.98906C31.5244 10.0381 32.8425 10.1267 34.6241 10.3275C35.1657 10.3896 35.5716 10.8471 35.5699 11.3915C35.571 12.851 35.3993 14.3647 35.0598 15.9025L34.5331 19.0843C34.4903 19.345 34.2868 19.5565 34.0268 19.6119C33.9771 19.6195 33.9217 19.6271 33.9713 19.6194C33.8239 19.6453 33.7389 19.6006 33.6994 19.6084C32.519 19.3962 31.2718 19.253 29.968 19.1734C29.9136 19.1292 29.8352 19.1191 29.7662 19.1508C29.7618 19.1522 29.7603 19.1564 29.7559 19.1578C29.2232 19.1605 26.2988 18.9118 22.3711 19.6021C18.7925 20.2272 16.2051 21.2938 13.0291 23.0126C12.7292 23.1721 12.3513 23.0729 12.1677 22.7849C11.3284 21.3265 10.0101 19.9609 8.63951 15.6306C8.4804 15.1262 8.70323 14.586 9.17205 14.3451C9.47638 14.1828 9.71125 14.0767 9.66127 14.1031C14.8847 11.4855 20.7742 10.0917 27.1677 9.95852C27.2711 9.9562 27.3527 9.87301 27.3503 9.77097C27.3479 9.66893 27.2549 9.58526 27.1602 9.59062C20.7142 9.72543 14.7734 11.1312 9.50154 13.7679C9.28274 13.8715 8.95838 14.0161 8.75741 14.1745C8.72069 14.1925 8.68122 14.2018 8.6459 14.2227C8.22644 14.4689 7.9743 14.9453 7.91419 15.4239C7.82388 16.1864 8.18972 16.9132 8.46021 17.6036C9.0483 19.1074 9.51139 19.9998 9.92253 20.7159L7.32904 22.8582C7.08942 23.0605 7.12572 23.4433 7.38771 23.592L7.38787 23.5928ZM25.5072 33.0841C25.5057 33.0855 25.5042 33.0869 25.5027 33.0883C25.5042 33.0869 25.5042 33.0855 25.5057 33.0826L25.5072 33.0841ZM28.149 33.6505C28.1055 33.8709 28.1512 33.5371 27.8478 36.7577C27.7727 37.5607 27.033 38.1915 26.128 38.0362C25.3553 37.8849 24.8467 37.1684 24.9646 36.4064C25.5477 32.7932 25.4629 33.1924 25.4876 33.1182C25.6521 33.1888 25.8607 33.3135 26.4051 33.459C26.9018 33.582 27.6448 33.6897 28.149 33.6505ZM22.0043 29.0938C22.0352 29.1504 23.1304 32.056 23.1499 32.1052C23.4298 32.8375 23.0231 33.6298 22.3519 33.8769C21.5969 34.1699 20.7388 33.7684 20.5004 32.9953L19.6498 30.2308C19.6333 30.1845 19.6084 30.1165 19.6319 30.1041C19.6771 30.0978 19.7516 30.0848 19.7941 30.0698L19.7955 30.0699C19.7999 30.0699 19.8043 30.0686 19.8087 30.0672L19.813 30.0673C20.7042 29.8833 21.5416 29.4699 22.0043 29.0938ZM34.9001 19.1436L35.3493 16.4415C39.1922 18.5767 39.0363 18.4286 39.046 18.5251C39.0573 18.6201 39.136 18.4607 36.368 20.9029C36.2585 20.9984 36.2046 21.1511 36.2263 21.3067L36.8296 25.2069C36.8361 25.2458 36.821 25.2714 36.7612 25.2831L31.5175 22.7461C32.2856 21.6202 33.0471 20.8376 34.0838 19.9711C34.5441 19.8737 34.8345 19.5317 34.9001 19.1436ZM7.56983 23.1396L10.1116 21.0394C10.7574 22.1119 10.9021 22.2311 11.9821 23.8104C12.2284 24.17 12.7225 24.28 13.1022 24.0575C13.1272 24.0422 13.1595 24.0241 13.186 24.0088C14.0794 24.5431 14.896 25.1392 15.7398 25.9785C10.8141 29.6232 11.0745 29.4659 11.0243 29.442C10.945 29.4045 11.0155 29.4432 10.8409 25.4277C10.835 25.2782 10.7547 25.1416 10.6224 25.0587C10.5735 25.0304 7.37179 23.1546 7.57612 23.2749C7.53292 23.2511 7.52989 23.1733 7.56983 23.1396Z" stroke="#333333" stroke-width="2.5" mask="url(#path-2-inside-1_36064_5552)"/>
<path d="M33.6245 36.0182C33.8384 36.0223 33.8878 35.723 33.6853 35.6588C32.9404 35.4233 32.0669 35.1407 31.2294 34.8761C31.1297 34.844 31.0268 34.8981 30.9958 34.9952C30.9648 35.0923 31.0181 35.1953 31.1165 35.2259C32.424 35.6403 33.5765 36.0173 33.6245 36.0182Z" stroke="#333333" stroke-width="2.5" mask="url(#path-2-inside-1_36064_5552)"/>
<path d="M34.0797 33.0675C34.0495 32.9707 33.9458 32.9156 33.8463 32.9467C32.9476 33.2196 32.0237 33.4389 31.101 33.5965C30.9988 33.6132 30.9315 33.7081 30.9485 33.809C30.9669 33.9128 31.0661 33.9765 31.1639 33.9597C32.1026 33.7996 33.0425 33.5777 33.9559 33.2993C34.054 33.2667 34.1098 33.1644 34.0797 33.0675Z" stroke="#333333" stroke-width="2.5" mask="url(#path-2-inside-1_36064_5552)"/>
<path d="M30.7336 32.729L32.304 31.3527C32.3809 31.2853 32.3875 31.169 32.3192 31.093C32.2508 31.017 32.1345 31.0105 32.0561 31.0779L30.4857 32.4541C30.4088 32.5216 30.4022 32.6378 30.4706 32.7138C30.539 32.7884 30.6567 32.7964 30.7336 32.729Z" stroke="#333333" stroke-width="2.5" mask="url(#path-2-inside-1_36064_5552)"/>
<path d="M16.4254 16.9348L15.4167 17.1783C15.2868 17.1988 15.1239 17.1152 15.0218 17.0558C14.2804 16.4109 14.3079 16.4158 14.2487 16.3931C13.8571 16.2476 13.691 16.6366 13.6871 16.6911L13.6032 17.8761L12.5777 18.4626C12.2012 18.6709 12.4313 18.964 12.6161 19.0408L12.9917 19.1831C13.5947 19.4547 13.6855 19.4248 13.7122 19.5474L13.9852 20.791C14.0107 20.905 14.439 21.0281 14.587 20.8226L15.3654 19.9239L15.3733 19.8896L16.6311 20.01C16.8998 20.0382 17.0858 19.7458 16.9432 19.5204L16.2874 18.5123L16.801 17.3772C16.9105 17.1337 16.69 16.8709 16.4254 16.9348ZM15.9439 18.3649C15.9028 18.4604 15.9094 18.5711 15.9644 18.6613L16.5757 19.6369L15.4123 19.5241C15.3092 19.5135 15.2023 19.5516 15.1265 19.6349L14.3658 20.5225L14.1197 19.3958C14.097 19.2905 14.023 19.2043 13.9233 19.1651L12.8446 18.7349L13.8598 18.154C13.9525 18.1012 14.011 18.0103 14.0233 17.8985C14.0808 17.1756 14.1041 16.8744 14.1152 16.7496L14.8022 17.3489C15.2653 17.6322 15.4521 17.5295 15.5014 17.5362L16.4224 17.314L15.9439 18.3649Z" stroke="#333333" stroke-width="2.5" mask="url(#path-2-inside-1_36064_5552)"/>
<path d="M28.6181 16.1118L28.9454 16.3436C29.447 16.7454 29.5546 16.7518 29.5493 16.8767L29.4943 18.1484C29.4896 18.2431 29.8703 18.4961 30.0685 18.3303L31.0521 17.6554L31.0672 17.6226L32.2536 18.0534C32.5094 18.1474 32.7599 17.9094 32.6803 17.6579L32.3035 16.5187L33.0919 15.5484C33.2603 15.3404 33.1164 15.0317 32.8444 15.0265C32.8284 15.0262 31.7926 15.0092 31.7751 15.0117C31.6716 15.0212 31.5206 14.9278 31.4533 14.7929C30.9283 14.0229 30.9259 13.9956 30.8756 13.9587C30.5096 13.6974 30.2727 14.0577 30.2558 14.1062L29.8704 15.2323L28.7265 15.5436C28.6402 15.5663 28.2408 15.8287 28.6181 16.1118ZM31.1326 14.9749C31.2405 15.1939 31.5217 15.4033 31.8044 15.3786L32.7413 15.3937L32.011 16.2904C31.9454 16.3739 31.9244 16.4827 31.9545 16.5824L32.2957 17.6793L31.1975 17.2789C31.1007 17.2412 30.9884 17.2534 30.8927 17.3147L29.9296 17.9844L29.9808 16.8332C29.9858 16.7256 29.9368 16.6227 29.8493 16.5592L28.9151 15.8747L30.0458 15.5675C30.1482 15.5393 30.2297 15.4661 30.2695 15.362L30.6527 14.2733L31.1326 14.9749Z" stroke="#333333" stroke-width="2.5" mask="url(#path-2-inside-1_36064_5552)"/>
<path d="M24.6107 12.1725L23.7555 12.2235C23.6536 12.2302 23.5748 12.3163 23.5801 12.4184C23.5869 12.5205 23.6742 12.594 23.7776 12.5917L24.6342 12.5421L23.6749 13.9214C23.6075 14.0221 23.592 14.1482 23.6349 14.2611L24.244 15.8099L22.6158 15.352C22.5 15.3181 22.3744 15.3416 22.2696 15.4186L20.9703 16.4739C20.963 16.4752 20.9557 16.4765 20.9484 16.4778L20.8944 14.8176C20.8909 14.694 20.8262 14.5807 20.7212 14.5155L19.2934 13.6204L20.8962 13.0535C21.012 13.0127 21.0981 12.9209 21.1339 12.7981L21.5618 11.206C21.5733 11.2105 21.5892 11.218 21.6079 11.2284L22.3794 12.2029C22.4433 12.2831 22.5594 12.2968 22.6407 12.2337C22.7219 12.1706 22.7358 12.056 22.6718 11.9758C21.8434 10.9371 21.8822 10.9637 21.829 10.931C21.4406 10.6937 21.0746 11.0386 21.0465 11.1372L20.6254 12.7567L19.1662 13.2732C19.1164 13.2909 18.5983 13.6731 18.8614 13.8405L20.2944 14.7658C20.349 14.7999 20.38 14.8565 20.3817 14.9183L20.4376 16.626C20.4451 16.8459 21.0169 16.923 21.1859 16.7625C21.2376 16.7218 22.5928 15.6374 22.51 15.7033L24.1441 16.1628C24.4422 16.249 24.7127 15.9568 24.5973 15.673L23.9824 14.1256L24.9402 12.7476C25.1182 12.4939 24.9167 12.1525 24.6107 12.1725Z" stroke="#333333" stroke-width="2.5" mask="url(#path-2-inside-1_36064_5552)"/>
</g>
</g>
</svg>
