<svg width="48" height="48" viewBox="0 0 48 48" fill="none" xmlns="http://www.w3.org/2000/svg">
<path d="M1.11338 13.7674C0.498479 9.39208 3.54687 5.34674 7.92214 4.73183L33.6691 1.11333C38.0444 0.498424 42.0897 3.54681 42.7046 7.92209L46.3231 33.6691C46.938 38.0443 43.8897 42.0897 39.5144 42.7046L13.7674 46.3231C9.39213 46.938 5.34679 43.8896 4.73189 39.5143L1.11338 13.7674Z" fill="#C5D7E3"/>
<g clip-path="url(#clip0_36390_5233)">
<path d="M11.0074 15.7766C9.99056 15.9559 9.30095 16.9408 9.48024 17.9576L12.1064 32.851C12.1236 32.9024 12.1579 32.989 12.2115 33.0612L12.2329 33.0901L13.1341 34.3092C13.7343 35.1183 14.7416 35.5181 15.732 35.3434L34.2808 32.0728C35.2712 31.8981 36.081 31.178 36.3683 30.2124L36.8111 28.7236C36.8363 28.6348 36.8411 28.5386 36.8349 28.488L34.2097 13.5998C34.0352 12.5794 33.0477 11.8903 32.0309 12.0696L24.6119 13.3777C23.323 13.605 22.3021 14.4713 21.813 15.5896C20.9709 14.706 19.7152 14.2412 18.429 14.468L11.0074 15.7766ZM13.1184 20.505L19.3013 19.4148C19.642 19.3547 19.9677 19.5805 20.0283 19.9239C20.0888 20.2672 19.8599 20.5908 19.5192 20.6509L13.3363 21.7411C12.9956 21.8012 12.6694 21.5727 12.6093 21.232C12.5492 20.8913 12.775 20.5656 13.1184 20.505ZM25.4842 18.3246L31.6671 17.2344C32.0078 17.1743 32.3336 17.4001 32.3941 17.7434C32.4546 18.0868 32.2284 18.4099 31.885 18.4704L25.7021 19.5607C25.3614 19.6207 25.0352 19.3923 24.9751 19.0516C24.9151 18.7109 25.1435 18.3847 25.4842 18.3246ZM13.7727 24.2158L19.9556 23.1256C20.2963 23.0655 20.622 23.2913 20.6826 23.6347C20.7431 23.978 20.5142 24.3016 20.1735 24.3617L13.9906 25.4519C13.6499 25.512 13.3237 25.2835 13.2636 24.9428C13.2035 24.6021 13.4293 24.2764 13.7727 24.2158ZM26.1385 22.0354L32.3214 20.9452C32.6621 20.8851 32.9883 21.1135 33.0484 21.4542C33.1085 21.795 32.8801 22.1212 32.5394 22.1812L26.3564 23.2715C26.0157 23.3315 25.6895 23.1031 25.6294 22.7624C25.5694 22.4217 25.7978 22.0955 26.1385 22.0354ZM14.4265 27.924L20.6094 26.8338C20.9501 26.7737 21.2759 26.9995 21.3364 27.3428C21.397 27.6862 21.1681 28.0098 20.8274 28.0698L14.6445 29.1601C14.3038 29.2201 13.9775 28.9917 13.9175 28.651C13.8574 28.3103 14.0832 27.9845 14.4265 27.924ZM26.7923 25.7436L32.9753 24.6534C33.316 24.5933 33.6422 24.8217 33.7023 25.1624C33.7623 25.5031 33.5339 25.8293 33.1932 25.8894L27.0103 26.9796C26.6696 27.0397 26.3434 26.8113 26.2833 26.4706C26.2232 26.1299 26.4516 25.8036 26.7923 25.7436ZM13.825 33.1307L22.7178 31.5627C23.4071 31.4411 24.0502 31.8915 24.1718 32.5808L15.5167 34.1069C14.9912 34.1996 14.4641 33.9902 14.1461 33.5616L13.825 33.1307ZM26.4286 30.9084L35.3213 29.3404L35.1669 29.855C35.0148 30.3666 34.5884 30.7441 34.0655 30.8363L25.4078 32.3628C25.2863 31.6735 25.7366 31.0304 26.4259 30.9088L26.4286 30.9084Z" fill="#333333"/>
</g>
<defs>
<clipPath id="clip0_36390_5233">
<rect width="25.1159" height="20.09" fill="white" transform="translate(9.15332 16.1035) rotate(-10)"/>
</clipPath>
</defs>
</svg>
