<svg width="98" height="98" viewBox="0 0 98 98" fill="none" xmlns="http://www.w3.org/2000/svg">
<path d="M2.07055 28.4432C0.927018 24.1755 3.45968 19.7888 7.72741 18.6453L69.5467 2.08085C73.8144 0.937316 78.2011 3.46997 79.3446 7.7377L95.909 69.557C97.0526 73.8247 94.5199 78.2114 90.2522 79.3549L28.4329 95.9193C24.1652 97.0629 19.7785 94.5302 18.635 90.2625L2.07055 28.4432Z" fill="#FFDECC"/>
<path d="M69.8485 25.3785C69.4229 25.4877 68.995 25.5976 68.5693 25.7068C68.403 25.1582 68.2345 24.6102 68.0653 24.0599L68.063 24.0606C67.8823 23.4697 67.2716 23.1186 66.6661 23.2571C58.8281 25.1022 51.2854 28.0332 44.2567 31.9632C36.2152 32.3322 28.2631 33.8214 20.6313 36.3893C20.0485 36.5898 19.7159 37.205 19.8673 37.8043C20.0122 38.3639 20.1559 38.919 20.3025 39.4757C19.881 39.6081 19.4641 39.7393 19.0426 39.8717L19.0449 39.8711C17.7837 40.2797 17.0467 41.5843 17.3492 42.8758C19.7883 53.1384 22.7192 63.4127 26.0618 73.4176C26.4862 74.6743 27.8012 75.396 29.0875 75.0755C37.5831 72.9158 46.1052 70.6166 54.5925 68.1955C63.0798 65.7744 71.5324 63.2312 79.8888 60.5836C81.1506 60.1772 81.8892 58.8697 81.5867 57.5782C79.1431 47.3169 76.2122 37.0426 72.8741 27.0364C72.4526 25.7813 71.1355 25.0602 69.8485 25.3785ZM62.6162 25.287L62.5801 25.3657L62.5807 25.368C62.5449 25.4393 62.5419 25.5232 62.5684 25.5987C62.5948 25.6742 62.6538 25.7356 62.7267 25.7685C62.7996 25.8015 62.8851 25.8015 62.9594 25.7705C63.033 25.7373 63.0914 25.6767 63.1192 25.6028L63.3472 25.0834L63.9345 24.9159L63.6135 25.4862C63.5554 25.5907 63.5654 25.7198 63.6379 25.8115C63.7134 25.9048 63.835 25.9458 63.9502 25.9129C64.0248 25.8917 64.0887 25.8417 64.1252 25.7727L64.7194 24.7042C64.9656 24.6339 65.2144 24.5727 65.4655 24.5109L65.0037 25.3413L65.003 25.339C64.9449 25.4436 64.9571 25.572 65.0303 25.6659C65.1029 25.7576 65.2268 25.798 65.3397 25.7658C65.4143 25.7445 65.4782 25.6945 65.5147 25.6255L66.2412 24.3189C66.4494 24.2693 66.6563 24.2152 66.8667 24.1649L65.7932 26.1054C65.7568 26.1745 65.7458 26.2558 65.767 26.3303C65.7883 26.4049 65.8405 26.4681 65.9073 26.5053C65.9747 26.5447 66.0554 26.5534 66.13 26.5322C66.2045 26.5109 66.2684 26.4609 66.3049 26.3919L67.2678 24.6637L67.4812 25.3601L66.6635 26.827C66.5873 26.9709 66.6376 27.1471 66.7776 27.2269C66.9198 27.306 67.1006 27.2544 67.1797 27.1122L67.7199 26.1372L67.8901 26.6994L67.1884 27.9647C67.1325 28.0685 67.1425 28.1976 67.215 28.2893C67.2905 28.3826 67.4115 28.4213 67.5251 28.3914C67.6019 28.3695 67.6635 28.3201 67.7 28.2511L68.1263 27.4846C68.1752 27.6563 68.23 27.8312 68.2842 28.0039L67.8137 28.8465L67.8159 28.8459C67.7368 28.9881 67.7877 29.1666 67.93 29.2457C68.0723 29.3248 68.2507 29.2739 68.3298 29.1316L68.5236 28.7832C70.8198 36.4044 72.911 43.7007 74.7558 50.5789L74.4132 50.3883L74.4116 50.3912C74.27 50.3144 74.0944 50.3669 74.0169 50.5063C73.94 50.6479 73.9903 50.8241 74.1274 50.9022L74.9665 51.3689L75.1028 51.8894L74.3421 51.4664C74.2011 51.3918 74.0249 51.4421 73.9474 51.5814C73.8677 51.7214 73.9179 51.8976 74.0557 51.978L75.31 52.6755L75.462 53.2429L74.4981 52.7068L74.4958 52.7075C74.3548 52.6329 74.1793 52.6854 74.1018 52.8248C74.0249 52.9664 74.0752 53.1426 74.2129 53.223L75.6646 54.0303C75.7265 54.2643 75.7884 54.4982 75.8486 54.7351L74.1356 53.7824L74.132 53.7786C74.0646 53.7392 73.9839 53.7304 73.9087 53.7494C73.8319 53.7714 73.768 53.8213 73.7293 53.891C73.6899 53.9584 73.6818 54.0414 73.703 54.1159C73.7272 54.1921 73.7772 54.256 73.8485 54.2918L75.8648 55.4169C75.8386 55.4366 75.8105 55.4495 75.7783 55.4563C75.5882 55.5007 75.3987 55.5474 75.2064 55.5925L73.8708 54.8498C73.7292 54.7729 73.5536 54.8255 73.4761 54.9648C73.3964 55.1048 73.4466 55.281 73.5844 55.3614L74.3625 55.7942C74.1024 55.8586 73.8413 55.9282 73.5796 55.9955L72.6098 55.4562L72.6127 55.4579C72.4705 55.3787 72.292 55.4297 72.2129 55.5719C72.1331 55.7119 72.1847 55.8927 72.3263 55.9695L72.7618 56.2117L72.1835 56.3767L71.8435 56.1439L71.8464 56.1455C71.7245 56.0606 71.5592 56.0808 71.4614 56.1918C71.3636 56.3028 71.3622 56.4693 71.46 56.5806C65.347 58.3587 59.4508 60.8199 53.8871 63.9143C52.9522 60.3286 52.026 56.8676 51.1054 53.5293L50.8476 52.6256C50.2777 50.5677 49.709 48.5484 49.1386 46.5661C47.7466 41.7208 46.3598 37.099 44.9595 32.6612L44.9588 32.6589C50.5519 29.5561 56.4717 27.0832 62.6123 25.29L62.6162 25.287ZM21.9787 42.1122L22.3213 42.3027L22.322 42.3049C22.3888 42.3421 22.4678 42.3537 22.5424 42.3325C22.6169 42.3112 22.6808 42.2612 22.718 42.1944C22.7567 42.1247 22.7655 42.0441 22.7442 41.9695C22.7229 41.895 22.6729 41.8311 22.6039 41.7946L21.7683 41.3318L21.6292 40.8097L22.3869 41.2311L22.3892 41.2304C22.5279 41.3057 22.7041 41.2554 22.7839 41.1154C22.8614 40.976 22.8134 40.7992 22.6727 40.7172L21.4242 40.0229C21.3707 39.8354 21.3263 39.6453 21.2744 39.4549L22.2326 39.9877C22.3 40.0271 22.3813 40.0381 22.4581 40.0162C22.5333 39.9972 22.5988 39.9443 22.636 39.8775C22.6747 39.8079 22.6835 39.7272 22.6616 39.6504C22.6403 39.5758 22.5881 39.5126 22.519 39.4761L21.0673 38.6688C21.0009 38.4361 20.9459 38.2002 20.8863 37.9656L22.5935 38.915L22.5906 38.9134C22.658 38.9528 22.7387 38.9615 22.8126 38.938C22.9285 38.9074 23.0101 38.8084 23.025 38.6893C23.0383 38.5732 22.9787 38.4583 22.8764 38.3995L20.891 37.2973C20.9062 37.2906 20.9191 37.2844 20.9349 37.2799C21.1221 37.2168 21.3106 37.1581 21.4933 37.0962L22.8508 37.8473C22.993 37.9265 23.1715 37.8756 23.2506 37.7333C23.3297 37.591 23.2788 37.4126 23.1366 37.3334L22.2568 36.8442C22.5005 36.7649 22.7454 36.6902 22.9903 36.6154L24.1146 37.2425C24.182 37.2819 24.2627 37.2907 24.3372 37.2694C24.4502 37.2372 24.5341 37.1375 24.5474 37.0213C24.56 36.9029 24.5026 36.7874 24.3988 36.7315L23.7674 36.3766L24.3638 36.2065L24.8828 36.5617C25.0186 36.6524 25.2 36.6202 25.2914 36.4866C25.3388 36.4218 25.355 36.3415 25.3399 36.2627C25.3254 36.1862 25.2815 36.1181 25.2151 36.0736L25.0925 35.9864C31.2779 34.2561 37.6373 33.2237 44.0524 32.9059C45.4613 37.3652 46.8502 41.9768 48.2335 46.8003C48.7767 48.7047 49.3251 50.6442 49.8749 52.6227L49.9013 52.7153L50.0817 53.3479C50.1352 53.5354 50.1887 53.7229 50.2383 53.9139L50.2847 54.0766C51.1798 57.3341 52.0783 60.6979 52.982 64.1655L52.9791 64.1639C46.7232 64.4656 40.5183 65.4588 34.4797 67.1204L34.5691 66.963L34.5675 66.9659C34.6466 66.8236 34.5951 66.6429 34.4534 66.566C34.3134 66.4863 34.1327 66.5378 34.0536 66.6801L33.6822 67.3479L33.1491 67.5L33.4865 66.8932C33.556 66.7512 33.5031 66.5831 33.3667 66.5072C33.2302 66.4313 33.0572 66.4758 32.9749 66.6067L32.3394 67.753C32.1428 67.809 31.9489 67.8742 31.7559 67.9341L32.239 67.0585L32.2367 67.0592C32.2755 66.9895 32.2865 66.9082 32.2652 66.8336C32.2433 66.7568 32.1933 66.6929 32.1236 66.6542C32.0569 66.617 31.9733 66.6067 31.8994 66.6302C31.8226 66.6521 31.7593 66.7043 31.7228 66.7734L30.93 68.199C30.6841 68.2789 30.4372 68.364 30.1897 68.4468L31.1585 66.7047L31.1607 66.7041C31.2353 66.5631 31.1828 66.3875 31.0434 66.31C30.9034 66.2303 30.7272 66.2805 30.6468 66.4183L29.5608 68.3746L29.3643 67.754L30.1022 66.4271L30.1044 66.4264C30.1467 66.3606 30.1593 66.2764 30.1397 66.199C30.1194 66.1193 30.0688 66.0531 29.9991 66.0143C29.9271 65.9762 29.8436 65.9659 29.7674 65.99C29.689 66.0148 29.6264 66.0694 29.5912 66.1429L29.1245 66.982C29.0475 66.7377 28.9705 66.4934 28.8957 66.2485L29.4964 65.1684C29.571 65.0274 29.5184 64.8519 29.3791 64.7744C29.2374 64.6975 29.0612 64.7478 28.9808 64.8855L28.6592 65.4707L28.4794 64.8918L28.8178 64.3995L28.82 64.3989C28.8681 64.3363 28.8888 64.2547 28.8782 64.1746C28.8653 64.0953 28.8202 64.0226 28.7537 63.9781C28.6873 63.9335 28.604 63.9157 28.5259 63.9331C28.4478 63.9505 28.3781 63.9973 28.3371 64.0676L28.2609 64.1773C26.1147 57.2019 24.0416 49.9173 21.9725 42.1163L21.9787 42.1122ZM78.6496 56.3403C78.9331 57.5395 78.2462 58.7541 77.0757 59.1295C69.4503 61.5491 61.7366 63.8717 53.9901 66.0815C46.2459 68.2907 38.4701 70.3867 30.7135 72.3551L30.7142 72.3574C29.5188 72.6544 28.2968 71.9843 27.9026 70.8167C24.8555 61.685 22.1805 52.3076 19.9511 42.9426C19.7601 42.1274 20.0163 41.2702 20.6232 40.6915C20.725 41.0827 20.8281 41.4783 20.9338 41.8659L20.9322 41.8688C20.8214 42.1398 20.7971 42.4399 20.8663 42.7254C23.0908 52.0649 25.7581 61.4151 28.7952 70.5203C29.0292 71.2206 29.7641 71.6216 30.4805 71.4442C45.9686 67.5072 61.5564 63.0605 76.7906 58.2335C77.4958 58.0079 77.9056 57.2778 77.7342 56.5572C75.5103 47.22 72.8424 37.8676 69.8052 28.7624C69.7121 28.4787 69.5289 28.2305 69.2838 28.0561C69.1674 27.674 69.0498 27.2874 68.9328 26.903C69.7575 27.0709 70.4282 27.6661 70.6966 28.4617C73.7428 37.5987 76.418 46.9759 78.6496 56.3403Z" fill="#333333"/>
<path d="M49.0946 59.1992C42.6898 59.3627 36.3334 60.3992 30.2087 62.2807C29.9608 62.3538 29.8184 62.6167 29.8916 62.8646C29.9653 63.1147 30.2276 63.2549 30.4777 63.1811L30.4868 63.1785C36.5312 61.3223 42.7989 60.3014 49.1192 60.14C49.1579 60.1388 49.1976 60.1323 49.236 60.1214C49.4619 60.0569 49.6056 59.8327 49.5705 59.5984C49.5361 59.3664 49.3305 59.1955 49.0946 59.1992Z" fill="#333333"/>
<path d="M67.9389 51.5433C63.2527 53.1073 58.7427 55.1535 54.4788 57.65C54.2735 57.7696 54.1895 58.0232 54.2833 58.2407C54.3755 58.4611 54.6181 58.5752 54.8456 58.5078C54.884 58.4969 54.9211 58.4814 54.9547 58.462C59.1616 55.9966 63.6113 53.9796 68.2353 52.4383L68.2347 52.4361C68.4806 52.3561 68.6143 52.0884 68.5321 51.8431C68.4522 51.5972 68.1849 51.4633 67.9389 51.5433Z" fill="#333333"/>
<path d="M68.4659 54.9156L67.9427 55.8563C67.8785 55.965 67.8616 56.0944 67.8942 56.217C67.9267 56.3396 68.0077 56.4436 68.1203 56.5043C68.2306 56.5656 68.3616 56.5796 68.4829 56.5425C68.6049 56.5077 68.7053 56.4229 68.7638 56.3109L69.2853 55.3731C69.4038 55.1463 69.32 54.8698 69.0987 54.7448C68.8751 54.6205 68.5937 54.6959 68.4636 54.9162L68.4659 54.9156Z" fill="#333333"/>
<path d="M41.9401 58.2736L42.4609 57.3336C42.5297 57.2236 42.5482 57.0913 42.5179 56.968C42.4847 56.8431 42.4031 56.7369 42.2899 56.674C42.1773 56.6132 42.0463 56.5993 41.9227 56.637C41.7991 56.6747 41.6971 56.7625 41.6415 56.876L41.1177 57.8145C40.9924 58.0432 41.0736 58.3278 41.3001 58.4538C41.5272 58.582 41.8141 58.5001 41.9394 58.2714L41.9401 58.2736Z" fill="#333333"/>
<path d="M66.745 54.1213C66.4862 54.139 66.2905 54.3609 66.3059 54.6203L66.3861 55.8946C66.4031 56.1512 66.6227 56.3475 66.8783 56.3356C66.9141 56.3327 66.9464 56.326 66.9803 56.3163C67.1933 56.258 67.3337 56.0567 67.3196 55.836L67.2401 54.5639L67.2395 54.5617C67.2225 54.3051 67.0028 54.1089 66.745 54.1213Z" fill="#333333"/>
<path d="M38.4491 54.7312C35.1488 55.2452 31.8903 55.9989 28.6978 56.9853C28.4505 57.0607 28.311 57.3253 28.3893 57.5741C28.4648 57.8213 28.7287 57.9585 28.9759 57.8831C32.1231 56.9096 35.3382 56.1659 38.5946 55.6596L38.651 55.6435C38.904 55.5884 39.0639 55.3351 39.0088 55.0821C38.9537 54.8291 38.7005 54.6693 38.4475 54.7244L38.4491 54.7312Z" fill="#333333"/>
<path d="M40.0617 58.2955C40.093 58.2939 40.1275 58.2865 40.1598 58.2797L40.1592 58.2775C40.3721 58.2191 40.5126 58.0178 40.5007 57.7965L40.4203 56.5296C40.4026 56.2708 40.1801 56.0729 39.9213 56.0906C39.6625 56.1082 39.4646 56.3308 39.4822 56.5896L39.5617 57.8616L39.5624 57.8639C39.5839 58.1191 39.8052 58.3125 40.0617 58.2955Z" fill="#333333"/>
<path d="M47.5835 53.9033C45.7901 53.9532 43.9885 54.069 42.2288 54.2461C41.9768 54.2789 41.795 54.5066 41.821 54.7606C41.85 55.0162 42.0738 55.2015 42.3291 55.18C44.0597 55.0038 45.838 54.8923 47.6083 54.8466C47.647 54.8453 47.6874 54.8411 47.7251 54.8279C47.9539 54.7651 48.0999 54.5402 48.0648 54.3059C48.0291 54.0694 47.8217 53.8989 47.5842 53.9056L47.5835 53.9033Z" fill="#333333"/>
<path d="M70.6391 45.0048C64.4405 46.6362 58.4962 49.1087 52.9699 52.3512C52.7617 52.4693 52.6777 52.7229 52.7721 52.9426C52.8637 53.1608 53.1063 53.2748 53.3367 53.2091C53.3729 53.1988 53.4093 53.181 53.4452 53.161C58.8987 49.9613 64.7646 47.5233 70.8786 45.9111C71.1284 45.8448 71.2802 45.5889 71.2161 45.3385C71.1491 45.0865 70.891 44.9353 70.6412 45.0017L70.6391 45.0048Z" fill="#333333"/>
<path d="M72.1497 50.2989C71.4178 50.4906 70.6755 50.6975 69.9501 50.9117L69.953 50.9134C69.7029 50.9871 69.5627 51.2494 69.6359 51.4973C69.7096 51.7474 69.9719 51.8875 70.2198 51.8144C70.9356 51.6004 71.6656 51.402 72.3878 51.2106L72.3968 51.208L72.3962 51.2057C72.6482 51.1387 72.7965 50.879 72.7278 50.6299C72.6586 50.3785 72.3995 50.2325 72.1497 50.2989Z" fill="#333333"/>
<path d="M52.5659 51.1406C52.7908 51.2523 53.0622 51.1676 53.1826 50.9476C53.306 50.7292 53.2348 50.4539 53.0212 50.3218L52.0828 49.7981C51.8563 49.6721 51.5694 49.754 51.4435 49.9804C51.3175 50.2069 51.3994 50.4938 51.6259 50.6198L52.5659 51.1406Z" fill="#333333"/>
<path d="M46.0721 48.6061C39.6668 48.7673 33.311 49.806 27.1856 51.6853L27.1862 51.6875C26.9384 51.7607 26.7953 52.0214 26.8691 52.2715C26.9423 52.5193 27.2052 52.6617 27.4553 52.5879L27.4644 52.5853C33.5088 50.7292 39.7758 49.706 46.0967 49.5469C46.1355 49.5456 46.1751 49.5392 46.2135 49.5282C46.4388 49.4615 46.5825 49.2373 46.5481 49.0053C46.513 48.771 46.3074 48.6001 46.0721 48.6061Z" fill="#333333"/>
<path d="M54.0777 50.207C54.1093 50.198 54.1425 50.1861 54.1722 50.1703C54.2826 50.1119 54.3636 50.0106 54.4008 49.8925C54.4373 49.7722 54.4228 49.6444 54.3645 49.534L53.7602 48.4092C53.6387 48.1801 53.3531 48.0954 53.124 48.217C52.8948 48.3385 52.8102 48.6241 52.9317 48.8532L53.5366 49.9803C53.6404 50.1729 53.8653 50.2676 54.0777 50.207Z" fill="#333333"/>
<path d="M51.8209 47.9045C51.8593 47.8936 51.8964 47.8781 51.93 47.8587C57.3835 44.659 63.2495 42.221 69.3635 40.6088C69.6155 40.5418 69.7673 40.286 69.7003 40.0339C69.6339 39.7842 69.3781 39.6324 69.1283 39.6988C62.9304 41.3325 56.9861 43.805 51.4568 47.0459C51.2544 47.1672 51.1704 47.4208 51.2636 47.636C51.3574 47.8535 51.5977 47.9682 51.8236 47.9038L51.8209 47.9045Z" fill="#333333"/>
<path d="M25.9522 47.2839L25.9529 47.2861C31.9967 45.4277 38.2643 44.4068 44.5853 44.2477L44.5846 44.2454C44.624 44.2464 44.6637 44.24 44.7014 44.2267C44.9302 44.1639 45.0762 43.9391 45.0411 43.7048C45.0054 43.4682 44.798 43.2978 44.5605 43.3045C38.1534 43.4686 31.8 44.5066 25.6746 46.3859C25.428 46.4636 25.2885 46.7281 25.3662 46.9747C25.4416 47.2219 25.7057 47.3615 25.9522 47.2839Z" fill="#333333"/>
<path d="M26.121 50.871C26.3453 50.9805 26.6167 50.8958 26.74 50.6774C26.8605 50.4573 26.7893 50.1821 26.5757 50.05L25.6373 49.5263L25.6379 49.5285C25.4108 49.4003 25.1239 49.4822 24.9986 49.7109C24.8726 49.9374 24.9538 50.222 25.1803 50.348L26.121 50.871Z" fill="#333333"/>
<path d="M27.6352 49.936C27.6668 49.927 27.6972 49.9134 27.7298 49.8992C27.8372 49.8393 27.9212 49.7396 27.9554 49.6199C27.9926 49.5018 27.9797 49.3711 27.922 49.263L27.3178 48.1382L27.3172 48.1359C27.194 47.9097 26.9078 47.8228 26.6793 47.9466C26.4501 48.0681 26.3655 48.3537 26.4893 48.5822L27.0884 49.706C27.1935 49.9032 27.4206 49.9972 27.6352 49.936Z" fill="#333333"/>
<path d="M50.3112 42.6136C50.3496 42.6026 50.3867 42.5871 50.4196 42.5655C51.394 41.9993 52.3871 41.4473 53.3735 40.9314C53.4874 40.8769 53.5765 40.7782 53.6153 40.6572C53.6563 40.5356 53.6457 40.4043 53.5867 40.2916C53.5277 40.179 53.4258 40.0957 53.3032 40.0598C53.1806 40.024 53.0499 40.0368 52.9385 40.1003C51.939 40.6297 50.9265 41.1824 49.9421 41.7563C49.7368 41.876 49.6528 42.1296 49.7466 42.3471C49.8388 42.5675 50.0814 42.6815 50.3089 42.6142L50.3112 42.6136Z" fill="#333333"/>
<path d="M55.9504 39.1295C56.0468 39.339 56.2829 39.4475 56.5066 39.3837C56.5292 39.3772 56.5511 39.3685 56.5724 39.3576C60.2084 37.6828 63.9848 36.3295 67.8584 35.3148L67.8578 35.3125C68.1082 35.2484 68.2593 34.9904 68.193 34.7406C68.1266 34.4908 67.8708 34.339 67.6181 34.4038L67.6204 34.4031C63.6929 35.4331 59.8657 36.8058 56.1803 38.5045C56.068 38.5561 55.9782 38.6525 55.9359 38.7696C55.893 38.8845 55.8981 39.0149 55.9504 39.1295Z" fill="#333333"/>
<path d="M24.4416 41.9877C30.486 40.1315 36.7537 39.1106 43.074 38.9492C43.1127 38.9479 43.1531 38.9437 43.1915 38.9328L43.1908 38.9305C43.4196 38.8677 43.5656 38.6429 43.5305 38.4086C43.4948 38.172 43.2874 38.0016 43.0499 38.0083C36.6451 38.1717 30.2887 39.2082 24.164 41.0897L24.1646 41.092C23.9174 41.1674 23.7772 41.4296 23.8556 41.6785C23.892 41.7975 23.9739 41.8963 24.0836 41.9554C24.1949 42.0116 24.3225 42.0241 24.4416 41.9877Z" fill="#333333"/>
<path d="M38.6054 37.3286C38.8303 37.4403 39.1017 37.3556 39.2221 37.1356C39.3455 36.9171 39.2743 36.6419 39.0607 36.5098L38.1223 35.9861C37.8958 35.8601 37.6089 35.942 37.483 36.1684C37.357 36.3949 37.4389 36.6818 37.6653 36.8078L38.6054 37.3286Z" fill="#333333"/>
<path d="M48.7992 37.3124C48.8376 37.3015 48.8747 37.286 48.9083 37.2666C54.3625 34.0691 60.2278 31.6289 66.3418 30.0167C66.5945 29.952 66.7456 29.6939 66.6792 29.4441C66.6129 29.1943 66.3571 29.0425 66.1066 29.1067L66.1073 29.1089C59.9093 30.7426 53.9651 33.2151 48.4357 36.4561C48.2327 36.5751 48.1487 36.8286 48.2425 37.0462C48.3357 37.2614 48.576 37.3761 48.8019 37.3117L48.7992 37.3124Z" fill="#333333"/>
<path d="M66.5204 32.7818C66.3922 33.009 66.4734 33.2936 66.7021 33.4189C66.9293 33.5471 67.2139 33.4659 67.3392 33.2372L67.8601 32.2971L67.863 32.2987C67.9792 32.0726 67.8977 31.7954 67.6742 31.6711C67.4529 31.5461 67.1715 31.6215 67.0413 31.8418L66.5204 32.7818Z" fill="#333333"/>
<path d="M39.5757 36.1657C39.6802 36.3606 39.9051 36.4553 40.1181 36.3969C40.149 36.3857 40.1823 36.3737 40.212 36.3579C40.3223 36.2996 40.4034 36.1983 40.4405 36.0802C40.4771 35.9599 40.4626 35.8321 40.4042 35.7217L39.8006 34.5992C39.6791 34.37 39.3936 34.2854 39.1644 34.4069C38.9352 34.5285 38.8506 34.814 38.9721 35.0432L39.5757 36.1657Z" fill="#333333"/>
<path d="M65.5612 33.2417C65.7742 33.1833 65.9146 32.982 65.9005 32.7613L65.821 31.4893L65.8188 31.4899C65.8163 31.3612 65.7621 31.2398 65.6669 31.1546C65.574 31.0687 65.4489 31.0238 65.3214 31.0309C65.1946 31.0402 65.0745 31.0989 64.9922 31.1956C64.9099 31.2924 64.8708 31.4208 64.8823 31.547L64.9625 32.8213C64.9712 32.9458 65.0263 33.062 65.1208 33.145C65.2147 33.2257 65.3369 33.269 65.4615 33.2603C65.4951 33.2581 65.5273 33.2513 65.5612 33.2417Z" fill="#333333"/>
</svg>
