<svg width="75" height="76" viewBox="0 0 75 76" fill="none" xmlns="http://www.w3.org/2000/svg">
<path d="M10.1565 8.55873C10.9578 4.21373 15.1297 1.34102 19.4747 2.14236L66.6787 10.8481C71.0237 11.6494 73.8964 15.8214 73.095 20.1664L64.3893 67.3703C63.588 71.7153 59.416 74.588 55.071 73.7867L7.8671 65.0809C3.5221 64.2796 0.649397 60.1077 1.45074 55.7627L10.1565 8.55873Z" fill="#FFF7EB"/>
<path d="M53.0873 26.1401L35.1888 23.4812C34.4768 22.2604 33.2785 21.3971 31.8951 21.101C30.5118 20.8048 29.0696 21.1078 27.9168 21.9274C26.7668 22.7508 26.0142 24.0194 25.8456 25.4253C25.6776 26.8278 26.1057 28.2416 27.0313 29.3129L26.1257 35.409C26.0808 35.7113 26.2205 36.0142 26.486 36.1712C26.7483 36.3277 27.0796 36.3131 27.3254 36.1279L28.7369 35.0814L27.3002 44.753L23.8138 44.2351C23.403 44.1741 23.0143 44.4623 22.9528 44.8764L22.6272 47.0683C22.3952 48.6528 23.4863 50.1248 25.0701 50.3601L44.7266 53.2801C46.3105 53.5154 47.7824 52.4241 48.021 50.8406L50.8568 31.7505L54.3399 32.2679C54.5403 32.2977 54.7426 32.2471 54.9049 32.1268C55.0672 32.0065 55.1744 31.8276 55.2037 31.6304L55.5298 29.4352C55.7618 27.8507 54.6707 26.3786 53.0873 26.1401ZM36.2679 31.1384C36.4269 31.0176 36.632 30.9708 36.8324 31.0006L40.1578 31.4946C40.5719 31.5561 40.8572 31.9411 40.7957 32.3552C40.7342 32.7692 40.3492 33.0546 39.9352 32.9931L36.6098 32.4992C36.4094 32.4694 36.2272 32.3617 36.1102 32.1999C35.9894 32.0409 35.9389 31.8386 35.9687 31.6381C35.9984 31.4376 36.1056 31.2587 36.2679 31.1384ZM28.8497 25.4819C28.7933 25.4097 28.7812 25.3105 28.8239 25.2262C28.8629 25.1446 28.9515 25.0906 29.0422 25.0906L30.2471 25.1185L30.9133 24.1157C30.9649 24.0394 31.0549 23.9991 31.1469 24.0127C31.2389 24.0264 31.3132 24.0912 31.34 24.1825L31.6859 25.3356L32.8436 25.6587C32.9374 25.6827 33.0032 25.7597 33.0168 25.849C33.0332 25.9421 32.9894 26.033 32.9177 26.0862L31.9292 26.7723L31.9793 27.9722C31.9821 28.0666 31.9323 28.1533 31.8489 28.1946C31.765 28.2393 31.6655 28.2312 31.5934 28.1735L30.6367 27.4469L29.5068 27.8635C29.4211 27.8978 29.3235 27.8766 29.2563 27.8095C29.1885 27.7457 29.166 27.6483 29.1994 27.5592L29.5929 26.4253L28.8497 25.4819ZM27.8931 33.8208L28.3964 30.4326C29.4666 31.0282 30.7153 31.2137 31.9124 30.9549L31.4091 34.3431L30.3627 32.9315C30.1137 32.5955 29.6405 32.5252 29.3046 32.7743L27.8931 33.8208ZM25.2927 48.8615C24.537 48.7493 24.0166 48.0472 24.1288 47.2914L24.3432 45.8487L42.5013 48.5461L42.287 49.9888C42.2162 50.4653 42.2647 50.9528 42.4289 51.4071L25.2927 48.8615ZM44.8964 41.3076C44.7309 41.4275 44.5225 41.4738 44.3225 41.4407L35.4735 40.1262C35.2726 40.0997 35.0899 39.9953 34.9663 39.8325C34.8427 39.6697 34.7889 39.4669 34.8192 39.2632C34.8494 39.0594 34.9599 38.881 35.1255 38.7612C35.291 38.6413 35.4966 38.5913 35.6961 38.6276L44.5451 39.9421C44.7466 39.9653 44.932 40.0735 45.0556 40.2363C45.1759 40.3986 45.2297 40.6014 45.1995 40.8052C45.1692 41.0089 45.0587 41.1873 44.8964 41.3076ZM45.4632 37.4922C45.2977 37.6121 45.0888 37.6617 44.8888 37.6286L36.0431 36.3145C35.8426 36.2848 35.6605 36.1771 35.5434 36.0153C35.4231 35.853 35.3726 35.6507 35.4024 35.4502C35.4322 35.2497 35.5393 35.0708 35.7011 34.9538C35.8601 34.833 36.0657 34.7829 36.2662 34.8127L45.1119 36.1267C45.3129 36.1532 45.4988 36.2581 45.6224 36.4209C45.7427 36.5832 45.796 36.7893 45.7658 36.993C45.7355 37.1968 45.625 37.3752 45.4632 37.4922ZM53.8138 30.6548L51.0799 30.2486L51.2942 28.806C51.4065 28.0501 52.1085 27.5297 52.8642 27.6419C53.62 27.7542 54.1404 28.4562 54.0281 29.2121L53.8138 30.6548Z" fill="#333333"/>
</svg>
