<svg width="74" height="74" viewBox="0 0 74 74" fill="none" xmlns="http://www.w3.org/2000/svg">
<path d="M1.97129 17.641C1.35639 13.2657 4.40478 9.22039 8.78005 8.60549L56.3129 1.92518C60.6882 1.31027 64.7335 4.35866 65.3485 8.73394L72.0288 56.2668C72.6437 60.6421 69.5953 64.6874 65.22 65.3023L17.6871 71.9826C13.3119 72.5975 9.26651 69.5492 8.6516 65.1739L1.97129 17.641Z" fill="#FFF7EB"/>
<path d="M43.332 32.6012L40.9314 18.987C40.8706 18.6424 40.5439 18.4136 40.1993 18.4744L26.5851 20.8749C26.2456 20.9348 26.0117 21.2624 26.0725 21.607L28.473 35.2212C28.5338 35.5658 28.8605 35.7946 29.2051 35.7338L42.8194 33.3333C43.164 33.2725 43.3927 32.9458 43.332 32.6012ZM41.9776 32.1983L29.608 34.3794L27.4269 22.0099L39.7965 19.8288L41.9776 32.1983Z" fill="#333333"/>
<path d="M42.9101 33.8476L29.2958 36.2482C28.6683 36.3588 28.0694 35.9394 27.9587 35.3119L25.5582 21.6977C25.4475 21.0702 25.8669 20.4712 26.4944 20.3606L40.1086 17.96C40.7361 17.8494 41.3351 18.2688 41.4457 18.8963L43.8463 32.5105C43.9569 33.138 43.5375 33.737 42.9101 33.8476ZM26.6758 21.3892C26.6192 21.3992 26.5759 21.4546 26.5868 21.5163L28.9874 35.1305C28.9983 35.1923 29.0527 35.2304 29.1144 35.2195L42.7287 32.8189C42.7904 32.8081 42.8285 32.7536 42.8176 32.6919L40.4171 19.0776C40.4062 19.0159 40.3517 18.9778 40.29 18.9887L26.6758 21.3892ZM42.5826 32.622L29.1843 34.9844L26.8219 21.5862L40.2201 19.2237L42.5826 32.622ZM41.3725 31.7747L39.3728 20.4338L28.0268 22.4344L30.0265 33.7753L41.3725 31.7747Z" fill="#333333"/>
<path d="M37.6022 25.9113L36.4012 27.5814C36.4012 27.5814 36.3828 27.6271 36.3924 27.6519L37.0898 29.5919C37.1525 29.496 37.1694 29.3816 37.1289 29.2721L36.5434 27.6359L37.5529 26.2329C37.6206 26.1361 37.6376 26.0217 37.6022 25.9113ZM35.4905 25.8753L37.5481 25.8148C37.4837 25.7201 37.3741 25.6704 37.2574 25.6698L35.5277 25.7255L34.4954 24.3219C34.4258 24.2281 34.3214 24.1776 34.2107 24.1812L35.4318 25.8432C35.4318 25.8432 35.469 25.8738 35.4905 25.8753ZM35.0093 29.0413L33.347 30.3208C33.4538 30.355 33.567 30.335 33.6598 30.2603L35.0365 29.1956L36.6944 29.7253C36.8012 29.7595 36.9246 29.7377 37.0133 29.669L35.0472 29.0452C35.0472 29.0452 35.0248 29.0386 35.0093 29.0413ZM33.5237 26.1797L34.1003 24.2166C34.0029 24.2656 33.9039 24.3361 33.8782 24.4308L33.3881 26.1028L31.7438 26.642C31.6291 26.6834 31.5483 26.7666 31.515 26.8786L33.4795 26.2299C33.4795 26.2299 33.517 26.2021 33.5237 26.1797Z" fill="#333333"/>
<path d="M37.8972 25.6896C37.7696 25.4469 37.5167 25.3059 37.2471 25.311L35.7021 25.3607L34.787 24.1114C34.6261 23.8905 34.3581 23.784 34.0906 23.8312C33.851 23.9158 33.6078 24.0701 33.5321 24.3327L33.0996 25.8196L31.6307 26.3013C31.3705 26.3896 31.1862 26.6077 31.1441 26.8803C31.1063 27.1469 31.2272 27.4119 31.4502 27.5635L32.7283 28.4359L32.7368 29.9882C32.7368 30.2587 32.8911 30.502 33.1352 30.6233C33.3793 30.7447 33.6658 30.7153 33.8849 30.5441L35.1073 29.5968L36.5851 30.068C36.698 30.1065 36.8105 30.1131 36.9237 30.0932C37.0677 30.0678 37.2035 29.9961 37.3115 29.8869C37.4994 29.6894 37.5612 29.408 37.4687 29.1539L36.9458 27.6922L37.8442 26.4414C38.0061 26.2166 38.0249 25.9322 37.8972 25.6896ZM34.4954 24.3219L35.5277 25.7255L37.2574 25.6698C37.3741 25.6704 37.4837 25.7201 37.5481 25.8148L35.4905 25.8753C35.4905 25.8753 35.4457 25.862 35.4318 25.8432L34.2107 24.1812C34.3214 24.1776 34.4258 24.2281 34.4954 24.3219ZM31.7438 26.642L33.3881 26.1028L33.8782 24.4308C33.9039 24.3361 34.0029 24.2656 34.1003 24.2166L33.5237 26.1797C33.5237 26.1797 33.4992 26.2211 33.4795 26.2299L31.515 26.8786C31.5483 26.7666 31.6291 26.6834 31.7438 26.642ZM36.6944 29.7253L35.0365 29.1956L33.6598 30.2603C33.567 30.335 33.4538 30.355 33.347 30.3208L35.0093 29.0413C35.0093 29.0413 35.036 29.0419 35.0472 29.0452L37.0133 29.669C36.9246 29.7377 36.8012 29.7595 36.6944 29.7253ZM37.5529 26.2329L36.5434 27.6359L37.1289 29.2721C37.1694 29.3816 37.1525 29.496 37.0898 29.5919L36.3924 27.6519C36.3828 27.6271 36.3834 27.6005 36.4012 27.5814L37.6022 25.9113C37.6376 26.0217 37.6206 26.1361 37.5529 26.2329Z" fill="#333333"/>
<path d="M38.2125 25.5226C38.021 25.1586 37.6429 24.9389 37.2369 24.9522L35.8815 24.995L35.0778 23.8957C34.8343 23.5674 34.4344 23.4046 34.0281 23.4763L33.9715 23.4862C33.5531 23.6396 33.2798 23.8946 33.1851 24.2295L32.8058 25.5373L31.5176 25.9607C31.1264 26.088 30.8504 26.4177 30.7898 26.8261C30.7344 27.2336 30.9107 27.6321 31.2486 27.8642L32.3694 28.6264L32.3762 29.9882C32.3792 30.396 32.6085 30.7639 32.9793 30.9425C33.189 31.0487 33.4168 31.0775 33.6328 31.0394C33.8025 31.0094 33.9599 30.9393 34.1048 30.8289L35.178 29.9979L36.4758 30.4108C36.8582 30.5343 37.29 30.4263 37.5671 30.1335C37.8546 29.8389 37.9442 29.4147 37.8075 29.0305L37.3481 27.7486L38.1406 26.649C38.3788 26.3153 38.4082 25.8805 38.2125 25.5226ZM37.8442 26.4414L36.9458 27.6922L37.4687 29.1539C37.5612 29.408 37.4994 29.6894 37.3115 29.8869C37.2035 29.9961 37.0677 30.0678 36.9237 30.0932C36.8105 30.1131 36.698 30.1065 36.5851 30.068L35.1073 29.5968L33.8849 30.5441C33.6658 30.7153 33.3793 30.7447 33.1352 30.6233C32.8911 30.502 32.7368 30.2587 32.7368 29.9882L32.7283 28.4359L31.4502 27.5635C31.2272 27.4119 31.1063 27.1469 31.1441 26.8803C31.1862 26.6077 31.3705 26.3896 31.6307 26.3013L33.0996 25.8196L33.5321 24.3327C33.6078 24.0701 33.851 23.9158 34.0906 23.8312C34.3581 23.784 34.6261 23.8905 34.787 24.1114L35.7021 25.3607L37.2471 25.311C37.5167 25.3059 37.7696 25.4469 37.8972 25.6896C38.0249 25.9322 38.0061 26.2166 37.8442 26.4414Z" fill="#333333"/>
<path d="M33.5737 40.7493L19.9594 43.1499C19.62 43.2097 19.3861 43.5373 19.4468 43.8819L21.8474 57.4962C21.9081 57.8408 22.2349 58.0696 22.5795 58.0088L36.1937 55.6082C36.5332 55.5484 36.7671 55.2208 36.7063 54.8762L34.3057 41.2619C34.245 40.9173 33.9183 40.6886 33.5737 40.7493ZM35.3519 54.4733L22.9823 56.6544L20.8012 44.2848L33.1708 42.1037L35.3519 54.4733Z" fill="#333333"/>
<path d="M36.2835 56.1174L22.6692 58.518C22.0418 58.6286 21.4428 58.2092 21.3321 57.5817L18.9316 43.9675C18.8209 43.34 19.2403 42.741 19.8678 42.6304L33.4821 40.2298C34.1096 40.1192 34.7085 40.5386 34.8192 41.1661L37.2197 54.7803C37.3304 55.4078 36.911 56.0068 36.2835 56.1174ZM20.0501 43.6642C19.9935 43.6742 19.9503 43.7295 19.9612 43.7913L22.3617 57.4055C22.3726 57.4672 22.427 57.5054 22.4888 57.4945L36.103 55.0939C36.1596 55.0839 36.2029 55.0286 36.192 54.9669L33.7914 41.3526C33.7805 41.2909 33.7261 41.2528 33.6644 41.2636L20.0501 43.6642ZM35.9621 54.896L22.5587 57.2594L20.1962 43.8612L33.5944 41.4987L35.9569 54.8969L35.9621 54.896ZM23.406 56.0494L34.752 54.0488L32.7523 42.7078L21.4062 44.7085L23.406 56.0494Z" fill="#333333"/>
<path d="M55.5066 33.3447L47.1025 34.8266C47.1552 34.584 47.1631 34.328 47.1177 34.0709L43.9862 16.3111C43.7939 15.2208 42.7533 14.4921 41.6629 14.6844L23.9084 17.815C22.818 18.0072 22.0893 19.0479 22.2816 20.1382L25.4131 37.898C25.4584 38.1551 25.5534 38.3929 25.6859 38.6029L17.2818 40.0848C16.1914 40.2771 15.4628 41.3177 15.655 42.4081L18.7865 60.1678C18.9788 61.2582 20.0194 61.9868 21.1098 61.7946L38.8695 58.663C39.3941 58.5705 39.8301 58.2762 40.1261 57.8793C40.5399 58.1511 41.0503 58.2785 41.5749 58.186L59.3346 55.0545C60.425 54.8622 61.1537 53.8216 60.9614 52.7312L57.8308 34.9766C57.6385 33.8863 56.5979 33.1576 55.5075 33.3499L55.5066 33.3447ZM26.6526 37.6794L23.5211 19.9197C23.4495 19.5134 23.7215 19.1313 24.1227 19.0606L41.8824 15.929C42.2887 15.8574 42.6708 16.1294 42.7415 16.5306L45.8731 34.2903C45.9447 34.6966 45.6727 35.0787 45.2715 35.1495L27.5169 38.2801C27.1106 38.3517 26.7285 38.0797 26.6578 37.6785L26.6526 37.6794ZM38.651 57.4235L20.8912 60.555C20.4849 60.6267 20.1029 60.3546 20.0321 59.9535L16.9006 42.1937C16.8289 41.7874 17.101 41.4053 17.5022 41.3346L35.2619 38.2031C35.6682 38.1314 36.0503 38.4035 36.121 38.8047L39.2525 56.5644C39.3242 56.9707 39.0521 57.3528 38.651 57.4235ZM59.7219 52.9498C59.7935 53.3561 59.5215 53.7382 59.1203 53.8089L41.3606 56.9404C40.9542 57.0121 40.5722 56.74 40.5014 56.3389L37.3699 38.5791C37.2983 38.1728 37.5703 37.7907 37.9715 37.72L55.7312 34.5885C56.1375 34.5168 56.5196 34.7889 56.5903 35.1901L59.7219 52.9498Z" fill="#333333"/>
<path d="M59.4253 55.5688L41.6656 58.7003C41.1821 58.7856 40.6887 58.7241 40.2413 58.5325C39.8863 58.8656 39.4437 59.0921 38.9602 59.1774L21.2005 62.3089C19.8272 62.551 18.5143 61.6317 18.2722 60.2585L15.1407 42.4988C14.8985 41.1255 15.8178 39.8126 17.1911 39.5705L24.9472 38.2029C24.9293 38.1318 24.9115 38.0607 24.8988 37.9887L21.7673 20.2289C21.5251 18.8557 22.4444 17.5428 23.8177 17.3006L41.5774 14.1691C42.9506 13.927 44.2635 14.8463 44.5057 16.2195L47.6372 33.9793C47.6499 34.0513 47.6626 34.1233 47.665 34.1971L55.4211 32.8295C56.7943 32.5873 58.1072 33.5066 58.3493 34.8799L61.48 52.6345C61.7221 54.0077 60.8028 55.3206 59.4295 55.5628L59.4253 55.5688ZM40.0018 57.1747L40.4157 57.4464C40.7397 57.6598 41.1199 57.7412 41.4903 57.6759L59.25 54.5444C60.0575 54.402 60.5955 53.6336 60.4531 52.8262L57.3225 35.0716C57.1801 34.2641 56.4117 33.7261 55.6042 33.8684L46.4389 35.4845L46.5976 34.73C46.6387 34.5424 46.6421 34.3509 46.6104 34.1709L43.477 16.4009C43.3346 15.5934 42.5663 15.0554 41.7588 15.1978L23.999 18.3293C23.1915 18.4717 22.6535 19.2401 22.7959 20.0476L25.9274 37.8073C25.9592 37.9873 26.0278 38.1661 26.1307 38.3283L26.5378 38.983L17.3725 40.5991C16.565 40.7415 16.027 41.5099 16.1693 42.3174L19.3009 60.0771C19.4432 60.8846 20.2116 61.4226 21.0191 61.2802L38.7788 58.1487C39.1492 58.0834 39.4787 57.8768 39.7059 57.5716L40.0018 57.1747ZM59.2067 54.3293L41.447 57.4608C40.7578 57.5823 40.1035 57.1197 39.9829 56.4356L36.8514 38.6759C36.7298 37.9867 37.1925 37.3324 37.8766 37.2117L55.6363 34.0802C56.3255 33.9587 56.9798 34.4214 57.1004 35.1054L60.232 52.8651C60.3535 53.5543 59.8908 54.2087 59.2067 54.3293ZM38.057 38.2352C37.9387 38.2561 37.8582 38.3711 37.8791 38.4894L41.0106 56.2491C41.0315 56.3674 41.1464 56.4479 41.2647 56.427L59.0245 53.2955C59.1428 53.2746 59.2232 53.1597 59.2024 53.0414L56.0709 35.2817C56.05 35.1634 55.9351 35.0829 55.8168 35.1037L38.057 38.2352ZM38.7417 57.9378L20.9819 61.0694C20.2927 61.1909 19.6384 60.7282 19.5178 60.0442L16.3863 42.2844C16.2647 41.5952 16.7274 40.9409 17.4115 40.8203L35.1712 37.6888C35.8604 37.5672 36.5147 38.0299 36.6353 38.714L39.7669 56.4737C39.8884 57.1629 39.4257 57.8172 38.7417 57.9378ZM17.5919 41.8438C17.4736 41.8647 17.3932 41.9796 17.414 42.0979L20.5455 59.8576C20.5664 59.9759 20.6813 60.0564 20.7996 60.0356L38.5594 56.904C38.6777 56.8832 38.7582 56.7682 38.7373 56.6499L35.6058 38.8902C35.5849 38.7719 35.47 38.6914 35.3517 38.7123L17.5919 41.8438ZM45.3673 35.6629L27.6076 38.7944C27.2966 38.8651 26.942 38.7792 26.6637 38.5843C26.3854 38.3894 26.2015 38.0984 26.1425 37.764L23.0119 20.0095C22.8904 19.3203 23.3531 18.6659 24.0371 18.5453L41.7969 15.4138C42.4861 15.2923 43.1404 15.7549 43.261 16.439L46.3925 34.1987C46.514 34.8879 46.0514 35.5423 45.3673 35.6629ZM27.4211 37.7666L45.1808 34.6351C45.2991 34.6143 45.3796 34.4993 45.3587 34.381L42.2272 16.6213C42.2063 16.503 42.0914 16.4225 41.9731 16.4434L24.2185 19.574C24.1002 19.5948 24.0197 19.7098 24.0406 19.8281L27.1721 37.5878C27.1857 37.665 27.2359 37.7091 27.261 37.7312C27.2913 37.7524 27.3312 37.7984 27.4211 37.7666Z" fill="#333333"/>
<path d="M54.0388 37.1408L40.4245 39.5413C40.0851 39.6012 39.8512 39.9288 39.9119 40.2734L42.3125 53.8877C42.3732 54.2322 42.6999 54.461 43.0445 54.4003L56.6588 51.9997C56.9982 51.9398 57.2322 51.6122 57.1714 51.2676L54.7708 37.6534C54.7101 37.3088 54.3834 37.08 54.0388 37.1408ZM55.8221 50.8638L43.4526 53.0449L41.2715 40.6754L53.641 38.4943L55.8221 50.8638Z" fill="#333333"/>
<path d="M56.7486 52.5089L43.1343 54.9094C42.5068 55.0201 41.9079 54.6007 41.7972 53.9732L39.3967 40.3589C39.286 39.7315 39.7054 39.1325 40.3329 39.0219L53.9472 36.6213C54.5746 36.5107 55.1736 36.9301 55.2843 37.5575L57.6848 51.1718C57.7955 51.7993 57.3761 52.3982 56.7486 52.5089ZM40.5152 40.0557C40.4586 40.0656 40.4154 40.121 40.4262 40.1827L42.8268 53.797C42.8377 53.8587 42.8921 53.8968 42.9539 53.8859L56.5681 51.4854C56.6247 51.4754 56.6679 51.42 56.6571 51.3583L54.2565 37.7441C54.2456 37.6823 54.1912 37.6442 54.1295 37.6551L40.5152 40.0557ZM56.4271 51.2875L43.0289 53.65L40.6664 40.2517L54.0647 37.8893L56.4271 51.2875ZM43.871 52.4408L55.212 50.4411L53.2123 39.1002L41.8713 41.0999L43.871 52.4408Z" fill="#333333"/>
<path d="M31.5906 49.022C31.9271 50.9301 30.6486 52.7624 28.7353 53.0998C26.822 53.4371 24.9888 52.1535 24.6523 50.2454C24.3159 48.3372 25.5986 46.4989 27.5119 46.1615C29.4252 45.8241 31.2532 47.1087 31.5906 49.022Z" fill="#333333"/>
<path d="M46.4375 48.1382C46.5155 48.2199 46.6232 48.2592 46.7415 48.2384L51.2985 47.4349C51.4167 47.414 51.5054 47.3453 51.5499 47.2367L46.4375 48.1382ZM47.9475 43.4385L46.3595 47.786C46.3253 47.8928 46.341 48.012 46.4045 48.1016L48.169 43.2509C48.0782 43.2775 47.9826 43.3368 47.9475 43.4385Z" fill="#333333"/>
<path d="M52.0522 46.4163L49.0782 42.8732C48.8489 42.5954 48.4707 42.4659 48.0901 42.533L48.085 42.5339C47.7044 42.601 47.3933 42.8521 47.2677 43.1924L45.6848 47.5391C45.5568 47.8957 45.6276 48.2969 45.8698 48.5883C46.1173 48.8788 46.4912 49.0143 46.8667 48.9481L51.4236 48.1446C51.7991 48.0784 52.1041 47.8231 52.2372 47.4655C52.3653 47.1089 52.2945 46.7077 52.0522 46.4163ZM51.8969 47.3399C51.8115 47.5777 51.6131 47.7453 51.361 47.7897L46.8041 48.5933C46.5521 48.6377 46.3082 48.5481 46.1467 48.3539C45.9861 48.1647 45.9389 47.8973 46.0252 47.6647L47.6072 43.3129C47.7788 42.8424 48.4834 42.7182 48.8004 43.1025L51.7754 46.6507C51.936 46.8399 51.9831 47.1073 51.8969 47.3399Z" fill="#333333"/>
<path d="M51.7754 46.6507L48.8004 43.1025C48.4834 42.7182 47.7788 42.8424 47.6072 43.3129L46.0252 47.6647C45.9389 47.8973 45.9861 48.1647 46.1467 48.3539C46.3082 48.5481 46.5521 48.6377 46.8041 48.5933L51.361 47.7897C51.6131 47.7453 51.8115 47.5777 51.8969 47.3399C51.9831 47.1073 51.936 46.8399 51.7754 46.6507ZM46.3595 47.786L47.9475 43.4385C47.9826 43.3368 48.0782 43.2775 48.169 43.2509L46.4045 48.1016C46.341 48.012 46.3253 47.8928 46.3595 47.786ZM51.2985 47.4349L46.7415 48.2384C46.6232 48.2592 46.5155 48.2199 46.4375 48.1382L51.5499 47.2367C51.5054 47.3453 51.4167 47.414 51.2985 47.4349Z" fill="#333333"/>
</svg>
