<svg width="24" height="17" viewBox="0 0 24 17" fill="none" xmlns="http://www.w3.org/2000/svg">
<g id="Group">
<path id="Vector" d="M22.4992 14.5511H1.49922C1.04922 14.5511 0.636719 14.8975 0.636719 15.3478C0.636719 15.7981 1.01172 16.1444 1.49922 16.1444H22.4992C22.9492 16.1444 23.3617 15.7981 23.3617 15.3478C23.3617 14.8975 22.9492 14.5511 22.4992 14.5511Z" fill="#FFAF85"/>
<path id="Vector_2" d="M22.4992 7.41565H1.49922C1.04922 7.41565 0.636719 7.76203 0.636719 8.21233C0.636719 8.62798 1.01172 9.00901 1.49922 9.00901H22.4992C22.9492 9.00901 23.3617 8.66262 23.3617 8.21233C23.3617 7.76203 22.9492 7.41565 22.4992 7.41565Z" fill="#FFAF85"/>
<path id="Vector_3" d="M1.49922 1.87351H22.4992C22.9492 1.87351 23.3617 1.52712 23.3617 1.07683C23.3617 0.626533 22.9867 0.280151 22.4992 0.280151H1.49922C1.04922 0.280151 0.636719 0.626533 0.636719 1.07683C0.636719 1.52712 1.04922 1.87351 1.49922 1.87351Z" fill="#FFAF85"/>
</g>
</svg>
