<svg width="48" height="48" viewBox="0 0 48 48" fill="none" xmlns="http://www.w3.org/2000/svg">
<g id="Illustration Icon">
<path id="Rectangle 4589" d="M1.39512 13.7674C0.780218 9.39208 3.8286 5.34674 8.20388 4.73183L33.9509 1.11333C38.3261 0.498424 42.3715 3.54681 42.9864 7.92209L46.6049 33.6691C47.2198 38.0443 44.1714 42.0897 39.7961 42.7046L14.0492 46.3231C9.67387 46.938 5.62853 43.8896 5.01362 39.5143L1.39512 13.7674Z" fill="#FFAF85"/>
<g id="Vector">
<mask id="path-2-inside-1_36064_5560" fill="white">
<path d="M24.2565 34.4202C27.9276 34.3543 31.7651 33.8947 35.1715 32.51C37.4984 31.5677 39.4617 30.2836 39.2117 27.8323C39.22 27.7582 39.2298 27.6828 39.2312 27.6072C39.234 27.4641 39.2145 27.1843 39.1748 27.089C39.0746 26.624 38.825 26.1656 38.4314 25.7246C38.3678 25.6532 38.2561 25.6456 38.1816 25.7077C38.1086 25.7711 38.101 25.8789 38.1645 25.9517C41.2932 29.4574 33.8955 32.7663 24.1233 32.5786C16.0458 32.4235 9.51925 29.9382 9.57492 27.039C9.57611 26.9769 9.58137 26.919 9.59223 26.8571L9.59233 26.8517C9.63535 26.7701 9.55147 25.4535 12.223 24.1236C12.4323 24.0196 12.2696 23.7113 12.0618 23.8153C10.629 24.5291 9.09916 25.6959 9.23342 27.2662C8.94374 28.0329 9.0477 28.3035 9.12972 29.3569C9.33698 32.3069 16.0544 34.5651 24.2565 34.4202Z"/>
<path d="M19.9894 31.1304C21.3007 31.4877 22.7745 31.6551 24.1393 31.6813C26.4155 31.725 28.5346 31.3876 29.9563 30.756C30.1667 30.6615 30.0249 30.3483 29.809 30.4413C28.4348 31.0522 26.3698 31.3798 24.146 31.3371C22.8131 31.3115 21.3627 31.1486 20.0843 30.7987C19.9922 30.7753 19.8931 30.8274 19.8664 30.9187C19.8398 31.0087 19.8959 31.1043 19.9894 31.1304Z"/>
<path d="M37.4148 24.903C37.6434 24.5834 37.8781 24.2314 38.0884 23.8601C38.6396 23.0026 39.1319 21.9751 39.0474 20.9744C38.9371 19.5992 38.4036 18.1645 37.5471 16.9345C37.5457 16.9331 37.5444 16.9317 37.543 16.9303C35.9267 13.1 27.9575 14.0028 23.7301 18.9955C23.5817 19.1722 23.8538 19.3921 24.0036 19.2154C24.8858 18.1738 26.0522 17.2281 27.375 16.484C31.3266 14.2646 35.6645 14.3641 37.0457 16.7088C38.4266 19.0535 36.3352 22.7667 32.3839 24.9862C31.7651 25.3334 31.0729 25.6199 30.3722 25.917C28.7324 26.6159 26.1476 27.1009 24.2504 26.172C24.0423 26.0708 23.8816 26.3783 24.0924 26.4809C25.9801 27.4055 28.6082 27.0469 30.514 26.2343C31.2176 25.9359 31.9209 25.6456 32.5606 25.2866C35.9269 23.3948 37.9764 20.4276 37.8069 18.037C38.3054 18.9863 38.616 20.0102 38.6951 21.0014C38.7895 22.1252 38.0575 23.3344 37.3988 24.252C34.7933 27.8985 29.0239 29.7282 25.7472 28.5392C25.0091 28.2671 24.2556 27.6464 23.6267 26.7905C23.5702 26.7138 23.4505 26.6872 23.3632 26.7693C23.3522 26.7677 23.3426 26.7621 23.3316 26.7633C23.265 26.7768 23.2468 26.8575 23.2456 26.9223C23.2399 27.5068 23.7762 28.0004 24.1809 28.37C24.5814 28.7409 25.0381 29.0616 25.5554 29.247C29.263 30.6008 34.9999 28.2834 37.4153 24.903L37.4148 24.903Z"/>
<path d="M34.1558 16.2496C30.381 16.6875 28.9576 17.1867 28.1279 17.3814C27.9697 17.4162 27.9008 17.5499 27.8355 17.6445C27.5888 17.8274 27.4107 18.175 27.2058 18.4884C26.4355 19.6726 25.7732 20.9182 25.1713 22.1853C25.1123 22.3098 25.2076 22.4534 25.3514 22.4507L27.1457 22.4096C27.3459 22.4134 27.3233 22.5858 27.9366 23.6034C27.966 23.654 28.0068 23.6858 28.0633 23.6963C31.1302 24.3695 31.0628 24.429 31.3665 24.2242C31.514 24.2446 31.6396 24.1782 31.7176 24.073L33.7418 21.1982C33.8254 21.0905 33.8352 20.9422 33.7656 20.8206L32.875 19.205L34.5102 16.802C34.6796 16.5434 34.4551 16.2067 34.1558 16.2496ZM32.5625 19.0651C32.5023 19.1072 32.6362 18.972 31.3507 20.5081C31.2035 20.6862 31.4771 20.9034 31.6256 20.7267L32.6368 19.5121L33.4567 20.9968L31.4143 23.8848L28.5497 23.2532L27.999 22.2827L30.2309 22.0501C30.6517 22.0069 30.8057 21.6912 30.8858 21.6158C31.033 21.4377 30.758 21.2205 30.6109 21.3972C30.5194 21.4859 30.4411 21.6802 30.1933 21.7051C27.3328 22.008 27.7166 21.9532 27.6498 21.979C27.6305 21.9759 27.6155 21.9648 27.5948 21.9644C27.5478 21.9635 25.7428 21.9882 25.7897 21.9905C26.5863 20.3019 27.3772 18.9048 28.2291 17.7127C28.3457 17.6852 30.3798 17.0249 34.2136 16.6125C33.3731 17.856 32.6246 18.9273 32.5625 19.0651Z"/>
<path d="M13.5394 27.1599C13.7948 27.2418 14.0903 27.18 14.3555 27.1864C15.1619 27.2127 15.9842 27.2069 16.7789 27.0534C16.9005 27.0503 17.0114 27.1064 17.0828 27.1996C17.4939 28.0972 18.1423 28.9401 18.9615 29.7416C19.1973 30.0553 19.4882 29.7989 19.6202 29.5463C19.7356 29.3635 19.829 29.1763 19.9128 28.9875C19.9777 28.9199 20.0343 28.8468 20.073 28.7746C20.5832 27.9662 20.7594 27.069 20.8464 26.1324C21.0979 26.0589 22.0883 26.0036 23.0184 25.7042C23.3271 25.6048 24.0936 25.2618 24.3137 25.027C24.4026 24.9274 24.5728 24.847 24.6426 24.7363C24.7295 24.5975 24.6255 24.4038 24.5564 24.2594C24.5756 24.122 24.5423 23.9864 24.464 23.8917C24.4277 23.8357 24.383 23.7916 24.3529 23.7775C23.5013 23.0091 22.5968 22.4031 21.6942 21.9902C21.5702 21.9014 21.6318 21.7838 21.6272 21.7364C21.7441 20.6869 22.0358 18.1583 21.0778 18.1845C20.53 18.2145 19.2309 19.3074 18.8276 19.6642C18.0701 20.3234 17.8663 20.2182 17.3699 20.021C16.5183 19.682 14.4375 18.8157 14.2257 19.6272C14.0544 19.8399 14.0697 20.0549 14.1209 20.338C14.1875 20.7551 14.2189 21.1352 14.3715 21.5323C14.5269 21.9309 14.6948 22.327 14.8571 22.7244C14.9257 22.8931 15.0212 23.1002 15.089 23.3134C15.0622 23.3426 15.0326 23.3731 15.0114 23.3984C14.8223 23.6 14.6539 23.81 14.5137 23.9869C14.2247 24.3567 13.9433 24.7672 13.6267 25.2809C13.5825 25.3503 13.3687 25.6878 13.3395 25.7723C13.2575 25.8665 13.188 25.9638 13.1541 26.0725C13.12 26.1947 13.1257 26.3258 13.1399 26.4516C13.1772 26.7399 13.2291 27.0554 13.5394 27.1599ZM14.797 24.2002C14.9315 24.0287 15.0943 23.8265 15.2819 23.6263C15.3215 23.5784 15.3667 23.5294 15.4089 23.4856C15.8459 23.0377 15.5603 22.3692 15.3712 21.9268L15.3197 21.803C15.259 21.6519 15.1956 21.5009 15.1335 21.3511C14.4337 19.6608 14.5202 19.6868 14.6535 19.6556C15.255 19.4876 17.2719 20.3715 17.5301 20.4561C18.5983 20.806 19.0295 19.6518 20.7716 18.6565C20.8708 18.6003 20.9894 18.5378 21.0945 18.5317C21.1181 18.5295 21.1442 18.534 21.1795 18.5711C21.6223 19.036 21.2618 21.7658 21.2603 21.8441C21.264 22.0129 21.3466 22.1725 21.5129 22.2877C23.1387 23.0372 24.1262 24.0648 24.174 24.0927C24.2443 24.1777 24.2069 24.3255 24.0804 24.3663C23.7174 24.4876 23.0718 24.8627 21.618 25.017C20.4246 25.1426 20.551 25.538 20.4847 26.1875C20.3947 27.062 20.2329 27.8568 19.764 28.6052C19.6824 28.7549 19.5672 28.8499 19.5022 28.854C19.4677 28.8547 19.4349 28.8312 19.3796 28.7612C18.4263 27.8221 17.893 27.0301 17.5186 26.2372C17.4107 26.096 17.2519 26.0201 17.0418 26.0255C16.279 26.1715 15.2698 26.1994 13.8496 26.1181C13.764 26.1165 13.7162 26.0832 13.6829 26.0218C13.6669 25.9931 13.6379 25.9156 13.7117 25.8184C13.7816 25.6996 13.8572 25.5796 13.9285 25.4648C14.2421 24.9605 14.5165 24.5581 14.797 24.2002Z"/>
<path d="M18.2957 25.2016C19.3127 24.8404 20.1444 24.0503 20.5583 23.0754C20.7371 23.118 20.9164 23.1322 20.8696 23.1259C21.0947 23.1302 21.1135 22.7998 20.8887 22.7806C20.7756 22.7704 20.6641 22.7453 20.5542 22.7121C20.5255 22.694 20.5161 22.683 20.4608 22.6833C20.3099 22.6278 20.1662 22.5534 20.0396 22.4592C19.8515 22.3206 19.6404 22.596 19.8256 22.7346C19.9482 22.826 20.0836 22.8988 20.2261 22.9596C19.8473 23.8381 19.0957 24.55 18.1775 24.8767C17.9536 24.9547 18.0786 25.2812 18.2957 25.2016Z"/>
<path d="M16.8139 24.1511C16.8208 24.1512 16.8264 24.1513 16.8333 24.1501C17.29 24.1103 17.7001 23.7644 17.8108 23.3291C17.8333 23.2364 17.7756 23.1435 17.6807 23.12C17.5831 23.0966 17.4894 23.1542 17.4669 23.2455C17.3921 23.5425 17.1127 23.7774 16.8012 23.8052C16.7043 23.8141 16.6323 23.8978 16.6415 23.9925C16.6494 24.0831 16.7242 24.1494 16.8139 24.1511Z"/>
<path d="M18.4214 22.4673C18.4283 22.4674 18.4338 22.4675 18.4408 22.4663C18.8975 22.4265 19.3076 22.0806 19.4182 21.6453C19.4736 21.4235 19.1312 21.3387 19.0744 21.5617C18.9996 21.8586 18.7201 22.0936 18.4087 22.1214C18.3118 22.1303 18.2397 22.214 18.249 22.3087C18.2569 22.3979 18.3316 22.4655 18.4214 22.4673Z"/>
<path d="M22.5668 16.4183L23.872 15.3646C24.0531 15.2182 23.8247 14.9519 23.6464 15.0984L22.3412 16.1521C22.1601 16.2971 22.3899 16.5621 22.5668 16.4183Z"/>
<path d="M22.2732 13.583C21.9354 14.261 21.6401 14.9655 21.3942 15.6777C21.3196 15.8937 21.6546 16.0054 21.7293 15.7881C21.9706 15.0907 22.2603 14.3982 22.5908 13.7335C22.6929 13.5289 22.3752 13.377 22.2732 13.583Z"/>
<path d="M20.0337 13.5655C20.0349 13.575 20.3368 15.4116 20.3627 15.5741C20.3998 15.8003 20.7491 15.7463 20.7119 15.5214C20.6712 15.2695 20.3917 13.5603 20.3829 13.5128C20.3472 13.2867 19.998 13.3394 20.0337 13.5655Z"/>
</mask>
<path d="M24.2565 34.4202C27.9276 34.3543 31.7651 33.8947 35.1715 32.51C37.4984 31.5677 39.4617 30.2836 39.2117 27.8323C39.22 27.7582 39.2298 27.6828 39.2312 27.6072C39.234 27.4641 39.2145 27.1843 39.1748 27.089C39.0746 26.624 38.825 26.1656 38.4314 25.7246C38.3678 25.6532 38.2561 25.6456 38.1816 25.7077C38.1086 25.7711 38.101 25.8789 38.1645 25.9517C41.2932 29.4574 33.8955 32.7663 24.1233 32.5786C16.0458 32.4235 9.51925 29.9382 9.57492 27.039C9.57611 26.9769 9.58137 26.919 9.59223 26.8571L9.59233 26.8517C9.63535 26.7701 9.55147 25.4535 12.223 24.1236C12.4323 24.0196 12.2696 23.7113 12.0618 23.8153C10.629 24.5291 9.09916 25.6959 9.23342 27.2662C8.94374 28.0329 9.0477 28.3035 9.12972 29.3569C9.33698 32.3069 16.0544 34.5651 24.2565 34.4202Z" fill="#333333"/>
<path d="M19.9894 31.1304C21.3007 31.4877 22.7745 31.6551 24.1393 31.6813C26.4155 31.725 28.5346 31.3876 29.9563 30.756C30.1667 30.6615 30.0249 30.3483 29.809 30.4413C28.4348 31.0522 26.3698 31.3798 24.146 31.3371C22.8131 31.3115 21.3627 31.1486 20.0843 30.7987C19.9922 30.7753 19.8931 30.8274 19.8664 30.9187C19.8398 31.0087 19.8959 31.1043 19.9894 31.1304Z" fill="#333333"/>
<path d="M37.4148 24.903C37.6434 24.5834 37.8781 24.2314 38.0884 23.8601C38.6396 23.0026 39.1319 21.9751 39.0474 20.9744C38.9371 19.5992 38.4036 18.1645 37.5471 16.9345C37.5457 16.9331 37.5444 16.9317 37.543 16.9303C35.9267 13.1 27.9575 14.0028 23.7301 18.9955C23.5817 19.1722 23.8538 19.3921 24.0036 19.2154C24.8858 18.1738 26.0522 17.2281 27.375 16.484C31.3266 14.2646 35.6645 14.3641 37.0457 16.7088C38.4266 19.0535 36.3352 22.7667 32.3839 24.9862C31.7651 25.3334 31.0729 25.6199 30.3722 25.917C28.7324 26.6159 26.1476 27.1009 24.2504 26.172C24.0423 26.0708 23.8816 26.3783 24.0924 26.4809C25.9801 27.4055 28.6082 27.0469 30.514 26.2343C31.2176 25.9359 31.9209 25.6456 32.5606 25.2866C35.9269 23.3948 37.9764 20.4276 37.8069 18.037C38.3054 18.9863 38.616 20.0102 38.6951 21.0014C38.7895 22.1252 38.0575 23.3344 37.3988 24.252C34.7933 27.8985 29.0239 29.7282 25.7472 28.5392C25.0091 28.2671 24.2556 27.6464 23.6267 26.7905C23.5702 26.7138 23.4505 26.6872 23.3632 26.7693C23.3522 26.7677 23.3426 26.7621 23.3316 26.7633C23.265 26.7768 23.2468 26.8575 23.2456 26.9223C23.2399 27.5068 23.7762 28.0004 24.1809 28.37C24.5814 28.7409 25.0381 29.0616 25.5554 29.247C29.263 30.6008 34.9999 28.2834 37.4153 24.903L37.4148 24.903Z" fill="#333333"/>
<path d="M34.1558 16.2496C30.381 16.6875 28.9576 17.1867 28.1279 17.3814C27.9697 17.4162 27.9008 17.5499 27.8355 17.6445C27.5888 17.8274 27.4107 18.175 27.2058 18.4884C26.4355 19.6726 25.7732 20.9182 25.1713 22.1853C25.1123 22.3098 25.2076 22.4534 25.3514 22.4507L27.1457 22.4096C27.3459 22.4134 27.3233 22.5858 27.9366 23.6034C27.966 23.654 28.0068 23.6858 28.0633 23.6963C31.1302 24.3695 31.0628 24.429 31.3665 24.2242C31.514 24.2446 31.6396 24.1782 31.7176 24.073L33.7418 21.1982C33.8254 21.0905 33.8352 20.9422 33.7656 20.8206L32.875 19.205L34.5102 16.802C34.6796 16.5434 34.4551 16.2067 34.1558 16.2496ZM32.5625 19.0651C32.5023 19.1072 32.6362 18.972 31.3507 20.5081C31.2035 20.6862 31.4771 20.9034 31.6256 20.7267L32.6368 19.5121L33.4567 20.9968L31.4143 23.8848L28.5497 23.2532L27.999 22.2827L30.2309 22.0501C30.6517 22.0069 30.8057 21.6912 30.8858 21.6158C31.033 21.4377 30.758 21.2205 30.6109 21.3972C30.5194 21.4859 30.4411 21.6802 30.1933 21.7051C27.3328 22.008 27.7166 21.9532 27.6498 21.979C27.6305 21.9759 27.6155 21.9648 27.5948 21.9644C27.5478 21.9635 25.7428 21.9882 25.7897 21.9905C26.5863 20.3019 27.3772 18.9048 28.2291 17.7127C28.3457 17.6852 30.3798 17.0249 34.2136 16.6125C33.3731 17.856 32.6246 18.9273 32.5625 19.0651Z" fill="#333333"/>
<path d="M13.5394 27.1599C13.7948 27.2418 14.0903 27.18 14.3555 27.1864C15.1619 27.2127 15.9842 27.2069 16.7789 27.0534C16.9005 27.0503 17.0114 27.1064 17.0828 27.1996C17.4939 28.0972 18.1423 28.9401 18.9615 29.7416C19.1973 30.0553 19.4882 29.7989 19.6202 29.5463C19.7356 29.3635 19.829 29.1763 19.9128 28.9875C19.9777 28.9199 20.0343 28.8468 20.073 28.7746C20.5832 27.9662 20.7594 27.069 20.8464 26.1324C21.0979 26.0589 22.0883 26.0036 23.0184 25.7042C23.3271 25.6048 24.0936 25.2618 24.3137 25.027C24.4026 24.9274 24.5728 24.847 24.6426 24.7363C24.7295 24.5975 24.6255 24.4038 24.5564 24.2594C24.5756 24.122 24.5423 23.9864 24.464 23.8917C24.4277 23.8357 24.383 23.7916 24.3529 23.7775C23.5013 23.0091 22.5968 22.4031 21.6942 21.9902C21.5702 21.9014 21.6318 21.7838 21.6272 21.7364C21.7441 20.6869 22.0358 18.1583 21.0778 18.1845C20.53 18.2145 19.2309 19.3074 18.8276 19.6642C18.0701 20.3234 17.8663 20.2182 17.3699 20.021C16.5183 19.682 14.4375 18.8157 14.2257 19.6272C14.0544 19.8399 14.0697 20.0549 14.1209 20.338C14.1875 20.7551 14.2189 21.1352 14.3715 21.5323C14.5269 21.9309 14.6948 22.327 14.8571 22.7244C14.9257 22.8931 15.0212 23.1002 15.089 23.3134C15.0622 23.3426 15.0326 23.3731 15.0114 23.3984C14.8223 23.6 14.6539 23.81 14.5137 23.9869C14.2247 24.3567 13.9433 24.7672 13.6267 25.2809C13.5825 25.3503 13.3687 25.6878 13.3395 25.7723C13.2575 25.8665 13.188 25.9638 13.1541 26.0725C13.12 26.1947 13.1257 26.3258 13.1399 26.4516C13.1772 26.7399 13.2291 27.0554 13.5394 27.1599ZM14.797 24.2002C14.9315 24.0287 15.0943 23.8265 15.2819 23.6263C15.3215 23.5784 15.3667 23.5294 15.4089 23.4856C15.8459 23.0377 15.5603 22.3692 15.3712 21.9268L15.3197 21.803C15.259 21.6519 15.1956 21.5009 15.1335 21.3511C14.4337 19.6608 14.5202 19.6868 14.6535 19.6556C15.255 19.4876 17.2719 20.3715 17.5301 20.4561C18.5983 20.806 19.0295 19.6518 20.7716 18.6565C20.8708 18.6003 20.9894 18.5378 21.0945 18.5317C21.1181 18.5295 21.1442 18.534 21.1795 18.5711C21.6223 19.036 21.2618 21.7658 21.2603 21.8441C21.264 22.0129 21.3466 22.1725 21.5129 22.2877C23.1387 23.0372 24.1262 24.0648 24.174 24.0927C24.2443 24.1777 24.2069 24.3255 24.0804 24.3663C23.7174 24.4876 23.0718 24.8627 21.618 25.017C20.4246 25.1426 20.551 25.538 20.4847 26.1875C20.3947 27.062 20.2329 27.8568 19.764 28.6052C19.6824 28.7549 19.5672 28.8499 19.5022 28.854C19.4677 28.8547 19.4349 28.8312 19.3796 28.7612C18.4263 27.8221 17.893 27.0301 17.5186 26.2372C17.4107 26.096 17.2519 26.0201 17.0418 26.0255C16.279 26.1715 15.2698 26.1994 13.8496 26.1181C13.764 26.1165 13.7162 26.0832 13.6829 26.0218C13.6669 25.9931 13.6379 25.9156 13.7117 25.8184C13.7816 25.6996 13.8572 25.5796 13.9285 25.4648C14.2421 24.9605 14.5165 24.5581 14.797 24.2002Z" fill="#333333"/>
<path d="M18.2957 25.2016C19.3127 24.8404 20.1444 24.0503 20.5583 23.0754C20.7371 23.118 20.9164 23.1322 20.8696 23.1259C21.0947 23.1302 21.1135 22.7998 20.8887 22.7806C20.7756 22.7704 20.6641 22.7453 20.5542 22.7121C20.5255 22.694 20.5161 22.683 20.4608 22.6833C20.3099 22.6278 20.1662 22.5534 20.0396 22.4592C19.8515 22.3206 19.6404 22.596 19.8256 22.7346C19.9482 22.826 20.0836 22.8988 20.2261 22.9596C19.8473 23.8381 19.0957 24.55 18.1775 24.8767C17.9536 24.9547 18.0786 25.2812 18.2957 25.2016Z" fill="#333333"/>
<path d="M16.8139 24.1511C16.8208 24.1512 16.8264 24.1513 16.8333 24.1501C17.29 24.1103 17.7001 23.7644 17.8108 23.3291C17.8333 23.2364 17.7756 23.1435 17.6807 23.12C17.5831 23.0966 17.4894 23.1542 17.4669 23.2455C17.3921 23.5425 17.1127 23.7774 16.8012 23.8052C16.7043 23.8141 16.6323 23.8978 16.6415 23.9925C16.6494 24.0831 16.7242 24.1494 16.8139 24.1511Z" fill="#333333"/>
<path d="M18.4214 22.4673C18.4283 22.4674 18.4338 22.4675 18.4408 22.4663C18.8975 22.4265 19.3076 22.0806 19.4182 21.6453C19.4736 21.4235 19.1312 21.3387 19.0744 21.5617C18.9996 21.8586 18.7201 22.0936 18.4087 22.1214C18.3118 22.1303 18.2397 22.214 18.249 22.3087C18.2569 22.3979 18.3316 22.4655 18.4214 22.4673Z" fill="#333333"/>
<path d="M22.5668 16.4183L23.872 15.3646C24.0531 15.2182 23.8247 14.9519 23.6464 15.0984L22.3412 16.1521C22.1601 16.2971 22.3899 16.5621 22.5668 16.4183Z" fill="#333333"/>
<path d="M22.2732 13.583C21.9354 14.261 21.6401 14.9655 21.3942 15.6777C21.3196 15.8937 21.6546 16.0054 21.7293 15.7881C21.9706 15.0907 22.2603 14.3982 22.5908 13.7335C22.6929 13.5289 22.3752 13.377 22.2732 13.583Z" fill="#333333"/>
<path d="M20.0337 13.5655C20.0349 13.575 20.3368 15.4116 20.3627 15.5741C20.3998 15.8003 20.7491 15.7463 20.7119 15.5214C20.6712 15.2695 20.3917 13.5603 20.3829 13.5128C20.3472 13.2867 19.998 13.3394 20.0337 13.5655Z" fill="#333333"/>
<path d="M24.2565 34.4202C27.9276 34.3543 31.7651 33.8947 35.1715 32.51C37.4984 31.5677 39.4617 30.2836 39.2117 27.8323C39.22 27.7582 39.2298 27.6828 39.2312 27.6072C39.234 27.4641 39.2145 27.1843 39.1748 27.089C39.0746 26.624 38.825 26.1656 38.4314 25.7246C38.3678 25.6532 38.2561 25.6456 38.1816 25.7077C38.1086 25.7711 38.101 25.8789 38.1645 25.9517C41.2932 29.4574 33.8955 32.7663 24.1233 32.5786C16.0458 32.4235 9.51925 29.9382 9.57492 27.039C9.57611 26.9769 9.58137 26.919 9.59223 26.8571L9.59233 26.8517C9.63535 26.7701 9.55147 25.4535 12.223 24.1236C12.4323 24.0196 12.2696 23.7113 12.0618 23.8153C10.629 24.5291 9.09916 25.6959 9.23342 27.2662C8.94374 28.0329 9.0477 28.3035 9.12972 29.3569C9.33698 32.3069 16.0544 34.5651 24.2565 34.4202Z" stroke="#333333" stroke-width="2" mask="url(#path-2-inside-1_36064_5560)"/>
<path d="M19.9894 31.1304C21.3007 31.4877 22.7745 31.6551 24.1393 31.6813C26.4155 31.725 28.5346 31.3876 29.9563 30.756C30.1667 30.6615 30.0249 30.3483 29.809 30.4413C28.4348 31.0522 26.3698 31.3798 24.146 31.3371C22.8131 31.3115 21.3627 31.1486 20.0843 30.7987C19.9922 30.7753 19.8931 30.8274 19.8664 30.9187C19.8398 31.0087 19.8959 31.1043 19.9894 31.1304Z" stroke="#333333" stroke-width="2" mask="url(#path-2-inside-1_36064_5560)"/>
<path d="M37.4148 24.903C37.6434 24.5834 37.8781 24.2314 38.0884 23.8601C38.6396 23.0026 39.1319 21.9751 39.0474 20.9744C38.9371 19.5992 38.4036 18.1645 37.5471 16.9345C37.5457 16.9331 37.5444 16.9317 37.543 16.9303C35.9267 13.1 27.9575 14.0028 23.7301 18.9955C23.5817 19.1722 23.8538 19.3921 24.0036 19.2154C24.8858 18.1738 26.0522 17.2281 27.375 16.484C31.3266 14.2646 35.6645 14.3641 37.0457 16.7088C38.4266 19.0535 36.3352 22.7667 32.3839 24.9862C31.7651 25.3334 31.0729 25.6199 30.3722 25.917C28.7324 26.6159 26.1476 27.1009 24.2504 26.172C24.0423 26.0708 23.8816 26.3783 24.0924 26.4809C25.9801 27.4055 28.6082 27.0469 30.514 26.2343C31.2176 25.9359 31.9209 25.6456 32.5606 25.2866C35.9269 23.3948 37.9764 20.4276 37.8069 18.037C38.3054 18.9863 38.616 20.0102 38.6951 21.0014C38.7895 22.1252 38.0575 23.3344 37.3988 24.252C34.7933 27.8985 29.0239 29.7282 25.7472 28.5392C25.0091 28.2671 24.2556 27.6464 23.6267 26.7905C23.5702 26.7138 23.4505 26.6872 23.3632 26.7693C23.3522 26.7677 23.3426 26.7621 23.3316 26.7633C23.265 26.7768 23.2468 26.8575 23.2456 26.9223C23.2399 27.5068 23.7762 28.0004 24.1809 28.37C24.5814 28.7409 25.0381 29.0616 25.5554 29.247C29.263 30.6008 34.9999 28.2834 37.4153 24.903L37.4148 24.903Z" stroke="#333333" stroke-width="2" mask="url(#path-2-inside-1_36064_5560)"/>
<path d="M34.1558 16.2496C30.381 16.6875 28.9576 17.1867 28.1279 17.3814C27.9697 17.4162 27.9008 17.5499 27.8355 17.6445C27.5888 17.8274 27.4107 18.175 27.2058 18.4884C26.4355 19.6726 25.7732 20.9182 25.1713 22.1853C25.1123 22.3098 25.2076 22.4534 25.3514 22.4507L27.1457 22.4096C27.3459 22.4134 27.3233 22.5858 27.9366 23.6034C27.966 23.654 28.0068 23.6858 28.0633 23.6963C31.1302 24.3695 31.0628 24.429 31.3665 24.2242C31.514 24.2446 31.6396 24.1782 31.7176 24.073L33.7418 21.1982C33.8254 21.0905 33.8352 20.9422 33.7656 20.8206L32.875 19.205L34.5102 16.802C34.6796 16.5434 34.4551 16.2067 34.1558 16.2496ZM32.5625 19.0651C32.5023 19.1072 32.6362 18.972 31.3507 20.5081C31.2035 20.6862 31.4771 20.9034 31.6256 20.7267L32.6368 19.5121L33.4567 20.9968L31.4143 23.8848L28.5497 23.2532L27.999 22.2827L30.2309 22.0501C30.6517 22.0069 30.8057 21.6912 30.8858 21.6158C31.033 21.4377 30.758 21.2205 30.6109 21.3972C30.5194 21.4859 30.4411 21.6802 30.1933 21.7051C27.3328 22.008 27.7166 21.9532 27.6498 21.979C27.6305 21.9759 27.6155 21.9648 27.5948 21.9644C27.5478 21.9635 25.7428 21.9882 25.7897 21.9905C26.5863 20.3019 27.3772 18.9048 28.2291 17.7127C28.3457 17.6852 30.3798 17.0249 34.2136 16.6125C33.3731 17.856 32.6246 18.9273 32.5625 19.0651Z" stroke="#333333" stroke-width="2" mask="url(#path-2-inside-1_36064_5560)"/>
<path d="M13.5394 27.1599C13.7948 27.2418 14.0903 27.18 14.3555 27.1864C15.1619 27.2127 15.9842 27.2069 16.7789 27.0534C16.9005 27.0503 17.0114 27.1064 17.0828 27.1996C17.4939 28.0972 18.1423 28.9401 18.9615 29.7416C19.1973 30.0553 19.4882 29.7989 19.6202 29.5463C19.7356 29.3635 19.829 29.1763 19.9128 28.9875C19.9777 28.9199 20.0343 28.8468 20.073 28.7746C20.5832 27.9662 20.7594 27.069 20.8464 26.1324C21.0979 26.0589 22.0883 26.0036 23.0184 25.7042C23.3271 25.6048 24.0936 25.2618 24.3137 25.027C24.4026 24.9274 24.5728 24.847 24.6426 24.7363C24.7295 24.5975 24.6255 24.4038 24.5564 24.2594C24.5756 24.122 24.5423 23.9864 24.464 23.8917C24.4277 23.8357 24.383 23.7916 24.3529 23.7775C23.5013 23.0091 22.5968 22.4031 21.6942 21.9902C21.5702 21.9014 21.6318 21.7838 21.6272 21.7364C21.7441 20.6869 22.0358 18.1583 21.0778 18.1845C20.53 18.2145 19.2309 19.3074 18.8276 19.6642C18.0701 20.3234 17.8663 20.2182 17.3699 20.021C16.5183 19.682 14.4375 18.8157 14.2257 19.6272C14.0544 19.8399 14.0697 20.0549 14.1209 20.338C14.1875 20.7551 14.2189 21.1352 14.3715 21.5323C14.5269 21.9309 14.6948 22.327 14.8571 22.7244C14.9257 22.8931 15.0212 23.1002 15.089 23.3134C15.0622 23.3426 15.0326 23.3731 15.0114 23.3984C14.8223 23.6 14.6539 23.81 14.5137 23.9869C14.2247 24.3567 13.9433 24.7672 13.6267 25.2809C13.5825 25.3503 13.3687 25.6878 13.3395 25.7723C13.2575 25.8665 13.188 25.9638 13.1541 26.0725C13.12 26.1947 13.1257 26.3258 13.1399 26.4516C13.1772 26.7399 13.2291 27.0554 13.5394 27.1599ZM14.797 24.2002C14.9315 24.0287 15.0943 23.8265 15.2819 23.6263C15.3215 23.5784 15.3667 23.5294 15.4089 23.4856C15.8459 23.0377 15.5603 22.3692 15.3712 21.9268L15.3197 21.803C15.259 21.6519 15.1956 21.5009 15.1335 21.3511C14.4337 19.6608 14.5202 19.6868 14.6535 19.6556C15.255 19.4876 17.2719 20.3715 17.5301 20.4561C18.5983 20.806 19.0295 19.6518 20.7716 18.6565C20.8708 18.6003 20.9894 18.5378 21.0945 18.5317C21.1181 18.5295 21.1442 18.534 21.1795 18.5711C21.6223 19.036 21.2618 21.7658 21.2603 21.8441C21.264 22.0129 21.3466 22.1725 21.5129 22.2877C23.1387 23.0372 24.1262 24.0648 24.174 24.0927C24.2443 24.1777 24.2069 24.3255 24.0804 24.3663C23.7174 24.4876 23.0718 24.8627 21.618 25.017C20.4246 25.1426 20.551 25.538 20.4847 26.1875C20.3947 27.062 20.2329 27.8568 19.764 28.6052C19.6824 28.7549 19.5672 28.8499 19.5022 28.854C19.4677 28.8547 19.4349 28.8312 19.3796 28.7612C18.4263 27.8221 17.893 27.0301 17.5186 26.2372C17.4107 26.096 17.2519 26.0201 17.0418 26.0255C16.279 26.1715 15.2698 26.1994 13.8496 26.1181C13.764 26.1165 13.7162 26.0832 13.6829 26.0218C13.6669 25.9931 13.6379 25.9156 13.7117 25.8184C13.7816 25.6996 13.8572 25.5796 13.9285 25.4648C14.2421 24.9605 14.5165 24.5581 14.797 24.2002Z" stroke="#333333" stroke-width="2" mask="url(#path-2-inside-1_36064_5560)"/>
<path d="M18.2957 25.2016C19.3127 24.8404 20.1444 24.0503 20.5583 23.0754C20.7371 23.118 20.9164 23.1322 20.8696 23.1259C21.0947 23.1302 21.1135 22.7998 20.8887 22.7806C20.7756 22.7704 20.6641 22.7453 20.5542 22.7121C20.5255 22.694 20.5161 22.683 20.4608 22.6833C20.3099 22.6278 20.1662 22.5534 20.0396 22.4592C19.8515 22.3206 19.6404 22.596 19.8256 22.7346C19.9482 22.826 20.0836 22.8988 20.2261 22.9596C19.8473 23.8381 19.0957 24.55 18.1775 24.8767C17.9536 24.9547 18.0786 25.2812 18.2957 25.2016Z" stroke="#333333" stroke-width="2" mask="url(#path-2-inside-1_36064_5560)"/>
<path d="M16.8139 24.1511C16.8208 24.1512 16.8264 24.1513 16.8333 24.1501C17.29 24.1103 17.7001 23.7644 17.8108 23.3291C17.8333 23.2364 17.7756 23.1435 17.6807 23.12C17.5831 23.0966 17.4894 23.1542 17.4669 23.2455C17.3921 23.5425 17.1127 23.7774 16.8012 23.8052C16.7043 23.8141 16.6323 23.8978 16.6415 23.9925C16.6494 24.0831 16.7242 24.1494 16.8139 24.1511Z" stroke="#333333" stroke-width="2" mask="url(#path-2-inside-1_36064_5560)"/>
<path d="M18.4214 22.4673C18.4283 22.4674 18.4338 22.4675 18.4408 22.4663C18.8975 22.4265 19.3076 22.0806 19.4182 21.6453C19.4736 21.4235 19.1312 21.3387 19.0744 21.5617C18.9996 21.8586 18.7201 22.0936 18.4087 22.1214C18.3118 22.1303 18.2397 22.214 18.249 22.3087C18.2569 22.3979 18.3316 22.4655 18.4214 22.4673Z" stroke="#333333" stroke-width="2" mask="url(#path-2-inside-1_36064_5560)"/>
<path d="M22.5668 16.4183L23.872 15.3646C24.0531 15.2182 23.8247 14.9519 23.6464 15.0984L22.3412 16.1521C22.1601 16.2971 22.3899 16.5621 22.5668 16.4183Z" stroke="#333333" stroke-width="2" mask="url(#path-2-inside-1_36064_5560)"/>
<path d="M22.2732 13.583C21.9354 14.261 21.6401 14.9655 21.3942 15.6777C21.3196 15.8937 21.6546 16.0054 21.7293 15.7881C21.9706 15.0907 22.2603 14.3982 22.5908 13.7335C22.6929 13.5289 22.3752 13.377 22.2732 13.583Z" stroke="#333333" stroke-width="2" mask="url(#path-2-inside-1_36064_5560)"/>
<path d="M20.0337 13.5655C20.0349 13.575 20.3368 15.4116 20.3627 15.5741C20.3998 15.8003 20.7491 15.7463 20.7119 15.5214C20.6712 15.2695 20.3917 13.5603 20.3829 13.5128C20.3472 13.2867 19.998 13.3394 20.0337 13.5655Z" stroke="#333333" stroke-width="2" mask="url(#path-2-inside-1_36064_5560)"/>
</g>
</g>
</svg>
