<svg width="48" height="48" viewBox="0 0 48 48" fill="none" xmlns="http://www.w3.org/2000/svg">
<path d="M0.580923 10.0885C0.273471 7.90087 1.79766 5.8782 3.9853 5.57075L37.6544 0.838863C39.8421 0.53141 41.8647 2.0556 42.1722 4.24324L46.9041 37.9124C47.2115 40.1 45.6873 42.1227 43.4997 42.4301L9.83057 47.162C7.64293 47.4695 5.62026 45.9453 5.31281 43.7576L0.580923 10.0885Z" fill="#FFF7EB"/>
<path d="M21.7924 36.348C20.9116 36.7155 19.9744 36.9689 19.0381 37.0427C18.8173 37.0611 18.8361 37.3954 19.0648 37.3825C20.0463 37.3042 21.0222 37.0383 21.9232 36.6618C22.0397 36.6122 22.1406 36.5449 22.2257 36.4681C22.3207 36.4313 22.4157 36.3972 22.5094 36.3565C22.8308 36.219 23.0288 35.9354 22.9824 35.6525C22.4031 32.0015 21.5273 28.2321 20.427 24.3304C20.3448 24.0454 20.0283 23.8624 19.6692 23.8901C19.58 23.8977 19.4935 23.9094 19.4043 23.9183C19.3028 23.8804 19.1837 23.8569 19.0029 23.868C17.9468 23.9528 16.9067 24.1763 15.8645 24.578C15.4471 24.7376 15.1914 25.1238 15.2586 25.4962C16.2768 31.0471 16.817 32.8614 17.6738 36.3035L17.8405 36.2694L18.0023 36.2113C16.8336 31.8587 16.7577 30.3449 15.9141 26.3537C15.8022 25.8168 15.7477 25.3368 16.1414 24.9586C16.3645 24.7487 16.6126 24.6936 16.7183 24.6531C17.343 24.4842 18.6617 24.1383 19.2985 24.2423L19.2985 24.2437C19.4583 24.2906 19.5731 24.3953 19.6118 24.5264C20.778 28.6634 21.6127 32.3604 22.1623 35.8297C22.1957 36.0272 22.0428 36.241 21.7924 36.348Z" fill="#333333"/>
<path d="M9.03797 31.732C10.0935 33.8209 11.2317 35.8887 12.5839 38.0152C12.7731 38.3261 12.8686 38.5395 13.2377 38.5466C13.6253 38.554 14.5299 38.0579 14.8592 37.8553C15.1587 37.6775 15.4696 37.4626 15.7851 37.2173C15.9078 37.1199 15.991 37.0057 16.0437 36.8883C16.072 36.8663 16.1002 36.8495 16.1285 36.8274C16.3389 36.6599 16.4337 36.4289 16.352 36.2584C15.3107 34.0487 14.0332 31.837 12.5703 29.5943C12.4619 29.4313 12.201 29.3917 11.9453 29.4972C10.7016 30.0161 9.97479 30.4531 9.33078 30.9329C9.03309 31.152 8.91265 31.4808 9.03797 31.732ZM13.4509 38.1674C13.2583 38.2395 13.1037 38.2006 13.0573 38.1266C11.2555 35.3423 10.7969 34.1229 9.69111 32.0968C9.49617 31.7365 9.406 31.4528 9.65139 31.1222C10.2614 30.6817 10.8738 30.3289 11.6208 30.016C11.7493 29.9639 11.7689 29.9803 11.8156 29.9705L11.8156 29.9718C11.9193 29.9632 12.0024 29.9914 12.0373 30.0439C13.566 32.384 14.7812 34.5266 15.7522 36.5913C15.7879 36.6678 15.7385 36.8185 15.574 36.9484C14.9295 37.4535 14.2188 37.8788 13.4509 38.1674Z" fill="#333333"/>
<path d="M18.5657 18.7766C19.2595 18.5425 19.7448 18.3749 20.4906 18.1232C20.7018 18.0514 20.5991 17.7302 20.3826 17.8005C20.0284 17.9201 19.6875 18.0359 19.3614 18.1467C19.0485 18.2538 18.7478 18.3558 18.4578 18.4526C18.3682 18.4828 18.3212 18.5791 18.35 18.6687C18.3802 18.7584 18.4749 18.8068 18.5657 18.7766Z" fill="#333333"/>
<path d="M20.4467 16.7932C19.7064 16.6846 18.9657 16.528 18.2432 16.3279C18.0265 16.2679 17.9366 16.596 18.1532 16.6561C18.8877 16.8604 19.6429 17.0199 20.3964 17.1302C20.6216 17.1611 20.6678 16.8268 20.4467 16.7932Z" fill="#333333"/>
<path d="M20.9037 15.8901L19.6066 14.8342C19.5346 14.7756 19.4269 14.7855 19.367 14.8589C19.3085 14.9322 19.3184 15.0389 19.3916 15.0988L20.6888 16.1547C20.864 16.295 21.0776 16.0318 20.9037 15.8901Z" fill="#333333"/>
<path d="M33.4885 24.093C33.7026 23.6621 33.918 23.2313 34.1361 22.7991C34.4506 22.9528 35.944 23.6773 37.5351 24.4288C37.6206 24.4744 37.7197 24.5016 37.8144 24.4794L37.8144 24.4781C37.9928 24.4536 38.1005 24.2375 37.9015 24.0195C33.7216 19.2937 33.2854 19.1699 32.6908 18.6037C32.5237 18.4542 32.2957 18.7079 32.4655 18.8588C33.0511 19.4128 33.4579 19.5297 37.4315 24.0052C34.9376 22.8253 31.6457 21.2176 29.4295 20.0987C27.564 19.113 27.1919 19.058 26.8689 18.6607C25.1465 16.6495 23.5788 14.6798 22.0545 12.663C25.7291 14.6678 26.981 15.3876 30.6201 17.4356C30.8146 17.5457 30.9836 17.2483 30.7852 17.1381L29.5934 16.4753C26.7207 14.8278 22.0253 12.2461 21.9555 12.2209C21.7816 12.1471 21.6298 12.1654 21.5494 12.273C21.5494 12.273 21.5481 12.2743 21.548 12.2756C21.0721 12.3037 21.6191 12.9328 21.894 13.2773C23.2112 14.9455 23.0911 14.7703 23.8461 15.6987C23.2086 16.6043 22.5605 17.575 22.1123 18.5747C22.0331 18.7595 22.0475 18.9753 22.1584 19.149C22.263 19.3705 22.9461 20.3135 23.1988 20.6429C23.1864 20.664 23.1661 20.6822 23.1551 20.7046C23.0683 20.8666 23.0276 21.048 23.0358 21.2464C23.0906 22.0563 23.3158 28.3129 24.3259 37.0525C24.3774 37.2717 24.707 37.1942 24.6554 36.975C24.5235 35.8231 24.3995 34.6687 24.2836 33.513C23.6304 22.2979 23.517 21.7024 23.7098 21.2753C24.2127 21.853 26.1038 23.3713 27.8519 24.3068C27.89 24.3288 28.2332 24.507 28.5056 24.64C28.6799 26.5589 29.2415 31.2697 29.4299 37.3635C29.4422 37.6923 29.2401 37.9797 28.9261 38.0814C27.9882 38.3734 27.0536 38.4951 26.3075 38.4808C26.2797 38.4803 26.2585 38.4772 26.2239 38.4792C26.131 38.4774 26.0539 38.5504 26.0508 38.6435C26.0476 38.7379 26.1218 38.8165 26.2147 38.8196C27.3335 38.8583 28.8164 38.537 29.2095 38.3263C29.3817 38.2831 29.5552 38.2359 29.7302 38.1807C30.1097 38.0589 30.3688 37.7061 30.3528 37.2947C30.2292 33.3586 29.9289 29.2876 29.4837 25.0844C30.5032 25.5204 31.7943 25.9217 31.8897 25.9302C32.1091 25.9876 32.3768 25.9475 32.5211 25.7614C32.6626 25.5832 32.7856 25.4033 32.8981 25.2139C33.0121 25.0205 32.7193 24.8473 32.6053 25.042C32.5023 25.2183 32.3876 25.3837 32.2556 25.5514C32.1671 25.6628 31.9279 25.5997 31.7948 25.5465C30.7605 25.2593 29.4658 24.7702 28.0103 24.0066C26.9377 23.4326 24.6826 21.918 23.9297 20.9417C22.8065 19.5433 22.7006 19.1781 22.5859 19.0655C22.5087 18.9389 22.497 18.7831 22.554 18.6512C22.9758 17.7107 23.5776 16.7978 24.1144 16.0232C26.2212 18.4848 25.9385 18.1281 26.6839 19.0072C26.9264 19.3111 26.9372 19.3007 30.3163 20.9287C31.5146 21.5277 32.6908 22.105 33.8263 22.6536C33.6096 23.0844 33.3928 23.5153 33.1787 23.9462C33.0833 24.1439 33.3885 24.2948 33.488 24.0931L33.4885 24.093Z" fill="#333333"/>
<path d="M37.5447 11.6822C37.5054 11.5857 37.4378 11.5072 37.3499 11.4496C37.4846 11.2128 37.6004 10.9237 37.4801 10.6194C37.4333 10.5001 37.3447 10.4066 37.2409 10.3527C37.3023 10.1943 37.3466 10.0315 37.2967 9.86691C37.1402 9.36904 36.4226 9.74237 35.9811 9.98C35.7624 10.0982 35.4384 10.233 34.6855 10.6455C34.6685 10.6332 34.6542 10.6143 34.6358 10.6033C34.3641 10.4358 34.2015 10.5391 34.1999 10.6894C33.6582 10.7522 33.2858 10.9898 33.221 11.53C33.2197 11.53 33.217 11.5312 33.2157 11.5312C31.9522 11.9739 31.5623 14.1614 32.2742 15.1237C31.9822 16.1517 32.0733 17.4944 30.7461 18.4893C30.646 18.3756 30.5154 18.2614 30.3593 18.1612C29.9776 17.9158 29.5847 17.8337 29.4152 17.9502C29.2948 17.9266 29.1054 18.1757 29.0906 18.2566C29.0743 18.3441 29.1057 18.4378 29.1453 18.5171C29.4139 19.0557 30.5385 19.6892 30.8476 19.2894C30.9675 19.1347 30.9916 18.9835 30.9251 18.7814C31.9529 18.0242 32.2405 17.0879 32.4458 15.9385C32.4784 15.7622 32.5111 15.5806 32.5516 15.4071C33.557 16.162 34.8141 14.8785 34.2378 14.1105C33.8626 13.5951 32.9009 13.6778 32.4228 14.7142C32.0233 13.8738 32.3693 12.2428 33.2433 11.8884C33.3909 12.5019 33.8928 12.6472 34.5148 12.55C34.566 12.72 34.8706 12.7617 35.0303 12.399C35.371 12.4973 36.1886 12.8017 36.3795 12.8878C36.5651 12.9725 36.81 13.0823 37.0357 13.0867C37.4923 13.0954 37.656 12.6623 37.4106 12.3037C37.5487 12.1627 37.6678 11.9785 37.5447 11.6822ZM34.0314 14.6225C33.9522 15.1518 33.1844 15.5774 32.6541 15.047C33.0878 13.8288 34.1257 14.0031 34.0314 14.6225ZM33.6889 12.0605C33.5238 11.8737 33.4966 11.5619 33.6245 11.3329C33.7359 11.1341 33.9981 11.0314 34.3889 11.015C34.5416 11.2933 34.6087 11.7389 34.5643 11.9748C34.476 12.0104 34.4276 12.1106 34.4802 12.2087C34.2031 12.2526 33.8825 12.2797 33.6889 12.0605ZM37.1788 12.617C37.2548 13.0176 36.3432 12.428 35.1255 12.0747C35.211 11.636 35.1727 11.2788 34.9249 10.9042C35.6644 10.502 35.8824 10.421 36.1427 10.2811C36.76 9.94838 36.9261 9.94224 36.9721 9.96974C37.002 10.0688 36.9176 10.2454 36.8761 10.3311C36.7688 10.3902 36.6563 10.4359 36.5376 10.4629C36.3255 10.5121 36.3856 10.8418 36.6136 10.7956C36.7536 10.7637 36.8862 10.7091 37.0136 10.6423C37.0854 10.6357 37.1416 10.6874 37.1657 10.7464C37.2442 10.9434 37.1285 11.162 37.005 11.3672C36.7491 11.4128 36.4884 11.4371 36.2282 11.4347C36.0038 11.4331 35.9999 11.7709 36.223 11.7752C36.4593 11.7797 36.7652 11.7563 37.077 11.6998C37.1166 11.7085 37.1998 11.7354 37.2328 11.8145C37.2874 11.9473 37.2641 11.9827 37.0883 12.147L37.0491 12.1848C37.0085 12.2239 36.9914 12.2808 36.9997 12.3355C37.0197 12.4703 37.1401 12.422 37.1788 12.617Z" fill="#333333"/>
</svg>
