<svg width="48" height="49" viewBox="0 0 48 49" fill="none" xmlns="http://www.w3.org/2000/svg">
<g id="Illustration Icon">
<path id="Rectangle 4589" d="M0.580923 10.525C0.273471 8.3374 1.79766 6.31473 3.9853 6.00727L37.6544 1.27539C39.8421 0.967934 41.8647 2.49213 42.1722 4.67977L46.9041 38.3489C47.2115 40.5365 45.6873 42.5592 43.4997 42.8666L9.83057 47.5985C7.64293 47.906 5.62026 46.3818 5.31281 44.1942L0.580923 10.525Z" fill="#FFF7EB"/>
<g id="Vector">
<mask id="path-2-inside-1_36132_6438" fill="white">
<path d="M38.101 30.4109L34.2227 20.3099C34.8195 20.3311 35.4144 20.0232 35.7827 19.5457C36.0367 19.3649 36.278 19.1151 36.3224 18.8071C36.3651 18.521 36.4103 18.225 36.321 17.9275C36.1337 17.3039 35.6293 17.0921 35.0913 16.9808C35.1915 16.3559 34.4317 15.9631 33.977 16.4107C32.4346 14.953 30.6043 13.7726 28.5306 13.3053C28.4418 13.2852 28.3536 13.3402 28.334 13.4272C28.3144 13.5142 28.3659 13.6181 28.4573 13.623C30.5101 14.0889 32.3109 15.2709 33.8057 16.6968C33.7768 16.7997 33.3625 18.4247 33.1988 19.065C31.3536 17.3472 29.3853 16.297 27.3375 15.9416L28.0628 13.1055C28.3003 12.1766 27.9805 11.0723 27.0335 10.9353C26.3281 10.8679 25.6197 11.5055 25.3856 12.4209L25.3626 12.5109C23.3923 11.9085 21.162 11.9348 18.7262 12.5985C18.6493 12.6196 18.5716 12.6339 18.4938 12.6429C18.4478 12.3985 18.2655 12.1903 18.0083 12.1245C17.7785 12.0657 17.5475 12.1355 17.3884 12.2867C16.3891 11.5934 15.3182 12.9138 15.6618 14.0596C15.664 14.2219 15.678 14.3897 15.7175 14.5457C15.8097 14.8992 16.1439 15.3986 16.4269 15.6379C16.4183 15.6817 16.3967 15.7301 16.3944 15.8373L11.3269 22.3982C11.2775 22.4618 11.2868 22.5496 11.3398 22.6065C10.5432 23.7237 10.3086 25.2053 10.8475 26.576C11.7762 28.9374 14.5734 29.9392 16.7671 28.7838C19.4247 28.1215 20.7768 24.9202 19.2287 22.4911L17.8379 15.9897C17.8755 15.9822 17.9129 15.976 17.9499 15.9658C20.2851 15.3328 22.4788 15.2577 24.5014 15.8788L20.3302 32.1893L19.9737 32.0981C19.6917 32.026 19.4063 32.1948 19.335 32.4736L19.2012 32.9967C19.1296 33.2767 19.3004 33.5609 19.5812 33.6327L23.0385 34.5169C23.3205 34.589 23.6059 34.4202 23.6772 34.1414L23.811 33.6183C23.8826 33.3383 23.7117 33.0541 23.431 32.9823L23.0061 32.8736L27.1767 16.5811C29.3094 16.9517 31.2473 18.0479 33.0317 19.7291C33.0271 19.7727 32.9366 19.9664 33.0432 20.2223C25.2207 27.9555 25.5367 27.4909 25.579 27.6673C25.4621 27.8503 25.5079 28.0749 25.6691 28.2002L30.9206 32.2795C31.0074 32.3543 31.126 32.3873 31.2508 32.3653C31.2984 32.3551 37.4507 31.137 37.6766 31.0975C37.9311 31.0601 38.1707 30.9873 38.2115 30.7348C38.2105 30.7333 38.249 30.5775 38.101 30.4109ZM36.0709 27.0305C36.101 26.9594 36.0736 26.8801 36.0119 26.8367C36.0275 26.8118 36.0394 26.7859 36.0455 26.7572C36.1474 26.2655 34.6439 25.5353 32.6862 25.1267C32.3457 25.0554 32.0158 24.9999 31.6998 24.9572L33.6857 20.6231C33.7849 20.6183 33.8788 20.5924 33.9645 20.5472L37.6191 30.0642C37.3372 29.883 37.8849 30.2202 35.4227 28.5759L36.0709 27.0305ZM29.053 25.128C28.9396 25.0951 28.8517 25.1751 28.8435 25.269L28.7137 26.9982L26.1685 27.4329L33.2407 20.486C33.276 20.5134 33.3132 20.5387 33.3545 20.5585L31.3567 24.9184C30.2252 24.7986 29.3418 24.8733 29.053 25.128ZM36.0088 18.0198C36.0764 18.2473 36.0378 18.5069 35.9986 18.7637C35.9418 19.1461 35.2989 19.4968 34.9232 19.615C34.7517 19.6697 34.5785 19.6898 34.4082 19.6831L35.018 17.2985C35.5305 17.4059 35.8753 17.5742 36.0088 18.0198ZM17.0562 16.5112C17.2546 16.512 17.4411 16.4243 17.5654 16.2747L18.7665 21.8928C17.9535 21.0041 16.7967 20.502 15.5765 20.5224L17.0562 16.5112ZM18.8168 12.9135C21.2313 12.2548 23.347 12.2307 25.2847 12.8262L24.6673 15.2403C22.7008 14.6388 20.4696 14.6636 18.0319 15.3243C17.9777 15.3393 17.9245 15.3402 17.8692 15.3497L18.4777 12.97C18.5903 12.9594 18.7032 12.9436 18.8168 12.9135ZM16.9487 12.4345C17.0453 12.45 17.1328 12.5013 17.2199 12.5643C17.1865 12.6688 16.8183 14.1241 16.5997 14.9738C16.21 14.6086 15.8522 13.9323 15.9275 13.4929C16.0652 12.6593 16.56 12.36 16.9487 12.4345ZM16.5129 16.2239C16.5698 16.3068 16.6457 16.3775 16.7373 16.4285L15.2207 20.5421C14.6274 20.5954 14.1393 20.7492 13.6846 20.9904C13.2216 21.098 12.7569 21.3261 12.3539 21.6082L16.5129 16.2239ZM17.069 28.3496C15.6139 28.8949 14.1308 28.5458 13.1003 27.6685C12.9351 27.5277 12.7225 27.7743 12.8876 27.9151C13.5362 28.4687 14.3336 28.8185 15.2186 28.9134C13.5065 29.0919 11.8117 28.1275 11.1539 26.4598C10.4968 24.7908 11.0853 22.9447 12.4675 21.9288C11.4439 23.0747 11.1048 24.732 11.6997 26.2457C11.7792 26.4474 12.0846 26.3297 12.0051 26.128C11.2802 24.2787 12.0596 22.199 13.82 21.2876C15.8192 20.2191 18.4222 21.1161 19.2879 23.3207C20.0704 25.3174 19.0739 27.5744 17.069 28.3496ZM20.651 32.2702L25.7063 12.5028C26.0284 11.2433 27.2723 10.7782 27.7044 11.8783C27.8359 12.2129 27.8508 12.6202 27.7474 13.0248L22.6922 32.7921L20.651 32.2702ZM31.1878 32.0431C31.1713 32.0455 31.1489 32.045 31.1272 32.0263C25.6788 27.7534 25.8182 27.9704 25.8437 27.8652C25.8696 27.764 25.8316 27.8503 28.6902 27.3341L28.6107 28.4006C28.5953 28.6004 28.691 28.7905 28.8597 28.8967C29.7845 29.4829 30.7937 29.9512 31.8841 30.1591C31.9736 30.1767 32.0587 30.1183 32.0758 30.0307C32.0932 29.9418 32.0283 29.849 31.9447 29.8394C30.9863 29.6535 30.0344 29.2563 29.0345 28.6221C28.9697 28.5805 28.9311 28.5036 28.9376 28.4265L29.144 25.668C30.1722 26.6524 34.3468 27.5321 35.7108 27.0424L34.5947 29.7142C34.5641 29.7615 34.4967 29.8179 34.423 29.8319C34.0942 29.8963 33.7639 29.9354 33.4411 29.9501C33.3504 29.9532 33.2804 30.0299 33.2851 30.1205C33.2891 30.2135 33.3709 30.2818 33.457 30.2762C33.7969 30.2619 34.1436 30.2205 34.488 30.1521C34.6675 30.1179 34.8032 29.9962 34.8839 29.867L35.2951 28.8852C36.0002 29.3679 35.7545 29.1644 37.4186 30.3273C37.511 30.3903 37.6907 30.4796 37.8184 30.5859L37.8667 30.7126C37.8047 30.748 38.1963 30.6549 31.1878 32.0431Z"/>
<path d="M17.8387 31.4455C17.9269 31.468 18.0157 31.4158 18.0381 31.3282C18.0646 31.2246 17.9686 31.1186 17.8641 31.1234C17.2285 31.0883 16.5138 31.0935 15.9774 31.2244C15.6172 31.1783 14.9963 31.3757 14.8143 31.7616C14.4868 32.4519 14.285 33.1271 14.2997 33.7736C14.0924 34.584 16.6788 35.9447 20.0753 36.8133C23.9041 37.7924 25.0779 37.6011 25.3523 37.6305C26.1653 37.6242 27.1652 37.4975 27.2968 36.9673C27.6062 36.3735 27.7712 35.7283 27.8007 34.9972C27.7657 34.958 28.1819 34.2155 25.4219 32.9905C25.217 32.9066 25.094 33.2011 25.2886 33.2889C26.9099 34.0085 27.5567 34.6418 27.4778 34.9501C27.4453 35.0772 27.2789 35.1897 27.0063 35.2672C25.9653 35.5701 23.6112 35.3505 21.1478 34.7205C17.4357 33.7712 15.3504 32.4283 15.4895 31.8843C15.557 31.6256 16.2134 31.3571 17.8387 31.4455ZM21.0686 35.0354C22.496 35.4004 26.1529 36.1464 27.4328 35.442C27.366 35.9414 27.2235 36.4004 26.993 36.8514C26.8728 37.3214 25.349 37.2971 25.3014 37.3073C24.0793 37.3194 22.39 37.0726 20.6658 36.6317C16.9538 35.6824 14.8697 34.3346 15.0098 33.7869C15.0136 33.7721 15.0149 33.7566 15.0146 33.7421C15.0016 33.3169 15.0935 32.8489 15.2929 32.3229C15.8911 33.2802 18.4919 34.3764 21.0686 35.0354Z"/>
<path d="M16.8056 26.848C17.069 26.6355 17.2669 26.343 17.3253 26.0268C17.4122 25.5575 17.229 25.0835 16.8708 24.8487C16.5855 24.66 16.2595 24.6411 15.9201 24.6896L15.1882 22.9043C15.4588 22.7882 15.7412 22.8275 15.9552 22.9638C16.1385 23.0803 16.3148 22.8047 16.1312 22.6894C15.8543 22.5147 15.4994 22.4634 15.1851 22.5539C15.1438 22.5657 15.1054 22.5861 15.0653 22.6034L14.7215 21.7637C14.6392 21.5626 14.3363 21.6863 14.4176 21.8858L14.7802 22.771C14.0746 23.3463 14.3198 24.5143 14.954 24.9328C15.221 25.1102 15.4803 25.0898 15.7155 25.05L16.4037 26.7269C15.9599 26.9564 15.4964 26.8747 15.2796 26.3921C15.1924 26.195 14.8916 26.3257 14.9798 26.5244C15.273 27.179 15.9243 27.3285 16.5263 27.029L16.7793 27.6444C16.8618 27.8442 17.1657 27.7222 17.0831 27.5223L16.8056 26.848ZM16.6914 25.1208C16.9373 25.2822 17.0653 25.6304 17.0032 25.9667C16.9635 26.1787 16.8437 26.3781 16.678 26.5341L16.0487 24.9998C16.2779 24.9782 16.4997 24.9955 16.6914 25.1208ZM15.1341 24.6634C14.7185 24.3889 14.4679 23.5625 14.9127 23.0966L15.5877 24.7426C15.4247 24.764 15.2811 24.7614 15.1341 24.6634Z"/>
</mask>
<path d="M38.101 30.4109L34.2227 20.3099C34.8195 20.3311 35.4144 20.0232 35.7827 19.5457C36.0367 19.3649 36.278 19.1151 36.3224 18.8071C36.3651 18.521 36.4103 18.225 36.321 17.9275C36.1337 17.3039 35.6293 17.0921 35.0913 16.9808C35.1915 16.3559 34.4317 15.9631 33.977 16.4107C32.4346 14.953 30.6043 13.7726 28.5306 13.3053C28.4418 13.2852 28.3536 13.3402 28.334 13.4272C28.3144 13.5142 28.3659 13.6181 28.4573 13.623C30.5101 14.0889 32.3109 15.2709 33.8057 16.6968C33.7768 16.7997 33.3625 18.4247 33.1988 19.065C31.3536 17.3472 29.3853 16.297 27.3375 15.9416L28.0628 13.1055C28.3003 12.1766 27.9805 11.0723 27.0335 10.9353C26.3281 10.8679 25.6197 11.5055 25.3856 12.4209L25.3626 12.5109C23.3923 11.9085 21.162 11.9348 18.7262 12.5985C18.6493 12.6196 18.5716 12.6339 18.4938 12.6429C18.4478 12.3985 18.2655 12.1903 18.0083 12.1245C17.7785 12.0657 17.5475 12.1355 17.3884 12.2867C16.3891 11.5934 15.3182 12.9138 15.6618 14.0596C15.664 14.2219 15.678 14.3897 15.7175 14.5457C15.8097 14.8992 16.1439 15.3986 16.4269 15.6379C16.4183 15.6817 16.3967 15.7301 16.3944 15.8373L11.3269 22.3982C11.2775 22.4618 11.2868 22.5496 11.3398 22.6065C10.5432 23.7237 10.3086 25.2053 10.8475 26.576C11.7762 28.9374 14.5734 29.9392 16.7671 28.7838C19.4247 28.1215 20.7768 24.9202 19.2287 22.4911L17.8379 15.9897C17.8755 15.9822 17.9129 15.976 17.9499 15.9658C20.2851 15.3328 22.4788 15.2577 24.5014 15.8788L20.3302 32.1893L19.9737 32.0981C19.6917 32.026 19.4063 32.1948 19.335 32.4736L19.2012 32.9967C19.1296 33.2767 19.3004 33.5609 19.5812 33.6327L23.0385 34.5169C23.3205 34.589 23.6059 34.4202 23.6772 34.1414L23.811 33.6183C23.8826 33.3383 23.7117 33.0541 23.431 32.9823L23.0061 32.8736L27.1767 16.5811C29.3094 16.9517 31.2473 18.0479 33.0317 19.7291C33.0271 19.7727 32.9366 19.9664 33.0432 20.2223C25.2207 27.9555 25.5367 27.4909 25.579 27.6673C25.4621 27.8503 25.5079 28.0749 25.6691 28.2002L30.9206 32.2795C31.0074 32.3543 31.126 32.3873 31.2508 32.3653C31.2984 32.3551 37.4507 31.137 37.6766 31.0975C37.9311 31.0601 38.1707 30.9873 38.2115 30.7348C38.2105 30.7333 38.249 30.5775 38.101 30.4109ZM36.0709 27.0305C36.101 26.9594 36.0736 26.8801 36.0119 26.8367C36.0275 26.8118 36.0394 26.7859 36.0455 26.7572C36.1474 26.2655 34.6439 25.5353 32.6862 25.1267C32.3457 25.0554 32.0158 24.9999 31.6998 24.9572L33.6857 20.6231C33.7849 20.6183 33.8788 20.5924 33.9645 20.5472L37.6191 30.0642C37.3372 29.883 37.8849 30.2202 35.4227 28.5759L36.0709 27.0305ZM29.053 25.128C28.9396 25.0951 28.8517 25.1751 28.8435 25.269L28.7137 26.9982L26.1685 27.4329L33.2407 20.486C33.276 20.5134 33.3132 20.5387 33.3545 20.5585L31.3567 24.9184C30.2252 24.7986 29.3418 24.8733 29.053 25.128ZM36.0088 18.0198C36.0764 18.2473 36.0378 18.5069 35.9986 18.7637C35.9418 19.1461 35.2989 19.4968 34.9232 19.615C34.7517 19.6697 34.5785 19.6898 34.4082 19.6831L35.018 17.2985C35.5305 17.4059 35.8753 17.5742 36.0088 18.0198ZM17.0562 16.5112C17.2546 16.512 17.4411 16.4243 17.5654 16.2747L18.7665 21.8928C17.9535 21.0041 16.7967 20.502 15.5765 20.5224L17.0562 16.5112ZM18.8168 12.9135C21.2313 12.2548 23.347 12.2307 25.2847 12.8262L24.6673 15.2403C22.7008 14.6388 20.4696 14.6636 18.0319 15.3243C17.9777 15.3393 17.9245 15.3402 17.8692 15.3497L18.4777 12.97C18.5903 12.9594 18.7032 12.9436 18.8168 12.9135ZM16.9487 12.4345C17.0453 12.45 17.1328 12.5013 17.2199 12.5643C17.1865 12.6688 16.8183 14.1241 16.5997 14.9738C16.21 14.6086 15.8522 13.9323 15.9275 13.4929C16.0652 12.6593 16.56 12.36 16.9487 12.4345ZM16.5129 16.2239C16.5698 16.3068 16.6457 16.3775 16.7373 16.4285L15.2207 20.5421C14.6274 20.5954 14.1393 20.7492 13.6846 20.9904C13.2216 21.098 12.7569 21.3261 12.3539 21.6082L16.5129 16.2239ZM17.069 28.3496C15.6139 28.8949 14.1308 28.5458 13.1003 27.6685C12.9351 27.5277 12.7225 27.7743 12.8876 27.9151C13.5362 28.4687 14.3336 28.8185 15.2186 28.9134C13.5065 29.0919 11.8117 28.1275 11.1539 26.4598C10.4968 24.7908 11.0853 22.9447 12.4675 21.9288C11.4439 23.0747 11.1048 24.732 11.6997 26.2457C11.7792 26.4474 12.0846 26.3297 12.0051 26.128C11.2802 24.2787 12.0596 22.199 13.82 21.2876C15.8192 20.2191 18.4222 21.1161 19.2879 23.3207C20.0704 25.3174 19.0739 27.5744 17.069 28.3496ZM20.651 32.2702L25.7063 12.5028C26.0284 11.2433 27.2723 10.7782 27.7044 11.8783C27.8359 12.2129 27.8508 12.6202 27.7474 13.0248L22.6922 32.7921L20.651 32.2702ZM31.1878 32.0431C31.1713 32.0455 31.1489 32.045 31.1272 32.0263C25.6788 27.7534 25.8182 27.9704 25.8437 27.8652C25.8696 27.764 25.8316 27.8503 28.6902 27.3341L28.6107 28.4006C28.5953 28.6004 28.691 28.7905 28.8597 28.8967C29.7845 29.4829 30.7937 29.9512 31.8841 30.1591C31.9736 30.1767 32.0587 30.1183 32.0758 30.0307C32.0932 29.9418 32.0283 29.849 31.9447 29.8394C30.9863 29.6535 30.0344 29.2563 29.0345 28.6221C28.9697 28.5805 28.9311 28.5036 28.9376 28.4265L29.144 25.668C30.1722 26.6524 34.3468 27.5321 35.7108 27.0424L34.5947 29.7142C34.5641 29.7615 34.4967 29.8179 34.423 29.8319C34.0942 29.8963 33.7639 29.9354 33.4411 29.9501C33.3504 29.9532 33.2804 30.0299 33.2851 30.1205C33.2891 30.2135 33.3709 30.2818 33.457 30.2762C33.7969 30.2619 34.1436 30.2205 34.488 30.1521C34.6675 30.1179 34.8032 29.9962 34.8839 29.867L35.2951 28.8852C36.0002 29.3679 35.7545 29.1644 37.4186 30.3273C37.511 30.3903 37.6907 30.4796 37.8184 30.5859L37.8667 30.7126C37.8047 30.748 38.1963 30.6549 31.1878 32.0431Z" fill="#333333"/>
<path d="M17.8387 31.4455C17.9269 31.468 18.0157 31.4158 18.0381 31.3282C18.0646 31.2246 17.9686 31.1186 17.8641 31.1234C17.2285 31.0883 16.5138 31.0935 15.9774 31.2244C15.6172 31.1783 14.9963 31.3757 14.8143 31.7616C14.4868 32.4519 14.285 33.1271 14.2997 33.7736C14.0924 34.584 16.6788 35.9447 20.0753 36.8133C23.9041 37.7924 25.0779 37.6011 25.3523 37.6305C26.1653 37.6242 27.1652 37.4975 27.2968 36.9673C27.6062 36.3735 27.7712 35.7283 27.8007 34.9972C27.7657 34.958 28.1819 34.2155 25.4219 32.9905C25.217 32.9066 25.094 33.2011 25.2886 33.2889C26.9099 34.0085 27.5567 34.6418 27.4778 34.9501C27.4453 35.0772 27.2789 35.1897 27.0063 35.2672C25.9653 35.5701 23.6112 35.3505 21.1478 34.7205C17.4357 33.7712 15.3504 32.4283 15.4895 31.8843C15.557 31.6256 16.2134 31.3571 17.8387 31.4455ZM21.0686 35.0354C22.496 35.4004 26.1529 36.1464 27.4328 35.442C27.366 35.9414 27.2235 36.4004 26.993 36.8514C26.8728 37.3214 25.349 37.2971 25.3014 37.3073C24.0793 37.3194 22.39 37.0726 20.6658 36.6317C16.9538 35.6824 14.8697 34.3346 15.0098 33.7869C15.0136 33.7721 15.0149 33.7566 15.0146 33.7421C15.0016 33.3169 15.0935 32.8489 15.2929 32.3229C15.8911 33.2802 18.4919 34.3764 21.0686 35.0354Z" fill="#333333"/>
<path d="M16.8056 26.848C17.069 26.6355 17.2669 26.343 17.3253 26.0268C17.4122 25.5575 17.229 25.0835 16.8708 24.8487C16.5855 24.66 16.2595 24.6411 15.9201 24.6896L15.1882 22.9043C15.4588 22.7882 15.7412 22.8275 15.9552 22.9638C16.1385 23.0803 16.3148 22.8047 16.1312 22.6894C15.8543 22.5147 15.4994 22.4634 15.1851 22.5539C15.1438 22.5657 15.1054 22.5861 15.0653 22.6034L14.7215 21.7637C14.6392 21.5626 14.3363 21.6863 14.4176 21.8858L14.7802 22.771C14.0746 23.3463 14.3198 24.5143 14.954 24.9328C15.221 25.1102 15.4803 25.0898 15.7155 25.05L16.4037 26.7269C15.9599 26.9564 15.4964 26.8747 15.2796 26.3921C15.1924 26.195 14.8916 26.3257 14.9798 26.5244C15.273 27.179 15.9243 27.3285 16.5263 27.029L16.7793 27.6444C16.8618 27.8442 17.1657 27.7222 17.0831 27.5223L16.8056 26.848ZM16.6914 25.1208C16.9373 25.2822 17.0653 25.6304 17.0032 25.9667C16.9635 26.1787 16.8437 26.3781 16.678 26.5341L16.0487 24.9998C16.2779 24.9782 16.4997 24.9955 16.6914 25.1208ZM15.1341 24.6634C14.7185 24.3889 14.4679 23.5625 14.9127 23.0966L15.5877 24.7426C15.4247 24.764 15.2811 24.7614 15.1341 24.6634Z" fill="#333333"/>
<path d="M38.101 30.4109L34.2227 20.3099C34.8195 20.3311 35.4144 20.0232 35.7827 19.5457C36.0367 19.3649 36.278 19.1151 36.3224 18.8071C36.3651 18.521 36.4103 18.225 36.321 17.9275C36.1337 17.3039 35.6293 17.0921 35.0913 16.9808C35.1915 16.3559 34.4317 15.9631 33.977 16.4107C32.4346 14.953 30.6043 13.7726 28.5306 13.3053C28.4418 13.2852 28.3536 13.3402 28.334 13.4272C28.3144 13.5142 28.3659 13.6181 28.4573 13.623C30.5101 14.0889 32.3109 15.2709 33.8057 16.6968C33.7768 16.7997 33.3625 18.4247 33.1988 19.065C31.3536 17.3472 29.3853 16.297 27.3375 15.9416L28.0628 13.1055C28.3003 12.1766 27.9805 11.0723 27.0335 10.9353C26.3281 10.8679 25.6197 11.5055 25.3856 12.4209L25.3626 12.5109C23.3923 11.9085 21.162 11.9348 18.7262 12.5985C18.6493 12.6196 18.5716 12.6339 18.4938 12.6429C18.4478 12.3985 18.2655 12.1903 18.0083 12.1245C17.7785 12.0657 17.5475 12.1355 17.3884 12.2867C16.3891 11.5934 15.3182 12.9138 15.6618 14.0596C15.664 14.2219 15.678 14.3897 15.7175 14.5457C15.8097 14.8992 16.1439 15.3986 16.4269 15.6379C16.4183 15.6817 16.3967 15.7301 16.3944 15.8373L11.3269 22.3982C11.2775 22.4618 11.2868 22.5496 11.3398 22.6065C10.5432 23.7237 10.3086 25.2053 10.8475 26.576C11.7762 28.9374 14.5734 29.9392 16.7671 28.7838C19.4247 28.1215 20.7768 24.9202 19.2287 22.4911L17.8379 15.9897C17.8755 15.9822 17.9129 15.976 17.9499 15.9658C20.2851 15.3328 22.4788 15.2577 24.5014 15.8788L20.3302 32.1893L19.9737 32.0981C19.6917 32.026 19.4063 32.1948 19.335 32.4736L19.2012 32.9967C19.1296 33.2767 19.3004 33.5609 19.5812 33.6327L23.0385 34.5169C23.3205 34.589 23.6059 34.4202 23.6772 34.1414L23.811 33.6183C23.8826 33.3383 23.7117 33.0541 23.431 32.9823L23.0061 32.8736L27.1767 16.5811C29.3094 16.9517 31.2473 18.0479 33.0317 19.7291C33.0271 19.7727 32.9366 19.9664 33.0432 20.2223C25.2207 27.9555 25.5367 27.4909 25.579 27.6673C25.4621 27.8503 25.5079 28.0749 25.6691 28.2002L30.9206 32.2795C31.0074 32.3543 31.126 32.3873 31.2508 32.3653C31.2984 32.3551 37.4507 31.137 37.6766 31.0975C37.9311 31.0601 38.1707 30.9873 38.2115 30.7348C38.2105 30.7333 38.249 30.5775 38.101 30.4109ZM36.0709 27.0305C36.101 26.9594 36.0736 26.8801 36.0119 26.8367C36.0275 26.8118 36.0394 26.7859 36.0455 26.7572C36.1474 26.2655 34.6439 25.5353 32.6862 25.1267C32.3457 25.0554 32.0158 24.9999 31.6998 24.9572L33.6857 20.6231C33.7849 20.6183 33.8788 20.5924 33.9645 20.5472L37.6191 30.0642C37.3372 29.883 37.8849 30.2202 35.4227 28.5759L36.0709 27.0305ZM29.053 25.128C28.9396 25.0951 28.8517 25.1751 28.8435 25.269L28.7137 26.9982L26.1685 27.4329L33.2407 20.486C33.276 20.5134 33.3132 20.5387 33.3545 20.5585L31.3567 24.9184C30.2252 24.7986 29.3418 24.8733 29.053 25.128ZM36.0088 18.0198C36.0764 18.2473 36.0378 18.5069 35.9986 18.7637C35.9418 19.1461 35.2989 19.4968 34.9232 19.615C34.7517 19.6697 34.5785 19.6898 34.4082 19.6831L35.018 17.2985C35.5305 17.4059 35.8753 17.5742 36.0088 18.0198ZM17.0562 16.5112C17.2546 16.512 17.4411 16.4243 17.5654 16.2747L18.7665 21.8928C17.9535 21.0041 16.7967 20.502 15.5765 20.5224L17.0562 16.5112ZM18.8168 12.9135C21.2313 12.2548 23.347 12.2307 25.2847 12.8262L24.6673 15.2403C22.7008 14.6388 20.4696 14.6636 18.0319 15.3243C17.9777 15.3393 17.9245 15.3402 17.8692 15.3497L18.4777 12.97C18.5903 12.9594 18.7032 12.9436 18.8168 12.9135ZM16.9487 12.4345C17.0453 12.45 17.1328 12.5013 17.2199 12.5643C17.1865 12.6688 16.8183 14.1241 16.5997 14.9738C16.21 14.6086 15.8522 13.9323 15.9275 13.4929C16.0652 12.6593 16.56 12.36 16.9487 12.4345ZM16.5129 16.2239C16.5698 16.3068 16.6457 16.3775 16.7373 16.4285L15.2207 20.5421C14.6274 20.5954 14.1393 20.7492 13.6846 20.9904C13.2216 21.098 12.7569 21.3261 12.3539 21.6082L16.5129 16.2239ZM17.069 28.3496C15.6139 28.8949 14.1308 28.5458 13.1003 27.6685C12.9351 27.5277 12.7225 27.7743 12.8876 27.9151C13.5362 28.4687 14.3336 28.8185 15.2186 28.9134C13.5065 29.0919 11.8117 28.1275 11.1539 26.4598C10.4968 24.7908 11.0853 22.9447 12.4675 21.9288C11.4439 23.0747 11.1048 24.732 11.6997 26.2457C11.7792 26.4474 12.0846 26.3297 12.0051 26.128C11.2802 24.2787 12.0596 22.199 13.82 21.2876C15.8192 20.2191 18.4222 21.1161 19.2879 23.3207C20.0704 25.3174 19.0739 27.5744 17.069 28.3496ZM20.651 32.2702L25.7063 12.5028C26.0284 11.2433 27.2723 10.7782 27.7044 11.8783C27.8359 12.2129 27.8508 12.6202 27.7474 13.0248L22.6922 32.7921L20.651 32.2702ZM31.1878 32.0431C31.1713 32.0455 31.1489 32.045 31.1272 32.0263C25.6788 27.7534 25.8182 27.9704 25.8437 27.8652C25.8696 27.764 25.8316 27.8503 28.6902 27.3341L28.6107 28.4006C28.5953 28.6004 28.691 28.7905 28.8597 28.8967C29.7845 29.4829 30.7937 29.9512 31.8841 30.1591C31.9736 30.1767 32.0587 30.1183 32.0758 30.0307C32.0932 29.9418 32.0283 29.849 31.9447 29.8394C30.9863 29.6535 30.0344 29.2563 29.0345 28.6221C28.9697 28.5805 28.9311 28.5036 28.9376 28.4265L29.144 25.668C30.1722 26.6524 34.3468 27.5321 35.7108 27.0424L34.5947 29.7142C34.5641 29.7615 34.4967 29.8179 34.423 29.8319C34.0942 29.8963 33.7639 29.9354 33.4411 29.9501C33.3504 29.9532 33.2804 30.0299 33.2851 30.1205C33.2891 30.2135 33.3709 30.2818 33.457 30.2762C33.7969 30.2619 34.1436 30.2205 34.488 30.1521C34.6675 30.1179 34.8032 29.9962 34.8839 29.867L35.2951 28.8852C36.0002 29.3679 35.7545 29.1644 37.4186 30.3273C37.511 30.3903 37.6907 30.4796 37.8184 30.5859L37.8667 30.7126C37.8047 30.748 38.1963 30.6549 31.1878 32.0431Z" stroke="#333333" stroke-width="1.05" mask="url(#path-2-inside-1_36132_6438)"/>
<path d="M17.8387 31.4455C17.9269 31.468 18.0157 31.4158 18.0381 31.3282C18.0646 31.2246 17.9686 31.1186 17.8641 31.1234C17.2285 31.0883 16.5138 31.0935 15.9774 31.2244C15.6172 31.1783 14.9963 31.3757 14.8143 31.7616C14.4868 32.4519 14.285 33.1271 14.2997 33.7736C14.0924 34.584 16.6788 35.9447 20.0753 36.8133C23.9041 37.7924 25.0779 37.6011 25.3523 37.6305C26.1653 37.6242 27.1652 37.4975 27.2968 36.9673C27.6062 36.3735 27.7712 35.7283 27.8007 34.9972C27.7657 34.958 28.1819 34.2155 25.4219 32.9905C25.217 32.9066 25.094 33.2011 25.2886 33.2889C26.9099 34.0085 27.5567 34.6418 27.4778 34.9501C27.4453 35.0772 27.2789 35.1897 27.0063 35.2672C25.9653 35.5701 23.6112 35.3505 21.1478 34.7205C17.4357 33.7712 15.3504 32.4283 15.4895 31.8843C15.557 31.6256 16.2134 31.3571 17.8387 31.4455ZM21.0686 35.0354C22.496 35.4004 26.1529 36.1464 27.4328 35.442C27.366 35.9414 27.2235 36.4004 26.993 36.8514C26.8728 37.3214 25.349 37.2971 25.3014 37.3073C24.0793 37.3194 22.39 37.0726 20.6658 36.6317C16.9538 35.6824 14.8697 34.3346 15.0098 33.7869C15.0136 33.7721 15.0149 33.7566 15.0146 33.7421C15.0016 33.3169 15.0935 32.8489 15.2929 32.3229C15.8911 33.2802 18.4919 34.3764 21.0686 35.0354Z" stroke="#333333" stroke-width="1.05" mask="url(#path-2-inside-1_36132_6438)"/>
<path d="M16.8056 26.848C17.069 26.6355 17.2669 26.343 17.3253 26.0268C17.4122 25.5575 17.229 25.0835 16.8708 24.8487C16.5855 24.66 16.2595 24.6411 15.9201 24.6896L15.1882 22.9043C15.4588 22.7882 15.7412 22.8275 15.9552 22.9638C16.1385 23.0803 16.3148 22.8047 16.1312 22.6894C15.8543 22.5147 15.4994 22.4634 15.1851 22.5539C15.1438 22.5657 15.1054 22.5861 15.0653 22.6034L14.7215 21.7637C14.6392 21.5626 14.3363 21.6863 14.4176 21.8858L14.7802 22.771C14.0746 23.3463 14.3198 24.5143 14.954 24.9328C15.221 25.1102 15.4803 25.0898 15.7155 25.05L16.4037 26.7269C15.9599 26.9564 15.4964 26.8747 15.2796 26.3921C15.1924 26.195 14.8916 26.3257 14.9798 26.5244C15.273 27.179 15.9243 27.3285 16.5263 27.029L16.7793 27.6444C16.8618 27.8442 17.1657 27.7222 17.0831 27.5223L16.8056 26.848ZM16.6914 25.1208C16.9373 25.2822 17.0653 25.6304 17.0032 25.9667C16.9635 26.1787 16.8437 26.3781 16.678 26.5341L16.0487 24.9998C16.2779 24.9782 16.4997 24.9955 16.6914 25.1208ZM15.1341 24.6634C14.7185 24.3889 14.4679 23.5625 14.9127 23.0966L15.5877 24.7426C15.4247 24.764 15.2811 24.7614 15.1341 24.6634Z" stroke="#333333" stroke-width="1.05" mask="url(#path-2-inside-1_36132_6438)"/>
</g>
</g>
</svg>
