<svg width="48" height="48" viewBox="0 0 48 48" fill="none" xmlns="http://www.w3.org/2000/svg">
<g id="Illustration Icon">
<path id="Rectangle 4589" d="M1.05474 9.80629C0.747287 7.61865 2.27148 5.59598 4.45912 5.28852L38.1282 0.556637C40.3159 0.249184 42.3385 1.77338 42.646 3.96102L47.3779 37.6301C47.6853 39.8178 46.1611 41.8404 43.9735 42.1479L10.3044 46.8798C8.11675 47.1872 6.09408 45.663 5.78662 43.4754L1.05474 9.80629Z" fill="#EFB6A2"/>
<g id="Vector">
<path d="M22.2662 36.0658C21.3854 36.4333 20.4482 36.6867 19.5119 36.7605C19.2911 36.7789 19.3099 37.1132 19.5386 37.1002C20.5202 37.022 21.496 36.756 22.397 36.3796C22.5135 36.3299 22.6144 36.2627 22.6995 36.1858C22.7945 36.1491 22.8895 36.115 22.9832 36.0742C23.3046 35.9367 23.5026 35.6532 23.4562 35.3703C22.8769 31.7193 22.0011 27.9499 20.9008 24.0481C20.8186 23.7632 20.5021 23.5802 20.143 23.6079C20.0538 23.6155 19.9673 23.6271 19.8782 23.6361C19.7766 23.5982 19.6576 23.5746 19.4767 23.5858C18.4207 23.6706 17.3806 23.8941 16.3383 24.2958C15.9209 24.4554 15.6652 24.8416 15.7324 25.214C16.7506 30.7649 17.2908 32.5791 18.1477 36.0212L18.3143 35.9872L18.4761 35.9291C17.3074 31.5765 17.2315 30.0627 16.3879 26.0715C16.276 25.5346 16.2215 25.0546 16.6152 24.6764C16.8383 24.4665 17.0864 24.4114 17.1921 24.3709C17.8168 24.2019 19.1355 23.8561 19.7723 23.9601L19.7723 23.9614C19.9321 24.0084 20.0469 24.113 20.0856 24.2441C21.2518 28.3811 22.0865 32.0782 22.6361 35.5474C22.6695 35.745 22.5166 35.9588 22.2662 36.0658Z" fill="#333333"/>
<path d="M9.51178 31.4498C10.5673 33.5386 11.7055 35.6065 13.0577 37.733C13.2469 38.0439 13.3424 38.2572 13.7115 38.2643C14.0991 38.2718 15.0037 37.7756 15.333 37.5731C15.6325 37.3953 15.9434 37.1804 16.2589 36.935C16.3816 36.8376 16.4648 36.7235 16.5175 36.6061C16.5458 36.584 16.5741 36.5673 16.6024 36.5452C16.8128 36.3776 16.9075 36.1467 16.8258 35.9761C15.7846 33.7665 14.507 31.5548 13.0441 29.3121C12.9357 29.1491 12.6748 29.1095 12.4191 29.215C11.1754 29.7339 10.4486 30.1709 9.8046 30.6507C9.5069 30.8698 9.38647 31.1986 9.51178 31.4498ZM13.9248 37.8852C13.7321 37.9573 13.5775 37.9184 13.5311 37.8443C11.7294 35.06 11.2707 33.8406 10.1649 31.8146C9.96999 31.4543 9.87982 31.1705 10.1252 30.84C10.7352 30.3994 11.3476 30.0467 12.0946 29.7338C12.2231 29.6817 12.2427 29.698 12.2894 29.6883L12.2894 29.6896C12.3931 29.681 12.4762 29.7092 12.5111 29.7617C14.0398 32.1018 15.255 34.2443 16.226 36.309C16.2617 36.3855 16.2123 36.5363 16.0478 36.6661C15.4033 37.1712 14.6926 37.5966 13.9248 37.8852Z" fill="#333333"/>
<path d="M19.0396 18.4944C19.7333 18.2603 20.2186 18.0927 20.9644 17.841C21.1756 17.7692 21.0729 17.4479 20.8564 17.5183C20.5022 17.6379 20.1614 17.7537 19.8352 17.8645C19.5224 17.9716 19.2216 18.0736 18.9316 18.1704C18.842 18.2006 18.795 18.2968 18.8238 18.3865C18.854 18.4762 18.9487 18.5246 19.0396 18.4944Z" fill="#333333"/>
<path d="M20.9205 16.511C20.1802 16.4023 19.4395 16.2458 18.717 16.0457C18.5003 15.9856 18.4104 16.3138 18.627 16.3739C19.3615 16.5782 20.1167 16.7377 20.8702 16.8479C21.0954 16.8789 21.1416 16.5445 20.9205 16.511Z" fill="#333333"/>
<path d="M21.3775 15.6078L20.0804 14.552C20.0085 14.4934 19.9007 14.5033 19.8409 14.5766C19.7823 14.65 19.7922 14.7566 19.8655 14.8166L21.1626 15.8724C21.3378 16.0128 21.5514 15.7495 21.3775 15.6078Z" fill="#333333"/>
<path d="M33.9623 23.8108C34.1764 23.3799 34.3918 22.949 34.61 22.5169C34.9244 22.6706 36.4178 23.395 38.0089 24.1466C38.0944 24.1921 38.1935 24.2193 38.2882 24.1972L38.2882 24.1959C38.4666 24.1714 38.5744 23.9553 38.3754 23.7372C34.1954 19.0115 33.7592 18.8877 33.1646 18.3215C32.9975 18.1719 32.7696 18.4256 32.9393 18.5766C33.5249 19.1306 33.9317 19.2475 37.9053 23.723C35.4114 22.5431 32.1195 20.9354 29.9033 19.8165C28.0378 18.8308 27.6657 18.7758 27.3427 18.3785C25.6204 16.3673 24.0526 14.3976 22.5283 12.3808C26.2029 14.3856 27.4548 15.1054 31.094 17.1533C31.2884 17.2635 31.4574 16.9661 31.259 16.8559L30.0672 16.1931C27.1945 14.5456 22.4992 11.9639 22.4293 11.9387C22.2554 11.8648 22.1036 11.8832 22.0232 11.9907C22.0232 11.9907 22.0219 11.992 22.0219 11.9934C21.5459 12.0215 22.0929 12.6506 22.3678 12.9951C23.685 14.6633 23.5649 14.488 24.32 15.4165C23.6824 16.3221 23.0343 17.2927 22.5861 18.2925C22.5069 18.4772 22.5213 18.693 22.6322 18.8668C22.7369 19.0883 23.4199 20.0313 23.6726 20.3607C23.6602 20.3817 23.6399 20.4 23.6289 20.4224C23.5421 20.5843 23.5014 20.7658 23.5096 20.9642C23.5644 21.7741 23.7896 28.0306 24.7997 36.7703C24.8513 36.9894 25.1808 36.9119 25.1292 36.6928C24.9973 35.5409 24.8734 34.3865 24.7574 33.2307C24.1042 22.0156 23.9908 21.4202 24.1836 20.9931C24.6865 21.5708 26.5776 23.089 28.3257 24.0246C28.3638 24.0466 28.707 24.2248 28.9794 24.3577C29.1537 26.2767 29.7153 30.9875 29.9037 37.0812C29.916 37.41 29.7139 37.6975 29.3999 37.7992C28.462 38.0912 27.5274 38.2129 26.7814 38.1986C26.7535 38.198 26.7323 38.195 26.6977 38.197C26.6048 38.1952 26.5277 38.2682 26.5246 38.3613C26.5215 38.4556 26.5956 38.5342 26.6885 38.5373C27.8073 38.5761 29.2902 38.2547 29.6833 38.0441C29.8555 38.0008 30.029 37.9536 30.204 37.8985C30.5835 37.7767 30.8426 37.4238 30.8266 37.0125C30.703 33.0763 30.4027 29.0054 29.9575 24.8022C30.977 25.2382 32.2681 25.6394 32.3635 25.6479C32.5829 25.7054 32.8506 25.6653 32.9949 25.4791C33.1365 25.3009 33.2594 25.1211 33.372 24.9317C33.4859 24.7383 33.1931 24.5651 33.0791 24.7597C32.9761 24.936 32.8614 25.1014 32.7294 25.2692C32.6409 25.3806 32.4017 25.3174 32.2686 25.2643C31.2343 24.9771 29.9396 24.488 28.4841 23.7243C27.4115 23.1503 25.1564 21.6357 24.4035 20.6595C23.2803 19.2611 23.1744 18.8959 23.0597 18.7832C22.9825 18.6567 22.9709 18.5009 23.0278 18.3689C23.4496 17.4285 24.0514 16.5155 24.5882 15.741C26.695 18.2026 26.4123 17.8459 27.1577 18.7249C27.4002 19.0289 27.4111 19.0185 30.7901 20.6464C31.9884 21.2455 33.1646 21.8228 34.3001 22.3714C34.0834 22.8022 33.8666 23.2331 33.6525 23.664C33.5571 23.8617 33.8623 24.0125 33.9618 23.8109L33.9623 23.8108Z" fill="#333333"/>
<path d="M38.0185 11.4C37.9792 11.3034 37.9116 11.225 37.8238 11.1674C37.9584 10.9306 38.0742 10.6414 37.9539 10.3372C37.9071 10.2179 37.8186 10.1244 37.7147 10.0705C37.7762 9.91205 37.8204 9.74927 37.7705 9.58468C37.614 9.08682 36.8964 9.46014 36.4549 9.69777C36.2362 9.81596 35.9122 9.95075 35.1593 10.3633C35.1423 10.351 35.128 10.3321 35.1096 10.3211C34.838 10.1536 34.6753 10.2569 34.6737 10.4072C34.1321 10.47 33.7596 10.7076 33.6948 11.2477C33.6935 11.2477 33.6908 11.249 33.6895 11.249C32.426 11.6917 32.0361 13.8791 32.748 14.8415C32.456 15.8695 32.5471 17.2122 31.2199 18.207C31.1198 18.0934 30.9892 17.9791 30.8331 17.879C30.4514 17.6336 30.0586 17.5515 29.889 17.668C29.7686 17.6444 29.5792 17.8935 29.5644 17.9744C29.5481 18.0619 29.5795 18.1556 29.6192 18.2348C29.8877 18.7734 31.0123 19.407 31.3214 19.0072C31.4413 18.8525 31.4654 18.7013 31.3989 18.4992C32.4267 17.742 32.7143 16.8057 32.9196 15.6563C32.9522 15.48 32.9849 15.2983 33.0254 15.1248C34.0308 15.8798 35.2879 14.5963 34.7117 13.8283C34.3364 13.3129 33.3747 13.3955 32.8966 14.432C32.4971 13.5915 32.8432 11.9606 33.7171 11.6062C33.8647 12.2196 34.3666 12.365 34.9886 12.2678C35.0398 12.4377 35.3444 12.4795 35.5041 12.1168C35.8448 12.2151 36.6624 12.5195 36.8533 12.6056C37.0389 12.6903 37.2838 12.8001 37.5095 12.8044C37.9661 12.8132 38.1298 12.38 37.8844 12.0215C38.0226 11.8804 38.1416 11.6963 38.0185 11.4ZM34.5052 14.3403C34.426 14.8696 33.6582 15.2952 33.1279 14.7648C33.5617 13.5466 34.5995 13.7209 34.5052 14.3403ZM34.1627 11.7782C33.9976 11.5915 33.9704 11.2797 34.0983 11.0507C34.2097 10.8519 34.4719 10.7492 34.8627 10.7328C35.0154 11.0111 35.0825 11.4567 35.0382 11.6926C34.9498 11.7282 34.9014 11.8283 34.954 11.9265C34.6769 11.9704 34.3563 11.9974 34.1627 11.7782ZM37.6527 12.3348C37.7286 12.7353 36.817 12.1458 35.5994 11.7925C35.6848 11.3538 35.6465 10.9966 35.3987 10.622C36.1382 10.2198 36.3562 10.1388 36.6165 9.99884C37.2338 9.66616 37.3999 9.66001 37.4459 9.68751C37.4758 9.78653 37.3914 9.96317 37.35 10.0488C37.2426 10.108 37.1302 10.1537 37.0114 10.1807C36.7993 10.2298 36.8594 10.5596 37.0874 10.5134C37.2274 10.4815 37.36 10.4268 37.4874 10.3601C37.5593 10.3535 37.6154 10.4051 37.6395 10.4641C37.718 10.6612 37.6023 10.8798 37.4788 11.0849C37.223 11.1306 36.9622 11.1548 36.702 11.1525C36.4776 11.1509 36.4737 11.4887 36.6968 11.493C36.9331 11.4975 37.239 11.4741 37.5508 11.4176C37.5905 11.4263 37.6736 11.4532 37.7066 11.5323C37.7612 11.6651 37.7379 11.7005 37.5621 11.8648L37.5229 11.9026C37.4823 11.9417 37.4653 11.9986 37.4735 12.0533C37.4935 12.188 37.6139 12.1398 37.6527 12.3348Z" fill="#333333"/>
</g>
</g>
</svg>
