<svg width="98" height="98" viewBox="0 0 98 98" fill="none" xmlns="http://www.w3.org/2000/svg">
<path d="M18.635 7.72741C19.7785 3.45968 24.1652 0.927018 28.433 2.07055L90.2522 18.635C94.5199 19.7785 97.0526 24.1652 95.9091 28.4329L79.3447 90.2522C78.2011 94.5199 73.8144 97.0526 69.5467 95.909L7.72745 79.3446C3.45972 78.2011 0.92706 73.8144 2.0706 69.5467L18.635 7.72741Z" fill="#ECF9FF"/>
<path d="M75.072 54.1647L76.6507 47.3262C76.9281 46.959 77.0518 46.479 76.9658 45.9893C76.8807 45.5512 76.6432 45.1617 76.2818 44.8916L52.3118 27.3528C52.0596 27.1658 51.7586 27.0513 51.45 27.0251C51.2934 27.0083 51.1372 27.0173 50.9829 27.046L21.7564 32.3034C20.8109 32.4777 20.1847 33.3824 20.3529 34.3224C20.4365 34.7666 20.674 35.1561 21.0383 35.414L26.5624 39.4636L23.402 53.1527C22.7784 55.8539 23.4453 58.6663 25.2741 61.0904C26.3785 62.5362 27.8015 63.7981 29.7816 65.0662C32.9678 67.0892 37.1293 68.7259 41.8107 69.8066C46.4922 70.8874 50.9635 71.2374 54.7141 70.8159C57.0347 70.5535 58.879 70.046 60.5158 69.2137C63.216 67.8352 65.0437 65.5923 65.663 62.9094L68.8234 49.2204L72.8298 48.4975L71.6997 53.3925C69.5549 53.6441 67.6762 55.2186 67.1654 57.4309C66.6547 59.6431 67.6531 61.882 69.4705 63.0482L68.7989 65.9572C68.5877 66.8997 69.1639 67.8245 70.1041 68.0351C70.5688 68.1359 71.0317 68.0497 71.4009 67.8131C71.7748 67.584 72.0611 67.2059 72.1698 66.7354L72.84 63.8326C74.9847 63.581 76.8588 61.9989 77.3695 59.7867C77.8803 57.5744 76.8894 55.3309 75.072 54.1647ZM60.2745 61.6654C60.0304 62.7226 59.2194 63.649 58.01 64.271C56.9916 64.7889 55.7481 65.1134 54.0987 65.3055C50.9615 65.6562 47.1481 65.3487 43.0579 64.4044C38.9678 63.4601 35.4101 62.0723 32.7564 60.3847C31.352 59.4875 30.3719 58.6433 29.6836 57.7313C28.8618 56.6468 28.5451 55.4601 28.7905 54.3968L30.9901 44.8694L45.5867 55.5645L62.3809 52.5414L60.2745 61.6654ZM71.879 60.3472C70.9037 60.122 70.3167 59.1883 70.5424 58.2105C70.7681 57.2327 71.705 56.6509 72.6803 56.876C73.6556 57.1012 74.2183 58.0293 73.9925 59.007C73.7668 59.9848 72.8482 60.5709 71.879 60.3472Z" fill="#333333"/>
</svg>
