<svg width="49" height="48" viewBox="0 0 49 48" fill="none" xmlns="http://www.w3.org/2000/svg">
<path d="M1.89512 13.7674C1.28022 9.39208 4.3286 5.34674 8.70388 4.73183L34.4509 1.11333C38.8261 0.498424 42.8715 3.54681 43.4864 7.92209L47.1049 33.6691C47.7198 38.0443 44.6714 42.0897 40.2961 42.7046L14.5492 46.3231C10.1739 46.938 6.12853 43.8896 5.51362 39.5143L1.89512 13.7674Z" fill="#F79764"/>
<path d="M34.6903 21.2492L30.3087 21.865C30.5572 21.4145 30.681 20.8874 30.604 20.3391L29.3764 11.6049C29.1882 10.2657 27.9486 9.33152 26.6093 9.51974L17.8752 10.7472C16.5359 10.9355 15.6018 12.1751 15.79 13.5144L17.0175 22.2485C17.0945 22.7968 17.354 23.27 17.7219 23.634L13.3403 24.2498C12.0011 24.438 11.0669 25.6777 11.2552 27.0169L12.4827 35.7511C12.6709 37.0903 13.9106 38.0245 15.2498 37.8362L23.984 36.6087C24.7797 36.4969 25.4281 36.005 25.7864 35.3509C26.3119 35.8857 27.07 36.175 27.8658 36.0632L36.6 34.8357C37.9392 34.6475 38.8734 33.4078 38.6852 32.0685L37.4576 23.3344C37.2694 21.9951 36.0295 21.061 34.6903 21.2492ZM17.9878 22.1122L16.7603 13.378C16.6478 12.5774 17.2108 11.8302 18.0114 11.7177L26.7456 10.4902C27.5462 10.3777 28.2933 10.9407 28.4059 11.7413L29.6334 20.4755C29.7459 21.2761 29.1829 22.0232 28.3823 22.1358L19.6481 23.3633C18.8475 23.4758 18.1003 22.9128 17.9878 22.1122ZM24.1662 23.7179L24.1537 23.7345C24.153 23.7297 24.1426 23.7262 24.137 23.722L24.1662 23.7179ZM23.8473 35.6383L15.1132 36.8658C14.3126 36.9783 13.5654 36.4153 13.4529 35.6147L12.2254 26.8805C12.1129 26.0799 12.6759 25.3328 13.4765 25.2203L22.2107 23.9928C23.0113 23.8802 23.7584 24.4432 23.8709 25.2439L25.0985 33.978C25.211 34.7787 24.648 35.5258 23.8473 35.6383ZM37.7143 32.205C37.8268 33.0056 37.2638 33.7527 36.4632 33.8653L27.729 35.0928C26.9284 35.2053 26.1813 34.6423 26.0688 33.8417L24.8413 25.1075C24.7287 24.3069 25.2917 23.5597 26.0924 23.4472L34.8265 22.2197C35.6272 22.1072 36.3743 22.6702 36.4868 23.4708L37.7143 32.205Z" fill="#333333"/>
<path d="M34.3439 26.6714L32.3385 26.6613L31.2099 25.0039C30.9986 24.6971 30.4551 24.7735 30.3414 25.126L29.7134 27.0302L27.7884 27.5927C27.6075 27.6429 27.4755 27.795 27.4418 27.9779C27.4081 28.1608 27.4839 28.348 27.6333 28.4606L29.2501 29.6486L29.1901 31.6511C29.1869 31.8396 29.2849 32.0089 29.451 32.0994C29.6165 32.185 29.8174 32.1716 29.966 32.0666L31.5929 30.8978L33.479 31.5729C33.5573 31.6015 33.6369 31.6051 33.7097 31.5949C33.8116 31.5806 33.9046 31.5378 33.9831 31.4624C34.1185 31.3346 34.1653 31.1399 34.1103 30.9597L33.5007 29.0512L34.7274 27.4636C34.84 27.3142 34.8619 27.1182 34.7784 26.9468C34.6957 26.7803 34.5268 26.6704 34.339 26.6721L34.3439 26.6714ZM32.5689 28.6527C32.4681 28.7807 32.4421 28.9476 32.4888 29.1043L32.8762 30.3117L31.6825 29.8807C31.6043 29.8521 31.5295 29.8478 31.4518 29.8587C31.3742 29.8696 31.2993 29.9 31.2361 29.9435L30.2075 30.6868L30.2471 29.4194C30.2544 29.26 30.1778 29.1026 30.0457 29.0073L29.0197 28.2559L30.2367 27.9018C30.3934 27.855 30.5156 27.7389 30.5631 27.5838L30.9629 26.3796L31.6792 27.4269C31.7717 27.5574 31.9219 27.6402 32.0806 27.6427L33.348 27.6476L32.5689 28.6527Z" fill="#333333"/>
<path d="M18.1844 27.0325C16.3114 27.2957 15.0017 29.0335 15.265 30.9067C15.5282 32.7798 17.266 34.0893 19.1391 33.8261C21.0123 33.5628 22.3218 31.8251 22.0585 29.9519C21.7953 28.0787 20.0575 26.7692 18.1844 27.0325ZM19.0027 32.8553C17.6635 33.0435 16.4238 32.1093 16.2356 30.7701C16.0474 29.4309 16.9815 28.1912 18.3208 28.003C19.66 27.8147 20.8997 28.7489 21.0879 30.0881C21.2761 31.4274 20.3419 32.6671 19.0027 32.8553Z" fill="#333333"/>
<path d="M26.8602 18.4061C26.9264 18.2434 26.9005 18.059 26.792 17.9208L23.105 13.1989C22.8881 12.9226 22.3932 12.9921 22.2656 13.3168L20.023 18.8722C19.9568 19.0349 19.9827 19.2192 20.0912 19.3574C20.1997 19.4955 20.3728 19.5652 20.5475 19.5407L26.4771 18.7073C26.6518 18.6828 26.7989 18.5681 26.8651 18.4054L26.8602 18.4061ZM21.2457 18.4529L22.8534 14.4714L25.4963 17.8555L21.2457 18.4529Z" fill="#333333"/>
</svg>
