<svg width="48" height="48" viewBox="0 0 48 48" fill="none" xmlns="http://www.w3.org/2000/svg">
<path d="M2.12999 14.4473C1.51508 10.072 4.56347 6.02667 8.93875 5.41176L33.7435 1.92569C38.1187 1.31078 42.1641 4.35917 42.779 8.73445L46.3231 33.9519C46.938 38.3272 43.8896 42.3725 39.5143 42.9874L14.7096 46.4735C10.3343 47.0884 6.28897 44.04 5.67407 39.6647L2.12999 14.4473Z" fill="#FFF7EB"/>
<path d="M25.2412 33.5297L25.2629 33.6528L25.386 33.6311L32.637 32.3525C33.1807 32.2566 33.6704 31.9433 33.9851 31.4938C34.2999 31.0443 34.4269 30.4769 34.331 29.9332L32.6945 20.6519C32.5986 20.1082 32.2852 19.6185 31.8357 19.3038C31.3862 18.989 30.8189 18.862 30.2751 18.9579L27.1407 19.5106L23.4869 17.578L23.4396 17.3094L24.3541 16.0034C24.7361 15.4577 24.7486 14.7462 24.395 14.1786L24.3944 14.1777C24.0421 13.6229 23.3889 13.3294 22.731 13.4454L21.1427 13.7255C20.2529 13.8824 19.6558 14.7352 19.8127 15.6249L20.2575 18.1475L17.485 21.2131L14.3506 21.7658C13.212 21.9666 12.4571 23.054 12.6566 24.1852L14.2931 33.4664C14.389 34.0102 14.7024 34.4998 15.1519 34.8146C15.6014 35.1293 16.1687 35.2563 16.7124 35.1604L23.9358 33.8868L24.0589 33.8651L24.0372 33.742L23.3845 30.0405C23.3688 29.9516 23.4304 29.8674 23.5163 29.8523L24.4003 29.6964C24.4892 29.6807 24.5734 29.7423 24.5885 29.8282L25.2412 33.5297ZM26.6986 21.9731L26.7366 21.9932L26.7789 21.9857L30.3917 21.3487L31.9288 30.0661L27.1961 30.9006L26.934 29.4146C26.6907 28.0343 25.3677 27.1145 23.9948 27.3566L23.1109 27.5124C21.7306 27.7558 20.8107 29.0787 21.0528 30.4517L21.3148 31.9376L16.582 32.7721L15.0449 24.0547L18.6578 23.4177L18.7001 23.4102L18.7288 23.3784L22.1664 19.5718L26.6986 21.9731ZM23.2541 25.7401C24.4929 25.5217 25.3201 24.3403 25.1017 23.1015C24.8833 21.8626 23.7019 21.0354 22.463 21.2538C21.2242 21.4723 20.397 22.6537 20.6154 23.8925C20.8339 25.1314 22.0152 25.9586 23.2541 25.7401Z" fill="#333333" stroke="#333333" stroke-width="0.25"/>
</svg>
