<svg width="48" height="48" viewBox="0 0 48 48" fill="none" xmlns="http://www.w3.org/2000/svg">
<path d="M2.41173 14.1651C1.79682 9.7898 4.8452 5.74444 9.22048 5.12954L34.0252 1.64346C38.4005 1.02856 42.4458 4.07694 43.0607 8.45222L46.6048 33.6696C47.2197 38.0449 44.1713 42.0903 39.796 42.7052L14.9913 46.1913C10.6161 46.8062 6.57071 43.7578 5.9558 39.3825L2.41173 14.1651Z" fill="#FFAF85"/>
<mask id="path-2-inside-1_36064_5529" fill="white">
<path d="M37.4575 15.6298C36.4141 13.8747 35.1488 12.2647 33.694 10.8409L33.6938 10.8397C33.6027 10.7525 33.4815 10.7062 33.3569 10.7105C30.1419 10.8441 26.9088 11.1171 23.7446 11.5233L23.6821 11.5322C23.4486 11.3773 23.2128 11.2239 22.9724 11.0711C22.4158 10.7178 21.6922 10.8171 21.255 11.3081C21.0607 11.5264 20.8721 11.7426 20.6883 11.9581L20.6175 11.9682C17.4356 12.4673 14.3558 13.0863 11.2017 13.8624C11.0807 13.8918 10.9768 13.9714 10.9147 14.0816C9.96523 15.7806 9.23921 17.6235 8.6927 19.7123C8.65828 19.8468 8.65612 19.9876 8.68816 20.1235C8.71579 20.5814 9.09899 20.9349 9.55093 20.9207C9.84451 20.9107 10.1418 20.8929 10.4434 20.872C10.9686 26.0459 11.7334 31.2445 12.7198 36.3443C12.8575 37.059 13.5044 37.5595 14.2185 37.5019C18.1317 37.2018 21.9782 36.784 25.8049 36.2396C29.6316 35.6952 33.4412 35.0262 37.2842 34.2253C37.9866 34.0802 38.4629 33.4211 38.3889 32.6973C37.8651 27.5329 37.0975 22.3322 36.1125 17.225C36.4042 17.1615 36.6956 17.0956 36.9834 17.0217C37.2341 16.9579 37.4413 16.7781 37.5407 16.5367C37.6411 16.294 37.622 16.0169 37.4909 15.7888C37.4985 15.7339 37.4876 15.6768 37.4578 15.6297L37.4575 15.6298ZM10.6858 19.5753C10.6961 19.6777 10.7063 19.7801 10.7167 19.8837L10.5465 20.1181C10.4666 20.1233 10.3865 20.1274 10.3077 20.1325L10.4782 19.9323C10.5247 19.8719 10.5164 19.7827 10.4584 19.7323C10.4002 19.6807 10.3119 19.686 10.2601 19.7434L9.9152 20.1492L9.9034 20.1509L9.90458 20.1507C9.81842 20.1545 9.73458 20.1248 9.66863 20.0695L9.99818 19.821C10.0586 19.7733 10.0697 19.685 10.0231 19.622C9.97648 19.559 9.88886 19.5445 9.82673 19.5888L9.53747 19.8083C9.53537 19.7695 9.53935 19.7311 9.5484 19.6944C9.56981 19.6107 9.5924 19.5269 9.61463 19.4406L10.0907 19.1896L10.0919 19.1894C10.1573 19.1508 10.1822 19.0666 10.1469 18.9984C10.1114 18.9289 10.0289 18.9003 9.96012 18.9321L9.7219 19.0564L9.76512 18.8999L10.2606 18.6413C10.3287 18.6047 10.356 18.5202 10.3215 18.4494C10.2848 18.3801 10.2011 18.3517 10.1315 18.386L9.88535 18.5139C9.90604 18.4498 9.92637 18.3834 9.94789 18.3168L10.421 18.0369C10.4887 17.998 10.5106 17.9093 10.4715 17.8404C10.4313 17.7716 10.3448 17.7484 10.2761 17.7888L10.0831 17.9017C10.1033 17.8427 10.1239 17.786 10.1441 17.7269L10.5492 17.4677L10.5503 17.4675C10.5836 17.4481 10.6077 17.4154 10.6166 17.3775C10.6266 17.3394 10.6195 17.2989 10.5988 17.2651C10.5772 17.2328 10.5449 17.2093 10.5064 17.2013C10.4679 17.1934 10.4293 17.2013 10.3975 17.2229L10.3051 17.2825L10.305 17.2813C10.6809 16.2675 11.1322 15.2833 11.657 14.34C14.5044 13.6392 17.2869 13.0699 20.1452 12.607C18.3932 14.7451 17.0822 16.8192 16.1564 18.9166L16.1576 18.9165C16.0786 19.1 15.9214 19.2348 15.7297 19.2828C15.1375 19.4318 14.5545 19.5624 13.9807 19.6733L14.0567 19.5184L14.0579 19.5182C14.0955 19.4469 14.0692 19.3578 13.9983 19.3177C13.9275 19.2789 13.8386 19.305 13.801 19.3764L13.6264 19.7286L13.3848 19.7728L13.4975 19.5319L13.4961 19.5309C13.5289 19.4591 13.498 19.3718 13.4268 19.338C13.3556 19.3041 13.2697 19.3347 13.237 19.4065L13.0404 19.8303C12.9507 19.8431 12.8613 19.857 12.772 19.8722L12.8335 19.7339C12.858 19.6632 12.825 19.5861 12.7577 19.5541C12.6905 19.5233 12.6111 19.5481 12.5749 19.6131L12.4395 19.9207L12.1446 19.9627L12.293 19.6618C12.3132 19.6271 12.3168 19.5863 12.3053 19.5488C12.2938 19.5114 12.2674 19.4797 12.2334 19.4613C12.1982 19.4431 12.158 19.4403 12.1215 19.454C12.0837 19.4667 12.054 19.4942 12.0389 19.5305L11.8038 20.0038L11.581 20.0282L11.6874 19.8676L11.6888 19.8687C11.7321 19.8026 11.7138 19.7112 11.6482 19.6667C11.5827 19.6223 11.4926 19.64 11.4493 19.706L11.2083 20.0653L11.1918 20.0677C11.1815 19.9653 11.1713 19.8629 11.161 19.7605L11.1612 19.7617C11.2008 19.7035 11.1927 19.624 11.1434 19.5749L11.1379 19.5378C11.1253 19.4113 11.0139 19.3172 10.8892 19.3288C10.7631 19.3394 10.6724 19.4513 10.6838 19.5779L10.6858 19.5753ZM29.2139 34.4474C26.8347 34.8433 24.4189 35.187 22.0253 35.4701L22.0264 35.4699C21.6005 33.6796 21.2664 31.8677 21.0281 30.0431C20.7555 27.9609 22.2051 26.027 24.26 25.7346C26.3149 25.4423 28.265 26.8924 28.6012 28.9657C28.8973 30.7818 29.1015 32.6111 29.2139 34.4474ZM36.9393 27.6596L36.7175 27.5275C36.6501 27.487 36.5619 27.5093 36.5225 27.5772C36.4833 27.6463 36.5061 27.7359 36.5735 27.7764L36.9838 28.0198C36.9998 28.1446 37.0159 28.2706 37.0308 28.3968L36.516 28.0901C36.4842 28.0702 36.4449 28.0648 36.4088 28.0736C36.3718 28.0837 36.3404 28.1077 36.321 28.1398C36.2818 28.2089 36.3045 28.2973 36.372 28.339L37.0742 28.7571C37.0894 28.8601 37.0998 28.9637 37.1126 29.0669L36.7221 28.7706C36.6591 28.727 36.5745 28.7415 36.5294 28.8029C36.4842 28.8643 36.4957 28.9506 36.5535 28.9998L37.1582 29.4587C37.1744 29.5688 37.1835 29.6799 37.1973 29.7903L36.8991 29.564L36.8989 29.5628C36.8354 29.5156 36.7457 29.5284 36.6984 29.5913C36.6524 29.6553 36.6658 29.7462 36.7281 29.7936L37.2418 30.1823L37.2809 30.5298L36.7955 30.1615L36.7944 30.1617C36.732 30.1144 36.6424 30.1271 36.5962 30.1899C36.549 30.254 36.5624 30.345 36.6259 30.3921L37.3255 30.923C37.3369 31.0338 37.3483 31.1434 37.3609 31.254L36.8525 30.8681C36.789 30.821 36.7005 30.8336 36.6532 30.8965C36.606 30.9606 36.6194 31.0516 36.6829 31.0987L37.4001 31.643C37.4118 31.755 37.4234 31.867 37.4351 31.9789L36.855 31.5397C36.792 31.4962 36.7074 31.5106 36.6622 31.572C36.6171 31.6334 36.6274 31.7199 36.6852 31.7691L37.4308 32.335C37.4138 32.4242 37.3842 32.509 37.3418 32.5896L36.4173 31.8879C36.3544 31.8455 36.2698 31.86 36.2247 31.9214C36.1795 31.9828 36.191 32.0691 36.2488 32.1183L37.1707 32.8179L37.1709 32.8191C37.1138 32.8737 37.0487 32.922 36.9798 32.9612L36.3209 32.4611L36.3198 32.4613C36.2561 32.413 36.1676 32.4255 36.1204 32.4897C36.0731 32.5526 36.0865 32.6436 36.15 32.6907L36.6514 33.0702L36.3007 33.1421L35.6432 32.6431L35.642 32.6433C35.5797 32.5959 35.49 32.6087 35.4427 32.6716C35.3967 32.7356 35.4101 32.8265 35.4726 32.8751L35.9279 33.2196L35.6217 33.2827L34.8385 32.666L34.8383 32.6648C34.7768 32.6149 34.6869 32.6264 34.6382 32.6883C34.5909 32.7513 34.6031 32.8424 34.6646 32.8923L35.2535 33.3583L34.9374 33.4204L34.4655 33.0452L34.4654 33.044C34.4026 32.9943 34.3138 33.0045 34.2653 33.0676C34.2168 33.1307 34.2276 33.2208 34.2903 33.2705L34.5687 33.4924L34.255 33.5541L33.6795 33.0398C33.6532 33.0081 33.6144 32.9904 33.5735 32.9901C33.5323 32.9886 33.4939 33.0063 33.4671 33.037C33.4392 33.0678 33.4271 33.1087 33.4321 33.1507C33.4381 33.1914 33.4604 33.2285 33.4939 33.2519L33.9047 33.6211C33.7875 33.6426 33.6655 33.6649 33.5462 33.6892L32.8642 33.1057L32.8641 33.1045C32.8035 33.0532 32.7132 33.0612 32.6631 33.122C32.6119 33.1831 32.6204 33.2735 32.6811 33.326L33.1854 33.7576L32.8302 33.824L32.4024 33.4866L32.4023 33.4854C32.3404 33.4417 32.2543 33.4539 32.208 33.5155C32.1615 33.5759 32.1706 33.6625 32.2286 33.7129L32.4562 33.8931C31.5251 34.0635 30.5952 34.2263 29.6653 34.3806C29.5515 32.5433 29.3473 30.7129 29.0512 28.8969L29.0524 28.8967C28.6681 26.5555 26.505 24.9413 24.1918 25.2704C21.8786 25.5995 20.2694 27.7502 20.5758 30.1026L20.5769 30.1025C20.8166 31.9279 21.1497 33.7414 21.5746 35.5329C20.6453 35.6419 19.7139 35.7451 18.7789 35.8402L18.9107 35.6553L18.9095 35.6555C18.9555 35.5915 18.9409 35.5007 18.8774 35.4536C18.8126 35.4066 18.7233 35.4217 18.6774 35.4857L18.3993 35.8795L18.0359 35.9141L18.3639 35.4093L18.365 35.4092C18.4022 35.3428 18.3825 35.2576 18.3197 35.2153C18.2555 35.1718 18.1711 35.1875 18.1261 35.2501L17.6726 35.9499C17.5538 35.9607 17.4292 35.9736 17.3069 35.9849L17.5657 35.5668L17.5647 35.5682C17.6065 35.5 17.5862 35.4112 17.5196 35.3681C17.4519 35.3252 17.3645 35.345 17.3227 35.4133L16.949 36.0162L16.6351 36.0438L16.8043 35.8022L16.8045 35.8034C16.8491 35.7384 16.8346 35.6476 16.77 35.6018C16.7053 35.5548 16.617 35.5686 16.5712 35.6338L16.2607 36.0775L15.9397 36.106L16.3389 35.5446L16.3377 35.5448C16.3835 35.4797 16.3678 35.389 16.303 35.342C16.2383 35.2951 16.149 35.3102 16.1034 35.3766L15.565 36.1373L15.2555 36.1618L15.5566 35.7525C15.5812 35.7233 15.5934 35.6837 15.5888 35.644C15.5841 35.6044 15.5632 35.5683 15.532 35.5446C15.5008 35.5209 15.4608 35.5107 15.422 35.5175C15.3833 35.5242 15.3492 35.5462 15.3288 35.5796L14.8772 36.1936L14.5201 36.2224L14.8553 35.7667L14.8542 35.7669C14.8954 35.7036 14.8816 35.6176 14.8206 35.5713C14.7596 35.525 14.6743 35.5347 14.625 35.593L14.1664 36.2166L14.1676 36.2164C14.088 36.1996 14.0106 36.1728 13.9379 36.1367L14.5907 35.2448C14.638 35.1818 14.6246 35.0909 14.5611 35.0437C14.4974 34.9954 14.4089 35.008 14.3617 35.0721L13.7002 35.9701C13.6358 35.9084 13.5818 35.8367 13.5378 35.7586L14.0717 35.0327C14.1128 34.9682 14.099 34.8822 14.038 34.8359C13.9769 34.7896 13.8917 34.7993 13.8424 34.8576L13.425 35.4253C13.4039 35.3147 13.3828 35.204 13.3617 35.0934L13.8807 34.3892C13.922 34.3259 13.9081 34.2399 13.8471 34.1936C13.7861 34.1473 13.7008 34.157 13.6516 34.2153L13.2883 34.7093C13.2674 34.5998 13.2466 34.4916 13.2269 34.382L13.7317 33.6957L13.7328 33.6955C13.7739 33.631 13.7589 33.5452 13.6979 33.4989C13.6369 33.4526 13.5518 33.4635 13.5037 33.5216L13.1565 33.9938L13.0938 33.6496L13.4611 33.1502C13.5083 33.086 13.4951 32.9963 13.4314 32.9479C13.3676 32.8996 13.2792 32.9122 13.232 32.9763L13.0219 33.2591C13.0022 33.1495 12.9824 33.0399 12.9641 32.9313L13.3996 32.3391L13.3998 32.3403C13.4242 32.31 13.4353 32.2705 13.4306 32.2309C13.426 32.1912 13.405 32.1551 13.3738 32.1314C13.3427 32.1078 13.3026 32.0976 13.2639 32.1043C13.2251 32.1111 13.1912 32.1342 13.1707 32.1665L12.8957 32.5403C12.8807 32.4386 12.861 32.3376 12.8437 32.2362L13.383 31.6536C13.436 31.596 13.432 31.5037 13.3747 31.4496C13.316 31.3944 13.2261 31.3974 13.1733 31.4562L12.7814 31.8785L12.7179 31.5039L13.03 31.1699L13.0302 31.1711C13.0842 31.1121 13.0804 31.0211 13.0217 30.9659C12.9642 30.9105 12.8743 30.9135 12.8202 30.9713L12.658 31.1459C12.0737 27.625 11.5975 24.0689 11.2365 20.5269C12.7898 20.378 14.329 20.1089 15.8402 19.7229C16.1656 19.6424 16.4355 19.4146 16.5717 19.1044C17.5461 16.8949 18.963 14.7054 20.8858 12.4345L20.892 12.4275C21.1197 12.1581 21.3547 11.8889 21.5967 11.6186L21.5944 11.619C21.8836 11.2931 22.3641 11.2272 22.7322 11.462C23.0311 11.6516 23.324 11.842 23.6115 12.0357L23.6275 12.0469C26.0326 13.6596 28.0306 15.3717 29.7186 17.2575L29.7196 17.2561C29.94 17.5021 30.2561 17.6367 30.5803 17.6224C31.702 17.585 32.8199 17.4882 33.9303 17.3327C34.3797 17.2688 34.8181 17.1954 35.2453 17.1114C35.9198 20.5989 36.4871 24.1283 36.9393 27.6596ZM36.1831 16.0702L36.6167 16.2345C36.5683 16.3062 36.4962 16.3568 36.4137 16.377L36.3877 16.3807L35.9078 16.0654C35.8416 16.0247 35.7556 16.0455 35.7145 16.11C35.6735 16.1757 35.6911 16.2624 35.7531 16.3073L36.0063 16.4729C35.9271 16.4915 35.8492 16.5099 35.7698 16.5273L35.5622 16.3687C35.5415 16.2604 35.5208 16.1522 35.4988 16.0441L35.4987 16.0429C35.475 15.9229 35.362 15.8425 35.2428 15.8594C35.1225 15.8765 35.0385 15.985 35.0492 16.1069C35.0395 16.1144 35.0313 16.1241 35.0231 16.1338C35.001 16.1638 34.9911 16.2031 34.9968 16.2414C35.0022 16.2785 35.023 16.3134 35.0528 16.3361L35.1016 16.3731C35.1205 16.4682 35.1389 16.5608 35.1577 16.6559L35.1223 16.6609L34.7602 16.3606L34.7577 16.3597C34.7285 16.3333 34.6905 16.3204 34.6514 16.3248C34.6133 16.3277 34.5775 16.3463 34.5542 16.3765C34.5298 16.4068 34.5185 16.4451 34.5232 16.4847C34.5276 16.5232 34.5472 16.5583 34.5784 16.5819L34.7552 16.7278L34.5296 16.766L34.1447 16.3602C34.0899 16.3069 34.0042 16.3056 33.9481 16.3576C33.8932 16.4106 33.8892 16.4979 33.9388 16.5568L34.1905 16.8265L33.8932 16.8688L33.652 16.5879L33.651 16.5892C33.6273 16.5596 33.5921 16.5414 33.5543 16.5382C33.5165 16.5351 33.4787 16.5478 33.451 16.5725C33.4221 16.5974 33.4047 16.6341 33.403 16.6722C33.4002 16.7104 33.4129 16.7477 33.4376 16.776L33.5567 16.9142L33.2872 16.9489L32.9551 16.5746L32.9565 16.5756C32.903 16.5148 32.813 16.5093 32.7547 16.5628C32.6961 16.6151 32.6905 16.7076 32.7438 16.7672L32.9402 16.9885L32.6957 17.0135L32.4068 16.7027L32.4057 16.7041C32.3808 16.6734 32.3442 16.6542 32.3054 16.6524C32.2664 16.6494 32.2276 16.6635 32.1991 16.6907C32.1705 16.718 32.1544 16.7557 32.1555 16.7959C32.1552 16.835 32.1717 16.873 32.1998 16.9008L32.337 17.0474C31.7629 17.0985 31.1709 17.1351 30.5578 17.1588C30.3676 17.1675 30.1826 17.0888 30.0542 16.9446C28.4599 15.1616 26.592 13.5325 24.3754 11.9981C27.2358 11.6474 30.1529 11.4107 33.0493 11.2882C33.828 12.0461 34.5478 12.8625 35.203 13.7308L35.0506 13.6853L35.0508 13.6865C34.977 13.6677 34.9015 13.7114 34.8812 13.7864C34.8608 13.8601 34.9024 13.9385 34.9748 13.9636L35.4869 14.1131L35.5931 14.2618L35.329 14.1943C35.2925 14.1836 35.2524 14.1893 35.2191 14.2087C35.187 14.2279 35.163 14.2606 35.1541 14.2986C35.1452 14.3365 35.151 14.376 35.1716 14.4097C35.1921 14.4422 35.2256 14.4655 35.263 14.4737L35.8457 14.6204C35.884 14.6761 35.9223 14.7317 35.9594 14.7875L35.6393 14.7231L35.6394 14.7243C35.6018 14.7138 35.5607 14.7209 35.5277 14.7427C35.4946 14.7632 35.4719 14.797 35.4656 14.8358C35.4582 14.8759 35.4666 14.9163 35.4906 14.9483C35.5134 14.9805 35.5479 15.0025 35.587 15.0067L36.1825 15.1248L36.2746 15.268L35.9646 15.2071L35.9634 15.2072C35.9259 15.1979 35.886 15.2048 35.8542 15.2264C35.8211 15.247 35.7984 15.2808 35.7909 15.3198C35.7845 15.3585 35.7929 15.3989 35.8157 15.4311C35.8385 15.4633 35.873 15.4852 35.9112 15.4908L36.4843 15.6047C36.5317 15.6811 36.5794 15.7598 36.6268 15.8362L36.6258 15.8375C36.645 15.8702 36.6588 15.9061 36.6677 15.9427L36.2776 15.7954L36.2774 15.7942C36.2417 15.781 36.2021 15.7817 36.1669 15.7965C36.1319 15.8125 36.105 15.842 36.0922 15.878C36.0784 15.9154 36.0807 15.9554 36.0978 15.9896C36.1139 16.0252 36.1432 16.0528 36.1799 16.0647L36.1831 16.0702Z"/>
</mask>
<path d="M37.4575 15.6298C36.4141 13.8747 35.1488 12.2647 33.694 10.8409L33.6938 10.8397C33.6027 10.7525 33.4815 10.7062 33.3569 10.7105C30.1419 10.8441 26.9088 11.1171 23.7446 11.5233L23.6821 11.5322C23.4486 11.3773 23.2128 11.2239 22.9724 11.0711C22.4158 10.7178 21.6922 10.8171 21.255 11.3081C21.0607 11.5264 20.8721 11.7426 20.6883 11.9581L20.6175 11.9682C17.4356 12.4673 14.3558 13.0863 11.2017 13.8624C11.0807 13.8918 10.9768 13.9714 10.9147 14.0816C9.96523 15.7806 9.23921 17.6235 8.6927 19.7123C8.65828 19.8468 8.65612 19.9876 8.68816 20.1235C8.71579 20.5814 9.09899 20.9349 9.55093 20.9207C9.84451 20.9107 10.1418 20.8929 10.4434 20.872C10.9686 26.0459 11.7334 31.2445 12.7198 36.3443C12.8575 37.059 13.5044 37.5595 14.2185 37.5019C18.1317 37.2018 21.9782 36.784 25.8049 36.2396C29.6316 35.6952 33.4412 35.0262 37.2842 34.2253C37.9866 34.0802 38.4629 33.4211 38.3889 32.6973C37.8651 27.5329 37.0975 22.3322 36.1125 17.225C36.4042 17.1615 36.6956 17.0956 36.9834 17.0217C37.2341 16.9579 37.4413 16.7781 37.5407 16.5367C37.6411 16.294 37.622 16.0169 37.4909 15.7888C37.4985 15.7339 37.4876 15.6768 37.4578 15.6297L37.4575 15.6298ZM10.6858 19.5753C10.6961 19.6777 10.7063 19.7801 10.7167 19.8837L10.5465 20.1181C10.4666 20.1233 10.3865 20.1274 10.3077 20.1325L10.4782 19.9323C10.5247 19.8719 10.5164 19.7827 10.4584 19.7323C10.4002 19.6807 10.3119 19.686 10.2601 19.7434L9.9152 20.1492L9.9034 20.1509L9.90458 20.1507C9.81842 20.1545 9.73458 20.1248 9.66863 20.0695L9.99818 19.821C10.0586 19.7733 10.0697 19.685 10.0231 19.622C9.97648 19.559 9.88886 19.5445 9.82673 19.5888L9.53747 19.8083C9.53537 19.7695 9.53935 19.7311 9.5484 19.6944C9.56981 19.6107 9.5924 19.5269 9.61463 19.4406L10.0907 19.1896L10.0919 19.1894C10.1573 19.1508 10.1822 19.0666 10.1469 18.9984C10.1114 18.9289 10.0289 18.9003 9.96012 18.9321L9.7219 19.0564L9.76512 18.8999L10.2606 18.6413C10.3287 18.6047 10.356 18.5202 10.3215 18.4494C10.2848 18.3801 10.2011 18.3517 10.1315 18.386L9.88535 18.5139C9.90604 18.4498 9.92637 18.3834 9.94789 18.3168L10.421 18.0369C10.4887 17.998 10.5106 17.9093 10.4715 17.8404C10.4313 17.7716 10.3448 17.7484 10.2761 17.7888L10.0831 17.9017C10.1033 17.8427 10.1239 17.786 10.1441 17.7269L10.5492 17.4677L10.5503 17.4675C10.5836 17.4481 10.6077 17.4154 10.6166 17.3775C10.6266 17.3394 10.6195 17.2989 10.5988 17.2651C10.5772 17.2328 10.5449 17.2093 10.5064 17.2013C10.4679 17.1934 10.4293 17.2013 10.3975 17.2229L10.3051 17.2825L10.305 17.2813C10.6809 16.2675 11.1322 15.2833 11.657 14.34C14.5044 13.6392 17.2869 13.0699 20.1452 12.607C18.3932 14.7451 17.0822 16.8192 16.1564 18.9166L16.1576 18.9165C16.0786 19.1 15.9214 19.2348 15.7297 19.2828C15.1375 19.4318 14.5545 19.5624 13.9807 19.6733L14.0567 19.5184L14.0579 19.5182C14.0955 19.4469 14.0692 19.3578 13.9983 19.3177C13.9275 19.2789 13.8386 19.305 13.801 19.3764L13.6264 19.7286L13.3848 19.7728L13.4975 19.5319L13.4961 19.5309C13.5289 19.4591 13.498 19.3718 13.4268 19.338C13.3556 19.3041 13.2697 19.3347 13.237 19.4065L13.0404 19.8303C12.9507 19.8431 12.8613 19.857 12.772 19.8722L12.8335 19.7339C12.858 19.6632 12.825 19.5861 12.7577 19.5541C12.6905 19.5233 12.6111 19.5481 12.5749 19.6131L12.4395 19.9207L12.1446 19.9627L12.293 19.6618C12.3132 19.6271 12.3168 19.5863 12.3053 19.5488C12.2938 19.5114 12.2674 19.4797 12.2334 19.4613C12.1982 19.4431 12.158 19.4403 12.1215 19.454C12.0837 19.4667 12.054 19.4942 12.0389 19.5305L11.8038 20.0038L11.581 20.0282L11.6874 19.8676L11.6888 19.8687C11.7321 19.8026 11.7138 19.7112 11.6482 19.6667C11.5827 19.6223 11.4926 19.64 11.4493 19.706L11.2083 20.0653L11.1918 20.0677C11.1815 19.9653 11.1713 19.8629 11.161 19.7605L11.1612 19.7617C11.2008 19.7035 11.1927 19.624 11.1434 19.5749L11.1379 19.5378C11.1253 19.4113 11.0139 19.3172 10.8892 19.3288C10.7631 19.3394 10.6724 19.4513 10.6838 19.5779L10.6858 19.5753ZM29.2139 34.4474C26.8347 34.8433 24.4189 35.187 22.0253 35.4701L22.0264 35.4699C21.6005 33.6796 21.2664 31.8677 21.0281 30.0431C20.7555 27.9609 22.2051 26.027 24.26 25.7346C26.3149 25.4423 28.265 26.8924 28.6012 28.9657C28.8973 30.7818 29.1015 32.6111 29.2139 34.4474ZM36.9393 27.6596L36.7175 27.5275C36.6501 27.487 36.5619 27.5093 36.5225 27.5772C36.4833 27.6463 36.5061 27.7359 36.5735 27.7764L36.9838 28.0198C36.9998 28.1446 37.0159 28.2706 37.0308 28.3968L36.516 28.0901C36.4842 28.0702 36.4449 28.0648 36.4088 28.0736C36.3718 28.0837 36.3404 28.1077 36.321 28.1398C36.2818 28.2089 36.3045 28.2973 36.372 28.339L37.0742 28.7571C37.0894 28.8601 37.0998 28.9637 37.1126 29.0669L36.7221 28.7706C36.6591 28.727 36.5745 28.7415 36.5294 28.8029C36.4842 28.8643 36.4957 28.9506 36.5535 28.9998L37.1582 29.4587C37.1744 29.5688 37.1835 29.6799 37.1973 29.7903L36.8991 29.564L36.8989 29.5628C36.8354 29.5156 36.7457 29.5284 36.6984 29.5913C36.6524 29.6553 36.6658 29.7462 36.7281 29.7936L37.2418 30.1823L37.2809 30.5298L36.7955 30.1615L36.7944 30.1617C36.732 30.1144 36.6424 30.1271 36.5962 30.1899C36.549 30.254 36.5624 30.345 36.6259 30.3921L37.3255 30.923C37.3369 31.0338 37.3483 31.1434 37.3609 31.254L36.8525 30.8681C36.789 30.821 36.7005 30.8336 36.6532 30.8965C36.606 30.9606 36.6194 31.0516 36.6829 31.0987L37.4001 31.643C37.4118 31.755 37.4234 31.867 37.4351 31.9789L36.855 31.5397C36.792 31.4962 36.7074 31.5106 36.6622 31.572C36.6171 31.6334 36.6274 31.7199 36.6852 31.7691L37.4308 32.335C37.4138 32.4242 37.3842 32.509 37.3418 32.5896L36.4173 31.8879C36.3544 31.8455 36.2698 31.86 36.2247 31.9214C36.1795 31.9828 36.191 32.0691 36.2488 32.1183L37.1707 32.8179L37.1709 32.8191C37.1138 32.8737 37.0487 32.922 36.9798 32.9612L36.3209 32.4611L36.3198 32.4613C36.2561 32.413 36.1676 32.4255 36.1204 32.4897C36.0731 32.5526 36.0865 32.6436 36.15 32.6907L36.6514 33.0702L36.3007 33.1421L35.6432 32.6431L35.642 32.6433C35.5797 32.5959 35.49 32.6087 35.4427 32.6716C35.3967 32.7356 35.4101 32.8265 35.4726 32.8751L35.9279 33.2196L35.6217 33.2827L34.8385 32.666L34.8383 32.6648C34.7768 32.6149 34.6869 32.6264 34.6382 32.6883C34.5909 32.7513 34.6031 32.8424 34.6646 32.8923L35.2535 33.3583L34.9374 33.4204L34.4655 33.0452L34.4654 33.044C34.4026 32.9943 34.3138 33.0045 34.2653 33.0676C34.2168 33.1307 34.2276 33.2208 34.2903 33.2705L34.5687 33.4924L34.255 33.5541L33.6795 33.0398C33.6532 33.0081 33.6144 32.9904 33.5735 32.9901C33.5323 32.9886 33.4939 33.0063 33.4671 33.037C33.4392 33.0678 33.4271 33.1087 33.4321 33.1507C33.4381 33.1914 33.4604 33.2285 33.4939 33.2519L33.9047 33.6211C33.7875 33.6426 33.6655 33.6649 33.5462 33.6892L32.8642 33.1057L32.8641 33.1045C32.8035 33.0532 32.7132 33.0612 32.6631 33.122C32.6119 33.1831 32.6204 33.2735 32.6811 33.326L33.1854 33.7576L32.8302 33.824L32.4024 33.4866L32.4023 33.4854C32.3404 33.4417 32.2543 33.4539 32.208 33.5155C32.1615 33.5759 32.1706 33.6625 32.2286 33.7129L32.4562 33.8931C31.5251 34.0635 30.5952 34.2263 29.6653 34.3806C29.5515 32.5433 29.3473 30.7129 29.0512 28.8969L29.0524 28.8967C28.6681 26.5555 26.505 24.9413 24.1918 25.2704C21.8786 25.5995 20.2694 27.7502 20.5758 30.1026L20.5769 30.1025C20.8166 31.9279 21.1497 33.7414 21.5746 35.5329C20.6453 35.6419 19.7139 35.7451 18.7789 35.8402L18.9107 35.6553L18.9095 35.6555C18.9555 35.5915 18.9409 35.5007 18.8774 35.4536C18.8126 35.4066 18.7233 35.4217 18.6774 35.4857L18.3993 35.8795L18.0359 35.9141L18.3639 35.4093L18.365 35.4092C18.4022 35.3428 18.3825 35.2576 18.3197 35.2153C18.2555 35.1718 18.1711 35.1875 18.1261 35.2501L17.6726 35.9499C17.5538 35.9607 17.4292 35.9736 17.3069 35.9849L17.5657 35.5668L17.5647 35.5682C17.6065 35.5 17.5862 35.4112 17.5196 35.3681C17.4519 35.3252 17.3645 35.345 17.3227 35.4133L16.949 36.0162L16.6351 36.0438L16.8043 35.8022L16.8045 35.8034C16.8491 35.7384 16.8346 35.6476 16.77 35.6018C16.7053 35.5548 16.617 35.5686 16.5712 35.6338L16.2607 36.0775L15.9397 36.106L16.3389 35.5446L16.3377 35.5448C16.3835 35.4797 16.3678 35.389 16.303 35.342C16.2383 35.2951 16.149 35.3102 16.1034 35.3766L15.565 36.1373L15.2555 36.1618L15.5566 35.7525C15.5812 35.7233 15.5934 35.6837 15.5888 35.644C15.5841 35.6044 15.5632 35.5683 15.532 35.5446C15.5008 35.5209 15.4608 35.5107 15.422 35.5175C15.3833 35.5242 15.3492 35.5462 15.3288 35.5796L14.8772 36.1936L14.5201 36.2224L14.8553 35.7667L14.8542 35.7669C14.8954 35.7036 14.8816 35.6176 14.8206 35.5713C14.7596 35.525 14.6743 35.5347 14.625 35.593L14.1664 36.2166L14.1676 36.2164C14.088 36.1996 14.0106 36.1728 13.9379 36.1367L14.5907 35.2448C14.638 35.1818 14.6246 35.0909 14.5611 35.0437C14.4974 34.9954 14.4089 35.008 14.3617 35.0721L13.7002 35.9701C13.6358 35.9084 13.5818 35.8367 13.5378 35.7586L14.0717 35.0327C14.1128 34.9682 14.099 34.8822 14.038 34.8359C13.9769 34.7896 13.8917 34.7993 13.8424 34.8576L13.425 35.4253C13.4039 35.3147 13.3828 35.204 13.3617 35.0934L13.8807 34.3892C13.922 34.3259 13.9081 34.2399 13.8471 34.1936C13.7861 34.1473 13.7008 34.157 13.6516 34.2153L13.2883 34.7093C13.2674 34.5998 13.2466 34.4916 13.2269 34.382L13.7317 33.6957L13.7328 33.6955C13.7739 33.631 13.7589 33.5452 13.6979 33.4989C13.6369 33.4526 13.5518 33.4635 13.5037 33.5216L13.1565 33.9938L13.0938 33.6496L13.4611 33.1502C13.5083 33.086 13.4951 32.9963 13.4314 32.9479C13.3676 32.8996 13.2792 32.9122 13.232 32.9763L13.0219 33.2591C13.0022 33.1495 12.9824 33.0399 12.9641 32.9313L13.3996 32.3391L13.3998 32.3403C13.4242 32.31 13.4353 32.2705 13.4306 32.2309C13.426 32.1912 13.405 32.1551 13.3738 32.1314C13.3427 32.1078 13.3026 32.0976 13.2639 32.1043C13.2251 32.1111 13.1912 32.1342 13.1707 32.1665L12.8957 32.5403C12.8807 32.4386 12.861 32.3376 12.8437 32.2362L13.383 31.6536C13.436 31.596 13.432 31.5037 13.3747 31.4496C13.316 31.3944 13.2261 31.3974 13.1733 31.4562L12.7814 31.8785L12.7179 31.5039L13.03 31.1699L13.0302 31.1711C13.0842 31.1121 13.0804 31.0211 13.0217 30.9659C12.9642 30.9105 12.8743 30.9135 12.8202 30.9713L12.658 31.1459C12.0737 27.625 11.5975 24.0689 11.2365 20.5269C12.7898 20.378 14.329 20.1089 15.8402 19.7229C16.1656 19.6424 16.4355 19.4146 16.5717 19.1044C17.5461 16.8949 18.963 14.7054 20.8858 12.4345L20.892 12.4275C21.1197 12.1581 21.3547 11.8889 21.5967 11.6186L21.5944 11.619C21.8836 11.2931 22.3641 11.2272 22.7322 11.462C23.0311 11.6516 23.324 11.842 23.6115 12.0357L23.6275 12.0469C26.0326 13.6596 28.0306 15.3717 29.7186 17.2575L29.7196 17.2561C29.94 17.5021 30.2561 17.6367 30.5803 17.6224C31.702 17.585 32.8199 17.4882 33.9303 17.3327C34.3797 17.2688 34.8181 17.1954 35.2453 17.1114C35.9198 20.5989 36.4871 24.1283 36.9393 27.6596ZM36.1831 16.0702L36.6167 16.2345C36.5683 16.3062 36.4962 16.3568 36.4137 16.377L36.3877 16.3807L35.9078 16.0654C35.8416 16.0247 35.7556 16.0455 35.7145 16.11C35.6735 16.1757 35.6911 16.2624 35.7531 16.3073L36.0063 16.4729C35.9271 16.4915 35.8492 16.5099 35.7698 16.5273L35.5622 16.3687C35.5415 16.2604 35.5208 16.1522 35.4988 16.0441L35.4987 16.0429C35.475 15.9229 35.362 15.8425 35.2428 15.8594C35.1225 15.8765 35.0385 15.985 35.0492 16.1069C35.0395 16.1144 35.0313 16.1241 35.0231 16.1338C35.001 16.1638 34.9911 16.2031 34.9968 16.2414C35.0022 16.2785 35.023 16.3134 35.0528 16.3361L35.1016 16.3731C35.1205 16.4682 35.1389 16.5608 35.1577 16.6559L35.1223 16.6609L34.7602 16.3606L34.7577 16.3597C34.7285 16.3333 34.6905 16.3204 34.6514 16.3248C34.6133 16.3277 34.5775 16.3463 34.5542 16.3765C34.5298 16.4068 34.5185 16.4451 34.5232 16.4847C34.5276 16.5232 34.5472 16.5583 34.5784 16.5819L34.7552 16.7278L34.5296 16.766L34.1447 16.3602C34.0899 16.3069 34.0042 16.3056 33.9481 16.3576C33.8932 16.4106 33.8892 16.4979 33.9388 16.5568L34.1905 16.8265L33.8932 16.8688L33.652 16.5879L33.651 16.5892C33.6273 16.5596 33.5921 16.5414 33.5543 16.5382C33.5165 16.5351 33.4787 16.5478 33.451 16.5725C33.4221 16.5974 33.4047 16.6341 33.403 16.6722C33.4002 16.7104 33.4129 16.7477 33.4376 16.776L33.5567 16.9142L33.2872 16.9489L32.9551 16.5746L32.9565 16.5756C32.903 16.5148 32.813 16.5093 32.7547 16.5628C32.6961 16.6151 32.6905 16.7076 32.7438 16.7672L32.9402 16.9885L32.6957 17.0135L32.4068 16.7027L32.4057 16.7041C32.3808 16.6734 32.3442 16.6542 32.3054 16.6524C32.2664 16.6494 32.2276 16.6635 32.1991 16.6907C32.1705 16.718 32.1544 16.7557 32.1555 16.7959C32.1552 16.835 32.1717 16.873 32.1998 16.9008L32.337 17.0474C31.7629 17.0985 31.1709 17.1351 30.5578 17.1588C30.3676 17.1675 30.1826 17.0888 30.0542 16.9446C28.4599 15.1616 26.592 13.5325 24.3754 11.9981C27.2358 11.6474 30.1529 11.4107 33.0493 11.2882C33.828 12.0461 34.5478 12.8625 35.203 13.7308L35.0506 13.6853L35.0508 13.6865C34.977 13.6677 34.9015 13.7114 34.8812 13.7864C34.8608 13.8601 34.9024 13.9385 34.9748 13.9636L35.4869 14.1131L35.5931 14.2618L35.329 14.1943C35.2925 14.1836 35.2524 14.1893 35.2191 14.2087C35.187 14.2279 35.163 14.2606 35.1541 14.2986C35.1452 14.3365 35.151 14.376 35.1716 14.4097C35.1921 14.4422 35.2256 14.4655 35.263 14.4737L35.8457 14.6204C35.884 14.6761 35.9223 14.7317 35.9594 14.7875L35.6393 14.7231L35.6394 14.7243C35.6018 14.7138 35.5607 14.7209 35.5277 14.7427C35.4946 14.7632 35.4719 14.797 35.4656 14.8358C35.4582 14.8759 35.4666 14.9163 35.4906 14.9483C35.5134 14.9805 35.5479 15.0025 35.587 15.0067L36.1825 15.1248L36.2746 15.268L35.9646 15.2071L35.9634 15.2072C35.9259 15.1979 35.886 15.2048 35.8542 15.2264C35.8211 15.247 35.7984 15.2808 35.7909 15.3198C35.7845 15.3585 35.7929 15.3989 35.8157 15.4311C35.8385 15.4633 35.873 15.4852 35.9112 15.4908L36.4843 15.6047C36.5317 15.6811 36.5794 15.7598 36.6268 15.8362L36.6258 15.8375C36.645 15.8702 36.6588 15.9061 36.6677 15.9427L36.2776 15.7954L36.2774 15.7942C36.2417 15.781 36.2021 15.7817 36.1669 15.7965C36.1319 15.8125 36.105 15.842 36.0922 15.878C36.0784 15.9154 36.0807 15.9554 36.0978 15.9896C36.1139 16.0252 36.1432 16.0528 36.1799 16.0647L36.1831 16.0702Z" fill="#333333" stroke="#333333" stroke-width="0.822378" mask="url(#path-2-inside-1_36064_5529)"/>
<path d="M18.299 28.1432C16.9753 28.0335 15.6451 28.2227 14.4073 28.6968C14.3252 28.728 14.269 28.8044 14.2616 28.8934C14.1655 30.1467 14.3597 31.4747 14.8424 32.8412C14.8745 32.9282 14.9544 32.9889 15.0457 32.9954C16.3692 33.088 17.6959 32.8993 18.9374 32.4418L18.9386 32.4416C19.0242 32.4099 19.0834 32.3294 19.0891 32.237C19.1665 30.791 18.9698 29.4621 18.5083 28.2893C18.4727 28.2028 18.3907 28.1448 18.299 28.1432ZM18.0368 30.3385L18.5969 30.7168C18.6031 30.7916 18.6092 30.8653 18.6154 30.9401L18.3947 30.7822L18.3935 30.7824C18.3302 30.7364 18.2409 30.7516 18.1949 30.8155C18.1503 30.8805 18.166 30.971 18.2305 31.0168L18.634 31.3039C18.6356 31.3806 18.6373 31.4573 18.6391 31.5352L18.1653 31.2118L18.1641 31.2119C18.1332 31.1895 18.0933 31.1805 18.0557 31.187C18.0182 31.1936 17.9853 31.2154 17.9635 31.2478C17.943 31.28 17.9345 31.3203 17.9425 31.3583C17.9505 31.3962 17.9734 31.4296 18.0054 31.4507L18.6347 31.8814C18.634 31.9426 18.6327 31.999 18.6293 32.0581L18.5674 32.0791L18.1148 31.7356L18.1146 31.7344C18.0518 31.692 17.967 31.7053 17.9219 31.7667C17.8767 31.828 17.8871 31.9145 17.9449 31.9637L18.2349 32.1838C18.1564 32.2072 18.0768 32.2307 17.9969 32.2518L17.5076 31.8805L17.5088 31.8804C17.4464 31.8331 17.3568 31.8458 17.3095 31.9087C17.2635 31.9727 17.2769 32.0636 17.3394 32.1121L17.6403 32.3404C17.5564 32.3597 17.471 32.3767 17.3868 32.3936L16.8801 31.9771L16.8813 31.977C16.8198 31.9271 16.7296 31.9363 16.6809 31.9981C16.6321 32.0588 16.6419 32.1502 16.7023 32.2003L17.0144 32.4563L16.7279 32.4971L16.4487 32.2852L16.4489 32.2864C16.3863 32.2379 16.2979 32.2505 16.2507 32.3146C16.2036 32.3787 16.2168 32.4684 16.2805 32.5168L16.3076 32.5373L16.3074 32.5361C15.945 32.5608 15.5819 32.5636 15.219 32.5444C14.8139 31.3453 14.643 30.1838 14.7047 29.0809L14.706 29.0819C15.7984 28.6835 16.9635 28.5177 18.1259 28.5954L18.1257 28.5942C18.2538 28.9412 18.3565 29.2954 18.4336 29.6557L18.3265 29.5745C18.2628 29.5261 18.1743 29.5387 18.1272 29.6028C18.08 29.6669 18.0932 29.7566 18.1569 29.805L18.5134 30.0755L18.5528 30.3434L18.1918 30.0992C18.1262 30.0548 18.0385 30.0722 17.9952 30.1382C17.952 30.2042 17.9701 30.2944 18.0356 30.3388L18.0368 30.3385Z" fill="#333333"/>
<path d="M19.1042 27.0296C19.0037 26.9523 18.861 26.9726 18.7858 27.0749C18.7115 27.1758 18.7316 27.3207 18.8333 27.3979L19.252 27.7157C19.3537 27.7928 19.4962 27.7713 19.5704 27.6704C19.6457 27.5681 19.6244 27.4233 19.5227 27.3462L19.1042 27.0296Z" fill="#333333"/>
<path d="M34.4498 25.8176C33.1262 25.7079 31.796 25.8972 30.5582 26.3712C30.4761 26.4025 30.4199 26.4788 30.4137 26.5677C30.3164 27.8211 30.5117 29.1489 30.9945 30.5154C31.0254 30.6026 31.1053 30.6633 31.1978 30.6697C32.5201 30.7624 33.8444 30.5741 35.0858 30.1166C35.1715 30.0848 35.2295 30.0045 35.2328 29.9125C35.3114 28.4663 35.1147 27.1374 34.652 25.9647C34.6189 25.8791 34.5396 25.822 34.4498 25.8176ZM34.1877 28.0129L34.7466 28.3914C34.7526 28.465 34.7588 28.5398 34.7649 28.6135L34.5444 28.4568C34.4804 28.4146 34.3962 28.4314 34.3524 28.4939C34.3088 28.5575 34.3216 28.6448 34.3816 28.6924L34.785 28.9795C34.7868 29.0574 34.7883 29.1329 34.7901 29.2108L34.3162 28.8862L34.316 28.885C34.2502 28.8467 34.1663 28.866 34.1251 28.9292C34.0836 28.9913 34.0975 29.0773 34.1587 29.1247L34.7879 29.5555C34.7872 29.6167 34.7847 29.6732 34.7826 29.7321L34.7195 29.7533L34.2668 29.4098L34.2664 29.4074C34.2036 29.3651 34.1191 29.3795 34.0739 29.4409C34.0288 29.5023 34.0391 29.5888 34.0982 29.639L34.3883 29.8591C34.3098 29.8824 34.2302 29.906 34.1503 29.9271L33.6624 29.5569L33.662 29.5545C33.5985 29.5073 33.5089 29.5201 33.4627 29.5828C33.4156 29.6469 33.429 29.7378 33.4927 29.7862L33.7935 30.0145C33.7097 30.0338 33.6255 30.0506 33.5401 30.0677L33.0334 29.6512C32.9717 29.6002 32.8815 29.6093 32.8328 29.6712C32.7842 29.7331 32.7938 29.8233 32.8555 29.8744L33.1677 30.1304L32.8823 30.171L32.6031 29.9591L32.6019 29.9593C32.5382 29.911 32.4486 29.9237 32.4026 29.9877C32.3553 30.0506 32.3687 30.1415 32.4322 30.1886L32.4593 30.2092C32.0946 30.2342 31.7289 30.2362 31.3647 30.2159C30.9596 29.0169 30.7887 27.8553 30.8515 26.7522C31.9439 26.3538 33.109 26.1881 34.2712 26.2646L34.2713 26.2658C34.3993 26.6115 34.5033 26.9668 34.5806 27.3283L34.4735 27.247L34.4747 27.2468C34.4107 27.2047 34.3261 27.2191 34.281 27.2805C34.2358 27.3419 34.2473 27.4282 34.3051 27.4774L34.6615 27.7478L34.701 28.0158L34.34 27.7716C34.3088 27.7479 34.2688 27.7378 34.23 27.7445C34.1913 27.7512 34.1586 27.7742 34.1368 27.8066C34.1153 27.8402 34.108 27.8803 34.1173 27.9193C34.1253 27.9572 34.1494 27.9904 34.1838 28.0112L34.1877 28.0129Z" fill="#333333"/>
<path d="M17.3896 21.6298C16.0648 21.5202 14.7346 21.7095 13.4958 22.1837C13.4137 22.2149 13.3575 22.2913 13.3513 22.3801C13.2552 23.6334 13.4492 24.9602 13.9321 26.3278C13.962 26.4164 14.0432 26.4769 14.1354 26.4821C15.458 26.5761 16.7846 26.3874 18.0271 25.9285C18.1129 25.898 18.1721 25.8175 18.1776 25.7239C18.255 24.2779 18.0583 22.949 17.5968 21.7762C17.5626 21.6906 17.4818 21.6325 17.3911 21.6296L17.3896 21.6298ZM17.1275 23.8251L17.6866 24.2047C17.6938 24.2782 17.6988 24.3532 17.7048 24.4269L17.4843 24.2701L17.4855 24.27C17.4203 24.228 17.3361 24.2448 17.2923 24.3072C17.2485 24.3696 17.2614 24.457 17.3226 24.5044L17.726 24.7915C17.7278 24.8694 17.7293 24.9449 17.7311 25.0228L17.2573 24.6994L17.256 24.6983C17.2238 24.676 17.1851 24.6669 17.1476 24.6735C17.11 24.68 17.0759 24.702 17.0554 24.7342C17.0337 24.7666 17.0263 24.8067 17.0343 24.8447C17.0423 24.8826 17.0653 24.916 17.0973 24.9371L17.7265 25.3679C17.7259 25.429 17.7245 25.4854 17.7212 25.5445L17.6593 25.5655L17.2066 25.222L17.2064 25.2208C17.1427 25.1724 17.0543 25.185 17.0071 25.2491C16.96 25.3132 16.9732 25.403 17.0369 25.4513L17.3269 25.6714C17.2485 25.6948 17.1689 25.7183 17.0889 25.7395L16.5998 25.3694L16.6008 25.368C16.538 25.3257 16.4533 25.3389 16.4081 25.4003C16.363 25.4617 16.3733 25.5482 16.4311 25.5973L16.7319 25.8257C16.6481 25.8449 16.5627 25.8619 16.4785 25.8788L15.9718 25.4624L15.972 25.4636C15.9108 25.4161 15.8245 25.4272 15.7767 25.4865C15.7278 25.5472 15.736 25.6352 15.7941 25.6867L16.1063 25.9428L15.8197 25.9835L15.5405 25.7717C15.4777 25.7293 15.3932 25.7438 15.348 25.8051C15.3029 25.8665 15.3132 25.953 15.371 26.0022L15.3981 26.0227C15.0369 26.0473 14.6737 26.0501 14.3109 26.0308C13.9059 24.833 13.7337 23.6704 13.7965 22.5673C14.8901 22.1687 16.054 22.0031 17.2162 22.0796L17.2164 22.0808C17.3455 22.4264 17.4495 22.7817 17.5268 23.1432L17.4197 23.0619C17.3569 23.0196 17.2722 23.0328 17.227 23.0942C17.1819 23.1556 17.1922 23.2421 17.2502 23.2924L17.6068 23.5641L17.6462 23.8321L17.2852 23.5879L17.2862 23.5865C17.2214 23.5469 17.1375 23.5661 17.0951 23.6296C17.0538 23.6928 17.069 23.7798 17.1287 23.8251L17.1275 23.8251Z" fill="#333333"/>
<path d="M20.0014 26.4661C19.9561 26.3457 19.8246 26.2851 19.7074 26.3298C19.59 26.3733 19.5302 26.5063 19.5754 26.6255L19.794 27.2129C19.8392 27.3321 19.9708 27.3939 20.0881 27.3492C20.2053 27.3045 20.2652 27.1727 20.2199 27.0523L20.0014 26.4661Z" fill="#333333"/>
<path d="M33.5403 19.3039C32.2154 19.1944 30.8864 19.3834 29.6486 19.8575C29.5665 19.8887 29.5103 19.9651 29.5027 20.0529C29.4054 21.3063 29.6008 22.6342 30.0835 24.0006L30.0837 24.0018C30.1146 24.089 30.1946 24.1497 30.287 24.1561C31.6093 24.2489 32.9336 24.0605 34.1751 23.603C34.2607 23.5713 34.3187 23.491 34.3232 23.3987C34.4008 21.9539 34.2051 20.6237 33.7424 19.451C33.7093 19.3653 33.63 19.3082 33.5403 19.3039ZM33.2781 21.4992L33.837 21.8776C33.8432 21.9525 33.8493 22.0261 33.8553 22.0998L33.6348 21.9431C33.6044 21.9168 33.5642 21.9055 33.5253 21.911C33.4864 21.9165 33.4509 21.9375 33.428 21.97C33.4051 22.0026 33.3968 22.0441 33.405 22.0832C33.4143 22.1222 33.4375 22.1568 33.4718 22.1775L33.8752 22.4645C33.8769 22.5413 33.8785 22.618 33.8804 22.6959L33.4027 22.3706C33.3715 22.3469 33.3315 22.3367 33.2926 22.3423C33.2539 22.349 33.2198 22.3709 33.1982 22.4045C33.1765 22.4369 33.1693 22.4783 33.1785 22.516C33.1867 22.5552 33.2108 22.5884 33.2452 22.6091L33.8744 23.0399C33.8738 23.1011 33.8724 23.1574 33.8691 23.2165L33.806 23.2377L33.3533 22.8942L33.3531 22.893C33.2906 22.8445 33.2022 22.8571 33.155 22.9212C33.1079 22.9853 33.1211 23.075 33.1846 23.1222L33.4746 23.3422C33.3962 23.3656 33.3164 23.388 33.2366 23.4103L32.7486 23.0388L32.7487 23.04C32.685 22.9917 32.5966 23.0043 32.5494 23.0684C32.5021 23.1313 32.5155 23.2222 32.579 23.2694L32.8799 23.4977C32.796 23.5169 32.7118 23.5338 32.6264 23.5508L32.1197 23.1344C32.0907 23.1092 32.0527 23.0963 32.0134 23.0994C31.9754 23.1024 31.9397 23.1221 31.9153 23.1525C31.8909 23.1828 31.8798 23.2223 31.8855 23.2605C31.8901 23.3002 31.9109 23.3351 31.942 23.3587L32.2542 23.6148L31.9688 23.6554L31.6896 23.4435L31.6885 23.4437C31.6248 23.3953 31.5353 23.4093 31.4882 23.4734C31.441 23.5375 31.4556 23.6282 31.5193 23.6766L31.5464 23.6972C31.184 23.7218 30.8208 23.7246 30.458 23.7054C30.0528 22.5064 29.8819 21.3448 29.9448 20.2418L29.946 20.2416C31.0383 19.8432 32.2023 19.6776 33.3658 19.7551C33.4939 20.102 33.5968 20.4575 33.675 20.8176L33.568 20.7363C33.5044 20.6892 33.416 20.7018 33.3687 20.7647C33.3215 20.8288 33.3349 20.9197 33.3984 20.9669L33.756 21.2372L33.7954 21.5051L33.4344 21.2609C33.3686 21.2227 33.2848 21.2419 33.2435 21.3052C33.2011 21.3686 33.2163 21.4556 33.2783 21.5005L33.2781 21.4992Z" fill="#333333"/>
<path d="M22.8681 16.2163C21.0497 16.475 19.9261 18.0026 20.1975 19.8471C20.3275 20.7311 20.7291 21.4886 21.3285 21.9786C21.9803 22.5136 22.837 22.7227 23.8063 22.5848C25.6837 22.3177 26.7571 20.8582 26.4769 18.9539C26.1956 17.0497 24.7465 15.9491 22.8681 16.2163ZM23.7378 22.1282C22.1045 22.3606 20.8914 21.4389 20.6479 19.7833C20.4152 18.2018 21.3775 16.895 22.9353 16.6734C24.5698 16.4409 25.7815 17.3615 26.0253 19.0183C26.269 20.6751 25.3711 21.8959 23.7378 22.1282Z" fill="#333333"/>
<path d="M28.3601 22.9245L28.0501 23.346L28.0489 23.3462C27.9748 23.4483 27.9961 23.593 28.0976 23.669C28.198 23.7463 28.3407 23.726 28.416 23.6237L28.7248 23.2024L28.726 23.2022C28.7953 23.1008 28.7734 22.9598 28.6745 22.8847C28.5755 22.8096 28.436 22.827 28.3601 22.9245Z" fill="#333333"/>
<path d="M27.5812 22.4252C27.4572 22.416 27.3488 22.5119 27.3396 22.6376L27.2992 23.2619C27.295 23.3235 27.3148 23.3841 27.3553 23.4308C27.3945 23.4764 27.4504 23.5051 27.5111 23.5099C27.527 23.5113 27.5436 23.5101 27.5589 23.508C27.6649 23.4929 27.7458 23.4057 27.7527 23.2974L27.7931 22.6732L27.7943 22.673C27.7975 22.6128 27.7777 22.5521 27.7384 22.5053C27.6979 22.4586 27.642 22.4299 27.5824 22.425L27.5812 22.4252Z" fill="#333333"/>
<path d="M25.1071 20.0673C24.5819 19.9492 24.0696 19.7791 23.5765 19.56C23.4638 19.1537 23.4058 18.7347 23.4052 18.3137C23.4092 18.2509 23.387 18.1894 23.344 18.143C23.3013 18.0978 23.242 18.0708 23.1805 18.0698C23.119 18.0688 23.0588 18.0932 23.0159 18.1372C22.972 18.1825 22.9485 18.2432 22.9516 18.305C22.9521 18.8078 23.0255 19.3064 23.1696 19.7875L23.1698 19.7887C23.1876 19.8521 23.2327 19.9055 23.2936 19.9347C23.8435 20.1885 24.4184 20.3838 25.0072 20.5173C25.0345 20.5232 25.0614 20.5255 25.0895 20.5202C25.1981 20.506 25.2796 20.4139 25.2824 20.3024C25.2865 20.1907 25.2119 20.0927 25.1047 20.0677L25.1071 20.0673Z" fill="#333333"/>
<path d="M13.4219 15.9897C13.5235 16.0668 13.666 16.0453 13.7403 15.9444C13.8155 15.8421 13.7942 15.6973 13.6928 15.6214L13.2728 15.3037C13.1719 15.2314 13.0331 15.2536 12.9598 15.3532C12.8866 15.4527 12.905 15.5942 13.0019 15.672L13.4219 15.9897Z" fill="#333333"/>
<path d="M13.9652 15.4876C14.0104 15.6068 14.1409 15.6687 14.2593 15.6238C14.3765 15.5791 14.4352 15.4475 14.3912 15.3282L14.1726 14.7407L14.1715 14.7409C14.1261 14.6205 13.9958 14.5597 13.8786 14.6045C13.76 14.6482 13.7014 14.7809 13.7466 14.9001L13.9652 15.4876Z" fill="#333333"/>
<path d="M33.2852 14.5003L32.9762 14.9204L32.975 14.9206C32.8998 15.0229 32.9211 15.1676 33.0227 15.2447C33.123 15.3208 33.2659 15.3017 33.3411 15.1994L33.6511 14.778C33.7264 14.6757 33.7039 14.5311 33.6036 14.455C33.502 14.3778 33.3593 14.3981 33.284 14.5004L33.2852 14.5003Z" fill="#333333"/>
<path d="M32.505 14.0009C32.3799 13.9919 32.2712 14.0866 32.2623 14.2135L32.2219 14.8378L32.222 14.839C32.2142 14.9657 32.3085 15.0755 32.4338 15.0858C32.4496 15.0872 32.4663 15.086 32.483 15.0849C32.5887 15.0686 32.6685 14.9817 32.6767 14.8744L32.7217 14.2482C32.7258 14.1867 32.7049 14.1262 32.6644 14.0795C32.6227 14.033 32.5656 14.0045 32.505 14.0009Z" fill="#333333"/>
</svg>
