<svg width="74" height="74" viewBox="0 0 74 74" fill="none" xmlns="http://www.w3.org/2000/svg">
<path d="M1.97129 17.641C1.35639 13.2657 4.40478 9.22039 8.78005 8.60549L56.3129 1.92518C60.6882 1.31027 64.7335 4.35866 65.3485 8.73394L72.0288 56.2668C72.6437 60.6421 69.5953 64.6874 65.22 65.3023L17.6871 71.9826C13.3119 72.5975 9.26651 69.5492 8.6516 65.1739L1.97129 17.641Z" fill="#FFF7EB"/>
<path d="M54.5708 34.4309L47.4173 35.4362C47.8229 34.7006 48.0251 33.8401 47.8993 32.9449L45.8952 18.685C45.5879 16.4985 43.5639 14.9734 41.3774 15.2807L27.1176 17.2848C24.9311 17.592 23.4059 19.616 23.7132 21.8025L25.7173 36.0624C25.8431 36.9576 26.2667 37.7301 26.8673 38.3243L19.7138 39.3297C17.5273 39.637 16.0021 41.661 16.3094 43.8475L18.3135 58.1073C18.6208 60.2938 20.6447 61.819 22.8313 61.5117L37.0911 59.5076C38.3904 59.325 39.4489 58.5219 40.034 57.454C40.8918 58.3272 42.1296 58.7995 43.4288 58.6169L57.6887 56.6128C59.8752 56.3055 61.4004 54.2816 61.0931 52.095L59.089 37.8352C58.7817 35.6487 56.7573 34.1236 54.5708 34.4309ZM27.3015 35.8397L25.2974 21.5799C25.1137 20.2727 26.0329 19.0529 27.34 18.8692L41.5999 16.8651C42.907 16.6814 44.1268 17.6006 44.3106 18.9077L46.3146 33.1676C46.4984 34.4747 45.5792 35.6946 44.272 35.8783L30.0122 37.8824C28.705 38.0661 27.4852 37.1469 27.3015 35.8397ZM37.3886 38.4614L37.3682 38.4885C37.3671 38.4806 37.3501 38.4749 37.3411 38.4681L37.3886 38.4614ZM36.8681 57.9232L22.6082 59.9273C21.3011 60.111 20.0813 59.1918 19.8976 57.8847L17.8935 43.6248C17.7098 42.3177 18.629 41.0979 19.9361 40.9142L34.196 38.9101C35.5031 38.7264 36.7229 39.6456 36.9066 40.9527L38.9107 55.2126C39.0944 56.5197 38.1752 57.7395 36.8681 57.9232ZM59.508 52.3178C59.6917 53.6249 58.7726 54.8448 57.4654 55.0285L43.2055 57.0326C41.8984 57.2163 40.6786 56.2971 40.4949 54.9899L38.4908 40.7301C38.3071 39.4229 39.2263 38.2031 40.5334 38.0194L54.7933 36.0153C56.1004 35.8316 57.3202 36.7508 57.5039 38.0579L59.508 52.3178Z" fill="#333333"/>
<path d="M54.0057 43.2832L50.7315 43.2667L48.889 40.5608C48.544 40.0599 47.6567 40.1846 47.4709 40.7601L46.4457 43.869L43.3029 44.7874C43.0074 44.8693 42.7919 45.1177 42.7369 45.4162C42.6819 45.7148 42.8057 46.0206 43.0497 46.2044L45.6893 48.1439L45.5913 51.4134C45.5861 51.7211 45.7461 51.9976 46.0173 52.1452C46.2874 52.285 46.6156 52.2631 46.8581 52.0917L49.5143 50.1834L52.5936 51.2856C52.7214 51.3323 52.8515 51.3382 52.9703 51.3215C53.1367 51.2982 53.2884 51.2284 53.4166 51.1053C53.6377 50.8965 53.7142 50.5788 53.6243 50.2844L52.629 47.1686L54.6318 44.5766C54.8156 44.3327 54.8514 44.0126 54.7151 43.7328C54.58 43.461 54.3043 43.2816 53.9977 43.2843L54.0057 43.2832ZM51.1077 46.518C50.9431 46.7269 50.9007 46.9995 50.977 47.2554L51.6095 49.2265L49.6606 48.5229C49.5329 48.4763 49.4107 48.4692 49.284 48.487C49.1572 48.5048 49.0349 48.5543 48.9318 48.6254L47.2523 49.8389L47.317 47.7697C47.3289 47.5096 47.2039 47.2525 46.9882 47.097L45.3132 45.8702L47.3 45.292C47.5559 45.2157 47.7554 45.026 47.833 44.7728L48.4857 42.8068L49.6551 44.5167C49.8062 44.7297 50.0514 44.8649 50.3105 44.8689L52.3798 44.877L51.1077 46.518Z" fill="#333333"/>
<path d="M27.6236 43.8728C24.5657 44.3026 22.4275 47.1398 22.8573 50.198C23.2871 53.2562 26.1242 55.3941 29.1824 54.9643C32.2407 54.5345 34.3786 51.6974 33.9488 48.6392C33.519 45.5809 30.6819 43.443 27.6236 43.8728ZM28.9597 53.3794C26.7732 53.6867 24.7492 52.1615 24.4419 49.975C24.1346 47.7885 25.6598 45.7645 27.8463 45.4572C30.0328 45.15 32.0568 46.6751 32.3641 48.8616C32.6714 51.0481 31.1462 53.0721 28.9597 53.3794Z" fill="#333333"/>
<path d="M41.7859 29.7888C41.894 29.5231 41.8517 29.2221 41.6746 28.9966L35.6551 21.2872C35.3009 20.8361 34.4928 20.9497 34.2846 21.4798L30.6232 30.5497C30.5151 30.8154 30.5574 31.1164 30.7345 31.3419C30.9117 31.5675 31.1942 31.6813 31.4795 31.6412L41.1604 30.2806C41.4456 30.2405 41.6859 30.0533 41.794 29.7876L41.7859 29.7888ZM32.6194 29.8652L35.2443 23.3648L39.5592 28.8899L32.6194 29.8652Z" fill="#333333"/>
</svg>
