<svg width="49" height="48" viewBox="0 0 49 48" fill="none" xmlns="http://www.w3.org/2000/svg">
<path d="M1.89512 13.7674C1.28022 9.39208 4.3286 5.34674 8.70388 4.73183L34.4509 1.11333C38.8261 0.498424 42.8715 3.54681 43.4864 7.92209L47.1049 33.6691C47.7198 38.0443 44.6714 42.0897 40.2961 42.7046L14.5492 46.3231C10.1739 46.938 6.12853 43.8896 5.51362 39.5143L1.89512 13.7674Z" fill="#F79764"/>
<path d="M27.854 26.0402L27.5042 26.5359L26.6698 27.7182L27.1295 29.045C27.1296 29.0451 27.1296 29.0451 27.1296 29.0452C27.1296 29.0452 27.1296 29.0452 27.1297 29.0453C27.2496 29.3904 27.165 29.733 26.945 29.9609C26.7248 30.189 26.3849 30.2854 26.0349 30.1771L24.6554 29.7516L23.5018 30.624L23.5013 30.6244C22.9027 31.0745 22.0941 30.6865 22.0837 29.9349C22.0836 29.9348 22.0836 29.9346 22.0836 29.9345L22.0618 28.5305L20.8761 27.7046L27.854 26.0402ZM27.854 26.0402L27.6716 26.0724M27.854 26.0402L27.6716 26.0724M27.6716 26.0724C27.684 25.9089 27.65 25.7476 27.5744 25.6053C27.4257 25.3255 27.1262 25.138 26.7593 25.1453L26.7591 25.1453L25.3563 25.1745L24.488 24.0152L24.4881 24.0152L24.4857 24.0122C24.0196 23.4088 23.064 23.5971 22.8435 24.3031L22.8435 24.3031L22.8429 24.3053L22.4235 25.6916L21.0953 26.144L21.0952 26.144C20.7479 26.2626 20.5304 26.5413 20.4868 26.8554C20.4433 27.169 20.5763 27.4961 20.8759 27.7044L27.6716 26.0724ZM26.9333 19.371C26.18 19.1128 25.3824 18.9611 24.5624 18.927C24.8244 18.0352 24.9967 17.1366 25.0481 16.3043L25.0481 16.3041C25.1034 15.3961 25.0164 14.5425 24.722 13.8545C25.5293 13.9982 26.2004 14.2756 26.6782 14.7108C27.2369 15.2198 27.5617 15.9729 27.4957 17.0779L27.4957 17.0785C27.4545 17.7931 27.2537 18.5742 26.9333 19.371ZM17.6082 16.3115C17.9082 15.7392 18.4438 15.2491 19.1529 14.8372C19.1113 15.5841 19.3199 16.4162 19.685 17.2525C20.0155 18.0157 20.4868 18.8007 21.0362 19.5488C20.279 19.861 19.5816 20.2763 18.962 20.7766C18.3878 20.1371 17.9302 19.4726 17.6502 18.8179L17.6498 18.8168C17.2095 17.7996 17.2573 16.9809 17.6082 16.3115ZM28.3949 17.1317L28.3949 17.1308C28.4506 16.1654 28.2569 15.3777 27.8715 14.7519C27.4865 14.1268 26.9214 13.6815 26.2643 13.3816C24.9583 12.7854 23.266 12.7513 21.7736 13.0187L21.7734 13.0187C20.2729 13.2889 18.6496 13.8778 17.5889 14.8726C17.0547 15.3735 16.6577 15.9829 16.4998 16.7093C16.3417 17.4363 16.4284 18.2572 16.8224 19.1714L16.8225 19.1717C17.1503 19.93 17.6691 20.677 18.2968 21.3762C16.3723 23.3053 15.4969 26.0455 15.974 28.7515C16.7769 33.305 21.1206 36.3464 25.6767 35.5431C30.2329 34.7397 33.2716 30.3965 32.4687 25.8431C31.9916 23.137 30.2317 20.8615 27.7635 19.7069C28.114 18.8354 28.3442 17.9588 28.3949 17.1317ZM21.9273 19.2426C21.4382 18.6043 21.0125 17.9388 20.6897 17.29C21.8049 16.9347 22.9578 16.7016 24.1171 16.6697C24.0381 17.3941 23.8657 18.1716 23.6202 18.9441C23.0485 18.9855 22.4805 19.0857 21.9273 19.2426ZM25.1582 32.6182C22.2194 33.1364 19.4176 31.1745 18.8994 28.2357C18.3812 25.2968 20.3427 22.4924 23.2814 21.9742C26.2203 21.456 29.0247 23.4175 29.5434 26.3589C30.062 29.3002 28.0999 32.0995 25.1582 32.6182Z" fill="#333333" stroke="#333333" stroke-width="0.5"/>
</svg>
