<svg width="73" height="74" viewBox="0 0 73 74" fill="none" xmlns="http://www.w3.org/2000/svg">
<g id="Illustration Icon">
<path id="Rectangle 4590" d="M3.02049 18.2459C2.40558 13.8706 5.45397 9.82525 9.82925 9.21035L55.9263 2.73183C60.3016 2.11692 64.3469 5.16531 64.9618 9.54059L71.5287 56.2666C72.1436 60.6418 69.0952 64.6872 64.72 65.3021L18.6229 71.7806C14.2476 72.3955 10.2023 69.3471 9.58739 64.9718L3.02049 18.2459Z" fill="#FFF7EB"/>
<path id="Vector" d="M42.8693 39.529C42.3864 36.0933 39.1978 33.6907 35.7623 34.1735C32.3267 34.6563 29.9239 37.845 30.4067 41.2805C30.8896 44.7161 34.0782 47.1189 37.5138 46.6361C40.9493 46.1532 43.3521 42.9646 42.8693 39.529ZM37.9868 45.1535L37.8544 44.211C37.8025 43.8417 37.4613 43.5846 37.092 43.6365C36.7227 43.6884 36.4656 44.0296 36.5175 44.3989L36.65 45.3414C34.4441 45.3481 32.4903 43.8743 31.889 41.7537L32.8298 41.6215C33.1991 41.5696 33.4562 41.2284 33.4043 40.8591C33.3523 40.4898 33.0112 40.2327 32.6419 40.2846L31.7011 40.4169C31.6944 38.211 33.1682 36.2572 35.2888 35.6558L35.421 36.5966C35.4729 36.966 35.814 37.223 36.1833 37.1711C36.5527 37.1192 36.8097 36.7781 36.7578 36.4088L36.6256 35.468C38.8315 35.4613 40.7853 36.9351 41.3866 39.0556L40.4458 39.1879C40.0765 39.2398 39.8194 39.5809 39.8713 39.9502C39.9232 40.3195 40.2644 40.5766 40.6337 40.5247L41.5745 40.3925C41.5812 42.5984 40.1074 44.5522 37.9868 45.1535ZM37.0085 38.192L37.306 40.3092C37.3304 40.483 37.2856 40.6614 37.1813 40.8039L35.812 42.6647C35.7004 42.8167 35.536 42.9079 35.3622 42.9324C35.1934 42.9561 35.0157 42.9163 34.8675 42.8076C34.5673 42.5874 34.5026 42.1636 34.7246 41.8632L35.9308 40.2248L35.6716 38.3799C35.6197 38.0106 35.8768 37.6694 36.2461 37.6175C36.6154 37.5656 36.9565 37.8227 37.0085 38.192ZM55.3372 37.6541C55.1484 36.3106 53.9019 35.3713 52.5583 35.5601L45.8022 36.5097L45.6533 35.4502C45.738 35.4468 45.8232 35.4467 45.9067 35.435C46.0104 35.4204 46.113 35.3992 46.2147 35.3713C46.8617 35.1969 47.3931 34.7831 47.7128 34.2082C48.0322 33.6316 48.1001 32.9626 47.9061 32.3218C47.7149 31.6892 47.2865 31.1632 46.7062 30.8409L35.0782 24.3946L34.905 23.1869L40.3158 22.4264C40.6851 22.3745 40.9422 22.0334 40.8903 21.6641L40.2871 17.3846C40.2352 17.0153 39.8941 16.7582 39.5248 16.8101L33.4338 17.6662C33.2567 17.6911 33.0961 17.7852 32.9886 17.9298C32.8809 18.0728 32.8346 18.2531 32.8595 18.4302L33.7417 24.5978L24.3575 33.9837C23.8867 34.4537 23.6216 35.0772 23.6123 35.738C23.6024 36.4073 23.852 37.0318 24.318 37.4979C24.784 37.9641 25.4087 38.2137 26.0769 38.2033C26.2707 38.1999 26.4574 38.1703 26.6401 38.1242L26.7888 39.182L20.0309 40.1317C18.6873 40.3206 17.748 41.567 17.9369 42.9106C18.0989 44.0636 19.0432 44.9142 20.1563 45.0134L21.999 58.1244C22.0509 58.4937 22.392 58.7508 22.7613 58.6989L55.018 54.1655C55.3873 54.1136 55.6444 53.7725 55.5925 53.4032L53.7512 40.3019C54.8122 39.9091 55.4991 38.8191 55.3354 37.6544L55.3372 37.6541ZM41.3899 54.7193L36.0159 55.4746L35.592 52.4583C35.3754 50.9175 36.4056 49.493 37.8861 49.2849C39.3684 49.0766 40.7493 50.1606 40.9661 51.703L41.3899 54.7193ZM37.6981 47.9481C35.4789 48.26 33.9346 50.3668 34.2549 52.6462L34.6789 55.6625L30.5496 56.2428L27.8998 37.3881L35.2044 30.0818L44.2396 35.09L46.8895 53.9447L42.7268 54.5297L42.3029 51.5134C41.9826 49.234 39.9173 47.6344 37.6982 47.9463L37.6981 47.9481ZM39.0441 18.2408L39.4579 21.1852L34.712 21.8522L34.2915 18.9087L39.0441 18.2408ZM26.0541 36.8531C25.7531 36.8579 25.4751 36.7471 25.2708 36.5423C25.0649 36.3378 24.956 36.06 24.9598 35.7596C24.964 35.4505 25.0883 35.1587 25.3112 34.9382L34.5834 25.6649L46.0522 32.0215C46.3259 32.1739 46.5258 32.4202 46.6165 32.7142C46.703 33.0019 46.6748 33.299 46.5335 33.554C46.3935 33.8071 46.1549 33.9889 45.866 34.067C45.5704 34.146 45.2533 34.1088 44.9797 33.9564L35.4159 28.6548C35.2845 28.5812 35.1364 28.5577 34.9943 28.5777C34.8523 28.5976 34.7166 28.6627 34.6104 28.768L26.8784 36.5004C26.6574 36.7223 26.3679 36.8448 26.0569 36.851L26.0541 36.8531ZM19.2752 42.7223C19.1899 42.1157 19.6136 41.5535 20.2202 41.4682L26.9764 40.5187L27.2855 42.7178L20.5276 43.6676C19.921 43.7529 19.3587 43.3292 19.2735 42.7226L19.2752 42.7223ZM21.5026 44.8938L27.4716 44.055L29.211 56.4311L23.2419 57.27L21.5026 44.8938ZM48.2261 53.7587L46.4867 41.3826L52.4241 40.5481L54.1634 52.9242L48.2261 53.7587ZM53.055 39.0962L46.2988 40.0457L45.9897 37.8466L52.7459 36.897C53.3525 36.8118 53.9148 37.2355 54 37.8421C54.0853 38.4487 53.6616 39.0109 53.055 39.0962Z" fill="#333333"/>
</g>
</svg>
