<svg width="55" height="55" viewBox="0 0 55 55" fill="none" xmlns="http://www.w3.org/2000/svg">
<circle cx="27.082" cy="27.4287" r="27" fill="#FFF7EB"/>
<path d="M19.9397 25.5187C19.9397 22.3291 22.5338 19.7335 25.725 19.7335H32.293V16.3668C32.293 14.1499 30.4897 12.3467 28.2728 12.3467L13.3717 12.3483C11.1548 12.3483 9.35156 14.1516 9.35156 16.3685V24.996C9.35156 27.2129 11.1548 29.0161 13.3717 29.0161H15.6266V32.315C15.6266 32.6508 15.8169 32.9569 16.118 33.1058C16.242 33.167 16.3761 33.1968 16.5084 33.1968C16.6987 33.1968 16.8873 33.1355 17.0428 33.0164L19.9379 30.8079V25.5206L19.9397 25.5187Z" fill="#333333"/>
<path d="M40.6273 21.4981H25.7262C23.5093 21.4981 21.7061 23.3013 21.7061 25.5182V34.1457C21.7061 36.3626 23.5093 38.1659 25.7262 38.1659H31.7101L36.9545 42.1661C37.1117 42.2869 37.3003 42.3465 37.4889 42.3465C37.6229 42.3465 37.7569 42.3167 37.8793 42.2555C38.1804 42.1066 38.3707 41.8005 38.3707 41.4647V38.1658H40.6256C42.8425 38.1658 44.6457 36.3626 44.6457 34.1457V25.5182C44.6457 23.3013 42.8425 21.498 40.6256 21.498L40.6273 21.4981ZM33.1759 35.2875C32.6895 35.2875 32.2941 34.8921 32.2941 34.4057C32.2941 33.9193 32.6895 33.5239 33.1759 33.5239C33.6623 33.5239 34.0577 33.9193 34.0577 34.4057C34.0577 34.8921 33.6623 35.2875 33.1759 35.2875ZM34.3638 30.8684C34.2165 30.9264 34.0593 31.0554 34.0593 31.2357V31.7569C34.0593 32.2432 33.6656 32.6386 33.1776 32.6386C32.6896 32.6386 32.2958 32.2432 32.2958 31.7569V31.2357C32.2958 30.3606 32.85 29.5731 33.7103 29.2306C34.2777 29.004 34.7559 28.3538 34.5739 27.5497C34.4564 27.0319 34.0461 26.6216 33.5266 26.5042C33.0733 26.4032 32.6333 26.4992 32.2859 26.7755C31.9434 27.0501 31.7465 27.4587 31.7465 27.8971C31.7465 28.3835 31.3528 28.7789 30.8648 28.7789C30.3768 28.7789 29.983 28.3835 29.983 27.8971C29.983 26.9194 30.4231 26.0062 31.1874 25.3957C31.9534 24.7853 32.951 24.5619 33.9204 24.782C35.095 25.05 36.0281 25.9814 36.2961 27.156C36.6502 28.7177 35.8395 30.2778 34.3671 30.8668L34.3638 30.8684Z" fill="#333333"/>
</svg>
