<svg width="48" height="48" viewBox="0 0 48 48" fill="none" xmlns="http://www.w3.org/2000/svg">
<path d="M0.554739 10.0885C0.247287 7.90087 1.77148 5.8782 3.95912 5.57075L37.6282 0.838863C39.8159 0.53141 41.8385 2.0556 42.146 4.24324L46.8779 37.9124C47.1853 40.1 45.6611 42.1227 43.4735 42.4301L9.80439 47.162C7.61675 47.4695 5.59408 45.9453 5.28662 43.7576L0.554739 10.0885Z" fill="#FFF7EB"/>
<path d="M15.2299 20.0768L13.3856 25.3571L18.7663 24.4083L15.2299 20.0768ZM15.3701 20.8722L18.0346 24.1366L13.9803 24.8515L15.3701 20.8722ZM19.4759 24.8121C19.441 24.7808 19.3819 24.7485 19.2938 24.764L13.0116 25.8718C12.9261 25.8868 12.8794 25.9405 12.8569 25.9792C12.8246 26.0383 12.8214 26.111 12.8457 26.1735C13.3667 27.4012 14.94 28.0827 16.5902 27.7917C18.2405 27.5007 19.4836 26.3252 19.5528 24.9908C19.557 24.9233 19.5265 24.8566 19.4759 24.8121ZM16.5217 27.4031C15.1435 27.6461 13.8327 27.1507 13.3081 26.2202L19.1344 25.1928C18.9549 26.2502 17.8947 27.161 16.5217 27.4031ZM28.8846 17.6665L27.0408 22.9493L32.4215 22.0005L28.8846 17.6665ZM29.0253 18.4644L31.6898 21.7289L27.6354 22.4437L29.0253 18.4644ZM33.1341 22.4064C33.0962 22.373 33.0371 22.3407 32.9516 22.3558L26.6667 23.464C26.5787 23.4795 26.5346 23.5327 26.5125 23.574C26.4802 23.6331 26.4765 23.7032 26.5009 23.7657C27.0223 24.996 28.5956 25.6775 30.2459 25.3865C31.8961 25.0955 33.1388 23.9175 33.2106 22.5826C33.2126 22.5181 33.1873 22.4505 33.1341 22.4064ZM30.1773 24.9979C28.7991 25.2409 27.4884 24.7455 26.9632 23.8124L32.7921 22.7846C32.6105 23.845 31.5504 24.7558 30.1773 24.9979Z" fill="#333333"/>
<path d="M33.6857 21.7776C33.5218 21.6355 33.3246 21.5474 33.1151 21.5256L29.7467 17.4049C29.818 17.3096 29.8711 17.2014 29.9046 17.0886L30.7232 16.9443C31.4123 16.8228 31.8754 16.1615 31.7534 15.4698C31.6315 14.7781 30.9706 14.3176 30.2815 14.4391L29.4629 14.5835C29.2421 14.2858 28.8656 14.1198 28.4822 14.1874L28.0755 14.2592C27.6946 14.3263 27.395 14.6115 27.2894 14.9667L23.6262 15.6126C23.4452 15.4042 23.2269 15.2263 22.986 15.0871L22.7886 13.968C22.6353 13.1135 21.8186 12.5417 20.9663 12.6919C20.1139 12.8422 19.5421 13.6589 19.6928 14.5138L19.8897 15.6304C19.7083 15.844 19.5666 16.0854 19.4652 16.3437L15.8047 16.9891C15.5839 16.6915 15.2078 16.5281 14.8244 16.5957L14.4177 16.6674C14.0369 16.7345 13.7368 17.0172 13.6311 17.3724L12.8125 17.5167C12.1208 17.6387 11.6603 18.2995 11.7823 18.9912C11.9043 19.6829 12.5625 20.1438 13.2542 20.0219L14.0729 19.8775C14.1434 19.9746 14.2298 20.0555 14.3294 20.1207L12.5771 25.1497C12.385 25.2423 12.2268 25.3904 12.1265 25.5791C11.9726 25.8573 11.9559 26.2021 12.0777 26.4985C12.7499 28.0842 14.7075 28.9758 16.7359 28.6181C18.7644 28.2604 20.3016 26.7527 20.3888 25.0357C20.4053 24.7203 20.2717 24.4019 20.0305 24.1854C19.8666 24.0433 19.6694 23.9552 19.4573 23.9339L16.0915 19.8127C16.1603 19.7178 16.2133 19.6096 16.2468 19.4968L19.91 18.8509C20.091 19.0594 20.3093 19.2373 20.5502 19.3764L22.5336 30.6249L22.0311 30.7136C21.1839 30.8629 20.5814 31.5969 20.5676 32.4274L19.6298 32.5927C18.9386 32.7173 18.4755 33.3786 18.5975 34.0703L18.6747 34.5081C18.7967 35.1998 19.4579 35.6628 20.1496 35.5409L29.5484 33.8836C30.2401 33.7617 30.7058 33.0999 30.5838 32.4082L30.5066 31.9704C30.3846 31.2787 29.7207 30.8161 29.029 30.9381L28.0938 31.103C27.7963 30.3247 26.9796 29.8437 26.1325 29.993L25.6299 30.0817L23.646 18.8306C23.8253 18.62 23.9696 18.3782 24.0679 18.1178L27.7311 17.4719C27.8012 17.5664 27.888 17.6499 27.9851 17.7156L26.2296 22.7424C26.0376 22.835 25.882 22.9826 25.7791 23.1717C25.6278 23.4495 25.6085 23.7948 25.7328 24.0908C26.4025 25.6769 28.3627 26.568 30.3911 26.2103C32.4196 25.8527 33.9542 24.3453 34.0431 22.6228C34.0565 22.3052 33.9234 21.9894 33.6857 21.7776ZM19.4759 24.8121C19.5265 24.8566 19.557 24.9233 19.5528 24.9908C19.4836 26.3252 18.2405 27.5007 16.5902 27.7917C14.94 28.0827 13.3667 27.4012 12.8457 26.1735C12.8214 26.111 12.8246 26.0383 12.8569 25.9792C12.8794 25.9405 12.9261 25.8868 13.0116 25.8718L19.2938 24.764C19.3819 24.7485 19.441 24.7808 19.4759 24.8121ZM18.7663 24.4083L13.3856 25.3571L15.2299 20.0768L18.7663 24.4083ZM22.0502 18.8395C21.1642 18.9957 20.3145 18.403 20.1583 17.517C20.002 16.631 20.5974 15.7808 21.4834 15.6245C22.3694 15.4683 23.2191 16.0611 23.3758 16.9496C23.5325 17.8382 22.9362 18.6833 22.0502 18.8395ZM28.8846 17.6665L32.4215 22.0005L27.0408 22.9493L28.8846 17.6665ZM30.2459 25.3865C28.5956 25.6775 27.0223 24.996 26.5009 23.7657C26.4765 23.7032 26.4802 23.6331 26.5125 23.574C26.5346 23.5327 26.5787 23.4795 26.6667 23.464L32.9516 22.3558C33.0371 22.3407 33.0962 22.373 33.1341 22.4064C33.1847 22.4509 33.2126 22.5181 33.2106 22.5826C33.1388 23.9175 31.8935 25.096 30.2459 25.3865Z" fill="#333333"/>
<path d="M23.3758 16.9496C23.532 17.8356 22.9362 18.6833 22.0502 18.8395C21.1642 18.9957 20.3145 18.403 20.1583 17.517C20.002 16.631 20.5974 15.7808 21.4834 15.6245C22.3694 15.4683 23.2191 16.0611 23.3758 16.9496Z" fill="#333333"/>
</svg>
