<svg width="170" height="91" viewBox="0 0 170 91" fill="none" xmlns="http://www.w3.org/2000/svg">
<g id="MFS Logo" clip-path="url(#clip0_36056_8583)">
<path id="Vector" d="M26.3276 10.3596C26.3276 10.3596 25.8578 11.8589 22.4994 13.3582C20.4604 14.2678 18.2214 14.4876 13.2338 15.4672C9.36559 16.2268 7.56644 16.4467 5.53739 15.967C2.37888 15.2273 3.21848 14.5076 3.97813 13.708C5.0976 12.5286 8.74588 10.4895 12.3942 9.5C15.4427 8.67039 20.0406 8.32055 21.8497 8.66039C23.6489 9.00023 23.6489 9.14017 23.8688 9.25011C24.0787 9.35007 26.9973 9.59995 26.3376 10.3596M28.4766 8.61041C27.2072 7.84078 25.8578 7.64087 25.2681 7.59089C25.0282 7.32102 24.5484 6.9512 23.6589 6.77128C23.1591 6.67133 22.4694 6.53139 19.041 6.46143C18.7612 6.46143 18.4713 6.46143 18.1615 6.46143C14.0134 6.46143 10.575 7.04115 7.96625 8.20061C5.54739 9.2701 1.78916 12.0388 0.389815 13.788C-0.0699686 14.3577 -0.0299874 14.8675 0.0799609 15.1973C0.289862 15.817 1.00952 16.7266 4.75776 17.5962C5.78728 17.8361 6.77681 17.946 7.78633 17.946C9.22566 17.946 10.4451 17.7161 11.6445 17.4862L12.1843 17.3863C13.1838 17.1964 14.1933 17.1264 15.1729 17.0664C16.1624 17.0065 17.1919 16.9365 18.2214 16.7366L19.141 16.5667C21.0901 16.2168 23.5189 15.777 25.488 14.6076C27.8469 13.2282 28.7465 10.4595 28.7964 10.3096C28.9464 9.94978 29.3062 9.11018 28.4866 8.62041" fill="white"/>
<path id="Vector_2" d="M56.1036 2.37336C54.6543 1.45379 52.4053 0.904053 50.0764 0.904053C48.827 0.904053 47.5876 1.06398 46.4082 1.36384C42.56 2.36337 37.0826 5.36195 34.3438 7.12113C31.6651 8.85031 31.4852 9.23013 31.5252 9.52999C31.5452 9.68992 31.6651 9.79987 31.875 9.85984C32.0649 9.90981 32.2148 9.9498 32.3248 9.96979C32.3248 10.3296 32.4048 11.0693 32.9245 11.709C33.4143 12.3087 34.1639 12.6685 35.1635 12.7585C35.4633 12.7885 35.7732 12.7985 36.073 12.7985C37.6723 12.7985 39.0516 12.4086 40.6509 11.9589C41.3905 11.7489 42.1702 11.5291 43.0298 11.3291C43.5195 11.2192 44.1392 11.0793 44.8489 10.9293C48.7171 10.0997 54.5643 8.84032 56.2036 7.34102C57.2631 6.36148 57.7628 5.41193 57.6829 4.51235C57.6129 3.70274 57.0831 2.97308 56.1036 2.35337" fill="white"/>
<path id="Vector_3" d="M30.5756 12.6385C30.5756 12.6385 28.8664 14.8175 29.3862 18.4058C29.8959 22.0041 30.5756 20.7647 30.4956 23.0336C30.4057 25.3026 30.3357 28.651 31.3352 32.1693C31.7251 33.5487 32.5247 35.018 32.8445 36.3174C33.0045 36.9971 33.7841 41.355 33.7741 36.9971C33.7741 35.018 33.894 33.4487 33.6142 30.5201C33.0944 24.9627 31.765 24.2131 31.5751 22.5638C31.4352 21.3444 32.1249 21.1045 31.865 18.066C31.7151 16.3568 30.9454 14.8375 30.8655 14.0179C30.7955 13.2382 30.8455 12.4386 30.5756 12.6285" fill="white"/>
<path id="Vector_4" d="M66.7486 25.4125V35.8376H68.6777V24.9727C68.6777 22.3439 66.9685 19.5153 63.2103 19.5153C61.1912 19.5153 59.3421 20.6947 58.3026 22.5738C57.463 20.6347 55.6638 19.5153 53.3249 19.5153C51.4758 19.5153 49.8465 20.4448 48.817 22.0041L48.7271 19.8251H46.9879V35.8376H48.917V26.2921C48.917 23.9832 50.7861 21.3044 53.185 21.3044C55.5838 21.3044 56.8632 22.8437 56.8632 25.4125V35.8376H58.7923V26.2921C58.7923 23.9832 60.6615 21.3044 63.0703 21.3044C65.4792 21.3044 66.7486 22.8437 66.7486 25.4125Z" fill="white"/>
<path id="Vector_5" d="M72.5459 41.1152L72.156 41.2651L72.9856 42.8643L73.2955 42.7444C76.2341 41.5949 78.1332 39.5359 79.8724 35.6078L86.3694 19.8252H84.2304L78.8929 33.3288L73.7753 20.0551L73.6853 19.8152H71.4464L77.7934 35.4478C77.1437 37.5668 75.2846 40.1056 72.5359 41.1152" fill="white"/>
<path id="Vector_6" d="M66.7486 25.4125V35.8376H68.6777V24.9727C68.6777 22.3439 66.9685 19.5153 63.2103 19.5153C61.1912 19.5153 59.3421 20.6947 58.3026 22.5738C57.463 20.6347 55.6638 19.5153 53.3249 19.5153C51.4758 19.5153 49.8465 20.4448 48.817 22.0041L48.7271 19.8251H46.9879V35.8376H48.917V26.2921C48.917 23.9832 50.7861 21.3044 53.185 21.3044C55.5838 21.3044 56.8632 22.8437 56.8632 25.4125V35.8376H58.7923V26.2921C58.7923 23.9832 60.6615 21.3044 63.0703 21.3044C65.4792 21.3044 66.7486 22.8437 66.7486 25.4125Z" fill="white"/>
<path id="Vector_7" d="M72.5459 41.1152L72.156 41.2651L72.9856 42.8643L73.2955 42.7444C76.2341 41.5949 78.1332 39.5359 79.8724 35.6078L86.3694 19.8252H84.2304L78.8929 33.3288L73.7753 20.0551L73.6853 19.8152H71.4464L77.7934 35.4478C77.1437 37.5668 75.2846 40.1056 72.5359 41.1152" fill="white"/>
<path id="Vector_8" d="M49.6167 48.0519C49.6167 43.3041 53.105 42.0347 55.164 42.0347C56.1236 42.0347 56.9232 42.1847 57.413 42.4445L57.8928 42.7044L58.0827 40.9652L57.8928 40.8453C57.1231 40.3555 55.7738 40.3055 55.234 40.3055C51.7556 40.3055 47.6976 42.4146 47.6976 48.3418V49.1614H45.3387V50.7906H47.6976V65.0339H49.6167V50.7906H56.4135V65.0339H58.3425V49.1514H49.6167V48.0319V48.0519Z" fill="white"/>
<path id="Vector_9" d="M69.3973 48.7216C68.008 48.7216 66.6986 49.5312 65.929 50.7606L65.849 49.0514H64.1098V65.0539H66.0389V55.8682C66.0389 53.2594 67.1484 50.4907 69.1874 50.4907C69.6472 50.4907 69.8871 50.5507 69.9971 50.6007L70.4269 50.7706L70.6767 49.0214L70.4568 48.9015C70.167 48.7515 69.6172 48.7316 69.3973 48.7316" fill="white"/>
<path id="Vector_10" d="M78.4331 56.348C76.1142 55.4684 75.1546 54.8287 75.1546 53.1795C75.1546 51.6802 76.604 50.4507 78.3731 50.4507C79.5326 50.4507 80.662 50.7606 81.5516 51.3303L82.0614 51.6502L82.2313 49.7011L82.0414 49.5812C81.1818 49.0414 79.8624 48.7216 78.5031 48.7216C75.3645 48.7216 73.1856 50.6207 73.1856 53.3394C73.1856 56.0581 75.1246 57.0676 77.2137 57.8673C79.7525 58.8268 80.5621 59.5765 80.5621 60.9158C80.5621 62.4451 78.9229 63.6445 76.8138 63.6445C75.5944 63.6445 74.335 63.3347 73.1756 62.745L72.7058 62.5051L72.5259 64.3742L72.7358 64.4941C73.7053 65.0339 75.2546 65.3837 76.7839 65.3837C80.1323 65.3837 82.5611 63.4146 82.5611 60.6959C82.5611 58.2471 80.3522 57.0876 78.4231 56.358" fill="white"/>
<path id="Vector_11" d="M94.2057 63.3246C93.7359 63.5645 93.2561 63.6645 92.5464 63.6645C91.1771 63.6645 90.4174 62.7849 90.4174 61.1956V50.8305H94.5955V49.1613H90.4174V44.9733H88.4884V49.1613H85.8196V50.8305H88.4884V61.3556C88.4884 63.8644 89.9277 65.3637 92.3365 65.3637C93.2661 65.3637 94.1057 65.1937 94.6255 64.8939L94.8254 64.7839L94.7054 63.0648L94.2157 63.3246H94.2057Z" fill="white"/>
<path id="Vector_12" d="M110.528 56.348C108.219 55.4684 107.25 54.8287 107.25 53.1795C107.25 51.6802 108.699 50.4507 110.468 50.4507C111.627 50.4507 112.757 50.7606 113.647 51.3303L114.146 51.6502L114.326 49.7011L114.136 49.5812C113.277 49.0414 111.957 48.7216 110.598 48.7216C107.459 48.7216 105.27 50.6207 105.27 53.3394C105.27 56.0581 107.21 57.0676 109.299 57.8673C111.837 58.8268 112.647 59.5765 112.647 60.9158C112.647 62.4451 110.998 63.6445 108.899 63.6445C107.679 63.6445 106.42 63.3347 105.27 62.745L104.791 62.5051L104.611 64.3742L104.821 64.4941C105.79 65.0339 107.339 65.3837 108.869 65.3837C112.217 65.3837 114.646 63.4146 114.646 60.6959C114.646 58.2471 112.437 57.0876 110.508 56.358" fill="white"/>
<path id="Vector_13" d="M139.744 63.6445C136.526 63.6445 134.457 61.0557 134.457 57.0476C134.457 53.0395 136.536 50.4507 139.744 50.4507C142.953 50.4507 145.042 53.0395 145.042 57.0476C145.042 61.0557 142.963 63.6445 139.744 63.6445ZM139.744 48.7216C135.386 48.7216 132.458 52.07 132.458 57.0476C132.458 62.0253 135.386 65.3737 139.744 65.3737C144.102 65.3737 147.041 62.0253 147.041 57.0476C147.041 52.07 144.112 48.7216 139.744 48.7216Z" fill="white"/>
<path id="Vector_14" d="M157.046 63.6445C153.828 63.6445 151.749 61.0557 151.749 57.0476C151.749 53.0395 153.828 50.4507 157.046 50.4507C160.265 50.4507 162.344 53.0395 162.344 57.0476C162.344 61.0557 160.265 63.6445 157.046 63.6445ZM157.046 48.7216C152.688 48.7216 149.75 52.07 149.75 57.0476C149.75 62.0253 152.678 65.3737 157.046 65.3737C161.414 65.3737 164.343 62.0253 164.343 57.0476C164.343 52.07 161.404 48.7216 157.046 48.7216Z" fill="white"/>
<path id="Vector_15" d="M131.168 48.9814H128.599L120.863 56.5579V41.0352H118.934V65.0439H120.863V58.7468L121.403 58.2271L128.33 64.9439L128.43 65.0439H131.278L122.882 57.0076L131.168 48.9814Z" fill="white"/>
<path id="Vector_16" d="M170 41.0352H168.071V65.0439H170V41.0352Z" fill="white"/>
<path id="Vector_17" d="M105.49 86.5237C105.76 86.5237 106 86.4738 106.21 86.4038C106.41 86.3338 106.62 86.2439 106.84 86.1439C106.93 86.0939 107 86.0739 107.03 86.0739C107.09 86.0739 107.16 86.1239 107.24 86.2239L107.829 87.0735C107.869 87.1434 107.889 87.1934 107.889 87.2234C107.889 87.3034 107.859 87.3633 107.809 87.4133C107.749 87.4633 107.699 87.5033 107.659 87.5333C107.359 87.7332 107.03 87.9031 106.67 88.033C106.31 88.163 105.93 88.2329 105.54 88.2329C105.051 88.2329 104.601 88.143 104.171 87.9531C103.741 87.7731 103.371 87.5233 103.052 87.2034C102.732 86.8836 102.482 86.5137 102.292 86.0839C102.112 85.6541 102.022 85.2044 102.022 84.7146C102.022 84.2248 102.112 83.765 102.292 83.3352C102.472 82.9054 102.732 82.5256 103.052 82.2058C103.371 81.8859 103.751 81.636 104.171 81.4461C104.601 81.2662 105.051 81.1663 105.54 81.1663C105.92 81.1663 106.27 81.2262 106.6 81.3462C106.93 81.4661 107.26 81.626 107.589 81.8459H107.579C107.649 81.8959 107.709 81.9459 107.759 81.9959C107.809 82.0458 107.829 82.1158 107.829 82.1858C107.829 82.2058 107.829 82.2258 107.829 82.2657C107.829 82.2957 107.809 82.3257 107.789 82.3457L107.25 83.2653C107.25 83.2653 107.2 83.3352 107.16 83.3652C107.12 83.3952 107.08 83.4052 107.03 83.4052C106.99 83.4052 106.92 83.3752 106.81 83.3053C106.65 83.1753 106.46 83.0754 106.23 82.9954C106 82.9154 105.78 82.8755 105.56 82.8755C105.3 82.8755 105.061 82.9254 104.841 83.0254C104.621 83.1253 104.431 83.2653 104.271 83.4352C104.111 83.6051 103.981 83.805 103.891 84.0249C103.801 84.2548 103.751 84.4847 103.751 84.7346C103.751 85.2543 103.921 85.6841 104.251 86.014C104.581 86.3438 105.001 86.5037 105.5 86.5037" fill="white"/>
<path id="Vector_18" d="M110.088 84.7346C110.088 84.9945 110.128 85.2344 110.208 85.4543C110.288 85.6742 110.398 85.8641 110.548 86.034C110.698 86.194 110.868 86.3239 111.068 86.4139C111.268 86.5038 111.498 86.5538 111.737 86.5538C112.247 86.5538 112.657 86.3839 112.957 86.034C113.257 85.6842 113.407 85.2644 113.407 84.7446C113.407 84.4948 113.367 84.2649 113.297 84.035C113.227 83.8051 113.117 83.6152 112.967 83.4452C112.817 83.2753 112.647 83.1454 112.447 83.0454C112.247 82.9455 112.007 82.9055 111.747 82.9055C111.498 82.9055 111.268 82.9555 111.068 83.0454C110.858 83.1454 110.688 83.2753 110.548 83.4452C110.408 83.6152 110.298 83.8051 110.218 84.025C110.138 84.2449 110.098 84.4748 110.098 84.7246M113.517 87.7032C113.497 87.6133 113.487 87.5333 113.477 87.4734C113.467 87.4134 113.457 87.3334 113.437 87.2435C113.357 87.3634 113.267 87.4833 113.167 87.6033C113.067 87.7232 112.947 87.8232 112.807 87.9131C112.667 88.0031 112.507 88.0731 112.327 88.123C112.147 88.183 111.927 88.203 111.667 88.203H111.637C111.148 88.203 110.708 88.113 110.298 87.9331C109.888 87.7532 109.538 87.5033 109.249 87.1935C108.959 86.8736 108.729 86.5038 108.559 86.084C108.389 85.6642 108.309 85.2044 108.309 84.7047C108.309 84.2049 108.389 83.7451 108.549 83.3253C108.709 82.8955 108.939 82.5257 109.229 82.2158C109.518 81.906 109.878 81.6561 110.278 81.4762C110.688 81.2963 111.138 81.2063 111.637 81.2063C112.137 81.2063 112.507 81.3063 112.777 81.4962C113.047 81.6861 113.287 81.916 113.497 82.1858L113.637 81.6661C113.677 81.5062 113.716 81.4062 113.756 81.3562C113.806 81.3063 113.886 81.2763 114.016 81.2763L114.786 81.3063C114.886 81.3063 114.976 81.3362 115.056 81.4062C115.136 81.4762 115.176 81.5661 115.176 81.6761V87.7232C115.176 87.8332 115.136 87.9131 115.056 87.9731C114.976 88.0331 114.886 88.0631 114.786 88.0631H113.906C113.766 88.0631 113.676 88.0331 113.627 87.9631C113.577 87.8932 113.537 87.8032 113.527 87.6932" fill="white"/>
<path id="Vector_19" d="M116.765 81.3162H117.675C117.755 81.3162 117.825 81.3461 117.885 81.4161C117.934 81.4861 117.984 81.556 118.024 81.646C118.064 81.736 118.094 81.8259 118.114 81.9259C118.134 82.0258 118.154 82.1158 118.164 82.2057C118.354 81.9758 118.614 81.7659 118.924 81.566C119.234 81.3661 119.614 81.2662 120.053 81.2662C120.523 81.2662 120.933 81.3661 121.283 81.576C121.633 81.7859 121.893 82.0358 122.083 82.3257C122.302 82.0058 122.602 81.7459 122.982 81.536C123.362 81.3261 123.762 81.2262 124.172 81.2262C124.641 81.2262 125.031 81.2962 125.361 81.4461C125.691 81.596 125.961 81.7959 126.171 82.0558C126.391 82.3157 126.55 82.6155 126.65 82.9654C126.76 83.3052 126.81 83.685 126.82 84.0849V87.7431C126.82 87.8731 126.78 87.953 126.7 88.003C126.62 88.053 126.52 88.073 126.401 88.073H125.351C125.201 88.073 125.091 88.053 125.021 88.013C124.951 87.973 124.911 87.8831 124.911 87.7631V84.2648C124.911 83.9149 124.831 83.6251 124.681 83.3852C124.531 83.1453 124.291 83.0254 123.962 83.0254C123.802 83.0254 123.642 83.0553 123.492 83.1253C123.332 83.1853 123.182 83.2752 123.052 83.3852C122.922 83.4951 122.812 83.6251 122.732 83.765C122.652 83.9149 122.612 84.0749 122.612 84.2448V87.7431C122.612 87.8731 122.572 87.953 122.502 88.003C122.432 88.053 122.332 88.073 122.202 88.073H121.073C120.933 88.073 120.833 88.053 120.773 88.013C120.713 87.973 120.683 87.8831 120.683 87.7631V84.1948C120.683 83.815 120.593 83.5351 120.403 83.3252C120.213 83.1253 119.954 83.0254 119.624 83.0254C119.464 83.0254 119.314 83.0553 119.154 83.1153C118.994 83.1753 118.854 83.2552 118.734 83.3652C118.614 83.4751 118.504 83.6051 118.434 83.755C118.354 83.9049 118.314 84.0549 118.314 84.2248V87.7931C118.314 87.983 118.204 88.083 117.974 88.083H116.795C116.535 88.083 116.405 87.983 116.405 87.7831V81.7559C116.405 81.626 116.445 81.5261 116.525 81.4461C116.605 81.3661 116.695 81.3261 116.775 81.3261" fill="white"/>
<path id="Vector_20" d="M129.609 84.6046C129.609 84.8545 129.649 85.0844 129.729 85.2943C129.809 85.5042 129.919 85.6841 130.069 85.844C130.209 86.004 130.379 86.1239 130.569 86.2139C130.758 86.3038 130.958 86.3538 131.178 86.3538C131.398 86.3538 131.588 86.3038 131.768 86.2139C131.948 86.1239 132.108 86.004 132.248 85.844C132.388 85.6841 132.498 85.5042 132.578 85.3043C132.658 85.0944 132.698 84.8745 132.698 84.6346C132.698 84.3947 132.658 84.1748 132.578 83.9649C132.498 83.755 132.388 83.5751 132.248 83.4252C132.108 83.2653 131.948 83.1453 131.768 83.0554C131.588 82.9654 131.388 82.9254 131.178 82.9254C130.968 82.9254 130.768 82.9654 130.579 83.0554C130.389 83.1453 130.229 83.2653 130.089 83.4152C129.949 83.5651 129.829 83.745 129.739 83.9549C129.649 84.1648 129.609 84.3847 129.609 84.6046ZM127.89 90.4019V81.716C127.89 81.4661 128.02 81.3362 128.28 81.3162H128.949C129.099 81.3162 129.219 81.3262 129.329 81.3562C129.439 81.3861 129.509 81.4861 129.559 81.656L129.639 82.0958C129.869 81.8059 130.119 81.5761 130.399 81.4061C130.678 81.2462 131.028 81.1562 131.438 81.1562C131.898 81.1562 132.318 81.2462 132.708 81.4361C133.097 81.616 133.437 81.8659 133.717 82.1758C134.007 82.4856 134.227 82.8555 134.387 83.2753C134.557 83.6951 134.637 84.1548 134.637 84.6346C134.637 85.1144 134.557 85.5742 134.397 85.994C134.237 86.4138 134.007 86.7836 133.717 87.1034C133.427 87.4233 133.087 87.6732 132.688 87.8431C132.298 88.023 131.858 88.113 131.398 88.113C131.048 88.113 130.738 88.043 130.469 87.9031C130.199 87.7631 129.969 87.6032 129.789 87.4033V90.3719C129.789 90.4919 129.749 90.5918 129.679 90.6718C129.609 90.7517 129.499 90.7917 129.359 90.7917H128.31C128.19 90.7917 128.09 90.7517 128 90.6818C127.91 90.6118 127.87 90.5118 127.87 90.3819" fill="white"/>
<path id="Vector_21" d="M140.734 88.073C140.594 88.073 140.494 88.053 140.414 88.013C140.344 87.973 140.284 87.9131 140.244 87.8431C140.204 87.7731 140.174 87.6832 140.154 87.5832C140.134 87.4833 140.104 87.3733 140.084 87.2534C139.874 87.4933 139.574 87.7032 139.185 87.8831C138.795 88.063 138.375 88.1629 137.925 88.1629C137.505 88.1629 137.125 88.093 136.806 87.963C136.476 87.8331 136.206 87.6432 135.986 87.3933C135.766 87.1534 135.596 86.8635 135.486 86.5337C135.376 86.2039 135.316 85.844 135.316 85.4442V81.726C135.316 81.596 135.356 81.4961 135.436 81.4261C135.516 81.3561 135.606 81.3162 135.716 81.3162H136.846C136.996 81.3162 137.096 81.3462 137.145 81.4161C137.205 81.4861 137.225 81.586 137.225 81.716V85.1344C137.225 85.5142 137.335 85.814 137.545 86.0339C137.755 86.2538 138.045 86.3638 138.405 86.3638C138.555 86.3638 138.715 86.3338 138.905 86.2738C139.085 86.2139 139.254 86.1339 139.414 86.0339C139.574 85.934 139.704 85.814 139.814 85.6641C139.924 85.5142 139.984 85.3543 139.984 85.1843V81.716C139.984 81.4561 140.114 81.3362 140.384 81.3362H141.503C141.633 81.3362 141.733 81.3761 141.803 81.4461C141.873 81.5161 141.903 81.606 141.903 81.716V87.6732C141.903 87.953 141.763 88.083 141.473 88.083H140.734V88.073Z" fill="white"/>
<path id="Vector_22" d="M142.713 86.9036C142.713 86.9036 142.683 86.8336 142.683 86.7637C142.683 86.7337 142.683 86.7037 142.693 86.6637C142.693 86.6237 142.733 86.5937 142.773 86.5637L143.612 85.8941C143.612 85.8941 143.692 85.8241 143.762 85.8241C143.822 85.8241 143.892 85.8541 143.982 85.924C144.152 86.074 144.352 86.2339 144.572 86.4038C144.792 86.5737 145.042 86.6637 145.332 86.6637C145.641 86.6637 145.861 86.5937 145.971 86.4638C146.081 86.3339 146.141 86.1739 146.141 86.004C146.141 85.9041 146.101 85.8141 146.021 85.7341C145.941 85.6542 145.841 85.5842 145.731 85.5242C145.621 85.4643 145.512 85.4043 145.392 85.3643C145.282 85.3243 145.182 85.2943 145.112 85.2744C144.302 85.0645 143.722 84.7946 143.373 84.4547C143.023 84.1249 142.843 83.6851 142.843 83.1454C142.843 82.8755 142.903 82.6256 143.033 82.3957C143.153 82.1658 143.333 81.9559 143.552 81.776C143.772 81.5961 144.052 81.4562 144.362 81.3462C144.682 81.2463 145.032 81.1863 145.412 81.1863C145.871 81.1863 146.281 81.2562 146.651 81.4162C147.021 81.5661 147.341 81.766 147.611 82.0159C147.77 82.1858 147.86 82.3157 147.86 82.4257C147.86 82.4657 147.81 82.5356 147.711 82.6356C147.611 82.7355 147.501 82.8355 147.371 82.9355C147.251 83.0354 147.131 83.1254 147.011 83.2053C146.891 83.2853 146.821 83.3253 146.781 83.3253C146.711 83.3253 146.631 83.2853 146.551 83.2053C146.421 83.0954 146.271 82.9854 146.101 82.8855C145.931 82.7755 145.711 82.7256 145.442 82.7256C145.262 82.7256 145.102 82.7555 144.952 82.8255C144.802 82.8855 144.722 83.0054 144.722 83.1853C144.722 83.3453 144.822 83.4852 145.002 83.5752C145.192 83.6751 145.452 83.7651 145.781 83.875C146.131 83.995 146.451 84.1249 146.741 84.2548C147.031 84.3848 147.281 84.5447 147.481 84.7146C147.681 84.8845 147.84 85.0944 147.95 85.3143C148.06 85.5442 148.12 85.8041 148.12 86.104C148.12 86.4538 148.04 86.7636 147.89 87.0335C147.74 87.3034 147.531 87.5333 147.281 87.7132C147.021 87.8931 146.731 88.0231 146.391 88.123C146.061 88.213 145.711 88.2629 145.352 88.2629C144.862 88.2629 144.412 88.173 143.992 88.0031C143.572 87.8331 143.213 87.5833 142.923 87.2634C142.823 87.1435 142.753 87.0335 142.713 86.9336" fill="white"/>
<path id="Vector_23" d="M81.4217 79.3071C81.4217 79.0172 81.5216 78.7674 81.7315 78.5575C81.9414 78.3476 82.1913 78.2476 82.4812 78.2476C82.771 78.2476 83.0409 78.3476 83.2408 78.5575C83.4407 78.7674 83.5407 79.0172 83.5407 79.3071C83.5407 79.597 83.4407 79.8468 83.2408 80.0467C83.0409 80.2467 82.791 80.3466 82.4812 80.3466C82.1713 80.3466 81.9414 80.2467 81.7315 80.0467C81.5216 79.8468 81.4217 79.597 81.4217 79.3071ZM81.5916 87.7631V82.8054H79.1727V87.7331C79.1727 87.8431 79.1328 87.933 79.0628 87.993C78.9928 88.053 78.9029 88.083 78.8129 88.083H77.7234C77.6235 88.083 77.5335 88.053 77.4735 87.983C77.4036 87.923 77.3736 87.8331 77.3736 87.7331V82.8054H76.8338C76.7239 82.8054 76.6339 82.7755 76.564 82.7055C76.494 82.6355 76.464 82.5356 76.464 82.4056V81.686C76.464 81.556 76.494 81.4661 76.564 81.4061C76.6339 81.3461 76.7239 81.3161 76.8338 81.3161H77.3736V80.3266C77.3736 79.9268 77.4336 79.567 77.5635 79.2471C77.6934 78.9273 77.8734 78.6674 78.1032 78.4375C78.3331 78.2176 78.613 78.0477 78.9329 77.9377C79.2527 77.8278 79.6125 77.7678 80.0024 77.7678C80.2622 77.7678 80.3922 77.8978 80.3922 78.1576V79.1172C80.3922 79.2171 80.3622 79.3071 80.3122 79.3771C80.2622 79.447 80.1823 79.477 80.0823 79.477C79.8224 79.477 79.6125 79.547 79.4426 79.6869C79.2727 79.8269 79.1827 80.0368 79.1827 80.3266V81.3261H83.0809C83.3108 81.3261 83.4207 81.4461 83.4207 81.666V87.7631C83.4207 87.973 83.3008 88.083 83.0809 88.083H81.9414C81.7215 88.083 81.6116 87.973 81.6116 87.7631" fill="white"/>
<path id="Vector_24" d="M86.2394 81.706C86.2394 81.706 86.2694 81.8459 86.3094 81.9759C86.3494 82.1058 86.3694 82.1958 86.3793 82.2457C86.4593 82.1358 86.5593 82.0259 86.6792 81.9059C86.7892 81.786 86.9191 81.676 87.069 81.5861C87.219 81.4861 87.3689 81.4061 87.5488 81.3462C87.7187 81.2862 87.9086 81.2462 88.1085 81.2462H88.2385C88.2385 81.2462 88.3184 81.2462 88.3684 81.2562C88.4984 81.2562 88.6483 81.2962 88.8082 81.3562C88.9781 81.4161 89.1281 81.4861 89.278 81.5661C89.4279 81.646 89.5479 81.726 89.6478 81.8159C89.7478 81.9059 89.7977 81.9859 89.7977 82.0558C89.7977 82.1058 89.7777 82.1758 89.7278 82.2457L89.178 83.1453C89.0981 83.2753 88.9981 83.3352 88.8882 83.3352C88.8482 83.3352 88.7982 83.3152 88.7183 83.2853C88.6483 83.2553 88.5683 83.2153 88.4884 83.1653C88.3584 83.0754 88.2485 83.0054 88.1485 82.9754C88.0486 82.9354 87.9386 82.9154 87.8087 82.9154C87.6088 82.9154 87.4289 82.9554 87.2689 83.0354C87.109 83.1153 86.9691 83.2153 86.8591 83.3452C86.7492 83.4752 86.6592 83.6151 86.5992 83.775C86.5393 83.935 86.5093 84.0949 86.5093 84.2448V87.7232C86.5093 87.9531 86.3893 88.073 86.1395 88.073H85C84.7601 88.073 84.6402 87.9531 84.6402 87.7232V81.696C84.6402 81.5761 84.6801 81.4861 84.7501 81.4261C84.8201 81.3662 84.91 81.3362 85 81.3362H85.8796C85.9895 81.3362 86.0695 81.3762 86.1195 81.4461C86.1695 81.5161 86.2094 81.6061 86.2394 81.696" fill="white"/>
<path id="Vector_25" d="M89.8777 86.9036C89.8777 86.9036 89.8477 86.8336 89.8477 86.7636C89.8477 86.7337 89.8477 86.7037 89.8577 86.6637C89.8577 86.6237 89.8977 86.5937 89.9377 86.5637L90.7773 85.8941C90.7773 85.8941 90.8572 85.8241 90.9272 85.8241C90.9872 85.8241 91.0572 85.8541 91.1471 85.924C91.317 86.074 91.5169 86.2339 91.7368 86.4038C91.9567 86.5737 92.2066 86.6637 92.4965 86.6637C92.8063 86.6637 93.0262 86.5937 93.1362 86.4638C93.2461 86.3338 93.3061 86.1739 93.3061 86.004C93.3061 85.904 93.2661 85.8141 93.1862 85.7341C93.1062 85.6542 93.0062 85.5842 92.8963 85.5242C92.7863 85.4643 92.6764 85.4043 92.5564 85.3643C92.4465 85.3243 92.3465 85.2943 92.2766 85.2743C91.467 85.0644 90.8872 84.7946 90.5374 84.4547C90.1876 84.1149 90.0076 83.6851 90.0076 83.1353C90.0076 82.8655 90.0676 82.6156 90.1976 82.3857C90.3175 82.1558 90.4974 81.9459 90.7173 81.766C90.9372 81.5861 91.2171 81.4461 91.5269 81.3362C91.8468 81.2362 92.1966 81.1763 92.5764 81.1763C93.0362 81.1763 93.446 81.2462 93.8159 81.4062C94.1857 81.5561 94.5055 81.756 94.7754 82.0059C94.9353 82.1658 95.0253 82.3057 95.0253 82.4157C95.0253 82.4557 94.9753 82.5256 94.8754 82.6256C94.7754 82.7255 94.6655 82.8255 94.5355 82.9254C94.4156 83.0254 94.2956 83.1154 94.1757 83.1953C94.0557 83.2753 93.9858 83.3153 93.9458 83.3153C93.8758 83.3153 93.7959 83.2753 93.7159 83.1953C93.586 83.0854 93.436 82.9754 93.2661 82.8755C93.0962 82.7655 92.8763 82.7155 92.6064 82.7155C92.4265 82.7155 92.2666 82.7455 92.1167 82.8155C91.9667 82.8755 91.8868 82.9954 91.8868 83.1753C91.8868 83.3453 91.9867 83.4752 92.1666 83.5651C92.3565 83.6651 92.6164 83.7651 92.9463 83.865C93.2961 83.985 93.6159 84.1149 93.9058 84.2448C94.1957 84.3748 94.4456 84.5347 94.6455 84.7046C94.8454 84.8845 95.0053 85.0844 95.1152 85.3043C95.2252 85.5242 95.2852 85.7941 95.2852 86.094C95.2852 86.4438 95.2052 86.7537 95.0553 87.0235C94.9053 87.2934 94.6954 87.5233 94.4456 87.7032C94.1857 87.8831 93.8958 88.0131 93.556 88.113C93.2261 88.203 92.8763 88.2529 92.5165 88.2529C92.0267 88.2529 91.5769 88.163 91.1571 87.9931C90.7373 87.8231 90.3775 87.5733 90.0876 87.2534C89.9876 87.1335 89.9177 87.0235 89.8777 86.9236" fill="white"/>
<path id="Vector_26" d="M99.3333 81.4261C99.2633 81.3562 99.1733 81.3262 99.0634 81.3262H98.2338V79.3171C98.2338 79.1972 98.2138 79.0972 98.1638 79.0173C98.1138 78.9373 98.0339 78.8973 97.9039 78.8973C97.854 78.8973 97.824 78.8973 97.804 78.9073L96.7845 79.0573C96.4946 79.0873 96.3547 79.2172 96.3547 79.4571V81.3162H95.9848C95.715 81.3162 95.585 81.4461 95.585 81.716V82.4757C95.585 82.7555 95.715 82.9055 95.9848 82.9055H96.3547V85.964C96.3547 86.3238 96.4146 86.6337 96.5446 86.9236C96.6745 87.2034 96.8544 87.4433 97.0843 87.6332C97.3142 87.8231 97.5841 87.9731 97.8839 88.073C98.1838 88.183 98.5136 88.2329 98.8735 88.2329C99.1134 88.2329 99.2333 88.113 99.2333 87.8731V86.9436C99.2333 86.8436 99.2133 86.7636 99.1633 86.7037C99.1134 86.6437 99.0434 86.6137 98.9434 86.6137C98.6836 86.6137 98.5036 86.5437 98.3837 86.4138C98.2937 86.3039 98.2338 86.1539 98.2238 85.954V82.9055H99.0534C99.1633 82.9055 99.2533 82.8755 99.3233 82.8055C99.3932 82.7355 99.4232 82.6256 99.4232 82.4857V81.726C99.4232 81.5961 99.3932 81.4961 99.3233 81.4261" fill="white"/>
<path id="Vector_27" d="M70.8267 78.7275C70.6867 78.8174 70.5568 78.8874 70.4868 79.1872L69.5473 83.4153C69.5073 83.5752 69.4873 83.7351 69.4773 83.875C69.4073 84.8246 69.8671 85.3244 70.7767 85.3244C71.6863 85.3244 72.326 84.8146 72.6658 83.895C72.7058 83.7451 72.7458 83.6052 72.7858 83.4552C72.7858 83.4552 72.7858 83.4352 72.7858 83.4252L73.9752 78.0078C74.1351 77.2382 71.1265 78.5276 70.8167 78.7375M69.1175 87.9831C68.2679 88.0531 66.2688 88.153 65.0294 87.7332C63.1803 87.1835 62.5606 85.6742 63.1003 83.1254L63.9599 79.2572C64.0399 78.8974 64.1698 78.8274 64.3197 78.7375C64.6296 78.5276 67.6482 77.2382 67.4783 78.0078L66.2888 83.4252C66.2588 83.5852 66.2288 83.7451 66.2188 83.885C65.949 85.9641 66.6087 87.2335 68.2379 87.7332C68.2579 87.7332 68.2879 87.7432 68.3079 87.7532C68.3778 87.7732 68.4378 87.7932 68.5078 87.8032C68.6577 87.8432 68.8576 87.8732 69.0775 87.9131C69.2074 87.9331 69.2274 87.9831 69.1075 87.9931" fill="white"/>
<path id="Vector_28" d="M47.7375 84.6847C47.7375 85.0645 47.8075 85.4143 47.9374 85.7442C48.0674 86.074 48.2573 86.3639 48.4772 86.6137C48.7071 86.8636 48.9769 87.0535 49.2768 87.2035C49.5767 87.3534 49.8965 87.4234 50.2364 87.4234C50.5762 87.4234 50.896 87.3534 51.1959 87.2035C51.4958 87.0535 51.7656 86.8636 51.9855 86.6137C52.2154 86.3639 52.3853 86.074 52.5253 85.7442C52.6552 85.4143 52.7252 85.0545 52.7252 84.6847C52.7252 84.3148 52.6552 83.955 52.5253 83.6252C52.3953 83.2953 52.2154 82.9954 51.9855 82.7556C51.7556 82.5057 51.4958 82.3158 51.1959 82.1658C50.896 82.0159 50.5762 81.9459 50.2364 81.9459C49.8965 81.9459 49.5767 82.0159 49.2768 82.1658C48.9769 82.3158 48.7071 82.5057 48.4772 82.7556C48.2473 83.0054 48.0674 83.2953 47.9374 83.6252C47.8075 83.955 47.7375 84.3148 47.7375 84.6847ZM46.9879 87.7732V78.0778C46.9879 77.9978 47.0079 77.9378 47.0379 77.8879C47.0678 77.8479 47.1378 77.8279 47.2378 77.8279H47.5276C47.6276 77.8279 47.6976 77.8479 47.7275 77.8879C47.7575 77.9278 47.7775 77.9878 47.7775 78.0778V82.7556C47.9874 82.3158 48.3073 81.936 48.7171 81.6261C49.1369 81.3162 49.6566 81.1563 50.2963 81.1563C50.7461 81.1563 51.1659 81.2463 51.5657 81.4362C51.9555 81.6161 52.3054 81.866 52.5952 82.1858C52.8851 82.5057 53.115 82.8755 53.2849 83.3053C53.4548 83.7351 53.5448 84.1949 53.5448 84.6847C53.5448 85.1744 53.4548 85.6242 53.2849 86.054C53.115 86.4838 52.8851 86.8536 52.5952 87.1735C52.3054 87.4933 51.9655 87.7432 51.5657 87.9231C51.1659 88.103 50.7461 88.203 50.2963 88.203C49.8965 88.203 49.5467 88.153 49.2568 88.0631C48.967 87.9631 48.7271 87.8532 48.5272 87.7132C48.3273 87.5733 48.1673 87.4334 48.0474 87.2834C47.9274 87.1335 47.8375 87.0136 47.7675 86.9136V87.7832C47.7675 87.9631 47.6776 88.0631 47.5076 88.0631H47.2378C47.1378 88.0631 47.0678 88.0431 47.0379 87.9931C47.0079 87.9431 46.9879 87.8831 46.9879 87.7832" fill="white"/>
<path id="Vector_29" d="M59.6919 81.566L55.9237 90.5118C55.8837 90.5818 55.8537 90.6318 55.8237 90.6618C55.7937 90.6918 55.7438 90.7017 55.6638 90.7017H55.264C55.204 90.7017 55.1441 90.6818 55.1041 90.6418C55.0541 90.6018 55.0541 90.5318 55.1041 90.4319L56.1936 87.8531L53.5748 81.576C53.5548 81.5261 53.5548 81.4661 53.5748 81.4061C53.5948 81.3462 53.6448 81.3162 53.7447 81.3162H54.1145C54.1945 81.3162 54.2545 81.3262 54.2845 81.3462C54.3144 81.3661 54.3444 81.3961 54.3544 81.4361L56.6533 86.9135L58.8523 81.5061C58.9023 81.3761 58.9723 81.3162 59.0722 81.3162H59.542C59.6419 81.3162 59.7019 81.3461 59.7119 81.3961C59.7219 81.4461 59.7119 81.5061 59.6919 81.566Z" fill="white"/>
</g>
<defs>
<clipPath id="clip0_36056_8583">
<rect width="170" height="89.9077" fill="white" transform="translate(0 0.904053)"/>
</clipPath>
</defs>
</svg>
