<svg width="121" height="66" viewBox="0 0 121 66" fill="none" xmlns="http://www.w3.org/2000/svg">
<g id="MFS Logo" clip-path="url(#clip0_38672_15552)">
<path id="Vector" d="M19.0841 7.61844C19.0841 7.61844 18.7525 8.69054 16.3819 9.76263C14.9425 10.413 13.3621 10.5703 9.8414 11.2707C7.11092 11.8139 5.84093 11.9712 4.40866 11.6281C2.17912 11.0992 2.77178 10.5846 3.308 10.0128C4.09822 9.16941 6.67348 7.71136 9.24874 7.00377C11.4007 6.41055 14.6462 6.16039 15.9232 6.4034C17.1932 6.64641 17.1932 6.74647 17.3485 6.82509C17.4966 6.89656 19.5568 7.07525 19.0912 7.61844M20.601 6.36766C19.705 5.81732 18.7525 5.67438 18.3362 5.63864C18.1669 5.44566 17.8282 5.18121 17.2003 5.05256C16.8475 4.98109 16.3607 4.88102 13.9406 4.83099C13.7431 4.83099 13.5385 4.83099 13.3198 4.83099C10.3917 4.83099 7.96463 5.24554 6.12315 6.07462C4.41572 6.83939 1.76285 8.81919 0.775077 10.07C0.450524 10.4774 0.478746 10.8419 0.556357 11.0777C0.704522 11.5209 1.21252 12.1713 3.85833 12.7931C4.58505 12.9646 5.28354 13.0432 5.99615 13.0432C7.01214 13.0432 7.87291 12.8789 8.71957 12.7145L9.10057 12.643C9.80612 12.5072 10.5187 12.4572 11.2102 12.4143C11.9087 12.3714 12.6354 12.3214 13.3621 12.1784L14.0112 12.0569C15.387 11.8068 17.1015 11.4923 18.4914 10.6632C20.1565 9.67687 20.7915 7.69706 20.8268 7.58985C20.9326 7.33255 21.1866 6.73218 20.6081 6.38196" fill="#FFAF85"/>
<path id="Vector_2" d="M40.1026 1.90777C39.0795 1.25022 37.492 0.857117 35.8481 0.857117C34.9662 0.857117 34.0913 0.971474 33.2587 1.18589C30.5424 1.90062 26.676 4.04481 24.7428 5.30274C22.8519 6.53922 22.7249 6.81082 22.7531 7.02524C22.7672 7.1396 22.8519 7.21822 23 7.2611C23.1341 7.29684 23.2399 7.32543 23.3175 7.33972C23.3175 7.59702 23.374 8.12593 23.7409 8.58335C24.0866 9.01219 24.6158 9.26949 25.3213 9.33382C25.533 9.35526 25.7517 9.36241 25.9634 9.36241C27.0922 9.36241 28.0659 9.08366 29.1948 8.76204C29.7169 8.61194 30.2672 8.4547 30.874 8.31176C31.2197 8.23314 31.6571 8.13307 32.1581 8.02586C34.8886 7.43264 39.016 6.53208 40.1731 5.46713C40.921 4.76669 41.2738 4.0877 41.2174 3.44444C41.168 2.86551 40.794 2.34376 40.1026 1.90062" fill="#767474"/>
<path id="Vector_3" d="M22.0829 9.24803C22.0829 9.24803 20.8764 10.8061 21.2433 13.372C21.6031 15.9451 22.0829 15.0588 22.0264 16.6812C21.9629 18.3037 21.9135 20.698 22.6191 23.2139C22.8943 24.2002 23.4587 25.2508 23.6845 26.18C23.7974 26.666 24.3477 29.7822 24.3406 26.666C24.3406 25.2508 24.4253 24.1287 24.2277 22.0346C23.8609 18.0607 22.9225 17.5246 22.7884 16.3453C22.6896 15.4733 23.1765 15.3018 22.993 13.129C22.8872 11.9068 22.3439 10.8204 22.2875 10.2344C22.2381 9.67686 22.2734 9.10508 22.0829 9.24088" fill="#767474"/>
<path id="Vector_4" d="M47.6167 18.3823V25.837H48.9784V18.0678C48.9784 16.1881 47.7719 14.1654 45.1191 14.1654C43.6938 14.1654 42.3886 15.0088 41.6548 16.3525C41.0621 14.9659 39.7921 14.1654 38.1412 14.1654C36.8359 14.1654 35.6858 14.8301 34.9591 15.9451L34.8956 14.387H33.668V25.837H35.0297V19.0113C35.0297 17.3602 36.3491 15.4448 38.0424 15.4448C39.7357 15.4448 40.6388 16.5455 40.6388 18.3823V25.837H42.0005V19.0113C42.0005 17.3602 43.3199 15.4448 45.0203 15.4448C46.7207 15.4448 47.6167 16.5455 47.6167 18.3823Z" fill="#767474"/>
<path id="Vector_5" d="M51.7097 29.6107L51.4345 29.7179L52.0201 30.8615L52.2389 30.7757C54.3132 29.9538 55.6537 28.4815 56.8814 25.6726L61.4675 14.387H59.9576L56.1899 24.043L52.5775 14.5514L52.514 14.3798H50.9336L55.4138 25.5582C54.9552 27.0734 53.6429 28.8888 51.7026 29.6107" fill="#767474"/>
<path id="Vector_6" d="M47.6167 18.3823V25.837H48.9784V18.0678C48.9784 16.1881 47.7719 14.1654 45.1191 14.1654C43.6938 14.1654 42.3886 15.0088 41.6548 16.3525C41.0621 14.9659 39.7921 14.1654 38.1412 14.1654C36.8359 14.1654 35.6858 14.8301 34.9591 15.9451L34.8956 14.387H33.668V25.837H35.0297V19.0113C35.0297 17.3602 36.3491 15.4448 38.0424 15.4448C39.7357 15.4448 40.6388 16.5455 40.6388 18.3823V25.837H42.0005V19.0113C42.0005 17.3602 43.3199 15.4448 45.0203 15.4448C46.7207 15.4448 47.6167 16.5455 47.6167 18.3823Z" fill="#767474"/>
<path id="Vector_7" d="M51.7097 29.6107L51.4345 29.7179L52.0201 30.8615L52.2389 30.7757C54.3132 29.9538 55.6537 28.4815 56.8814 25.6726L61.4675 14.387H59.9576L56.1899 24.043L52.5775 14.5514L52.514 14.3798H50.9336L55.4138 25.5582C54.9552 27.0734 53.6429 28.8888 51.7026 29.6107" fill="#767474"/>
<path id="Vector_8" d="M35.5237 34.571C35.5237 31.176 37.986 30.2683 39.4395 30.2683C40.1168 30.2683 40.6812 30.3683 41.027 30.5613L41.3656 30.7472L41.4997 29.5035L41.3656 29.4178C40.8223 29.0675 39.8699 29.0318 39.4889 29.0318C37.0335 29.0318 34.169 30.5399 34.169 34.7782V35.3643H32.5039V36.5293H34.169V46.7142H35.5237V36.5293H40.3214V46.7142H41.6831V35.3572H35.5237V34.5567V34.571Z" fill="#767474"/>
<path id="Vector_9" d="M49.4863 35.0498C48.5056 35.0498 47.5813 35.6287 47.038 36.5079L46.9816 35.2857H45.7539V46.7285H47.1156V40.1601C47.1156 38.2947 47.8988 36.3149 49.3381 36.3149C49.6627 36.3149 49.832 36.3578 49.9096 36.3935L50.213 36.515L50.3894 35.2642L50.2341 35.1785C50.0295 35.0712 49.6415 35.057 49.4863 35.057" fill="#767474"/>
<path id="Vector_10" d="M55.8651 40.5032C54.2282 39.8742 53.5509 39.4168 53.5509 38.2375C53.5509 37.1654 54.574 36.2863 55.8228 36.2863C56.6412 36.2863 57.4385 36.5079 58.0664 36.9153L58.4263 37.144L58.5462 35.7502L58.4122 35.6645C57.8054 35.2785 56.8741 35.0498 55.9145 35.0498C53.6991 35.0498 52.161 36.4078 52.161 38.3519C52.161 40.2959 53.5297 41.0178 55.0043 41.5896C56.7964 42.2757 57.3679 42.8046 57.3679 43.7695C57.3679 44.8631 56.2108 45.7207 54.7221 45.7207C53.8614 45.7207 52.9724 45.4992 52.1539 45.0775L51.8223 44.9059L51.6953 46.2425L51.8435 46.3283C52.5279 46.7142 53.6215 46.9644 54.701 46.9644C57.0646 46.9644 58.779 45.5563 58.779 43.6123C58.779 41.8612 57.2198 41.0321 55.8581 40.5103" fill="#767474"/>
<path id="Vector_11" d="M66.9977 45.492C66.6661 45.6636 66.3274 45.735 65.8265 45.735C64.8599 45.735 64.3237 45.1061 64.3237 43.9696V36.5579H67.2729V35.3643H64.3237V32.3696H62.9619V35.3643H61.0781V36.5579H62.9619V44.084C62.9619 45.878 63.9779 46.9501 65.6783 46.9501C66.3345 46.9501 66.9271 46.8286 67.294 46.6141L67.4351 46.5355L67.3505 45.3062L67.0047 45.492H66.9977Z" fill="#767474"/>
<path id="Vector_12" d="M78.5206 40.5032C76.8908 39.8742 76.2064 39.4168 76.2064 38.2375C76.2064 37.1654 77.2294 36.2863 78.4783 36.2863C79.2967 36.2863 80.094 36.5079 80.7219 36.9153L81.0747 37.144L81.2017 35.7502L81.0676 35.6645C80.4609 35.2785 79.5295 35.0498 78.57 35.0498C76.3546 35.0498 74.8094 36.4078 74.8094 38.3519C74.8094 40.2959 76.1782 41.0178 77.6528 41.5896C79.4449 42.2757 80.0164 42.8046 80.0164 43.7695C80.0164 44.8631 78.8522 45.7207 77.3706 45.7207C76.5098 45.7207 75.6208 45.4992 74.8094 45.0775L74.4707 44.9059L74.3438 46.2425L74.4919 46.3283C75.1763 46.7142 76.2699 46.9644 77.3494 46.9644C79.713 46.9644 81.4275 45.5563 81.4275 43.6123C81.4275 41.8612 79.8682 41.0321 78.5065 40.5103" fill="#767474"/>
<path id="Vector_13" d="M99.1435 45.7207C96.8716 45.7207 95.4111 43.8696 95.4111 41.0035C95.4111 38.1374 96.8786 36.2863 99.1435 36.2863C101.408 36.2863 102.883 38.1374 102.883 41.0035C102.883 43.8696 101.415 45.7207 99.1435 45.7207ZM99.1435 35.0498C96.0673 35.0498 94 37.4442 94 41.0035C94 44.5629 96.0673 46.9572 99.1435 46.9572C102.22 46.9572 104.294 44.5629 104.294 41.0035C104.294 37.4442 102.227 35.0498 99.1435 35.0498Z" fill="#767474"/>
<path id="Vector_14" d="M111.356 45.7207C109.084 45.7207 107.616 43.8696 107.616 41.0035C107.616 38.1374 109.084 36.2863 111.356 36.2863C113.627 36.2863 115.095 38.1374 115.095 41.0035C115.095 43.8696 113.627 45.7207 111.356 45.7207ZM111.356 35.0498C108.279 35.0498 106.205 37.4442 106.205 41.0035C106.205 44.5629 108.272 46.9572 111.356 46.9572C114.439 46.9572 116.506 44.5629 116.506 41.0035C116.506 37.4442 114.432 35.0498 111.356 35.0498Z" fill="#767474"/>
<path id="Vector_15" d="M93.0891 35.2356H91.2758L85.8148 40.6533V29.5535H84.4531V46.7213H85.8148V42.2185L86.1958 41.8469L91.0853 46.6499L91.1559 46.7213H93.1667L87.2401 40.9749L93.0891 35.2356Z" fill="#767474"/>
<path id="Vector_16" d="M120.5 29.5535H119.139V46.7213H120.5V29.5535Z" fill="#767474"/>
<path id="Vector_17" d="M74.9639 62.081C75.1544 62.081 75.3237 62.0452 75.4719 61.9952C75.613 61.9452 75.7612 61.8808 75.9164 61.8094C75.9799 61.7736 76.0293 61.7593 76.0504 61.7593C76.0928 61.7593 76.1422 61.7951 76.1986 61.8665L76.6149 62.4741C76.6431 62.5241 76.6572 62.5598 76.6572 62.5813C76.6572 62.6384 76.636 62.6885 76.6008 62.7171C76.5584 62.7528 76.5232 62.7814 76.4949 62.8028C76.2833 62.9458 76.0504 63.0673 75.7964 63.1602C75.5424 63.2531 75.2743 63.3031 74.9992 63.3031C74.6534 63.3031 74.3359 63.2388 74.0326 63.103C73.7292 62.9744 73.4681 62.7957 73.2423 62.567C73.0166 62.3383 72.8402 62.0738 72.7061 61.7665C72.5721 61.4591 72.5156 61.1375 72.5156 60.7873C72.5156 60.4371 72.5791 60.1083 72.7061 59.801C72.8331 59.4936 73.0166 59.222 73.2423 58.9933C73.4681 58.7646 73.7362 58.5859 74.0326 58.4501C74.3359 58.3215 74.6534 58.25 74.9992 58.25C75.2673 58.25 75.5142 58.2929 75.7471 58.3787C75.9799 58.4644 76.2127 58.5859 76.4455 58.736H76.4385C76.4879 58.7718 76.5302 58.8075 76.5655 58.8432C76.6008 58.8861 76.6149 58.929 76.6149 58.979C76.6149 58.9933 76.6149 59.0076 76.6149 59.0291C76.6149 59.0505 76.6008 59.0719 76.5867 59.0862L76.2057 59.7438C76.2057 59.7438 76.1704 59.7938 76.1422 59.8153C76.1139 59.8367 76.0857 59.8438 76.0504 59.8438C76.0222 59.8438 75.9728 59.8224 75.8952 59.7724C75.7823 59.6795 75.6483 59.608 75.486 59.5508C75.3237 59.4936 75.1685 59.465 75.0133 59.465C74.8298 59.465 74.6605 59.5008 74.5053 59.5722C74.3501 59.6437 74.216 59.7438 74.1031 59.8653C73.9902 59.9868 73.8985 60.1297 73.835 60.287C73.7715 60.4514 73.7362 60.6158 73.7362 60.7944C73.7362 61.1661 73.8562 61.4734 74.089 61.7093C74.3218 61.9452 74.6182 62.0595 74.9709 62.0595" fill="#5A5A5C"/>
<path id="Vector_18" d="M78.209 60.8016C78.209 60.9874 78.2372 61.1589 78.2937 61.3162C78.3501 61.4734 78.4277 61.6092 78.5336 61.7307C78.6394 61.8522 78.7593 61.938 78.9004 62.0095C79.0416 62.0738 79.2038 62.1095 79.3732 62.1095C79.733 62.1095 80.0223 61.988 80.2339 61.7379C80.4456 61.4877 80.5514 61.1875 80.5514 60.8159C80.5514 60.6372 80.5232 60.4728 80.4738 60.3084C80.4244 60.144 80.3468 60.0082 80.241 59.8867C80.1352 59.7652 80.0152 59.6723 79.8741 59.6008C79.733 59.5293 79.5637 59.5008 79.3802 59.5008C79.2038 59.5008 79.0416 59.5365 78.9004 59.6008C78.7523 59.6723 78.6323 59.7652 78.5336 59.8867C78.4348 60.0082 78.3572 60.144 78.3007 60.3084C78.2443 60.4656 78.2161 60.63 78.2161 60.8087M80.629 62.9243C80.6149 62.86 80.6079 62.8028 80.6008 62.7599C80.5938 62.717 80.5867 62.6599 80.5726 62.5955C80.5162 62.6813 80.4527 62.7671 80.3821 62.8528C80.3115 62.9386 80.2269 63.0101 80.1281 63.0744C80.0293 63.1387 79.9164 63.1888 79.7894 63.2245C79.6624 63.2674 79.5072 63.2817 79.3238 63.2817H79.3026C78.9569 63.2817 78.6464 63.2174 78.3572 63.0887C78.0679 62.9601 77.821 62.7814 77.6163 62.5598C77.4117 62.3311 77.2495 62.0666 77.1295 61.7665C77.0096 61.4663 76.9531 61.1375 76.9531 60.7801C76.9531 60.4228 77.0096 60.094 77.1225 59.7938C77.2353 59.4865 77.3976 59.222 77.6022 59.0004C77.8068 58.7789 78.0608 58.6002 78.3431 58.4715C78.6323 58.3429 78.9498 58.2786 79.3026 58.2786C79.6554 58.2786 79.9164 58.35 80.1069 58.4858C80.2974 58.6216 80.4668 58.786 80.6149 58.979L80.7137 58.6073C80.7419 58.493 80.7702 58.4215 80.7984 58.3858C80.8337 58.35 80.8901 58.3286 80.9818 58.3286L81.5251 58.35C81.5956 58.35 81.6592 58.3715 81.7156 58.4215C81.772 58.4715 81.8003 58.5359 81.8003 58.6145V62.9386C81.8003 63.0172 81.772 63.0816 81.7156 63.1173C81.6592 63.1602 81.5956 63.1816 81.5251 63.1816H80.9042C80.8054 63.1816 80.7419 63.153 80.7067 63.1101C80.6714 63.0601 80.6432 62.9958 80.6361 62.9172" fill="#5A5A5C"/>
<path id="Vector_19" d="M82.922 58.3572H83.564C83.6205 58.3572 83.6699 58.3786 83.7122 58.4287C83.7475 58.4787 83.7827 58.5287 83.811 58.593C83.8392 58.6574 83.8603 58.7217 83.8745 58.7932C83.8886 58.8646 83.9027 58.929 83.9097 58.9861C84.0438 58.8218 84.2272 58.6717 84.446 58.5287C84.6647 58.3858 84.9328 58.3143 85.2432 58.3143C85.5748 58.3143 85.8641 58.3858 86.1111 58.5359C86.358 58.686 86.5414 58.8646 86.6755 59.0719C86.8307 58.8432 87.0424 58.6574 87.3105 58.5073C87.5786 58.3572 87.8608 58.2857 88.1501 58.2857C88.4817 58.2857 88.7569 58.3357 88.9897 58.4429C89.2225 58.5502 89.413 58.6931 89.5612 58.8789C89.7164 59.0648 89.8293 59.2792 89.8999 59.5293C89.9775 59.7723 90.0128 60.0439 90.0198 60.3298V62.9458C90.0198 63.0387 89.9916 63.0958 89.9351 63.1316C89.8787 63.1673 89.8081 63.1816 89.7235 63.1816H88.9827C88.8768 63.1816 88.7992 63.1673 88.7498 63.1387C88.7004 63.1101 88.6722 63.0458 88.6722 62.9529V60.4513C88.6722 60.2012 88.6158 59.9939 88.5099 59.8224C88.4041 59.6508 88.2348 59.5651 88.0019 59.5651C87.889 59.5651 87.7762 59.5865 87.6703 59.6365C87.5574 59.6794 87.4516 59.7438 87.3599 59.8224C87.2682 59.901 87.1906 59.9939 87.1341 60.1011C87.0777 60.2083 87.0494 60.3227 87.0494 60.4442V62.9458C87.0494 63.0387 87.0212 63.0958 86.9718 63.1316C86.9224 63.1673 86.8519 63.1816 86.7602 63.1816H85.9629C85.8641 63.1816 85.7936 63.1673 85.7512 63.1387C85.7089 63.1101 85.6877 63.0458 85.6877 62.9529V60.4013C85.6877 60.1297 85.6242 59.9224 85.4902 59.7795C85.3561 59.6365 85.1727 59.5651 84.9398 59.5651C84.827 59.5651 84.7211 59.5865 84.6082 59.6294C84.4953 59.6723 84.3966 59.7295 84.3119 59.8081C84.2272 59.8867 84.1496 59.9796 84.1002 60.0868C84.0438 60.194 84.0156 60.3012 84.0156 60.4227V62.9743C84.0156 63.1101 83.938 63.1816 83.7757 63.1816H82.9431C82.7597 63.1816 82.668 63.1101 82.668 62.9672V58.6574C82.668 58.5645 82.6962 58.493 82.7526 58.4358C82.8091 58.3786 82.8726 58.35 82.929 58.35" fill="#5A5A5C"/>
<path id="Vector_20" d="M91.9894 60.7086C91.9894 60.8873 92.0176 61.0517 92.074 61.2018C92.1305 61.3519 92.2081 61.4805 92.3139 61.5949C92.4127 61.7092 92.5327 61.795 92.6667 61.8593C92.8008 61.9237 92.9419 61.9594 93.0971 61.9594C93.2523 61.9594 93.3864 61.9237 93.5134 61.8593C93.6404 61.795 93.7533 61.7092 93.852 61.5949C93.9508 61.4805 94.0284 61.3519 94.0849 61.2089C94.1413 61.0588 94.1695 60.9016 94.1695 60.7301C94.1695 60.5585 94.1413 60.4013 94.0849 60.2512C94.0284 60.1011 93.9508 59.9724 93.852 59.8652C93.7533 59.7509 93.6404 59.6651 93.5134 59.6079C93.3864 59.5436 93.2453 59.515 93.0971 59.515C92.9489 59.515 92.8078 59.5436 92.6738 59.6079C92.5397 59.6723 92.4268 59.758 92.328 59.8652C92.2293 59.9724 92.1446 60.1011 92.0811 60.2512C92.0176 60.4013 91.9894 60.5585 91.9894 60.7158M90.7758 64.8541V58.643C90.7758 58.4644 90.8675 58.3714 91.051 58.3572H91.5237C91.6295 58.3572 91.7142 58.3643 91.7918 58.3857C91.8694 58.4072 91.9188 58.4787 91.9541 58.6002L92.0105 58.9146C92.1728 58.7074 92.3492 58.543 92.5468 58.4215C92.7443 58.3 92.9913 58.2428 93.2805 58.2428C93.6051 58.2428 93.9014 58.3071 94.1766 58.4429C94.4517 58.5716 94.6916 58.7503 94.8892 58.9718C95.0938 59.1934 95.249 59.4578 95.3619 59.758C95.4818 60.0582 95.5383 60.387 95.5383 60.7301C95.5383 61.0731 95.4819 61.4019 95.369 61.7021C95.2561 62.0023 95.0938 62.2667 94.8892 62.4954C94.6846 62.7242 94.4447 62.9028 94.1625 63.0243C93.8873 63.153 93.5769 63.2173 93.2523 63.2173C93.0054 63.2173 92.7866 63.1673 92.5961 63.0672C92.4056 62.9672 92.2434 62.8528 92.1164 62.7099V64.8326C92.1164 64.9184 92.0882 64.9899 92.0388 65.047C91.9894 65.1042 91.9118 65.1328 91.813 65.1328H91.0722C90.9875 65.1328 90.9169 65.1042 90.8534 65.0542C90.7899 65.0041 90.7617 64.9327 90.7617 64.8398" fill="#5A5A5C"/>
<path id="Vector_21" d="M99.8417 63.1888C99.7429 63.1888 99.6723 63.1745 99.6159 63.1459C99.5665 63.1173 99.5242 63.0744 99.4959 63.0244C99.4677 62.9743 99.4466 62.91 99.4324 62.8385C99.4183 62.7671 99.3972 62.6884 99.383 62.6027C99.2349 62.7742 99.0232 62.9243 98.7481 63.053C98.4729 63.1816 98.1766 63.2531 97.8591 63.2531C97.5627 63.2531 97.2946 63.2031 97.0688 63.1101C96.836 63.0172 96.6455 62.8814 96.4903 62.7027C96.3351 62.5312 96.2151 62.3239 96.1375 62.0881C96.0599 61.8522 96.0176 61.5949 96.0176 61.309V58.6502C96.0176 58.5573 96.0458 58.4858 96.1022 58.4358C96.1587 58.3858 96.2222 58.3572 96.2998 58.3572H97.0971C97.2029 58.3572 97.2735 58.3786 97.3087 58.4287C97.3511 58.4787 97.3652 58.5502 97.3652 58.6431V61.0874C97.3652 61.359 97.4428 61.5735 97.591 61.7307C97.7391 61.8879 97.9437 61.9666 98.1977 61.9666C98.3036 61.9666 98.4164 61.9451 98.5505 61.9022C98.6775 61.8594 98.7974 61.8022 98.9103 61.7307C99.0232 61.6592 99.1149 61.5663 99.1926 61.4663C99.2702 61.3591 99.3125 61.2447 99.3125 61.1232V58.6431C99.3125 58.4572 99.4042 58.3643 99.5947 58.3643H100.385C100.477 58.3643 100.547 58.3929 100.597 58.4429C100.646 58.493 100.667 58.5573 100.667 58.6359V62.8957C100.667 63.0958 100.568 63.1888 100.364 63.1888H99.8417Z" fill="#5A5A5C"/>
<path id="Vector_22" d="M101.238 62.3525C101.238 62.3525 101.217 62.3025 101.217 62.2525C101.217 62.231 101.217 62.2096 101.224 62.181C101.224 62.1524 101.252 62.131 101.28 62.1095L101.873 61.6307C101.873 61.6307 101.929 61.5806 101.979 61.5806C102.021 61.5806 102.071 61.6021 102.134 61.6521C102.254 61.7593 102.395 61.8737 102.55 61.9952C102.706 62.1167 102.882 62.181 103.087 62.181C103.305 62.181 103.46 62.131 103.538 62.0381C103.616 61.9451 103.658 61.8308 103.658 61.7093C103.658 61.6378 103.63 61.5735 103.573 61.5163C103.517 61.4591 103.446 61.4091 103.369 61.3662C103.291 61.3233 103.214 61.2805 103.129 61.2519C103.051 61.2233 102.981 61.2018 102.931 61.1875C102.36 61.0374 101.951 60.8445 101.704 60.6015C101.457 60.3584 101.33 60.0511 101.33 59.658C101.33 59.465 101.372 59.2864 101.464 59.122C101.548 58.9576 101.675 58.8075 101.831 58.6788C101.993 58.5502 102.183 58.4501 102.402 58.3715C102.628 58.2929 102.875 58.2571 103.143 58.2571C103.467 58.2571 103.757 58.3143 104.018 58.4215C104.279 58.5287 104.505 58.6717 104.695 58.8504C104.808 58.9647 104.872 59.0648 104.872 59.1434C104.872 59.172 104.836 59.222 104.766 59.2935C104.695 59.365 104.618 59.4364 104.526 59.5079C104.441 59.5794 104.356 59.6437 104.272 59.7009C104.187 59.7581 104.138 59.7867 104.11 59.7867C104.06 59.7867 104.004 59.7581 103.947 59.7009C103.856 59.6223 103.75 59.5437 103.63 59.4722C103.51 59.3936 103.355 59.3578 103.164 59.3578C103.037 59.3578 102.924 59.3793 102.818 59.4293C102.713 59.4722 102.656 59.558 102.656 59.6866C102.656 59.8081 102.727 59.901 102.854 59.9653C102.988 60.0368 103.171 60.1083 103.404 60.1798C103.651 60.2655 103.877 60.3584 104.081 60.4514C104.286 60.5443 104.462 60.6586 104.603 60.7801C104.745 60.9016 104.857 61.0446 104.935 61.209C105.013 61.3662 105.055 61.5592 105.055 61.7736C105.055 62.0238 104.999 62.2453 104.893 62.4383C104.787 62.6313 104.639 62.7957 104.462 62.9243C104.279 63.053 104.074 63.153 103.834 63.2174C103.602 63.2817 103.355 63.3174 103.101 63.3174C102.755 63.3174 102.437 63.2531 102.141 63.1316C101.845 63.0101 101.591 62.8314 101.386 62.6027C101.316 62.5169 101.266 62.4383 101.238 62.3668" fill="#5A5A5C"/>
<path id="Vector_23" d="M57.9741 56.9206C57.9741 56.7133 58.0447 56.5346 58.1929 56.3845C58.341 56.2344 58.5174 56.163 58.722 56.163C58.9266 56.163 59.1171 56.2344 59.2582 56.3845C59.3994 56.5346 59.4699 56.7133 59.4699 56.9206C59.4699 57.1278 59.3994 57.3065 59.2582 57.4495C59.1171 57.5924 58.9407 57.6639 58.722 57.6639C58.5033 57.6639 58.341 57.5924 58.1929 57.4495C58.0447 57.3065 57.9741 57.1278 57.9741 56.9206ZM58.0941 62.9672V59.4221H56.3867V62.9457C56.3867 63.0244 56.3584 63.0887 56.309 63.1316C56.2597 63.1745 56.1962 63.1959 56.1327 63.1959H55.3636C55.293 63.1959 55.2296 63.1745 55.1872 63.1244C55.1378 63.0815 55.1167 63.0172 55.1167 62.9457V59.4221H54.7357C54.6581 59.4221 54.5946 59.4007 54.5452 59.3507C54.4958 59.3006 54.4746 59.2291 54.4746 59.1362V58.6216C54.4746 58.5287 54.4958 58.4644 54.5452 58.4215C54.5946 58.3786 54.6581 58.3572 54.7357 58.3572H55.1167V57.6496C55.1167 57.3637 55.159 57.1064 55.2507 56.8777C55.3424 56.649 55.4694 56.456 55.6317 56.2988C55.794 56.1415 55.9915 56.02 56.2173 55.9414C56.4431 55.8628 56.6971 55.8199 56.9723 55.8199C57.1557 55.8199 57.2474 55.9128 57.2474 56.0986V56.7848C57.2474 56.8562 57.2263 56.9206 57.191 56.9706C57.1557 57.0206 57.0993 57.0421 57.0287 57.0421C56.8453 57.0421 56.6971 57.0921 56.5772 57.185C56.4572 57.2851 56.3937 57.4352 56.3937 57.6424V58.3572H59.1454C59.3076 58.3572 59.3852 58.4358 59.3852 58.6002V62.96C59.3852 63.1101 59.3006 63.1888 59.1454 63.1888H58.341C58.1858 63.1888 58.1082 63.1101 58.1082 62.96" fill="#5A5A5C"/>
<path id="Vector_24" d="M61.375 58.6359C61.375 58.6359 61.3961 58.736 61.4244 58.8289C61.4526 58.9218 61.4667 58.9861 61.4737 59.0219C61.5302 58.9432 61.6008 58.8575 61.6854 58.7789C61.763 58.6931 61.8547 58.6145 61.9606 58.5501C62.0664 58.4787 62.1722 58.4215 62.2992 58.3786C62.4192 58.3357 62.5532 58.3071 62.6944 58.3071H62.7861C62.7861 58.3071 62.8425 58.3071 62.8778 58.3143C62.9695 58.3143 63.0753 58.3429 63.1882 58.3857C63.3082 58.4286 63.414 58.4787 63.5198 58.5358C63.6257 58.593 63.7103 58.6502 63.7809 58.7145C63.8515 58.7789 63.8867 58.836 63.8867 58.8861C63.8867 58.9218 63.8726 58.9718 63.8373 59.0219L63.4493 59.658C63.3928 59.7509 63.3223 59.7938 63.2447 59.7938C63.2165 59.7938 63.1812 59.7795 63.1247 59.758C63.0754 59.7366 63.0189 59.708 62.9625 59.6723C62.8707 59.6079 62.7931 59.5579 62.7226 59.5365C62.652 59.5079 62.5744 59.4936 62.4827 59.4936C62.3416 59.4936 62.2146 59.5222 62.1017 59.5794C61.9888 59.6365 61.89 59.708 61.8124 59.8009C61.7348 59.8938 61.6713 59.9939 61.629 60.1083C61.5866 60.2226 61.5655 60.337 61.5655 60.4442V62.9314C61.5655 63.0958 61.4808 63.1816 61.3044 63.1816H60.5001C60.3308 63.1816 60.2461 63.103 60.2461 62.9314V58.6216C60.2461 58.5358 60.2743 58.4715 60.3237 58.4286C60.3731 58.3858 60.4366 58.3643 60.5001 58.3643H61.121C61.1986 58.3643 61.255 58.3929 61.2903 58.4429C61.3256 58.493 61.3538 58.5573 61.375 58.6216" fill="#5A5A5C"/>
<path id="Vector_25" d="M63.943 62.3525C63.943 62.3525 63.9219 62.3025 63.9219 62.2525C63.9219 62.231 63.9219 62.2096 63.9289 62.181C63.9289 62.1524 63.9572 62.131 63.9854 62.1095L64.578 61.6307C64.578 61.6307 64.6345 61.5806 64.6839 61.5806C64.7262 61.5806 64.7756 61.6021 64.8391 61.6521C64.959 61.7593 65.1001 61.8737 65.2554 61.9952C65.4106 62.1167 65.587 62.181 65.7916 62.181C66.0103 62.181 66.1655 62.131 66.2431 62.0381C66.3207 61.9451 66.3631 61.8308 66.3631 61.7093C66.3631 61.6378 66.3349 61.5735 66.2784 61.5163C66.222 61.4591 66.1514 61.4091 66.0738 61.3662C65.9962 61.3233 65.9186 61.2805 65.8339 61.2519C65.7563 61.2233 65.6858 61.2018 65.6364 61.1875C65.0649 61.0374 64.6556 60.8445 64.4087 60.6015C64.1618 60.3584 64.0348 60.0511 64.0348 59.658C64.0348 59.465 64.0771 59.2864 64.1688 59.122C64.2535 58.9576 64.3805 58.8075 64.5357 58.6788C64.698 58.5502 64.8885 58.4501 65.1072 58.3715C65.333 58.2929 65.5799 58.2571 65.848 58.2571C66.1726 58.2571 66.4619 58.3143 66.7229 58.4215C66.984 58.5287 67.2097 58.6717 67.4002 58.8504C67.5131 58.9647 67.5766 59.0648 67.5766 59.1434C67.5766 59.172 67.5414 59.222 67.4708 59.2935C67.4002 59.365 67.3226 59.4364 67.2309 59.5079C67.1462 59.5794 67.0616 59.6437 66.9769 59.7009C66.8922 59.7581 66.8429 59.7867 66.8146 59.7867C66.7652 59.7867 66.7088 59.7581 66.6524 59.7009C66.5606 59.6223 66.4548 59.5437 66.3349 59.4722C66.2149 59.3936 66.0597 59.3578 65.8692 59.3578C65.7422 59.3578 65.6293 59.3793 65.5235 59.4293C65.4176 59.4722 65.3612 59.558 65.3612 59.6866C65.3612 59.8081 65.4318 59.901 65.5588 59.9653C65.6928 60.0368 65.8763 60.1083 66.1091 60.1798C66.356 60.2655 66.5818 60.3584 66.7864 60.4514C66.991 60.5443 67.1674 60.6586 67.3085 60.7801C67.4496 60.9016 67.5625 61.0446 67.6401 61.209C67.7177 61.3662 67.7601 61.5592 67.7601 61.7736C67.7601 62.0238 67.7036 62.2453 67.5978 62.4383C67.492 62.6313 67.3438 62.7957 67.1674 62.9243C66.984 63.053 66.7794 63.153 66.5395 63.2174C66.3066 63.2817 66.0597 63.3174 65.8057 63.3174C65.46 63.3174 65.1425 63.2531 64.8461 63.1316C64.5498 63.0101 64.2958 62.8314 64.0912 62.6027C64.0207 62.5169 63.9713 62.4383 63.943 62.3668" fill="#5A5A5C"/>
<path id="Vector_26" d="M70.6185 58.4358C70.5691 58.3858 70.5056 58.3644 70.428 58.3644H69.8424V56.9277C69.8424 56.842 69.8283 56.7705 69.793 56.7133C69.7577 56.6562 69.7013 56.6276 69.6095 56.6276C69.5743 56.6276 69.5531 56.6276 69.539 56.6347L68.8193 56.7419C68.6147 56.7634 68.5159 56.8563 68.5159 57.0278V58.3572H68.2549C68.0644 58.3572 67.9727 58.4501 67.9727 58.6431V59.1863C67.9727 59.3864 68.0644 59.4936 68.2549 59.4936H68.5159V61.6807C68.5159 61.938 68.5583 62.1596 68.65 62.3668C68.7417 62.567 68.8687 62.7385 69.031 62.8743C69.1933 63.0101 69.3838 63.1173 69.5954 63.1888C69.8071 63.2674 70.0399 63.3031 70.2939 63.3031C70.4632 63.3031 70.5479 63.2174 70.5479 63.0458V62.3811C70.5479 62.3097 70.5338 62.2525 70.4985 62.2096C70.4632 62.1667 70.4139 62.1453 70.3433 62.1453C70.1599 62.1453 70.0329 62.0953 69.9482 62.0023C69.8847 61.9237 69.8424 61.8165 69.8353 61.6736V59.4936H70.4209C70.4985 59.4936 70.562 59.4722 70.6114 59.4222C70.6608 59.3721 70.682 59.2935 70.682 59.1934V58.6503C70.682 58.5573 70.6608 58.4859 70.6114 58.4358" fill="#5A5A5C"/>
<path id="Vector_27" d="M50.4945 56.506C50.3957 56.5704 50.304 56.6204 50.2546 56.8348L49.5914 59.8581C49.5632 59.9725 49.5491 60.0868 49.542 60.1869C49.4926 60.8659 49.8172 61.2233 50.4592 61.2233C51.1013 61.2233 51.5528 60.8588 51.7927 60.2083C51.7927 60.2083 51.7927 60.2083 51.7927 60.2012C51.8209 60.1011 51.8492 59.9939 51.8774 59.8867C51.8774 59.8867 51.8774 59.8724 51.8774 59.8653L52.717 55.9914C52.8299 55.4411 50.7062 56.3631 50.4875 56.5132M49.288 63.1244C48.6883 63.1745 47.2772 63.246 46.4023 62.9458C45.097 62.5527 44.6596 61.4734 45.0406 59.6437L45.6474 56.8777C45.7038 56.6204 45.7955 56.5704 45.9014 56.506C46.1201 56.3559 48.2509 55.4339 48.1309 55.9843L47.2913 59.8581C47.2701 59.9725 47.249 60.0868 47.2419 60.1869C47.0514 61.6735 47.5171 62.5813 48.6671 62.9386C48.6812 62.9386 48.7024 62.9458 48.7165 62.9529C48.7659 62.9672 48.8082 62.9815 48.8576 62.9886C48.9635 63.0172 49.1046 63.0387 49.2598 63.0673C49.3515 63.0816 49.3656 63.1173 49.281 63.1244" fill="#5A5A5C"/>
<path id="Vector_28" d="M34.1971 60.7658C34.1971 61.0374 34.2465 61.2876 34.3382 61.5306C34.43 61.7665 34.564 61.9737 34.7192 62.1524C34.8815 62.3311 35.072 62.4669 35.2837 62.5741C35.4953 62.6813 35.7211 62.7314 35.961 62.7314C36.2009 62.7314 36.4267 62.6813 36.6383 62.5741C36.85 62.4669 37.0405 62.3311 37.1957 62.1524C37.358 61.9737 37.4779 61.7665 37.5767 61.5306C37.6684 61.2947 37.7178 61.0374 37.7178 60.7658C37.7178 60.4942 37.6684 60.2441 37.5767 60.0082C37.485 59.7652 37.358 59.558 37.1957 59.3864C37.0334 59.2077 36.85 59.0719 36.6383 58.9647C36.4267 58.8575 36.2009 58.8075 35.961 58.8075C35.7211 58.8075 35.4953 58.8575 35.2837 58.9647C35.072 59.0719 34.8815 59.2077 34.7192 59.3864C34.557 59.5651 34.43 59.7724 34.3382 60.0082C34.2465 60.2441 34.1971 60.5014 34.1971 60.7658ZM33.668 62.9744V56.0415C33.668 55.9843 33.6821 55.9414 33.7032 55.9057C33.7244 55.8771 33.7738 55.8628 33.8444 55.8628H34.049C34.1195 55.8628 34.1689 55.8771 34.1901 55.9057C34.2112 55.9343 34.2254 55.9771 34.2254 56.0415V59.3864C34.3735 59.0719 34.5993 58.8003 34.8886 58.5788C35.1849 58.3572 35.5518 58.2428 36.0033 58.2428C36.3208 58.2428 36.6172 58.3072 36.8994 58.443C37.1746 58.5716 37.4215 58.7503 37.6261 58.979C37.8307 59.2077 37.993 59.4722 38.1129 59.7795C38.2329 60.0869 38.2964 60.4156 38.2964 60.7658C38.2964 61.1161 38.2329 61.4377 38.1129 61.745C37.993 62.0524 37.8307 62.3168 37.6261 62.5455C37.4215 62.7742 37.1816 62.9529 36.8994 63.0816C36.6172 63.2102 36.3208 63.2746 36.0033 63.2746C35.7211 63.2746 35.4742 63.2388 35.2696 63.1745C35.065 63.103 34.8956 63.0244 34.7545 62.9243C34.6134 62.8243 34.5005 62.7242 34.4159 62.617C34.3312 62.5098 34.2677 62.424 34.2183 62.3525V62.9744C34.2183 63.103 34.1548 63.1745 34.0349 63.1745H33.8444C33.7738 63.1745 33.7244 63.1602 33.7032 63.1245C33.6821 63.0887 33.668 63.0458 33.668 62.9744Z" fill="#5A5A5C"/>
<path id="Vector_29" d="M42.6352 58.5359L39.9753 64.9327C39.947 64.9827 39.9259 65.0185 39.9047 65.0399C39.8835 65.0614 39.8483 65.0685 39.7918 65.0685H39.5096C39.4673 65.0685 39.4249 65.0542 39.3967 65.0256C39.3614 64.997 39.3614 64.947 39.3967 64.8755L40.1658 63.0315L38.3172 58.543C38.3031 58.5073 38.3031 58.4644 38.3172 58.4215C38.3313 58.3786 38.3666 58.3572 38.4372 58.3572H38.6982C38.7547 58.3572 38.797 58.3643 38.8182 58.3858C38.8393 58.4001 38.8605 58.4215 38.8676 58.4501L40.4903 62.3668L42.0425 58.5001C42.0778 58.4072 42.1272 58.3643 42.1978 58.3643H42.5294C42.5999 58.3643 42.6422 58.3858 42.6493 58.4215C42.6564 58.4572 42.6493 58.5001 42.6352 58.543" fill="#5A5A5C"/>
</g>
<defs>
<clipPath id="clip0_38672_15552">
<rect width="120" height="64.29" fill="white" transform="translate(0.5 0.857117)"/>
</clipPath>
</defs>
</svg>
